0
SECTION
2
HEADER
9
$INSUNITS
70
4
9
$ACADVER
1
AC1014
9
$HANDSEED
5
FFFF
0
ENDSEC
0
SECTION
2
TABLES
0
TABLE
2
VPORT
5
8
100
AcDbSymbolTable
0
ENDTAB
0
TABLE
2
LTYPE
5
5
100
AcDbSymbolTable
0
LTYPE
5
14
100
AcDbSymbolTableRecord
100
AcDbLinetypeTableRecord
2
BYBLOCK
70
0
0
LTYPE
5
15
100
AcDbSymbolTableRecord
100
AcDbLinetypeTableRecord
2
BYLAYER
70
0
0
ENDTAB
0
TABLE
2
LAYER
5
2
100
AcDbSymbolTable
70
2
0
LAYER
5
50
100
AcDbSymbolTableRecord
100
AcDbLayerTableRecord
2
0
70
0
6
CONTINUOUS
0
ENDTAB
0
TABLE
2
STYLE
5
3
100
AcDbSymbolTable
70
1
0
STYLE
5
11
100
AcDbSymbolTableRecord
100
AcDbTextStyleTableRecord
2
STANDARD
70
0
0
ENDTAB
0
TABLE
2
VIEW
5
6
100
AcDbSymbolTable
70
0
0
ENDTAB
0
TABLE
2
UCS
5
7
100
AcDbSymbolTable
70
0
0
ENDTAB
0
TABLE
2
APPID
5
9
100
AcDbSymbolTable
70
2
0
APPID
5
12
100
AcDbSymbolTableRecord
100
AcDbRegAppTableRecord
2
ACAD
70
0
0
ENDTAB
0
TABLE
2
DIMSTYLE
5
A
100
AcDbSymbolTable
70
1
0
ENDTAB
0
TABLE
2
BLOCK_RECORD
5
1
100
AcDbSymbolTable
70
1
0
BLOCK_RECORD
5
1F
100
AcDbSymbolTableRecord
100
AcDbBlockTableRecord
2
*MODEL_SPACE
0
BLOCK_RECORD
5
1B
100
AcDbSymbolTableRecord
100
AcDbBlockTableRecord
2
*PAPER_SPACE
0
ENDTAB
0
ENDSEC
0
SECTION
2
BLOCKS
0
BLOCK
5
20
100
AcDbEntity
100
AcDbBlockBegin
2
*MODEL_SPACE
0
ENDBLK
5
21
100
AcDbEntity
100
AcDbBlockEnd
0
BLOCK
5
1C
100
AcDbEntity
100
AcDbBlockBegin
2
*PAPER_SPACE
0
ENDBLK
5
1D
100
AcDbEntity
100
AcDbBlockEnd
0
ENDSEC
0
SECTION
2
ENTITIES
0
LWPOLYLINE
5
100
100
AcDbEntity
8
0
100
AcDbPolyline
90
22
70
1
43
0.0
10
111.16900000000001
20
54.093499999999999
10
126.76900000000001
20
54.093499999999999
10
126.76900000000001
20
49.47140000000001
10
127.012
20
49.715600000000002
10
127.71000000000001
20
50.071200000000005
10
128.483
20
50.19080000000001
10
129.255
20
50.071200000000005
10
129.952
20
49.715600000000002
10
130.21799999999999
20
49.4482
10
130.21799999999999
20
54.093499999999999
10
145.81899999999999
20
54.093499999999999
10
145.81899999999999
20
41.292999999999999
10
130.21799999999999
20
41.292999999999999
10
130.21799999999999
20
45.936999999999998
10
129.952
20
45.671000000000006
10
129.255
20
45.313999999999993
10
128.483
20
45.191499999999998
10
127.71000000000001
20
45.313999999999993
10
127.012
20
45.671000000000006
10
126.76900000000001
20
45.914700000000003
10
126.76900000000001
20
41.292999999999999
10
111.16900000000001
20
41.292999999999999
0
LWPOLYLINE
5
101
100
AcDbEntity
8
0
100
AcDbPolyline
90
4
70
1
43
0.0
10
29.846900000000005
20
43.820300000000003
10
27.180400000000002
20
43.820300000000003
10
27.180400000000002
20
38.6126
10
29.846900000000005
20
38.6126
0
LWPOLYLINE
5
102
100
AcDbEntity
8
0
100
AcDbPolyline
90
4
70
1
43
0.0
10
269.87599999999998
20
50.930900000000001
10
269.87599999999998
20
53.597499999999997
10
264.67000000000002
20
53.597499999999997
10
264.67000000000002
20
50.930900000000001
0
LWPOLYLINE
5
103
100
AcDbEntity
8
0
100
AcDbPolyline
90
20
70
1
43
0.0
10
25.482700000000005
20
69.592500000000001
10
26.254400000000004
20
69.471100000000007
10
26.951700000000002
20
69.115499999999997
10
27.5029
20
68.563100000000006
10
27.859800000000003
20
67.865600000000001
10
27.981100000000005
20
67.091300000000004
10
27.859800000000003
20
66.320800000000006
10
27.5029
20
65.623699999999999
10
26.951700000000002
20
65.070899999999995
10
26.254400000000004
20
64.715299999999999
10
25.482700000000005
20
64.591499999999996
10
24.708200000000001
20
64.715299999999999
10
24.0123
20
65.070899999999995
10
23.458300000000001
20
65.623699999999999
10
23.104200000000002
20
66.320800000000006
10
22.982900000000001
20
67.091300000000004
10
23.104200000000002
20
67.865600000000001
10
23.458300000000001
20
68.563100000000006
10
24.0123
20
69.115499999999997
10
24.708200000000001
20
69.471100000000007
0
LWPOLYLINE
5
104
100
AcDbEntity
8
0
100
AcDbPolyline
90
20
70
1
43
0.0
10
258.86200000000002
20
69.115499999999997
10
259.55900000000003
20
69.471100000000007
10
260.33199999999999
20
69.592500000000001
10
261.10400000000004
20
69.471100000000007
10
261.80099999999999
20
69.115499999999997
10
262.35400000000004
20
68.563100000000006
10
262.70799999999997
20
67.865600000000001
10
262.83199999999999
20
67.091300000000004
10
262.70799999999997
20
66.320800000000006
10
262.35400000000004
20
65.623699999999999
10
261.80099999999999
20
65.070899999999995
10
261.10400000000004
20
64.715299999999999
10
260.33199999999999
20
64.591499999999996
10
259.55900000000003
20
64.715299999999999
10
258.86200000000002
20
65.070899999999995
10
258.30900000000003
20
65.623699999999999
10
257.95400000000001
20
66.320800000000006
10
257.83099999999996
20
67.091300000000004
10
257.95400000000001
20
67.865600000000001
10
258.30900000000003
20
68.563100000000006
0
LWPOLYLINE
5
105
100
AcDbEntity
8
0
100
AcDbPolyline
90
6
70
1
43
0.0
10
267.34899999999999
20
30.367800000000003
10
267.34899999999999
20
45.968699999999998
10
280.14999999999998
20
45.968699999999998
10
280.14999999999998
20
40.164499999999997
10
280.14999999999998
20
36.821199999999997
10
280.14999999999998
20
30.367800000000003
0
LINE
5
106
100
AcDbEntity
8
0
100
AcDbLine
10
0.095084600000000019
20
40.992400000000011
30
0
11
0.095084600000000019
21
95.154799999999994
31
0
0
LWPOLYLINE
5
107
100
AcDbEntity
8
0
100
AcDbPolyline
90
20
70
1
43
0.0
10
188.75799999999998
20
11.262700000000001
10
189.31200000000001
20
11.813900000000002
10
190.00799999999998
20
12.170800000000002
10
190.78100000000001
20
12.292100000000001
10
191.554
20
12.170800000000002
10
192.25200000000001
20
11.813900000000002
10
192.804
20
11.262700000000001
10
193.16000000000003
20
10.564
10
193.28100000000001
20
9.7923299999999998
10
193.16000000000003
20
9.0192600000000009
10
192.804
20
8.3233699999999988
10
192.25200000000001
20
7.7693700000000003
10
191.554
20
7.415210000000001
10
190.78100000000001
20
7.2925899999999997
10
190.00799999999998
20
7.415210000000001
10
189.31200000000001
20
7.7693700000000003
10
188.75799999999998
20
8.3233699999999988
10
188.40400000000002
20
9.0192600000000009
10
188.28100000000001
20
9.7923299999999998
10
188.40400000000002
20
10.564
0
LINE
5
108
100
AcDbEntity
8
0
100
AcDbLine
10
0.095084600000000019
20
95.154799999999994
30
0
11
285.46899999999999
21
95.154799999999994
31
0
0
LINE
5
109
100
AcDbEntity
8
0
100
AcDbLine
10
285.46899999999999
20
0.22875500000000004
30
0
11
0.095084599999992747
21
0.22875500000000004
31
0
0
LINE
5
110
100
AcDbEntity
8
0
100
AcDbLine
10
285.46899999999999
20
35.992899999999999
30
0
11
285.46899999999999
21
0.22875500000000004
31
0
0
LINE
5
111
100
AcDbEntity
8
0
100
AcDbLine
10
0.095084599999992747
20
0.22875500000000004
30
0
11
0.095084600000000019
21
35.992899999999999
31
0
0
LWPOLYLINE
5
112
100
AcDbEntity
8
0
100
AcDbPolyline
90
4
70
1
43
0.0
10
5.9090300000000004
20
24.768799999999999
10
5.9090300000000004
20
19.564
10
8.5741600000000027
20
19.564
10
8.5741600000000027
20
24.768799999999999
0
LWPOLYLINE
5
113
100
AcDbEntity
8
0
100
AcDbPolyline
90
4
70
1
43
0.0
10
36.766100000000002
20
24.768799999999999
10
34.100900000000003
20
24.768799999999999
10
34.100900000000003
20
19.564
10
36.766100000000002
20
19.564
0
LINE
5
114
100
AcDbEntity
8
0
100
AcDbLine
10
285.46899999999999
20
95.154799999999994
30
0
11
285.46899999999999
21
40.992400000000011
31
0
0
LWPOLYLINE
5
115
100
AcDbEntity
8
0
100
AcDbPolyline
90
4
70
1
43
0.0
10
264.67000000000002
20
25.4055
10
264.67000000000002
20
22.739000000000004
10
269.87599999999998
20
22.739000000000004
10
269.87599999999998
20
25.4055
0
LWPOLYLINE
5
116
100
AcDbEntity
8
0
100
AcDbPolyline
90
4
70
1
43
0.0
10
1.1315999999999993
20
78.893000000000001
10
17.730999999999998
20
78.893000000000001
10
17.730999999999998
20
92.693500000000014
10
1.1315999999999999
20
92.693500000000014
0
LWPOLYLINE
5
117
100
AcDbEntity
8
0
100
AcDbPolyline
90
4
70
1
43
0.0
10
84.406100000000009
20
73.643500000000003
10
67.806600000000003
20
73.643500000000003
10
67.806600000000003
20
59.843000000000011
10
84.406100000000009
20
59.843000000000011
0
LWPOLYLINE
5
118
100
AcDbEntity
8
0
100
AcDbPolyline
90
4
70
1
43
0.0
10
29.705200000000005
20
59.843000000000011
10
46.306100000000001
20
59.843000000000011
10
46.306100000000001
20
73.643500000000003
10
29.705200000000005
20
73.643500000000003
0
LWPOLYLINE
5
119
100
AcDbEntity
8
0
100
AcDbPolyline
90
4
70
1
43
0.0
10
103.45600000000002
20
73.643500000000003
10
86.8566
20
73.643500000000003
10
86.8566
20
59.843000000000011
10
103.45600000000002
20
59.843000000000011
0
LWPOLYLINE
5
120
100
AcDbEntity
8
0
100
AcDbPolyline
90
4
70
1
43
0.0
10
144.00700000000001
20
73.643500000000003
10
144.00700000000001
20
59.843000000000011
10
160.60599999999999
20
59.843000000000011
10
160.60599999999999
20
73.643500000000003
0
LWPOLYLINE
5
121
100
AcDbEntity
8
0
100
AcDbPolyline
90
4
70
1
43
0.0
10
182.107
20
73.643500000000003
10
182.107
20
59.843000000000011
10
198.70599999999999
20
59.843000000000011
10
198.70599999999999
20
73.643500000000003
0
LWPOLYLINE
5
122
100
AcDbEntity
8
0
100
AcDbPolyline
90
4
70
1
43
0.0
10
124.955
20
59.843000000000011
10
141.55600000000004
20
59.843000000000011
10
141.55600000000004
20
73.643500000000003
10
124.955
20
73.643500000000003
0
LWPOLYLINE
5
123
100
AcDbEntity
8
0
100
AcDbPolyline
90
4
70
1
43
0.0
10
217.756
20
59.843000000000011
10
217.756
20
73.643500000000003
10
201.15700000000001
20
73.643500000000003
10
201.15700000000001
20
59.843000000000011
0
LWPOLYLINE
5
124
100
AcDbEntity
8
0
100
AcDbPolyline
90
4
70
1
43
0.0
10
239.25700000000003
20
73.643500000000003
10
239.25700000000003
20
59.843000000000011
10
255.85600000000002
20
59.843000000000011
10
255.85600000000002
20
73.643500000000003
0
LWPOLYLINE
5
125
100
AcDbEntity
8
0
100
AcDbPolyline
90
4
70
1
43
0.0
10
179.65599999999998
20
59.843000000000011
10
179.65599999999998
20
73.643500000000003
10
163.05500000000001
20
73.643500000000003
10
163.05500000000001
20
59.843000000000011
0
LWPOLYLINE
5
126
100
AcDbEntity
8
0
100
AcDbPolyline
90
4
70
1
43
0.0
10
220.20500000000001
20
59.843000000000011
10
236.80600000000001
20
59.843000000000011
10
236.80600000000001
20
73.643500000000003
10
220.20500000000001
20
73.643500000000003
0
LWPOLYLINE
5
127
100
AcDbEntity
8
0
100
AcDbPolyline
90
4
70
1
43
0.0
10
105.90700000000001
20
59.843000000000011
10
122.50600000000003
20
59.843000000000011
10
122.50600000000003
20
73.643500000000003
10
105.90700000000001
20
73.643500000000003
0
LWPOLYLINE
5
128
100
AcDbEntity
8
0
100
AcDbPolyline
90
4
70
1
43
0.0
10
48.755200000000009
20
59.843000000000011
10
65.356099999999998
20
59.843000000000011
10
65.356099999999998
20
73.643500000000003
10
48.755200000000009
20
73.643500000000003
0
LWPOLYLINE
5
129
100
AcDbEntity
8
0
100
AcDbPolyline
90
4
70
1
43
0.0
10
205.91900000000004
20
54.593499999999999
10
205.91900000000004
20
40.792999999999999
10
222.52000000000004
20
40.792999999999999
10
222.52000000000004
20
54.593499999999999
0
LWPOLYLINE
5
130
100
AcDbEntity
8
0
100
AcDbPolyline
90
4
70
1
43
0.0
10
51.0672
20
54.593499999999999
10
34.469099999999997
20
54.593499999999999
10
34.469099999999997
20
40.792999999999999
10
51.0672
20
40.792999999999999
0
LWPOLYLINE
5
131
100
AcDbEntity
8
0
100
AcDbPolyline
90
4
70
1
43
0.0
10
72.56910000000002
20
40.792999999999999
10
89.168600000000012
20
40.792999999999999
10
89.168600000000012
20
54.593499999999999
10
72.56910000000002
20
54.593499999999999
0
LWPOLYLINE
5
132
100
AcDbEntity
8
0
100
AcDbPolyline
90
4
70
1
43
0.0
10
53.519100000000009
20
54.593499999999999
10
53.519100000000009
20
40.792999999999999
10
70.118600000000001
20
40.792999999999999
10
70.118600000000001
20
54.593499999999999
0
LWPOLYLINE
5
133
100
AcDbEntity
8
0
100
AcDbPolyline
90
4
70
1
43
0.0
10
167.81900000000002
20
54.593499999999999
10
167.81900000000002
20
40.792999999999999
10
184.41900000000004
20
40.792999999999999
10
184.41900000000004
20
54.593499999999999
0
LWPOLYLINE
5
134
100
AcDbEntity
8
0
100
AcDbPolyline
90
4
70
1
43
0.0
10
165.37000000000003
20
40.792999999999999
10
165.37000000000003
20
54.593499999999999
10
148.76900000000001
20
54.593499999999999
10
148.76900000000001
20
40.792999999999999
0
LWPOLYLINE
5
135
100
AcDbEntity
8
0
100
AcDbPolyline
90
4
70
1
43
0.0
10
108.21700000000004
20
40.792999999999999
10
108.21700000000004
20
54.593499999999999
10
91.619100000000003
20
54.593499999999999
10
91.619100000000003
20
40.792999999999999
0
LWPOLYLINE
5
136
100
AcDbEntity
8
0
100
AcDbPolyline
90
4
70
1
43
0.0
10
186.86900000000003
20
54.593499999999999
10
186.86900000000003
20
40.792999999999999
10
203.47000000000003
20
40.792999999999999
10
203.47000000000003
20
54.593499999999999
0
LWPOLYLINE
5
137
100
AcDbEntity
8
0
100
AcDbPolyline
90
4
70
1
43
0.0
10
224.96900000000005
20
40.792999999999999
10
241.56900000000005
20
40.792999999999999
10
241.56900000000005
20
54.593499999999999
10
224.96900000000005
20
54.593499999999999
0
LWPOLYLINE
5
138
100
AcDbEntity
8
0
100
AcDbPolyline
90
4
70
1
43
0.0
10
244.01900000000001
20
40.792999999999999
10
260.61900000000003
20
40.792999999999999
10
260.61900000000003
20
54.593499999999999
10
244.01900000000001
20
54.593499999999999
0
LWPOLYLINE
5
139
100
AcDbEntity
8
0
100
AcDbPolyline
90
4
70
1
43
0.0
10
279.66900000000004
20
73.643500000000003
10
263.06900000000002
20
73.643500000000003
10
263.06900000000002
20
59.843000000000011
10
279.66900000000004
20
59.843000000000011
0
LWPOLYLINE
5
140
100
AcDbEntity
8
0
100
AcDbPolyline
90
4
70
1
43
0.0
10
265.38099999999997
20
92.693500000000014
10
248.78200000000004
20
92.693500000000014
10
248.78200000000004
20
78.893000000000001
10
265.38099999999997
20
78.893000000000001
0
LWPOLYLINE
5
141
100
AcDbEntity
8
0
100
AcDbPolyline
90
4
70
1
43
0.0
10
227.28100000000001
20
92.693500000000014
10
210.68000000000001
20
92.693500000000014
10
210.68000000000001
20
78.893000000000001
10
227.28100000000001
20
78.893000000000001
0
LWPOLYLINE
5
142
100
AcDbEntity
8
0
100
AcDbPolyline
90
4
70
1
43
0.0
10
189.18099999999998
20
92.693500000000014
10
172.58000000000004
20
92.693500000000014
10
172.58000000000004
20
78.893000000000001
10
189.18099999999998
20
78.893000000000001
0
LINE
5
143
100
AcDbEntity
8
0
100
AcDbLine
10
0.095084600000000019
20
95.654800000000009
30
0
11
285.46899999999999
21
95.654800000000009
31
0
0
LWPOLYLINE
5
144
100
AcDbEntity
8
0
100
AcDbPolyline
90
4
70
1
43
0.0
10
132.03100000000003
20
92.693500000000014
10
115.432
20
92.693500000000014
10
115.432
20
78.893000000000001
10
132.03100000000003
20
78.893000000000001
0
LWPOLYLINE
5
145
100
AcDbEntity
8
0
100
AcDbPolyline
90
4
70
1
43
0.0
10
93.931100000000015
20
92.693500000000014
10
77.330200000000005
20
92.693500000000014
10
77.330200000000005
20
78.893000000000001
10
93.931100000000015
20
78.893000000000001
0
LWPOLYLINE
5
146
100
AcDbEntity
8
0
100
AcDbPolyline
90
4
70
1
43
0.0
10
36.781100000000002
20
78.893000000000001
10
36.781100000000002
20
92.693500000000014
10
20.181600000000003
20
92.693500000000014
10
20.181600000000003
20
78.893000000000001
0
LWPOLYLINE
5
147
100
AcDbEntity
8
0
100
AcDbPolyline
90
4
70
1
43
0.0
10
22.493500000000001
20
73.643500000000003
10
5.8940999999999999
20
73.643500000000003
10
5.8940999999999999
20
59.843000000000011
10
22.493500000000001
20
59.843000000000011
0
LWPOLYLINE
5
148
100
AcDbEntity
8
0
100
AcDbPolyline
90
4
70
1
43
0.0
10
20.112300000000005
20
16.492100000000004
10
3.5128500000000007
20
16.492100000000004
10
3.5128500000000007
20
2.6929099999999999
10
20.112300000000005
20
2.6929099999999995
0
LWPOLYLINE
5
149
100
AcDbEntity
8
0
100
AcDbPolyline
90
4
70
1
43
0.0
10
60.594999999999999
20
16.492100000000004
10
43.994100000000003
20
16.492100000000004
10
43.994100000000003
20
2.6929099999999999
10
60.594999999999999
20
2.6929099999999995
0
LWPOLYLINE
5
150
100
AcDbEntity
8
0
100
AcDbPolyline
90
4
70
1
43
0.0
10
239.18600000000001
20
16.492100000000004
10
222.58599999999998
20
16.492100000000004
10
222.58599999999998
20
2.6929099999999999
10
239.18600000000001
20
2.6929099999999995
0
LWPOLYLINE
5
151
100
AcDbEntity
8
0
100
AcDbPolyline
90
4
70
1
43
0.0
10
282.05000000000001
20
16.492100000000004
10
265.44900000000001
20
16.492100000000004
10
265.44900000000001
20
2.6929099999999999
10
282.05000000000001
20
2.6929099999999995
0
LWPOLYLINE
5
152
100
AcDbEntity
8
0
100
AcDbPolyline
90
4
70
1
43
0.0
10
232.04400000000004
20
21.742899999999999
10
232.04400000000004
20
35.543500000000002
10
215.44400000000002
20
35.543500000000002
10
215.44400000000002
20
21.742899999999999
0
LWPOLYLINE
5
153
100
AcDbEntity
8
0
100
AcDbPolyline
90
4
70
1
43
0.0
10
236.875
20
35.543500000000002
10
236.875
20
21.742899999999999
10
253.47300000000001
20
21.742899999999999
10
253.47300000000001
20
35.543500000000002
0
LWPOLYLINE
5
154
100
AcDbEntity
8
0
100
AcDbPolyline
90
4
70
1
43
0.0
10
98.693600000000018
20
21.742899999999999
10
98.693600000000018
20
35.543500000000002
10
82.094099999999997
20
35.543500000000002
10
82.094099999999997
20
21.742899999999999
0
LWPOLYLINE
5
155
100
AcDbEntity
8
0
100
AcDbPolyline
90
4
70
1
43
0.0
10
120.19400000000002
20
21.742899999999999
10
136.79399999999998
20
21.742899999999999
10
136.79399999999998
20
35.543500000000002
10
120.19400000000002
20
35.543500000000002
0
LWPOLYLINE
5
156
100
AcDbEntity
8
0
100
AcDbPolyline
90
4
70
1
43
0.0
10
63.044100000000007
20
21.742899999999999
10
79.644999999999996
20
21.742899999999999
10
79.644999999999996
20
35.543500000000002
10
63.044100000000007
20
35.543500000000002
0
LWPOLYLINE
5
157
100
AcDbEntity
8
0
100
AcDbPolyline
90
4
70
1
43
0.0
10
196.39400000000001
20
21.742899999999999
10
212.995
20
21.742899999999999
10
212.995
20
35.543500000000002
10
196.39400000000001
20
35.543500000000002
0
LWPOLYLINE
5
158
100
AcDbEntity
8
0
100
AcDbPolyline
90
4
70
1
43
0.0
10
174.89500000000004
20
21.742899999999999
10
174.89500000000004
20
35.543500000000002
10
158.29399999999998
20
35.543500000000002
10
158.29399999999998
20
21.742899999999999
0
LWPOLYLINE
5
159
100
AcDbEntity
8
0
100
AcDbPolyline
90
4
70
1
43
0.0
10
139.244
20
21.742899999999999
10
155.84500000000003
20
21.742899999999999
10
155.84500000000003
20
35.543500000000002
10
139.244
20
35.543500000000002
0
LWPOLYLINE
5
160
100
AcDbEntity
8
0
100
AcDbPolyline
90
4
70
1
43
0.0
10
193.94400000000005
20
21.742899999999999
10
193.94400000000005
20
35.543500000000002
10
177.34399999999999
20
35.543500000000002
10
177.34399999999999
20
21.742899999999999
0
LWPOLYLINE
5
161
100
AcDbEntity
8
0
100
AcDbPolyline
90
4
70
1
43
0.0
10
60.594999999999999
20
35.543500000000002
10
43.994100000000003
20
35.543500000000002
10
43.994100000000003
20
21.742899999999999
10
60.594999999999999
20
21.742899999999999
0
LWPOLYLINE
5
162
100
AcDbEntity
8
0
100
AcDbPolyline
90
4
70
1
43
0.0
10
117.74400000000001
20
35.543500000000002
10
101.14400000000001
20
35.543500000000002
10
101.14400000000001
20
21.742899999999999
10
117.74400000000001
20
21.742899999999999
0
LWPOLYLINE
5
163
100
AcDbEntity
8
0
100
AcDbPolyline
90
4
70
1
43
0.0
10
260.61900000000003
20
16.492100000000004
10
244.01900000000001
20
16.492100000000004
10
244.01900000000001
20
2.6929099999999999
10
260.61900000000003
20
2.6929099999999995
0
LWPOLYLINE
5
164
100
AcDbEntity
8
0
100
AcDbPolyline
90
4
70
1
43
0.0
10
148.70000000000002
20
16.492100000000004
10
132.09999999999999
20
16.492100000000004
10
132.09999999999999
20
2.6929099999999999
10
148.70000000000002
20
2.6929099999999995
0
LWPOLYLINE
5
165
100
AcDbEntity
8
0
100
AcDbPolyline
90
4
70
1
43
0.0
10
41.543599999999998
20
16.492100000000004
10
24.944100000000002
20
16.492100000000004
10
24.944100000000002
20
2.6929099999999999
10
41.543599999999998
20
2.6929099999999995
0
LWPOLYLINE
5
166
100
AcDbEntity
8
0
100
AcDbPolyline
90
4
70
1
43
0.0
10
29.6358
20
35.543500000000002
10
13.037800000000001
20
35.543500000000002
10
13.037800000000001
20
21.742899999999999
10
29.6358
20
21.742899999999999
0
LWPOLYLINE
5
167
100
AcDbEntity
8
0
100
AcDbPolyline
90
4
70
1
43
0.0
10
55.831100000000006
20
92.693500000000014
10
39.2316
20
92.693500000000014
10
39.2316
20
78.893000000000001
10
55.831100000000006
20
78.893000000000001
0
LWPOLYLINE
5
168
100
AcDbEntity
8
0
100
AcDbPolyline
90
4
70
1
43
0.0
10
74.881100000000004
20
92.693500000000014
10
58.281600000000005
20
92.693500000000014
10
58.281600000000005
20
78.893000000000001
10
74.881100000000004
20
78.893000000000001
0
LWPOLYLINE
5
169
100
AcDbEntity
8
0
100
AcDbPolyline
90
4
70
1
43
0.0
10
112.98100000000002
20
92.693500000000014
10
96.381600000000006
20
92.693500000000014
10
96.381600000000006
20
78.893000000000001
10
112.98100000000002
20
78.893000000000001
0
LWPOLYLINE
5
170
100
AcDbEntity
8
0
100
AcDbPolyline
90
4
70
1
43
0.0
10
151.08100000000005
20
92.693500000000014
10
134.482
20
92.693500000000014
10
134.482
20
78.893000000000001
10
151.08100000000005
20
78.893000000000001
0
LWPOLYLINE
5
171
100
AcDbEntity
8
0
100
AcDbPolyline
90
4
70
1
43
0.0
10
170.13099999999997
20
92.693500000000014
10
153.53200000000001
20
92.693500000000014
10
153.53200000000001
20
78.893000000000001
10
170.13099999999997
20
78.893000000000001
0
LWPOLYLINE
5
172
100
AcDbEntity
8
0
100
AcDbPolyline
90
4
70
1
43
0.0
10
208.23099999999999
20
92.693500000000014
10
191.63200000000001
20
92.693500000000014
10
191.63200000000001
20
78.893000000000001
10
208.23099999999999
20
78.893000000000001
0
LWPOLYLINE
5
173
100
AcDbEntity
8
0
100
AcDbPolyline
90
4
70
1
43
0.0
10
246.33100000000002
20
92.693500000000014
10
229.73200000000003
20
92.693500000000014
10
229.73200000000003
20
78.893000000000001
10
246.33100000000002
20
78.893000000000001
0
LWPOLYLINE
5
174
100
AcDbEntity
8
0
100
AcDbPolyline
90
4
70
1
43
0.0
10
284.43100000000004
20
92.693500000000014
10
267.82999999999998
20
92.693500000000014
10
267.82999999999998
20
78.893000000000001
10
284.43100000000004
20
78.893000000000001
0
LWPOLYLINE
5
175
100
AcDbEntity
8
0
100
AcDbPolyline
90
4
70
1
43
0.0
10
24.876100000000001
20
54.593499999999999
10
8.2753499999999995
20
54.593499999999999
10
8.2753499999999995
20
40.792999999999999
10
24.876100000000001
20
40.792999999999999
0
LINE
5
176
100
AcDbEntity
8
0
100
AcDbLine
10
285.46899999999999
20
35.992899999999999
30
0
11
285.46899999999999
21
41.000000610947609
31
0
0
LINE
5
177
100
AcDbEntity
8
0
100
AcDbLine
10
0.095084600000000019
20
40.992400000000011
30
0
11
0.095084600000000019
21
35.992899999999999
31
0
0
ENDSEC
0
SECTION
2
OBJECTS
0
DICTIONARY
5
C
100
AcDbDictionary
3
ACAD_GROUP
350
D
3
ACAD_MLINESTYLE
350
17
0
DICTIONARY
5
D
100
AcDbDictionary
0
DICTIONARY
5
1A
330
C
100
AcDbDictionary
0
DICTIONARY
5
17
100
AcDbDictionary
0
ENDSEC
0
EOF
