G04 #@! TF.GenerationSoftware,KiCad,Pcbnew,(6.0.4)*
G04 #@! TF.CreationDate,2022-04-01T19:19:07+02:00*
G04 #@! TF.ProjectId,pcb,7063622e-6b69-4636-9164-5f7063625858,rev?*
G04 #@! TF.SameCoordinates,Original*
G04 #@! TF.FileFunction,Paste,Bot*
G04 #@! TF.FilePolarity,Positive*
%FSLAX46Y46*%
G04 Gerber Fmt 4.6, Leading zero omitted, Abs format (unit mm)*
G04 Created by KiCad (PCBNEW (6.0.4)) date 2022-04-01 19:19:07*
%MOMM*%
%LPD*%
G01*
G04 APERTURE LIST*
G04 Aperture macros list*
%AMRoundRect*
0 Rectangle with rounded corners*
0 $1 Rounding radius*
0 $2 $3 $4 $5 $6 $7 $8 $9 X,Y pos of 4 corners*
0 Add a 4 corners polygon primitive as box body*
4,1,4,$2,$3,$4,$5,$6,$7,$8,$9,$2,$3,0*
0 Add four circle primitives for the rounded corners*
1,1,$1+$1,$2,$3*
1,1,$1+$1,$4,$5*
1,1,$1+$1,$6,$7*
1,1,$1+$1,$8,$9*
0 Add four rect primitives between the rounded corners*
20,1,$1+$1,$2,$3,$4,$5,0*
20,1,$1+$1,$4,$5,$6,$7,0*
20,1,$1+$1,$6,$7,$8,$9,0*
20,1,$1+$1,$8,$9,$2,$3,0*%
%AMRotRect*
0 Rectangle, with rotation*
0 The origin of the aperture is its center*
0 $1 length*
0 $2 width*
0 $3 Rotation angle, in degrees counterclockwise*
0 Add horizontal line*
21,1,$1,$2,0,0,$3*%
G04 Aperture macros list end*
%ADD10R,0.800000X0.900000*%
%ADD11R,0.900000X0.800000*%
%ADD12RoundRect,0.250000X0.475000X-0.250000X0.475000X0.250000X-0.475000X0.250000X-0.475000X-0.250000X0*%
%ADD13RoundRect,0.250000X0.159099X-0.512652X0.512652X-0.159099X-0.159099X0.512652X-0.512652X0.159099X0*%
%ADD14RoundRect,0.250000X0.503814X0.132583X0.132583X0.503814X-0.503814X-0.132583X-0.132583X-0.503814X0*%
%ADD15RoundRect,0.250000X0.262500X0.450000X-0.262500X0.450000X-0.262500X-0.450000X0.262500X-0.450000X0*%
%ADD16RoundRect,0.250000X-0.450000X0.262500X-0.450000X-0.262500X0.450000X-0.262500X0.450000X0.262500X0*%
%ADD17RoundRect,0.250000X0.512652X0.159099X0.159099X0.512652X-0.512652X-0.159099X-0.159099X-0.512652X0*%
%ADD18RotRect,1.600000X0.550000X225.000000*%
%ADD19RotRect,1.600000X0.550000X135.000000*%
%ADD20RotRect,1.400000X1.200000X315.000000*%
%ADD21RoundRect,0.150000X-0.775000X0.150000X-0.775000X-0.150000X0.775000X-0.150000X0.775000X0.150000X0*%
%ADD22RoundRect,0.332800X-0.567200X0.467200X-0.567200X-0.467200X0.567200X-0.467200X0.567200X0.467200X0*%
%ADD23RoundRect,0.150000X0.512500X0.150000X-0.512500X0.150000X-0.512500X-0.150000X0.512500X-0.150000X0*%
%ADD24RoundRect,0.250000X-0.625000X0.375000X-0.625000X-0.375000X0.625000X-0.375000X0.625000X0.375000X0*%
%ADD25R,0.600000X1.450000*%
%ADD26R,0.300000X1.450000*%
%ADD27RotRect,1.700000X1.000000X225.000000*%
%ADD28RoundRect,0.250000X-0.159099X0.512652X-0.512652X0.159099X0.159099X-0.512652X0.512652X-0.159099X0*%
G04 APERTURE END LIST*
D10*
X47550000Y-52650000D03*
X45650000Y-52650000D03*
X46600000Y-50650000D03*
D11*
X38400000Y-55850000D03*
X38400000Y-57750000D03*
X36400000Y-56800000D03*
D10*
X43800000Y-52950000D03*
X41900000Y-52950000D03*
X42850000Y-50950000D03*
D12*
X23650000Y-21300000D03*
X23650000Y-19400000D03*
D10*
X51300000Y-20250000D03*
X53200000Y-20250000D03*
X52250000Y-22250000D03*
D13*
X30428249Y-32921751D03*
X31771751Y-31578249D03*
D10*
X36300000Y-16700000D03*
X38200000Y-16700000D03*
X37250000Y-18700000D03*
D14*
X22645235Y-36845235D03*
X21354765Y-35554765D03*
D10*
X32700000Y-16700000D03*
X34600000Y-16700000D03*
X33650000Y-18700000D03*
D11*
X40050000Y-9300000D03*
X40050000Y-11200000D03*
X38050000Y-10250000D03*
X38400000Y-52250000D03*
X38400000Y-54150000D03*
X36400000Y-53200000D03*
D10*
X46100000Y-38300000D03*
X48000000Y-38300000D03*
X47050000Y-40300000D03*
X53200000Y-42300000D03*
X55100000Y-42300000D03*
X54150000Y-44300000D03*
D15*
X14812500Y-13050000D03*
X12987500Y-13050000D03*
D16*
X19000000Y-19437500D03*
X19000000Y-21262500D03*
D11*
X40050000Y-5300000D03*
X40050000Y-7200000D03*
X38050000Y-6250000D03*
D17*
X21221751Y-38321751D03*
X19878249Y-36978249D03*
D18*
X29600305Y-35496147D03*
X30165990Y-36061833D03*
X30731676Y-36627518D03*
X31297361Y-37193203D03*
X31863047Y-37758889D03*
X32428732Y-38324574D03*
X32994417Y-38890260D03*
X33560103Y-39455945D03*
D19*
X33560103Y-41506555D03*
X32994417Y-42072240D03*
X32428732Y-42637926D03*
X31863047Y-43203611D03*
X31297361Y-43769297D03*
X30731676Y-44334982D03*
X30165990Y-44900667D03*
X29600305Y-45466353D03*
D18*
X27549695Y-45466353D03*
X26984010Y-44900667D03*
X26418324Y-44334982D03*
X25852639Y-43769297D03*
X25286953Y-43203611D03*
X24721268Y-42637926D03*
X24155583Y-42072240D03*
X23589897Y-41506555D03*
D19*
X23589897Y-39455945D03*
X24155583Y-38890260D03*
X24721268Y-38324574D03*
X25286953Y-37758889D03*
X25852639Y-37193203D03*
X26418324Y-36627518D03*
X26984010Y-36061833D03*
X27549695Y-35496147D03*
D20*
X33573223Y-33371142D03*
X35128858Y-34926777D03*
X33926777Y-36128858D03*
X32371142Y-34573223D03*
D12*
X27850000Y-21300000D03*
X27850000Y-19400000D03*
D21*
X12000000Y-16700000D03*
X12000000Y-17700000D03*
X12000000Y-18700000D03*
X12000000Y-19700000D03*
D22*
X16025000Y-15200000D03*
X16025000Y-21200000D03*
D14*
X25645235Y-49895235D03*
X24354765Y-48604765D03*
D10*
X47650000Y-20250000D03*
X49550000Y-20250000D03*
X48600000Y-22250000D03*
D11*
X43200000Y-34150000D03*
X43200000Y-36050000D03*
X41200000Y-35100000D03*
D10*
X51500000Y-51200000D03*
X49600000Y-51200000D03*
X50550000Y-49200000D03*
D11*
X38400000Y-70350000D03*
X38400000Y-72250000D03*
X36400000Y-71300000D03*
X43200000Y-30500000D03*
X43200000Y-32400000D03*
X41200000Y-31450000D03*
D12*
X25750000Y-21300000D03*
X25750000Y-19400000D03*
D10*
X54950000Y-4700000D03*
X56850000Y-4700000D03*
X55900000Y-6700000D03*
X38200000Y-22200000D03*
X36300000Y-22200000D03*
X37250000Y-20200000D03*
D16*
X21300000Y-12037500D03*
X21300000Y-13862500D03*
D23*
X19112980Y-11266500D03*
X19112980Y-12216500D03*
X19112980Y-13166500D03*
X16837980Y-13166500D03*
X16837980Y-12216500D03*
X16837980Y-11266500D03*
D16*
X21100000Y-19437500D03*
X21100000Y-21262500D03*
D24*
X24250000Y-12050000D03*
X24250000Y-14850000D03*
D10*
X49600000Y-42300000D03*
X51500000Y-42300000D03*
X50550000Y-44300000D03*
D11*
X38400000Y-66700000D03*
X38400000Y-68600000D03*
X36400000Y-67650000D03*
X38400000Y-74000000D03*
X38400000Y-75900000D03*
X36400000Y-74950000D03*
D10*
X44000000Y-20250000D03*
X45900000Y-20250000D03*
X44950000Y-22250000D03*
D11*
X38400000Y-63100000D03*
X38400000Y-65000000D03*
X36400000Y-64050000D03*
X34360000Y-7200000D03*
X34360000Y-5300000D03*
X36360000Y-6250000D03*
X38400000Y-59450000D03*
X38400000Y-61350000D03*
X36400000Y-60400000D03*
D10*
X40200000Y-19300000D03*
X42100000Y-19300000D03*
X41150000Y-21300000D03*
D25*
X15315000Y-7080000D03*
X16115000Y-7080000D03*
D26*
X17315000Y-7080000D03*
X18315000Y-7080000D03*
X18815000Y-7080000D03*
X19815000Y-7080000D03*
D25*
X21015000Y-7080000D03*
X21815000Y-7080000D03*
X21815000Y-7080000D03*
X21015000Y-7080000D03*
D26*
X20315000Y-7080000D03*
X19315000Y-7080000D03*
X17815000Y-7080000D03*
X16815000Y-7080000D03*
D25*
X16115000Y-7080000D03*
X15315000Y-7080000D03*
D10*
X47650000Y-30350000D03*
X45750000Y-30350000D03*
X46700000Y-28350000D03*
X32690000Y-11430000D03*
X34590000Y-11430000D03*
X33640000Y-13430000D03*
D27*
X17083883Y-31479111D03*
X12629111Y-35933883D03*
X19770889Y-34166117D03*
X15316117Y-38620889D03*
D10*
X54950000Y-20250000D03*
X56850000Y-20250000D03*
X55900000Y-22250000D03*
D28*
X36821751Y-36478249D03*
X35478249Y-37821751D03*
D10*
X42350000Y-38300000D03*
X44250000Y-38300000D03*
X43300000Y-40300000D03*
X55100000Y-51200000D03*
X53200000Y-51200000D03*
X54150000Y-49200000D03*
X62350000Y-20250000D03*
X64250000Y-20250000D03*
X63300000Y-22250000D03*
M02*
