G04 #@! TF.GenerationSoftware,KiCad,Pcbnew,(6.0.4)*
G04 #@! TF.CreationDate,2022-04-19T08:51:35+02:00*
G04 #@! TF.ProjectId,pcb,7063622e-6b69-4636-9164-5f7063625858,rev?*
G04 #@! TF.SameCoordinates,Original*
G04 #@! TF.FileFunction,Legend,Bot*
G04 #@! TF.FilePolarity,Positive*
%FSLAX46Y46*%
G04 Gerber Fmt 4.6, Leading zero omitted, Abs format (unit mm)*
G04 Created by KiCad (PCBNEW (6.0.4)) date 2022-04-19 08:51:35*
%MOMM*%
%LPD*%
G01*
G04 APERTURE LIST*
%ADD10C,0.400000*%
%ADD11C,0.150000*%
%ADD12C,0.120000*%
%ADD13C,0.010000*%
G04 APERTURE END LIST*
D10*
X180337619Y-85656428D02*
X180337619Y-82799285D01*
X177480476Y-84418333D02*
X176528095Y-84418333D01*
X177670952Y-84989761D02*
X177004285Y-82989761D01*
X176337619Y-84989761D01*
X175385238Y-84989761D02*
X175575714Y-84894523D01*
X175670952Y-84704047D01*
X175670952Y-82989761D01*
X174623333Y-83656428D02*
X174623333Y-84989761D01*
X174623333Y-83846904D02*
X174528095Y-83751666D01*
X174337619Y-83656428D01*
X174051904Y-83656428D01*
X173861428Y-83751666D01*
X173766190Y-83942142D01*
X173766190Y-84989761D01*
X172813809Y-84989761D02*
X172813809Y-83656428D01*
X172813809Y-82989761D02*
X172909047Y-83085000D01*
X172813809Y-83180238D01*
X172718571Y-83085000D01*
X172813809Y-82989761D01*
X172813809Y-83180238D01*
X171575714Y-84989761D02*
X171766190Y-84894523D01*
X171861428Y-84704047D01*
X171861428Y-82989761D01*
X169956666Y-84989761D02*
X169956666Y-83942142D01*
X170051904Y-83751666D01*
X170242380Y-83656428D01*
X170623333Y-83656428D01*
X170813809Y-83751666D01*
X169956666Y-84894523D02*
X170147142Y-84989761D01*
X170623333Y-84989761D01*
X170813809Y-84894523D01*
X170909047Y-84704047D01*
X170909047Y-84513571D01*
X170813809Y-84323095D01*
X170623333Y-84227857D01*
X170147142Y-84227857D01*
X169956666Y-84132619D01*
X169004285Y-84989761D02*
X169004285Y-83656428D01*
X169004285Y-83846904D02*
X168909047Y-83751666D01*
X168718571Y-83656428D01*
X168432857Y-83656428D01*
X168242380Y-83751666D01*
X168147142Y-83942142D01*
X168147142Y-84989761D01*
X168147142Y-83942142D02*
X168051904Y-83751666D01*
X167861428Y-83656428D01*
X167575714Y-83656428D01*
X167385238Y-83751666D01*
X167290000Y-83942142D01*
X167290000Y-84989761D01*
X165480476Y-82989761D02*
X165861428Y-82989761D01*
X166051904Y-83085000D01*
X166147142Y-83180238D01*
X166337619Y-83465952D01*
X166432857Y-83846904D01*
X166432857Y-84608809D01*
X166337619Y-84799285D01*
X166242380Y-84894523D01*
X166051904Y-84989761D01*
X165670952Y-84989761D01*
X165480476Y-84894523D01*
X165385238Y-84799285D01*
X165290000Y-84608809D01*
X165290000Y-84132619D01*
X165385238Y-83942142D01*
X165480476Y-83846904D01*
X165670952Y-83751666D01*
X166051904Y-83751666D01*
X166242380Y-83846904D01*
X166337619Y-83942142D01*
X166432857Y-84132619D01*
X164051904Y-82989761D02*
X163861428Y-82989761D01*
X163670952Y-83085000D01*
X163575714Y-83180238D01*
X163480476Y-83370714D01*
X163385238Y-83751666D01*
X163385238Y-84227857D01*
X163480476Y-84608809D01*
X163575714Y-84799285D01*
X163670952Y-84894523D01*
X163861428Y-84989761D01*
X164051904Y-84989761D01*
X164242380Y-84894523D01*
X164337619Y-84799285D01*
X164432857Y-84608809D01*
X164528095Y-84227857D01*
X164528095Y-83751666D01*
X164432857Y-83370714D01*
X164337619Y-83180238D01*
X164242380Y-83085000D01*
X164051904Y-82989761D01*
X161004285Y-84989761D02*
X161004285Y-82989761D01*
X180337619Y-88876428D02*
X180337619Y-86019285D01*
X177385238Y-88209761D02*
X177385238Y-86209761D01*
X177385238Y-86971666D02*
X177194761Y-86876428D01*
X176813809Y-86876428D01*
X176623333Y-86971666D01*
X176528095Y-87066904D01*
X176432857Y-87257380D01*
X176432857Y-87828809D01*
X176528095Y-88019285D01*
X176623333Y-88114523D01*
X176813809Y-88209761D01*
X177194761Y-88209761D01*
X177385238Y-88114523D01*
X175766190Y-86876428D02*
X175290000Y-88209761D01*
X174813809Y-86876428D02*
X175290000Y-88209761D01*
X175480476Y-88685952D01*
X175575714Y-88781190D01*
X175766190Y-88876428D01*
X172623333Y-88114523D02*
X172337619Y-88209761D01*
X171861428Y-88209761D01*
X171670952Y-88114523D01*
X171575714Y-88019285D01*
X171480476Y-87828809D01*
X171480476Y-87638333D01*
X171575714Y-87447857D01*
X171670952Y-87352619D01*
X171861428Y-87257380D01*
X172242380Y-87162142D01*
X172432857Y-87066904D01*
X172528095Y-86971666D01*
X172623333Y-86781190D01*
X172623333Y-86590714D01*
X172528095Y-86400238D01*
X172432857Y-86305000D01*
X172242380Y-86209761D01*
X171766190Y-86209761D01*
X171480476Y-86305000D01*
X169766190Y-88114523D02*
X169956666Y-88209761D01*
X170337619Y-88209761D01*
X170528095Y-88114523D01*
X170623333Y-88019285D01*
X170718571Y-87828809D01*
X170718571Y-87257380D01*
X170623333Y-87066904D01*
X170528095Y-86971666D01*
X170337619Y-86876428D01*
X169956666Y-86876428D01*
X169766190Y-86971666D01*
X168051904Y-88209761D02*
X168051904Y-87162142D01*
X168147142Y-86971666D01*
X168337619Y-86876428D01*
X168718571Y-86876428D01*
X168909047Y-86971666D01*
X168051904Y-88114523D02*
X168242380Y-88209761D01*
X168718571Y-88209761D01*
X168909047Y-88114523D01*
X169004285Y-87924047D01*
X169004285Y-87733571D01*
X168909047Y-87543095D01*
X168718571Y-87447857D01*
X168242380Y-87447857D01*
X168051904Y-87352619D01*
X167385238Y-86876428D02*
X166623333Y-86876428D01*
X167099523Y-86209761D02*
X167099523Y-87924047D01*
X167004285Y-88114523D01*
X166813809Y-88209761D01*
X166623333Y-88209761D01*
X166242380Y-86876428D02*
X165480476Y-86876428D01*
X165956666Y-86209761D02*
X165956666Y-87924047D01*
X165861428Y-88114523D01*
X165670952Y-88209761D01*
X165480476Y-88209761D01*
X164051904Y-88114523D02*
X164242380Y-88209761D01*
X164623333Y-88209761D01*
X164813809Y-88114523D01*
X164909047Y-87924047D01*
X164909047Y-87162142D01*
X164813809Y-86971666D01*
X164623333Y-86876428D01*
X164242380Y-86876428D01*
X164051904Y-86971666D01*
X163956666Y-87162142D01*
X163956666Y-87352619D01*
X164909047Y-87543095D01*
X163099523Y-88209761D02*
X163099523Y-86876428D01*
X163099523Y-87257380D02*
X163004285Y-87066904D01*
X162909047Y-86971666D01*
X162718571Y-86876428D01*
X162528095Y-86876428D01*
X161099523Y-88114523D02*
X161290000Y-88209761D01*
X161670952Y-88209761D01*
X161861428Y-88114523D01*
X161956666Y-87924047D01*
X161956666Y-87162142D01*
X161861428Y-86971666D01*
X161670952Y-86876428D01*
X161290000Y-86876428D01*
X161099523Y-86971666D01*
X161004285Y-87162142D01*
X161004285Y-87352619D01*
X161956666Y-87543095D01*
X159290000Y-88209761D02*
X159290000Y-86209761D01*
X159290000Y-88114523D02*
X159480476Y-88209761D01*
X159861428Y-88209761D01*
X160051904Y-88114523D01*
X160147142Y-88019285D01*
X160242380Y-87828809D01*
X160242380Y-87257380D01*
X160147142Y-87066904D01*
X160051904Y-86971666D01*
X159861428Y-86876428D01*
X159480476Y-86876428D01*
X159290000Y-86971666D01*
X158337619Y-88209761D02*
X158337619Y-86209761D01*
X157861428Y-86209761D01*
X157575714Y-86305000D01*
X157385238Y-86495476D01*
X157290000Y-86685952D01*
X157194761Y-87066904D01*
X157194761Y-87352619D01*
X157290000Y-87733571D01*
X157385238Y-87924047D01*
X157575714Y-88114523D01*
X157861428Y-88209761D01*
X158337619Y-88209761D01*
X156337619Y-88209761D02*
X156337619Y-86876428D01*
X156337619Y-87257380D02*
X156242380Y-87066904D01*
X156147142Y-86971666D01*
X155956666Y-86876428D01*
X155766190Y-86876428D01*
X155099523Y-88209761D02*
X155099523Y-86876428D01*
X155099523Y-86209761D02*
X155194761Y-86305000D01*
X155099523Y-86400238D01*
X155004285Y-86305000D01*
X155099523Y-86209761D01*
X155099523Y-86400238D01*
X154432857Y-86876428D02*
X153670952Y-86876428D01*
X154147142Y-88209761D02*
X154147142Y-86495476D01*
X154051904Y-86305000D01*
X153861428Y-86209761D01*
X153670952Y-86209761D01*
X153290000Y-86876428D02*
X152528095Y-86876428D01*
X153004285Y-86209761D02*
X153004285Y-87924047D01*
X152909047Y-88114523D01*
X152718571Y-88209761D01*
X152528095Y-88209761D01*
X151099523Y-88114523D02*
X151290000Y-88209761D01*
X151670952Y-88209761D01*
X151861428Y-88114523D01*
X151956666Y-87924047D01*
X151956666Y-87162142D01*
X151861428Y-86971666D01*
X151670952Y-86876428D01*
X151290000Y-86876428D01*
X151099523Y-86971666D01*
X151004285Y-87162142D01*
X151004285Y-87352619D01*
X151956666Y-87543095D01*
X150147142Y-88209761D02*
X150147142Y-86876428D01*
X150147142Y-87257380D02*
X150051904Y-87066904D01*
X149956666Y-86971666D01*
X149766190Y-86876428D01*
X149575714Y-86876428D01*
D11*
X23816666Y-18357142D02*
X23864285Y-18404761D01*
X24007142Y-18452380D01*
X24102380Y-18452380D01*
X24245238Y-18404761D01*
X24340476Y-18309523D01*
X24388095Y-18214285D01*
X24435714Y-18023809D01*
X24435714Y-17880952D01*
X24388095Y-17690476D01*
X24340476Y-17595238D01*
X24245238Y-17500000D01*
X24102380Y-17452380D01*
X24007142Y-17452380D01*
X23864285Y-17500000D01*
X23816666Y-17547619D01*
X22959523Y-17785714D02*
X22959523Y-18452380D01*
X23197619Y-17404761D02*
X23435714Y-18119047D01*
X22816666Y-18119047D01*
X33370388Y-30534687D02*
X33437731Y-30534687D01*
X33572418Y-30467343D01*
X33639762Y-30400000D01*
X33707105Y-30265312D01*
X33707105Y-30130625D01*
X33673434Y-30029610D01*
X33572418Y-29861251D01*
X33471403Y-29760236D01*
X33303044Y-29659221D01*
X33202029Y-29625549D01*
X33067342Y-29625549D01*
X32932655Y-29692893D01*
X32865311Y-29760236D01*
X32797968Y-29894923D01*
X32797968Y-29962267D01*
X32292892Y-30332656D02*
X32225548Y-30400000D01*
X32191876Y-30501015D01*
X32191876Y-30568358D01*
X32225548Y-30669374D01*
X32326563Y-30837732D01*
X32494922Y-31006091D01*
X32663281Y-31107106D01*
X32764296Y-31140778D01*
X32831640Y-31140778D01*
X32932655Y-31107106D01*
X32999998Y-31039763D01*
X33033670Y-30938748D01*
X33033670Y-30871404D01*
X32999998Y-30770389D01*
X32898983Y-30602030D01*
X32730624Y-30433671D01*
X32562266Y-30332656D01*
X32461250Y-30298984D01*
X32393907Y-30298984D01*
X32292892Y-30332656D01*
X23787732Y-35052030D02*
X23686717Y-34479610D01*
X24191793Y-34647969D02*
X23484687Y-33940862D01*
X23215312Y-34210236D01*
X23181641Y-34311251D01*
X23181641Y-34378595D01*
X23215312Y-34479610D01*
X23316328Y-34580625D01*
X23417343Y-34614297D01*
X23484687Y-34614297D01*
X23585702Y-34580625D01*
X23855076Y-34311251D01*
X22440862Y-34984687D02*
X22777580Y-34647969D01*
X23147969Y-34951015D01*
X23080625Y-34951015D01*
X22979610Y-34984687D01*
X22811251Y-35153045D01*
X22777580Y-35254061D01*
X22777580Y-35321404D01*
X22811251Y-35422419D01*
X22979610Y-35590778D01*
X23080625Y-35624450D01*
X23147969Y-35624450D01*
X23248984Y-35590778D01*
X23417343Y-35422419D01*
X23451015Y-35321404D01*
X23451015Y-35254061D01*
X11516666Y-13552380D02*
X11850000Y-13076190D01*
X12088095Y-13552380D02*
X12088095Y-12552380D01*
X11707142Y-12552380D01*
X11611904Y-12600000D01*
X11564285Y-12647619D01*
X11516666Y-12742857D01*
X11516666Y-12885714D01*
X11564285Y-12980952D01*
X11611904Y-13028571D01*
X11707142Y-13076190D01*
X12088095Y-13076190D01*
X11183333Y-12552380D02*
X10564285Y-12552380D01*
X10897619Y-12933333D01*
X10754761Y-12933333D01*
X10659523Y-12980952D01*
X10611904Y-13028571D01*
X10564285Y-13123809D01*
X10564285Y-13361904D01*
X10611904Y-13457142D01*
X10659523Y-13504761D01*
X10754761Y-13552380D01*
X11040476Y-13552380D01*
X11135714Y-13504761D01*
X11183333Y-13457142D01*
X19266666Y-18502380D02*
X19600000Y-18026190D01*
X19838095Y-18502380D02*
X19838095Y-17502380D01*
X19457142Y-17502380D01*
X19361904Y-17550000D01*
X19314285Y-17597619D01*
X19266666Y-17692857D01*
X19266666Y-17835714D01*
X19314285Y-17930952D01*
X19361904Y-17978571D01*
X19457142Y-18026190D01*
X19838095Y-18026190D01*
X18314285Y-18502380D02*
X18885714Y-18502380D01*
X18600000Y-18502380D02*
X18600000Y-17502380D01*
X18695238Y-17645238D01*
X18790476Y-17740476D01*
X18885714Y-17788095D01*
X19470389Y-39134687D02*
X19537732Y-39134687D01*
X19672419Y-39067343D01*
X19739763Y-39000000D01*
X19807106Y-38865312D01*
X19807106Y-38730625D01*
X19773435Y-38629610D01*
X19672419Y-38461251D01*
X19571404Y-38360236D01*
X19403045Y-38259221D01*
X19302030Y-38225549D01*
X19167343Y-38225549D01*
X19032656Y-38292893D01*
X18965312Y-38360236D01*
X18897969Y-38494923D01*
X18897969Y-38562267D01*
X18628595Y-38831641D02*
X18561251Y-38831641D01*
X18460236Y-38865312D01*
X18291877Y-39033671D01*
X18258206Y-39134687D01*
X18258206Y-39202030D01*
X18291877Y-39303045D01*
X18359221Y-39370389D01*
X18493908Y-39437732D01*
X19302030Y-39437732D01*
X18864297Y-39875465D01*
X27701522Y-32174027D02*
X28273942Y-32746447D01*
X28307614Y-32847462D01*
X28307614Y-32914806D01*
X28273942Y-33015821D01*
X28139255Y-33150508D01*
X28038240Y-33184180D01*
X27970896Y-33184180D01*
X27869881Y-33150508D01*
X27297461Y-32578088D01*
X26826057Y-33049493D02*
X26758713Y-33116836D01*
X26725042Y-33217852D01*
X26725042Y-33285195D01*
X26758713Y-33386210D01*
X26859729Y-33554569D01*
X27028087Y-33722928D01*
X27196446Y-33823943D01*
X27297461Y-33857615D01*
X27364805Y-33857615D01*
X27465820Y-33823943D01*
X27533164Y-33756600D01*
X27566835Y-33655584D01*
X27566835Y-33588241D01*
X27533164Y-33487226D01*
X27432148Y-33318867D01*
X27263790Y-33150508D01*
X27095431Y-33049493D01*
X26994416Y-33015821D01*
X26927072Y-33015821D01*
X26826057Y-33049493D01*
X34919881Y-31496446D02*
X35256599Y-31833164D01*
X34785194Y-30890355D02*
X34919881Y-31496446D01*
X34313790Y-31361759D01*
X33943400Y-31732148D02*
X33876057Y-31799492D01*
X33842385Y-31900507D01*
X33842385Y-31967851D01*
X33876057Y-32068866D01*
X33977072Y-32237225D01*
X34145431Y-32405583D01*
X34313790Y-32506599D01*
X34414805Y-32540270D01*
X34482148Y-32540270D01*
X34583164Y-32506599D01*
X34650507Y-32439255D01*
X34684179Y-32338240D01*
X34684179Y-32270896D01*
X34650507Y-32169881D01*
X34549492Y-32001522D01*
X34381133Y-31833164D01*
X34212774Y-31732148D01*
X34111759Y-31698477D01*
X34044416Y-31698477D01*
X33943400Y-31732148D01*
X27966666Y-18357142D02*
X28014285Y-18404761D01*
X28157142Y-18452380D01*
X28252380Y-18452380D01*
X28395238Y-18404761D01*
X28490476Y-18309523D01*
X28538095Y-18214285D01*
X28585714Y-18023809D01*
X28585714Y-17880952D01*
X28538095Y-17690476D01*
X28490476Y-17595238D01*
X28395238Y-17500000D01*
X28252380Y-17452380D01*
X28157142Y-17452380D01*
X28014285Y-17500000D01*
X27966666Y-17547619D01*
X27633333Y-17452380D02*
X27014285Y-17452380D01*
X27347619Y-17833333D01*
X27204761Y-17833333D01*
X27109523Y-17880952D01*
X27061904Y-17928571D01*
X27014285Y-18023809D01*
X27014285Y-18261904D01*
X27061904Y-18357142D01*
X27109523Y-18404761D01*
X27204761Y-18452380D01*
X27490476Y-18452380D01*
X27585714Y-18404761D01*
X27633333Y-18357142D01*
X24087732Y-50852030D02*
X23986717Y-50279610D01*
X24491793Y-50447969D02*
X23784687Y-49740862D01*
X23515312Y-50010236D01*
X23481641Y-50111251D01*
X23481641Y-50178595D01*
X23515312Y-50279610D01*
X23616328Y-50380625D01*
X23717343Y-50414297D01*
X23784687Y-50414297D01*
X23885702Y-50380625D01*
X24155076Y-50111251D01*
X22942893Y-50582656D02*
X22875549Y-50650000D01*
X22841877Y-50751015D01*
X22841877Y-50818358D01*
X22875549Y-50919374D01*
X22976564Y-51087732D01*
X23144923Y-51256091D01*
X23313282Y-51357106D01*
X23414297Y-51390778D01*
X23481641Y-51390778D01*
X23582656Y-51357106D01*
X23650000Y-51289763D01*
X23683671Y-51188748D01*
X23683671Y-51121404D01*
X23649999Y-51020389D01*
X23548984Y-50852030D01*
X23380625Y-50683671D01*
X23212267Y-50582656D01*
X23111251Y-50548984D01*
X23043908Y-50548984D01*
X22942893Y-50582656D01*
X25916666Y-18357142D02*
X25964285Y-18404761D01*
X26107142Y-18452380D01*
X26202380Y-18452380D01*
X26345238Y-18404761D01*
X26440476Y-18309523D01*
X26488095Y-18214285D01*
X26535714Y-18023809D01*
X26535714Y-17880952D01*
X26488095Y-17690476D01*
X26440476Y-17595238D01*
X26345238Y-17500000D01*
X26202380Y-17452380D01*
X26107142Y-17452380D01*
X25964285Y-17500000D01*
X25916666Y-17547619D01*
X25011904Y-17452380D02*
X25488095Y-17452380D01*
X25535714Y-17928571D01*
X25488095Y-17880952D01*
X25392857Y-17833333D01*
X25154761Y-17833333D01*
X25059523Y-17880952D01*
X25011904Y-17928571D01*
X24964285Y-18023809D01*
X24964285Y-18261904D01*
X25011904Y-18357142D01*
X25059523Y-18404761D01*
X25154761Y-18452380D01*
X25392857Y-18452380D01*
X25488095Y-18404761D01*
X25535714Y-18357142D01*
X21466666Y-15802380D02*
X21800000Y-15326190D01*
X22038095Y-15802380D02*
X22038095Y-14802380D01*
X21657142Y-14802380D01*
X21561904Y-14850000D01*
X21514285Y-14897619D01*
X21466666Y-14992857D01*
X21466666Y-15135714D01*
X21514285Y-15230952D01*
X21561904Y-15278571D01*
X21657142Y-15326190D01*
X22038095Y-15326190D01*
X20609523Y-15135714D02*
X20609523Y-15802380D01*
X20847619Y-14754761D02*
X21085714Y-15469047D01*
X20466666Y-15469047D01*
X19861904Y-9402380D02*
X19861904Y-10211904D01*
X19814285Y-10307142D01*
X19766666Y-10354761D01*
X19671428Y-10402380D01*
X19480952Y-10402380D01*
X19385714Y-10354761D01*
X19338095Y-10307142D01*
X19290476Y-10211904D01*
X19290476Y-9402380D01*
X18290476Y-10402380D02*
X18861904Y-10402380D01*
X18576190Y-10402380D02*
X18576190Y-9402380D01*
X18671428Y-9545238D01*
X18766666Y-9640476D01*
X18861904Y-9688095D01*
X21316666Y-18452380D02*
X21650000Y-17976190D01*
X21888095Y-18452380D02*
X21888095Y-17452380D01*
X21507142Y-17452380D01*
X21411904Y-17500000D01*
X21364285Y-17547619D01*
X21316666Y-17642857D01*
X21316666Y-17785714D01*
X21364285Y-17880952D01*
X21411904Y-17928571D01*
X21507142Y-17976190D01*
X21888095Y-17976190D01*
X20935714Y-17547619D02*
X20888095Y-17500000D01*
X20792857Y-17452380D01*
X20554761Y-17452380D01*
X20459523Y-17500000D01*
X20411904Y-17547619D01*
X20364285Y-17642857D01*
X20364285Y-17738095D01*
X20411904Y-17880952D01*
X20983333Y-18452380D01*
X20364285Y-18452380D01*
X26833333Y-13378571D02*
X27166666Y-13378571D01*
X27166666Y-13902380D02*
X27166666Y-12902380D01*
X26690476Y-12902380D01*
X26119047Y-12902380D02*
X26023809Y-12902380D01*
X25928571Y-12950000D01*
X25880952Y-12997619D01*
X25833333Y-13092857D01*
X25785714Y-13283333D01*
X25785714Y-13521428D01*
X25833333Y-13711904D01*
X25880952Y-13807142D01*
X25928571Y-13854761D01*
X26023809Y-13902380D01*
X26119047Y-13902380D01*
X26214285Y-13854761D01*
X26261904Y-13807142D01*
X26309523Y-13711904D01*
X26357142Y-13521428D01*
X26357142Y-13283333D01*
X26309523Y-13092857D01*
X26261904Y-12997619D01*
X26214285Y-12950000D01*
X26119047Y-12902380D01*
X18718333Y-2502380D02*
X18718333Y-3216666D01*
X18765952Y-3359523D01*
X18861190Y-3454761D01*
X19004047Y-3502380D01*
X19099285Y-3502380D01*
X17718333Y-3502380D02*
X18289761Y-3502380D01*
X18004047Y-3502380D02*
X18004047Y-2502380D01*
X18099285Y-2645238D01*
X18194523Y-2740476D01*
X18289761Y-2788095D01*
X14408663Y-31938730D02*
X14361522Y-32033011D01*
X14243671Y-32150862D01*
X14172960Y-32174432D01*
X14125820Y-32174432D01*
X14055109Y-32150862D01*
X14007969Y-32103722D01*
X13984399Y-32033011D01*
X13984399Y-31985871D01*
X14007969Y-31915160D01*
X14078680Y-31797309D01*
X14102250Y-31726598D01*
X14102250Y-31679458D01*
X14078680Y-31608747D01*
X14031539Y-31561606D01*
X13960828Y-31538036D01*
X13913688Y-31538036D01*
X13842977Y-31561606D01*
X13725126Y-31679458D01*
X13677986Y-31773739D01*
X13489424Y-31915160D02*
X13866548Y-32527986D01*
X13418713Y-32268713D01*
X13677986Y-32716548D01*
X13065160Y-32339424D01*
X12782317Y-32622267D02*
X12735177Y-32669407D01*
X12711606Y-32740118D01*
X12711606Y-32787258D01*
X12735177Y-32857969D01*
X12805887Y-32975820D01*
X12923739Y-33093671D01*
X13041590Y-33164382D01*
X13112300Y-33187952D01*
X13159441Y-33187952D01*
X13230151Y-33164382D01*
X13277292Y-33117241D01*
X13300862Y-33046531D01*
X13300862Y-32999390D01*
X13277292Y-32928680D01*
X13206581Y-32810828D01*
X13088730Y-32692977D01*
X12970879Y-32622267D01*
X12900168Y-32598696D01*
X12853028Y-32598696D01*
X12782317Y-32622267D01*
X38320389Y-35434687D02*
X38387732Y-35434687D01*
X38522419Y-35367343D01*
X38589763Y-35300000D01*
X38657106Y-35165312D01*
X38657106Y-35030625D01*
X38623435Y-34929610D01*
X38522419Y-34761251D01*
X38421404Y-34660236D01*
X38253045Y-34559221D01*
X38152030Y-34525549D01*
X38017343Y-34525549D01*
X37882656Y-34592893D01*
X37815312Y-34660236D01*
X37747969Y-34794923D01*
X37747969Y-34862267D01*
X37714297Y-36175465D02*
X38118358Y-35771404D01*
X37916328Y-35973435D02*
X37209221Y-35266328D01*
X37377580Y-35300000D01*
X37512267Y-35300000D01*
X37613282Y-35266328D01*
D12*
X48180000Y-50890000D02*
X48180000Y-53050000D01*
X48180000Y-50890000D02*
X47250000Y-50890000D01*
X45020000Y-50890000D02*
X45950000Y-50890000D01*
X45020000Y-50890000D02*
X45020000Y-52350000D01*
X36640000Y-55220000D02*
X36640000Y-56150000D01*
X36640000Y-58380000D02*
X36640000Y-57450000D01*
X36640000Y-55220000D02*
X38800000Y-55220000D01*
X36640000Y-58380000D02*
X38100000Y-58380000D01*
X41270000Y-51190000D02*
X41270000Y-52650000D01*
X44430000Y-51190000D02*
X43500000Y-51190000D01*
X41270000Y-51190000D02*
X42200000Y-51190000D01*
X44430000Y-51190000D02*
X44430000Y-53350000D01*
X22915000Y-20611252D02*
X22915000Y-20088748D01*
X24385000Y-20611252D02*
X24385000Y-20088748D01*
X53830000Y-22010000D02*
X53830000Y-20550000D01*
X50670000Y-22010000D02*
X51600000Y-22010000D01*
X50670000Y-22010000D02*
X50670000Y-19850000D01*
X53830000Y-22010000D02*
X52900000Y-22010000D01*
X31434990Y-32954457D02*
X31804457Y-32584990D01*
X30395543Y-31915010D02*
X30765010Y-31545543D01*
X35670000Y-18460000D02*
X36600000Y-18460000D01*
X35670000Y-18460000D02*
X35670000Y-16300000D01*
X38830000Y-18460000D02*
X38830000Y-17000000D01*
X38830000Y-18460000D02*
X37900000Y-18460000D01*
X22680282Y-35840835D02*
X22359165Y-35519718D01*
X21640835Y-36880282D02*
X21319718Y-36559165D01*
X32070000Y-18460000D02*
X32070000Y-16300000D01*
X35230000Y-18460000D02*
X35230000Y-17000000D01*
X32070000Y-18460000D02*
X33000000Y-18460000D01*
X35230000Y-18460000D02*
X34300000Y-18460000D01*
X38290000Y-11830000D02*
X38290000Y-10900000D01*
X38290000Y-11830000D02*
X39750000Y-11830000D01*
X38290000Y-8670000D02*
X38290000Y-9600000D01*
X38290000Y-8670000D02*
X40450000Y-8670000D01*
X36640000Y-51620000D02*
X38800000Y-51620000D01*
X36640000Y-54780000D02*
X38100000Y-54780000D01*
X36640000Y-54780000D02*
X36640000Y-53850000D01*
X36640000Y-51620000D02*
X36640000Y-52550000D01*
X45470000Y-40060000D02*
X45470000Y-37900000D01*
X45470000Y-40060000D02*
X46400000Y-40060000D01*
X48630000Y-40060000D02*
X47700000Y-40060000D01*
X48630000Y-40060000D02*
X48630000Y-38600000D01*
X55730000Y-44060000D02*
X54800000Y-44060000D01*
X55730000Y-44060000D02*
X55730000Y-42600000D01*
X52570000Y-44060000D02*
X52570000Y-41900000D01*
X52570000Y-44060000D02*
X53500000Y-44060000D01*
X14127064Y-13785000D02*
X13672936Y-13785000D01*
X14127064Y-12315000D02*
X13672936Y-12315000D01*
X19735000Y-20122936D02*
X19735000Y-20577064D01*
X18265000Y-20122936D02*
X18265000Y-20577064D01*
X38290000Y-7830000D02*
X39750000Y-7830000D01*
X38290000Y-7830000D02*
X38290000Y-6900000D01*
X38290000Y-4670000D02*
X38290000Y-5600000D01*
X38290000Y-4670000D02*
X40450000Y-4670000D01*
X21254457Y-37315010D02*
X20884990Y-36945543D01*
X20215010Y-38354457D02*
X19845543Y-37984990D01*
D11*
X23448476Y-40481250D02*
X23678286Y-40251440D01*
X28734099Y-35513825D02*
X29741726Y-34506198D01*
X28575000Y-35354726D02*
X28345190Y-35584536D01*
X28575000Y-45607774D02*
X28804810Y-45377964D01*
X23448476Y-40481250D02*
X23678286Y-40711060D01*
X33701524Y-40481250D02*
X33471714Y-40251440D01*
X28575000Y-45607774D02*
X28345190Y-45377964D01*
X28575000Y-35354726D02*
X28734099Y-35513825D01*
X33701524Y-40481250D02*
X33471714Y-40711060D01*
D12*
X33502513Y-32169060D02*
X36330940Y-34997487D01*
X31169060Y-34502513D02*
X33502513Y-32169060D01*
X28585000Y-20611252D02*
X28585000Y-20088748D01*
X27115000Y-20611252D02*
X27115000Y-20088748D01*
X12365000Y-16140000D02*
X11375000Y-16140000D01*
X12365000Y-21310000D02*
X12365000Y-20260000D01*
X14865000Y-21310000D02*
X12365000Y-21310000D01*
X12365000Y-15090000D02*
X12365000Y-16140000D01*
X14865000Y-15090000D02*
X12365000Y-15090000D01*
X16835000Y-16260000D02*
X16835000Y-20140000D01*
X25680282Y-48890835D02*
X25359165Y-48569718D01*
X24640835Y-49930282D02*
X24319718Y-49609165D01*
X50180000Y-22010000D02*
X49250000Y-22010000D01*
X47020000Y-22010000D02*
X47020000Y-19850000D01*
X47020000Y-22010000D02*
X47950000Y-22010000D01*
X50180000Y-22010000D02*
X50180000Y-20550000D01*
X41440000Y-33520000D02*
X43600000Y-33520000D01*
X41440000Y-33520000D02*
X41440000Y-34450000D01*
X41440000Y-36680000D02*
X41440000Y-35750000D01*
X41440000Y-36680000D02*
X42900000Y-36680000D01*
X48970000Y-49440000D02*
X49900000Y-49440000D01*
X52130000Y-49440000D02*
X52130000Y-51600000D01*
X48970000Y-49440000D02*
X48970000Y-50900000D01*
X52130000Y-49440000D02*
X51200000Y-49440000D01*
X36640000Y-72880000D02*
X36640000Y-71950000D01*
X36640000Y-69720000D02*
X36640000Y-70650000D01*
X36640000Y-72880000D02*
X38100000Y-72880000D01*
X36640000Y-69720000D02*
X38800000Y-69720000D01*
X41440000Y-33030000D02*
X41440000Y-32100000D01*
X41440000Y-29870000D02*
X41440000Y-30800000D01*
X41440000Y-29870000D02*
X43600000Y-29870000D01*
X41440000Y-33030000D02*
X42900000Y-33030000D01*
X25015000Y-20611252D02*
X25015000Y-20088748D01*
X26485000Y-20611252D02*
X26485000Y-20088748D01*
X57480000Y-6460000D02*
X56550000Y-6460000D01*
X54320000Y-6460000D02*
X54320000Y-4300000D01*
X54320000Y-6460000D02*
X55250000Y-6460000D01*
X57480000Y-6460000D02*
X57480000Y-5000000D01*
G36*
X106198268Y-80494925D02*
G01*
X106337390Y-80560414D01*
X106469701Y-80682081D01*
X106567884Y-80793904D01*
X106577602Y-80659890D01*
X106587319Y-80525876D01*
X106738132Y-80516198D01*
X106888944Y-80506521D01*
X106888944Y-81471344D01*
X106888833Y-81567080D01*
X106887583Y-81801537D01*
X106885088Y-82012265D01*
X106881532Y-82191308D01*
X106877096Y-82330714D01*
X106871962Y-82422529D01*
X106866314Y-82458798D01*
X106853891Y-82464849D01*
X106790970Y-82473094D01*
X106699627Y-82472027D01*
X106555569Y-82462626D01*
X106538321Y-81199262D01*
X106429916Y-81051584D01*
X106422600Y-81041679D01*
X106324457Y-80925782D01*
X106231094Y-80859214D01*
X106124231Y-80833235D01*
X105985592Y-80839103D01*
X105809444Y-80859805D01*
X105809444Y-80701895D01*
X105819451Y-80590775D01*
X105857579Y-80521685D01*
X105935013Y-80487465D01*
X106062934Y-80478251D01*
X106198268Y-80494925D01*
G37*
D13*
X106198268Y-80494925D02*
X106337390Y-80560414D01*
X106469701Y-80682081D01*
X106567884Y-80793904D01*
X106577602Y-80659890D01*
X106587319Y-80525876D01*
X106738132Y-80516198D01*
X106888944Y-80506521D01*
X106888944Y-81471344D01*
X106888833Y-81567080D01*
X106887583Y-81801537D01*
X106885088Y-82012265D01*
X106881532Y-82191308D01*
X106877096Y-82330714D01*
X106871962Y-82422529D01*
X106866314Y-82458798D01*
X106853891Y-82464849D01*
X106790970Y-82473094D01*
X106699627Y-82472027D01*
X106555569Y-82462626D01*
X106538321Y-81199262D01*
X106429916Y-81051584D01*
X106422600Y-81041679D01*
X106324457Y-80925782D01*
X106231094Y-80859214D01*
X106124231Y-80833235D01*
X105985592Y-80839103D01*
X105809444Y-80859805D01*
X105809444Y-80701895D01*
X105819451Y-80590775D01*
X105857579Y-80521685D01*
X105935013Y-80487465D01*
X106062934Y-80478251D01*
X106198268Y-80494925D01*
G36*
X109095542Y-81493926D02*
G01*
X109080042Y-81728164D01*
X109062473Y-81822087D01*
X108986435Y-82050899D01*
X108869091Y-82232714D01*
X108708492Y-82370020D01*
X108502692Y-82465303D01*
X108445241Y-82480348D01*
X108290533Y-82498591D01*
X108111664Y-82497916D01*
X107926050Y-82480381D01*
X107751104Y-82448043D01*
X107604240Y-82402960D01*
X107502873Y-82347188D01*
X107494584Y-82338803D01*
X107466757Y-82270191D01*
X107463438Y-82181355D01*
X107486809Y-82105128D01*
X107491630Y-82098849D01*
X107525395Y-82085881D01*
X107590675Y-82095963D01*
X107700635Y-82130667D01*
X107818048Y-82163608D01*
X107991714Y-82191358D01*
X108164578Y-82199249D01*
X108317012Y-82186678D01*
X108429386Y-82153042D01*
X108496729Y-82110691D01*
X108617666Y-81984787D01*
X108698196Y-81824341D01*
X108729051Y-81645063D01*
X108730444Y-81557751D01*
X108101794Y-81557751D01*
X107881360Y-81556609D01*
X107691824Y-81552493D01*
X107557241Y-81545132D01*
X107473139Y-81534269D01*
X107435044Y-81519651D01*
X107415439Y-81481954D01*
X107400395Y-81388858D01*
X107399955Y-81265993D01*
X107401805Y-81248188D01*
X107746372Y-81248188D01*
X107746469Y-81252299D01*
X107753562Y-81272325D01*
X107778411Y-81286393D01*
X107830163Y-81295537D01*
X107917966Y-81300789D01*
X108050969Y-81303182D01*
X108238319Y-81303751D01*
X108308574Y-81303755D01*
X108488324Y-81302625D01*
X108613535Y-81296585D01*
X108690994Y-81281522D01*
X108727485Y-81253324D01*
X108729794Y-81207878D01*
X108704706Y-81141073D01*
X108659007Y-81048797D01*
X108608168Y-80962062D01*
X108496068Y-80844482D01*
X108356419Y-80782109D01*
X108182725Y-80771156D01*
X108181526Y-80771241D01*
X108061530Y-80786423D01*
X107978073Y-80817823D01*
X107904711Y-80875349D01*
X107839191Y-80956792D01*
X107772130Y-81100191D01*
X107746372Y-81248188D01*
X107401805Y-81248188D01*
X107413871Y-81132055D01*
X107441893Y-81005740D01*
X107494196Y-80872245D01*
X107611449Y-80702345D01*
X107770683Y-80579171D01*
X107969766Y-80504191D01*
X108206569Y-80478871D01*
X108314258Y-80484407D01*
X108538521Y-80535831D01*
X108732234Y-80637695D01*
X108888495Y-80785682D01*
X109000404Y-80975474D01*
X109021970Y-81032491D01*
X109064348Y-81207878D01*
X109075213Y-81252846D01*
X109095542Y-81493926D01*
G37*
X109095542Y-81493926D02*
X109080042Y-81728164D01*
X109062473Y-81822087D01*
X108986435Y-82050899D01*
X108869091Y-82232714D01*
X108708492Y-82370020D01*
X108502692Y-82465303D01*
X108445241Y-82480348D01*
X108290533Y-82498591D01*
X108111664Y-82497916D01*
X107926050Y-82480381D01*
X107751104Y-82448043D01*
X107604240Y-82402960D01*
X107502873Y-82347188D01*
X107494584Y-82338803D01*
X107466757Y-82270191D01*
X107463438Y-82181355D01*
X107486809Y-82105128D01*
X107491630Y-82098849D01*
X107525395Y-82085881D01*
X107590675Y-82095963D01*
X107700635Y-82130667D01*
X107818048Y-82163608D01*
X107991714Y-82191358D01*
X108164578Y-82199249D01*
X108317012Y-82186678D01*
X108429386Y-82153042D01*
X108496729Y-82110691D01*
X108617666Y-81984787D01*
X108698196Y-81824341D01*
X108729051Y-81645063D01*
X108730444Y-81557751D01*
X108101794Y-81557751D01*
X107881360Y-81556609D01*
X107691824Y-81552493D01*
X107557241Y-81545132D01*
X107473139Y-81534269D01*
X107435044Y-81519651D01*
X107415439Y-81481954D01*
X107400395Y-81388858D01*
X107399955Y-81265993D01*
X107401805Y-81248188D01*
X107746372Y-81248188D01*
X107746469Y-81252299D01*
X107753562Y-81272325D01*
X107778411Y-81286393D01*
X107830163Y-81295537D01*
X107917966Y-81300789D01*
X108050969Y-81303182D01*
X108238319Y-81303751D01*
X108308574Y-81303755D01*
X108488324Y-81302625D01*
X108613535Y-81296585D01*
X108690994Y-81281522D01*
X108727485Y-81253324D01*
X108729794Y-81207878D01*
X108704706Y-81141073D01*
X108659007Y-81048797D01*
X108608168Y-80962062D01*
X108496068Y-80844482D01*
X108356419Y-80782109D01*
X108182725Y-80771156D01*
X108181526Y-80771241D01*
X108061530Y-80786423D01*
X107978073Y-80817823D01*
X107904711Y-80875349D01*
X107839191Y-80956792D01*
X107772130Y-81100191D01*
X107746372Y-81248188D01*
X107401805Y-81248188D01*
X107413871Y-81132055D01*
X107441893Y-81005740D01*
X107494196Y-80872245D01*
X107611449Y-80702345D01*
X107770683Y-80579171D01*
X107969766Y-80504191D01*
X108206569Y-80478871D01*
X108314258Y-80484407D01*
X108538521Y-80535831D01*
X108732234Y-80637695D01*
X108888495Y-80785682D01*
X109000404Y-80975474D01*
X109021970Y-81032491D01*
X109064348Y-81207878D01*
X109075213Y-81252846D01*
X109095542Y-81493926D01*
G36*
X89861204Y-79812627D02*
G01*
X89972323Y-79827860D01*
X90049758Y-79857688D01*
X90075459Y-79890719D01*
X90125912Y-79983269D01*
X90196771Y-80131514D01*
X90287084Y-80333367D01*
X90395893Y-80586745D01*
X90522246Y-80889563D01*
X90593513Y-81061588D01*
X90685769Y-81281884D01*
X90768775Y-81477369D01*
X90839584Y-81641246D01*
X90895252Y-81766717D01*
X90932832Y-81846984D01*
X90949380Y-81875251D01*
X90958546Y-81860919D01*
X90989284Y-81794871D01*
X91038261Y-81681381D01*
X91102621Y-81527307D01*
X91179508Y-81339510D01*
X91266068Y-81124849D01*
X91359443Y-80890185D01*
X91462414Y-80631543D01*
X91560881Y-80389254D01*
X91641305Y-80198196D01*
X91705692Y-80053895D01*
X91756047Y-79951876D01*
X91794376Y-79887665D01*
X91822685Y-79856786D01*
X91864606Y-79836622D01*
X91964518Y-79818438D01*
X92113202Y-79817913D01*
X92229926Y-79825299D01*
X92300943Y-79838707D01*
X92342014Y-79863915D01*
X92369980Y-79906751D01*
X92378456Y-79941942D01*
X92388170Y-80036269D01*
X92396332Y-80177529D01*
X92402936Y-80357227D01*
X92407978Y-80566871D01*
X92411453Y-80797968D01*
X92413357Y-81042024D01*
X92413684Y-81290546D01*
X92412429Y-81535041D01*
X92409589Y-81767015D01*
X92405157Y-81977976D01*
X92399129Y-82159431D01*
X92391501Y-82302886D01*
X92382267Y-82399847D01*
X92371422Y-82441823D01*
X92361853Y-82449116D01*
X92291880Y-82469281D01*
X92188860Y-82471985D01*
X92045819Y-82462626D01*
X92014069Y-80179470D01*
X91587759Y-81289298D01*
X91580007Y-81309471D01*
X91483209Y-81560318D01*
X91392813Y-81792673D01*
X91311520Y-81999729D01*
X91242033Y-82174678D01*
X91187055Y-82310714D01*
X91149288Y-82401028D01*
X91131434Y-82438813D01*
X91120769Y-82448025D01*
X91057084Y-82469797D01*
X90966319Y-82478501D01*
X90934217Y-82477420D01*
X90849358Y-82463553D01*
X90800641Y-82438813D01*
X90799964Y-82437834D01*
X90779776Y-82395569D01*
X90739215Y-82301606D01*
X90681069Y-82162714D01*
X90608129Y-81985661D01*
X90523185Y-81777215D01*
X90429025Y-81544143D01*
X90328441Y-81293216D01*
X89886819Y-80187306D01*
X89855069Y-82462626D01*
X89505819Y-82462626D01*
X89497524Y-81187314D01*
X89496299Y-80987260D01*
X89494998Y-80700689D01*
X89494787Y-80468212D01*
X89495853Y-80283952D01*
X89498382Y-80142030D01*
X89502559Y-80036568D01*
X89508572Y-79961687D01*
X89516605Y-79911510D01*
X89526846Y-79880157D01*
X89539479Y-79861751D01*
X89550830Y-79852710D01*
X89627949Y-79825231D01*
X89738910Y-79811810D01*
X89861204Y-79812627D01*
G37*
X89861204Y-79812627D02*
X89972323Y-79827860D01*
X90049758Y-79857688D01*
X90075459Y-79890719D01*
X90125912Y-79983269D01*
X90196771Y-80131514D01*
X90287084Y-80333367D01*
X90395893Y-80586745D01*
X90522246Y-80889563D01*
X90593513Y-81061588D01*
X90685769Y-81281884D01*
X90768775Y-81477369D01*
X90839584Y-81641246D01*
X90895252Y-81766717D01*
X90932832Y-81846984D01*
X90949380Y-81875251D01*
X90958546Y-81860919D01*
X90989284Y-81794871D01*
X91038261Y-81681381D01*
X91102621Y-81527307D01*
X91179508Y-81339510D01*
X91266068Y-81124849D01*
X91359443Y-80890185D01*
X91462414Y-80631543D01*
X91560881Y-80389254D01*
X91641305Y-80198196D01*
X91705692Y-80053895D01*
X91756047Y-79951876D01*
X91794376Y-79887665D01*
X91822685Y-79856786D01*
X91864606Y-79836622D01*
X91964518Y-79818438D01*
X92113202Y-79817913D01*
X92229926Y-79825299D01*
X92300943Y-79838707D01*
X92342014Y-79863915D01*
X92369980Y-79906751D01*
X92378456Y-79941942D01*
X92388170Y-80036269D01*
X92396332Y-80177529D01*
X92402936Y-80357227D01*
X92407978Y-80566871D01*
X92411453Y-80797968D01*
X92413357Y-81042024D01*
X92413684Y-81290546D01*
X92412429Y-81535041D01*
X92409589Y-81767015D01*
X92405157Y-81977976D01*
X92399129Y-82159431D01*
X92391501Y-82302886D01*
X92382267Y-82399847D01*
X92371422Y-82441823D01*
X92361853Y-82449116D01*
X92291880Y-82469281D01*
X92188860Y-82471985D01*
X92045819Y-82462626D01*
X92014069Y-80179470D01*
X91587759Y-81289298D01*
X91580007Y-81309471D01*
X91483209Y-81560318D01*
X91392813Y-81792673D01*
X91311520Y-81999729D01*
X91242033Y-82174678D01*
X91187055Y-82310714D01*
X91149288Y-82401028D01*
X91131434Y-82438813D01*
X91120769Y-82448025D01*
X91057084Y-82469797D01*
X90966319Y-82478501D01*
X90934217Y-82477420D01*
X90849358Y-82463553D01*
X90800641Y-82438813D01*
X90799964Y-82437834D01*
X90779776Y-82395569D01*
X90739215Y-82301606D01*
X90681069Y-82162714D01*
X90608129Y-81985661D01*
X90523185Y-81777215D01*
X90429025Y-81544143D01*
X90328441Y-81293216D01*
X89886819Y-80187306D01*
X89855069Y-82462626D01*
X89505819Y-82462626D01*
X89497524Y-81187314D01*
X89496299Y-80987260D01*
X89494998Y-80700689D01*
X89494787Y-80468212D01*
X89495853Y-80283952D01*
X89498382Y-80142030D01*
X89502559Y-80036568D01*
X89508572Y-79961687D01*
X89516605Y-79911510D01*
X89526846Y-79880157D01*
X89539479Y-79861751D01*
X89550830Y-79852710D01*
X89627949Y-79825231D01*
X89738910Y-79811810D01*
X89861204Y-79812627D01*
G36*
X87427765Y-79806062D02*
G01*
X87436680Y-79810849D01*
X87491221Y-79858381D01*
X87576994Y-79948753D01*
X87688547Y-80075806D01*
X87820428Y-80233381D01*
X87967184Y-80415320D01*
X88426319Y-80994054D01*
X88458069Y-79829660D01*
X88553319Y-79802430D01*
X88617344Y-79791874D01*
X88735882Y-79808439D01*
X88823194Y-79841679D01*
X88823194Y-81138923D01*
X88823101Y-81256851D01*
X88822142Y-81530583D01*
X88820236Y-81781646D01*
X88817502Y-82003237D01*
X88814054Y-82188548D01*
X88810011Y-82330776D01*
X88805488Y-82423115D01*
X88800602Y-82458760D01*
X88782657Y-82466042D01*
X88714254Y-82473234D01*
X88618039Y-82471989D01*
X88458069Y-82462626D01*
X88426319Y-81140748D01*
X87968063Y-81765551D01*
X87878122Y-81887862D01*
X87755035Y-82054182D01*
X87646348Y-82199804D01*
X87557812Y-82317076D01*
X87495181Y-82398344D01*
X87464205Y-82435954D01*
X87452943Y-82444977D01*
X87383801Y-82468857D01*
X87290659Y-82475934D01*
X87195148Y-82467643D01*
X87118901Y-82445420D01*
X87083552Y-82410699D01*
X87095513Y-82379114D01*
X87141046Y-82302158D01*
X87215779Y-82188534D01*
X87314737Y-82045567D01*
X87432945Y-81880587D01*
X87565428Y-81700921D01*
X88057168Y-81043070D01*
X87598806Y-80494398D01*
X87559695Y-80447377D01*
X87421993Y-80278215D01*
X87306257Y-80130253D01*
X87217446Y-80010139D01*
X87160522Y-79924523D01*
X87140444Y-79880052D01*
X87166743Y-79829212D01*
X87236199Y-79795798D01*
X87329615Y-79786431D01*
X87427765Y-79806062D01*
G37*
X87427765Y-79806062D02*
X87436680Y-79810849D01*
X87491221Y-79858381D01*
X87576994Y-79948753D01*
X87688547Y-80075806D01*
X87820428Y-80233381D01*
X87967184Y-80415320D01*
X88426319Y-80994054D01*
X88458069Y-79829660D01*
X88553319Y-79802430D01*
X88617344Y-79791874D01*
X88735882Y-79808439D01*
X88823194Y-79841679D01*
X88823194Y-81138923D01*
X88823101Y-81256851D01*
X88822142Y-81530583D01*
X88820236Y-81781646D01*
X88817502Y-82003237D01*
X88814054Y-82188548D01*
X88810011Y-82330776D01*
X88805488Y-82423115D01*
X88800602Y-82458760D01*
X88782657Y-82466042D01*
X88714254Y-82473234D01*
X88618039Y-82471989D01*
X88458069Y-82462626D01*
X88426319Y-81140748D01*
X87968063Y-81765551D01*
X87878122Y-81887862D01*
X87755035Y-82054182D01*
X87646348Y-82199804D01*
X87557812Y-82317076D01*
X87495181Y-82398344D01*
X87464205Y-82435954D01*
X87452943Y-82444977D01*
X87383801Y-82468857D01*
X87290659Y-82475934D01*
X87195148Y-82467643D01*
X87118901Y-82445420D01*
X87083552Y-82410699D01*
X87095513Y-82379114D01*
X87141046Y-82302158D01*
X87215779Y-82188534D01*
X87314737Y-82045567D01*
X87432945Y-81880587D01*
X87565428Y-81700921D01*
X88057168Y-81043070D01*
X87598806Y-80494398D01*
X87559695Y-80447377D01*
X87421993Y-80278215D01*
X87306257Y-80130253D01*
X87217446Y-80010139D01*
X87160522Y-79924523D01*
X87140444Y-79880052D01*
X87166743Y-79829212D01*
X87236199Y-79795798D01*
X87329615Y-79786431D01*
X87427765Y-79806062D01*
G36*
X98202098Y-80510597D02*
G01*
X98275748Y-80517479D01*
X98308801Y-80536667D01*
X98316444Y-80573818D01*
X98314120Y-80587421D01*
X98293907Y-80656767D01*
X98255147Y-80774175D01*
X98200549Y-80931887D01*
X98132823Y-81122144D01*
X98054678Y-81337187D01*
X97968824Y-81569258D01*
X97621204Y-82500881D01*
X97747978Y-82823826D01*
X97789351Y-82933856D01*
X97828964Y-83051491D01*
X97852404Y-83137258D01*
X97855600Y-83177761D01*
X97854875Y-83178840D01*
X97809161Y-83199148D01*
X97726433Y-83207731D01*
X97630982Y-83205183D01*
X97547098Y-83192096D01*
X97499072Y-83169063D01*
X97491798Y-83155686D01*
X97463129Y-83087991D01*
X97417823Y-82971995D01*
X97358641Y-82815403D01*
X97288341Y-82625921D01*
X97209681Y-82411254D01*
X97125420Y-82179108D01*
X97038316Y-81937186D01*
X96951129Y-81693196D01*
X96866616Y-81454841D01*
X96787537Y-81229828D01*
X96716650Y-81025861D01*
X96656714Y-80850646D01*
X96610487Y-80711888D01*
X96580727Y-80617292D01*
X96570194Y-80574563D01*
X96570841Y-80559658D01*
X96585834Y-80527749D01*
X96632660Y-80513357D01*
X96727071Y-80510001D01*
X96781133Y-80511916D01*
X96863072Y-80523669D01*
X96904078Y-80542573D01*
X96912107Y-80561102D01*
X96939394Y-80633642D01*
X96982051Y-80751859D01*
X97036968Y-80907019D01*
X97101039Y-81090386D01*
X97171155Y-81293226D01*
X97220437Y-81434751D01*
X97286087Y-81617467D01*
X97343683Y-81771041D01*
X97390204Y-81887704D01*
X97422627Y-81959686D01*
X97437933Y-81979217D01*
X97442544Y-81969341D01*
X97466757Y-81907811D01*
X97507286Y-81799447D01*
X97560796Y-81653327D01*
X97623950Y-81478527D01*
X97693411Y-81284127D01*
X97723113Y-81200618D01*
X97790778Y-81010840D01*
X97850860Y-80842956D01*
X97899950Y-80706456D01*
X97934641Y-80610828D01*
X97951523Y-80565563D01*
X97978143Y-80532989D01*
X98037928Y-80515011D01*
X98145216Y-80510001D01*
X98202098Y-80510597D01*
G37*
X98202098Y-80510597D02*
X98275748Y-80517479D01*
X98308801Y-80536667D01*
X98316444Y-80573818D01*
X98314120Y-80587421D01*
X98293907Y-80656767D01*
X98255147Y-80774175D01*
X98200549Y-80931887D01*
X98132823Y-81122144D01*
X98054678Y-81337187D01*
X97968824Y-81569258D01*
X97621204Y-82500881D01*
X97747978Y-82823826D01*
X97789351Y-82933856D01*
X97828964Y-83051491D01*
X97852404Y-83137258D01*
X97855600Y-83177761D01*
X97854875Y-83178840D01*
X97809161Y-83199148D01*
X97726433Y-83207731D01*
X97630982Y-83205183D01*
X97547098Y-83192096D01*
X97499072Y-83169063D01*
X97491798Y-83155686D01*
X97463129Y-83087991D01*
X97417823Y-82971995D01*
X97358641Y-82815403D01*
X97288341Y-82625921D01*
X97209681Y-82411254D01*
X97125420Y-82179108D01*
X97038316Y-81937186D01*
X96951129Y-81693196D01*
X96866616Y-81454841D01*
X96787537Y-81229828D01*
X96716650Y-81025861D01*
X96656714Y-80850646D01*
X96610487Y-80711888D01*
X96580727Y-80617292D01*
X96570194Y-80574563D01*
X96570841Y-80559658D01*
X96585834Y-80527749D01*
X96632660Y-80513357D01*
X96727071Y-80510001D01*
X96781133Y-80511916D01*
X96863072Y-80523669D01*
X96904078Y-80542573D01*
X96912107Y-80561102D01*
X96939394Y-80633642D01*
X96982051Y-80751859D01*
X97036968Y-80907019D01*
X97101039Y-81090386D01*
X97171155Y-81293226D01*
X97220437Y-81434751D01*
X97286087Y-81617467D01*
X97343683Y-81771041D01*
X97390204Y-81887704D01*
X97422627Y-81959686D01*
X97437933Y-81979217D01*
X97442544Y-81969341D01*
X97466757Y-81907811D01*
X97507286Y-81799447D01*
X97560796Y-81653327D01*
X97623950Y-81478527D01*
X97693411Y-81284127D01*
X97723113Y-81200618D01*
X97790778Y-81010840D01*
X97850860Y-80842956D01*
X97899950Y-80706456D01*
X97934641Y-80610828D01*
X97951523Y-80565563D01*
X97978143Y-80532989D01*
X98037928Y-80515011D01*
X98145216Y-80510001D01*
X98202098Y-80510597D01*
G36*
X105611257Y-81600793D02*
G01*
X105570131Y-81858818D01*
X105555198Y-81912652D01*
X105478108Y-82108045D01*
X105371940Y-82255853D01*
X105226660Y-82367161D01*
X105032233Y-82453055D01*
X104842961Y-82497264D01*
X104594616Y-82503088D01*
X104312231Y-82459331D01*
X104200714Y-82429518D01*
X104068547Y-82372500D01*
X103992383Y-82301997D01*
X103967944Y-82214975D01*
X103968127Y-82202006D01*
X103981936Y-82132316D01*
X104024334Y-82099895D01*
X104104643Y-82101945D01*
X104232186Y-82135668D01*
X104322735Y-82159383D01*
X104485623Y-82187647D01*
X104636526Y-82199509D01*
X104794706Y-82189803D01*
X104968323Y-82139647D01*
X105097067Y-82045466D01*
X105182886Y-81905675D01*
X105227729Y-81718689D01*
X105246789Y-81557751D01*
X104611255Y-81557751D01*
X104469137Y-81557810D01*
X104270155Y-81556778D01*
X104122985Y-81551383D01*
X104020238Y-81538226D01*
X103954521Y-81513903D01*
X103918444Y-81475014D01*
X103904616Y-81418157D01*
X103905647Y-81339931D01*
X103908632Y-81303751D01*
X104246628Y-81303751D01*
X104742286Y-81303751D01*
X104926045Y-81302684D01*
X105072730Y-81298734D01*
X105169025Y-81291345D01*
X105221761Y-81279971D01*
X105237767Y-81264063D01*
X105218490Y-81149966D01*
X105156345Y-81010872D01*
X105063983Y-80891644D01*
X105039291Y-80868362D01*
X104966018Y-80813446D01*
X104885627Y-80785214D01*
X104769985Y-80772239D01*
X104706099Y-80770652D01*
X104541196Y-80798229D01*
X104414634Y-80875540D01*
X104324470Y-81004191D01*
X104268758Y-81185785D01*
X104246628Y-81303751D01*
X103908632Y-81303751D01*
X103914145Y-81236935D01*
X103922757Y-81161276D01*
X103981763Y-80934702D01*
X104085416Y-80751150D01*
X104231335Y-80613089D01*
X104417142Y-80522988D01*
X104640457Y-80483317D01*
X104755185Y-80482014D01*
X104893426Y-80491471D01*
X105001753Y-80510542D01*
X105135434Y-80570350D01*
X105276613Y-80670599D01*
X105401764Y-80792715D01*
X105489360Y-80918680D01*
X105556296Y-81087739D01*
X105591475Y-81264063D01*
X105606092Y-81337333D01*
X105611257Y-81600793D01*
G37*
X105611257Y-81600793D02*
X105570131Y-81858818D01*
X105555198Y-81912652D01*
X105478108Y-82108045D01*
X105371940Y-82255853D01*
X105226660Y-82367161D01*
X105032233Y-82453055D01*
X104842961Y-82497264D01*
X104594616Y-82503088D01*
X104312231Y-82459331D01*
X104200714Y-82429518D01*
X104068547Y-82372500D01*
X103992383Y-82301997D01*
X103967944Y-82214975D01*
X103968127Y-82202006D01*
X103981936Y-82132316D01*
X104024334Y-82099895D01*
X104104643Y-82101945D01*
X104232186Y-82135668D01*
X104322735Y-82159383D01*
X104485623Y-82187647D01*
X104636526Y-82199509D01*
X104794706Y-82189803D01*
X104968323Y-82139647D01*
X105097067Y-82045466D01*
X105182886Y-81905675D01*
X105227729Y-81718689D01*
X105246789Y-81557751D01*
X104611255Y-81557751D01*
X104469137Y-81557810D01*
X104270155Y-81556778D01*
X104122985Y-81551383D01*
X104020238Y-81538226D01*
X103954521Y-81513903D01*
X103918444Y-81475014D01*
X103904616Y-81418157D01*
X103905647Y-81339931D01*
X103908632Y-81303751D01*
X104246628Y-81303751D01*
X104742286Y-81303751D01*
X104926045Y-81302684D01*
X105072730Y-81298734D01*
X105169025Y-81291345D01*
X105221761Y-81279971D01*
X105237767Y-81264063D01*
X105218490Y-81149966D01*
X105156345Y-81010872D01*
X105063983Y-80891644D01*
X105039291Y-80868362D01*
X104966018Y-80813446D01*
X104885627Y-80785214D01*
X104769985Y-80772239D01*
X104706099Y-80770652D01*
X104541196Y-80798229D01*
X104414634Y-80875540D01*
X104324470Y-81004191D01*
X104268758Y-81185785D01*
X104246628Y-81303751D01*
X103908632Y-81303751D01*
X103914145Y-81236935D01*
X103922757Y-81161276D01*
X103981763Y-80934702D01*
X104085416Y-80751150D01*
X104231335Y-80613089D01*
X104417142Y-80522988D01*
X104640457Y-80483317D01*
X104755185Y-80482014D01*
X104893426Y-80491471D01*
X105001753Y-80510542D01*
X105135434Y-80570350D01*
X105276613Y-80670599D01*
X105401764Y-80792715D01*
X105489360Y-80918680D01*
X105556296Y-81087739D01*
X105591475Y-81264063D01*
X105606092Y-81337333D01*
X105611257Y-81600793D01*
G36*
X116154868Y-80307489D02*
G01*
X116157769Y-80535758D01*
X116159421Y-80819184D01*
X116159944Y-81161934D01*
X116159881Y-81260434D01*
X116159030Y-81532749D01*
X116157270Y-81782720D01*
X116154714Y-82003487D01*
X116151475Y-82188191D01*
X116147665Y-82329973D01*
X116143395Y-82421974D01*
X116138778Y-82457334D01*
X116119236Y-82467697D01*
X116047836Y-82477950D01*
X115955556Y-82475865D01*
X115869568Y-82462872D01*
X115817044Y-82440401D01*
X115800616Y-82398197D01*
X115788420Y-82301058D01*
X115781274Y-82146834D01*
X115778944Y-81932401D01*
X115778944Y-81462501D01*
X115530707Y-81462501D01*
X115411384Y-81458654D01*
X115149634Y-81417559D01*
X114931029Y-81332831D01*
X114757507Y-81206152D01*
X114631007Y-81039205D01*
X114553466Y-80833672D01*
X114534433Y-80660471D01*
X114929204Y-80660471D01*
X114936707Y-80740714D01*
X114977014Y-80892430D01*
X115055043Y-81004540D01*
X115177951Y-81089389D01*
X115227510Y-81110012D01*
X115355691Y-81136520D01*
X115532882Y-81144951D01*
X115778944Y-81145001D01*
X115778944Y-80129001D01*
X115516512Y-80129001D01*
X115411986Y-80132156D01*
X115219907Y-80162565D01*
X115078847Y-80227652D01*
X114985549Y-80330366D01*
X114936754Y-80473656D01*
X114929204Y-80660471D01*
X114534433Y-80660471D01*
X114526824Y-80591235D01*
X114535118Y-80460867D01*
X114591414Y-80253451D01*
X114698519Y-80081675D01*
X114853646Y-79949400D01*
X115054010Y-79860488D01*
X115087065Y-79852158D01*
X115200437Y-79834285D01*
X115345496Y-79821151D01*
X115508681Y-79812894D01*
X115676431Y-79809652D01*
X115835184Y-79811564D01*
X115971378Y-79818767D01*
X116071452Y-79831399D01*
X116121845Y-79849601D01*
X116128351Y-79862617D01*
X116137459Y-79911940D01*
X116144833Y-79999747D01*
X116150543Y-80129001D01*
X116150596Y-80130208D01*
X116154868Y-80307489D01*
G37*
X116154868Y-80307489D02*
X116157769Y-80535758D01*
X116159421Y-80819184D01*
X116159944Y-81161934D01*
X116159881Y-81260434D01*
X116159030Y-81532749D01*
X116157270Y-81782720D01*
X116154714Y-82003487D01*
X116151475Y-82188191D01*
X116147665Y-82329973D01*
X116143395Y-82421974D01*
X116138778Y-82457334D01*
X116119236Y-82467697D01*
X116047836Y-82477950D01*
X115955556Y-82475865D01*
X115869568Y-82462872D01*
X115817044Y-82440401D01*
X115800616Y-82398197D01*
X115788420Y-82301058D01*
X115781274Y-82146834D01*
X115778944Y-81932401D01*
X115778944Y-81462501D01*
X115530707Y-81462501D01*
X115411384Y-81458654D01*
X115149634Y-81417559D01*
X114931029Y-81332831D01*
X114757507Y-81206152D01*
X114631007Y-81039205D01*
X114553466Y-80833672D01*
X114534433Y-80660471D01*
X114929204Y-80660471D01*
X114936707Y-80740714D01*
X114977014Y-80892430D01*
X115055043Y-81004540D01*
X115177951Y-81089389D01*
X115227510Y-81110012D01*
X115355691Y-81136520D01*
X115532882Y-81144951D01*
X115778944Y-81145001D01*
X115778944Y-80129001D01*
X115516512Y-80129001D01*
X115411986Y-80132156D01*
X115219907Y-80162565D01*
X115078847Y-80227652D01*
X114985549Y-80330366D01*
X114936754Y-80473656D01*
X114929204Y-80660471D01*
X114534433Y-80660471D01*
X114526824Y-80591235D01*
X114535118Y-80460867D01*
X114591414Y-80253451D01*
X114698519Y-80081675D01*
X114853646Y-79949400D01*
X115054010Y-79860488D01*
X115087065Y-79852158D01*
X115200437Y-79834285D01*
X115345496Y-79821151D01*
X115508681Y-79812894D01*
X115676431Y-79809652D01*
X115835184Y-79811564D01*
X115971378Y-79818767D01*
X116071452Y-79831399D01*
X116121845Y-79849601D01*
X116128351Y-79862617D01*
X116137459Y-79911940D01*
X116144833Y-79999747D01*
X116150543Y-80129001D01*
X116150596Y-80130208D01*
X116154868Y-80307489D01*
G36*
X103498897Y-81778023D02*
G01*
X103438813Y-82022717D01*
X103339658Y-82219814D01*
X103202237Y-82367895D01*
X103027358Y-82465541D01*
X102915976Y-82494106D01*
X102724565Y-82498217D01*
X102529831Y-82456666D01*
X102350621Y-82374262D01*
X102205781Y-82255817D01*
X102142319Y-82185303D01*
X102126444Y-82323964D01*
X102110569Y-82462626D01*
X101824819Y-82462626D01*
X101824819Y-81094388D01*
X102189944Y-81094388D01*
X102190948Y-81476882D01*
X102190994Y-81491804D01*
X102194137Y-81669228D01*
X102206101Y-81798306D01*
X102232907Y-81893140D01*
X102280574Y-81967831D01*
X102355122Y-82036481D01*
X102462569Y-82113191D01*
X102553841Y-82163312D01*
X102702568Y-82197100D01*
X102843485Y-82171874D01*
X102967722Y-82088073D01*
X103043996Y-81993178D01*
X103101022Y-81866229D01*
X103132456Y-81704227D01*
X103142090Y-81494251D01*
X103142081Y-81486155D01*
X103133171Y-81287550D01*
X103104587Y-81135010D01*
X103051924Y-81013463D01*
X102970780Y-80907835D01*
X102962719Y-80899345D01*
X102888514Y-80832600D01*
X102816698Y-80802665D01*
X102715921Y-80795751D01*
X102620366Y-80800419D01*
X102517705Y-80825953D01*
X102421228Y-80882684D01*
X102309007Y-80980573D01*
X102189944Y-81094388D01*
X101824819Y-81094388D01*
X101824819Y-79636876D01*
X101980498Y-79627000D01*
X101996469Y-79626109D01*
X102108359Y-79630968D01*
X102162574Y-79658750D01*
X102167839Y-79677044D01*
X102176276Y-79752461D01*
X102183087Y-79872684D01*
X102187679Y-80025772D01*
X102189458Y-80199784D01*
X102189944Y-80699192D01*
X102333320Y-80598132D01*
X102348373Y-80587666D01*
X102447238Y-80530263D01*
X102548635Y-80498990D01*
X102682890Y-80483942D01*
X102683988Y-80483872D01*
X102907464Y-80496545D01*
X103099285Y-80562726D01*
X103257523Y-80679820D01*
X103380248Y-80845228D01*
X103465531Y-81056355D01*
X103511442Y-81310603D01*
X103514314Y-81494251D01*
X103516051Y-81605376D01*
X103498897Y-81778023D01*
G37*
X103498897Y-81778023D02*
X103438813Y-82022717D01*
X103339658Y-82219814D01*
X103202237Y-82367895D01*
X103027358Y-82465541D01*
X102915976Y-82494106D01*
X102724565Y-82498217D01*
X102529831Y-82456666D01*
X102350621Y-82374262D01*
X102205781Y-82255817D01*
X102142319Y-82185303D01*
X102126444Y-82323964D01*
X102110569Y-82462626D01*
X101824819Y-82462626D01*
X101824819Y-81094388D01*
X102189944Y-81094388D01*
X102190948Y-81476882D01*
X102190994Y-81491804D01*
X102194137Y-81669228D01*
X102206101Y-81798306D01*
X102232907Y-81893140D01*
X102280574Y-81967831D01*
X102355122Y-82036481D01*
X102462569Y-82113191D01*
X102553841Y-82163312D01*
X102702568Y-82197100D01*
X102843485Y-82171874D01*
X102967722Y-82088073D01*
X103043996Y-81993178D01*
X103101022Y-81866229D01*
X103132456Y-81704227D01*
X103142090Y-81494251D01*
X103142081Y-81486155D01*
X103133171Y-81287550D01*
X103104587Y-81135010D01*
X103051924Y-81013463D01*
X102970780Y-80907835D01*
X102962719Y-80899345D01*
X102888514Y-80832600D01*
X102816698Y-80802665D01*
X102715921Y-80795751D01*
X102620366Y-80800419D01*
X102517705Y-80825953D01*
X102421228Y-80882684D01*
X102309007Y-80980573D01*
X102189944Y-81094388D01*
X101824819Y-81094388D01*
X101824819Y-79636876D01*
X101980498Y-79627000D01*
X101996469Y-79626109D01*
X102108359Y-79630968D01*
X102162574Y-79658750D01*
X102167839Y-79677044D01*
X102176276Y-79752461D01*
X102183087Y-79872684D01*
X102187679Y-80025772D01*
X102189458Y-80199784D01*
X102189944Y-80699192D01*
X102333320Y-80598132D01*
X102348373Y-80587666D01*
X102447238Y-80530263D01*
X102548635Y-80498990D01*
X102682890Y-80483942D01*
X102683988Y-80483872D01*
X102907464Y-80496545D01*
X103099285Y-80562726D01*
X103257523Y-80679820D01*
X103380248Y-80845228D01*
X103465531Y-81056355D01*
X103511442Y-81310603D01*
X103514314Y-81494251D01*
X103516051Y-81605376D01*
X103498897Y-81778023D01*
G36*
X123295757Y-80319987D02*
G01*
X123317877Y-80320135D01*
X123438403Y-80324673D01*
X123533271Y-80334200D01*
X123583567Y-80346946D01*
X123585589Y-80348328D01*
X123612382Y-80404759D01*
X123615317Y-80513147D01*
X123605319Y-80652876D01*
X123327507Y-80662049D01*
X123049694Y-80671223D01*
X123049694Y-80983778D01*
X123327507Y-80992952D01*
X123605319Y-81002126D01*
X123605319Y-81287876D01*
X123327507Y-81297049D01*
X123049694Y-81306223D01*
X123049694Y-81618778D01*
X123327507Y-81627952D01*
X123605319Y-81637126D01*
X123615317Y-81776854D01*
X123615774Y-81783665D01*
X123611564Y-81889523D01*
X123583567Y-81943055D01*
X123578864Y-81945419D01*
X123519483Y-81957734D01*
X123418810Y-81966522D01*
X123295757Y-81970014D01*
X123049694Y-81970501D01*
X123049694Y-82285528D01*
X123327507Y-82294702D01*
X123605319Y-82303876D01*
X123605319Y-82589626D01*
X123331341Y-82598743D01*
X123057362Y-82607861D01*
X123043560Y-82774298D01*
X123017871Y-82907679D01*
X122935351Y-83079492D01*
X122807698Y-83218768D01*
X122644492Y-83315946D01*
X122455312Y-83361464D01*
X122287694Y-83375364D01*
X122287694Y-83636015D01*
X122287465Y-83674536D01*
X122283716Y-83791657D01*
X122276324Y-83878250D01*
X122266528Y-83917834D01*
X122257714Y-83922837D01*
X122199179Y-83934387D01*
X122111175Y-83939001D01*
X122085706Y-83938773D01*
X122017354Y-83931427D01*
X121974204Y-83905367D01*
X121950503Y-83849405D01*
X121940501Y-83752354D01*
X121938444Y-83603029D01*
X121938444Y-83367501D01*
X121620944Y-83367501D01*
X121620944Y-83942480D01*
X121470132Y-83932803D01*
X121319319Y-83923126D01*
X121310146Y-83645313D01*
X121300972Y-83367501D01*
X120988417Y-83367501D01*
X120979243Y-83645313D01*
X120970069Y-83923126D01*
X120684319Y-83923126D01*
X120675146Y-83645313D01*
X120665972Y-83367501D01*
X120353417Y-83367501D01*
X120344243Y-83645313D01*
X120335069Y-83923126D01*
X120195341Y-83933123D01*
X120188530Y-83933580D01*
X120082672Y-83929370D01*
X120029140Y-83901373D01*
X120026776Y-83896670D01*
X120014461Y-83837289D01*
X120005673Y-83736616D01*
X120002181Y-83613563D01*
X120001694Y-83367501D01*
X119684194Y-83367501D01*
X119684194Y-83942480D01*
X119533382Y-83932803D01*
X119382569Y-83923126D01*
X119373396Y-83645313D01*
X119364222Y-83367501D01*
X119227577Y-83367501D01*
X119223911Y-83367488D01*
X119044008Y-83336476D01*
X118882367Y-83252539D01*
X118749436Y-83125603D01*
X118655665Y-82965588D01*
X118611503Y-82782419D01*
X118597027Y-82607861D01*
X118323048Y-82598743D01*
X118049069Y-82589626D01*
X118039444Y-82440074D01*
X118029818Y-82290522D01*
X118309319Y-82281324D01*
X118588819Y-82272126D01*
X118598497Y-82121313D01*
X118608174Y-81970501D01*
X118360372Y-81970014D01*
X118336696Y-81969849D01*
X118215952Y-81965275D01*
X118121055Y-81955759D01*
X118070822Y-81943055D01*
X118068800Y-81941673D01*
X118042007Y-81885242D01*
X118039072Y-81776854D01*
X118049069Y-81637126D01*
X118326882Y-81627952D01*
X118604694Y-81618778D01*
X118604694Y-81306223D01*
X118326882Y-81297049D01*
X118049069Y-81287876D01*
X118049069Y-81002126D01*
X118604695Y-80983778D01*
X118604695Y-80671223D01*
X118326882Y-80662049D01*
X118049069Y-80652876D01*
X118039072Y-80513147D01*
X118038615Y-80506336D01*
X118042184Y-80416585D01*
X119557194Y-80416585D01*
X119557600Y-80524212D01*
X119563425Y-80788757D01*
X119576906Y-81001129D01*
X119598991Y-81169458D01*
X119630631Y-81301875D01*
X119672774Y-81406509D01*
X119707047Y-81466212D01*
X119845978Y-81631792D01*
X120028029Y-81769406D01*
X120239439Y-81870069D01*
X120466452Y-81924797D01*
X120636694Y-81946067D01*
X120636694Y-82195292D01*
X120636700Y-82204124D01*
X120639089Y-82329893D01*
X120648005Y-82407642D01*
X120666619Y-82451946D01*
X120698107Y-82477383D01*
X120731043Y-82491141D01*
X120841370Y-82506954D01*
X120946257Y-82489223D01*
X120968442Y-82452962D01*
X120981660Y-82361243D01*
X120985944Y-82210422D01*
X120985944Y-81947634D01*
X121152632Y-81928745D01*
X121284565Y-81909458D01*
X121515282Y-81846135D01*
X121701119Y-81746573D01*
X121849868Y-81605910D01*
X121969322Y-81419285D01*
X122080090Y-81201444D01*
X122092299Y-80553820D01*
X122094014Y-80454298D01*
X122096047Y-80238725D01*
X122094431Y-80077750D01*
X122088918Y-79965015D01*
X122079262Y-79894167D01*
X122065214Y-79858848D01*
X122037512Y-79838395D01*
X121957130Y-79815924D01*
X121864338Y-79814202D01*
X121790565Y-79835860D01*
X121779386Y-79858129D01*
X121766729Y-79935061D01*
X121756550Y-80068169D01*
X121748677Y-80259883D01*
X121742940Y-80512637D01*
X121732069Y-81166025D01*
X121636652Y-81322200D01*
X121636155Y-81323011D01*
X121507528Y-81473617D01*
X121334722Y-81579952D01*
X121120882Y-81640078D01*
X120985944Y-81661116D01*
X120985944Y-80755580D01*
X120986009Y-80512092D01*
X120985441Y-80293560D01*
X120982920Y-80125840D01*
X120977120Y-80002229D01*
X120966714Y-79916023D01*
X120950376Y-79860522D01*
X120926782Y-79829021D01*
X120894604Y-79814819D01*
X120852518Y-79811213D01*
X120799198Y-79811501D01*
X120778977Y-79811648D01*
X120737110Y-79815440D01*
X120704384Y-79829453D01*
X120679673Y-79860345D01*
X120661851Y-79914778D01*
X120649794Y-79999411D01*
X120642375Y-80120903D01*
X120638469Y-80285916D01*
X120636950Y-80501109D01*
X120636694Y-80773141D01*
X120636694Y-81658582D01*
X120501757Y-81636724D01*
X120324297Y-81586693D01*
X120151881Y-81483025D01*
X120021365Y-81335319D01*
X119938704Y-81148735D01*
X119929358Y-81089099D01*
X119920310Y-80974069D01*
X119913125Y-80819497D01*
X119908372Y-80637942D01*
X119906622Y-80441960D01*
X119906435Y-80260399D01*
X119904606Y-80091954D01*
X119898873Y-79971990D01*
X119886954Y-79892281D01*
X119866570Y-79844602D01*
X119835439Y-79820729D01*
X119791283Y-79812437D01*
X119731820Y-79811500D01*
X119690984Y-79811733D01*
X119640949Y-79816797D01*
X119605261Y-79834980D01*
X119581495Y-79874681D01*
X119567229Y-79944295D01*
X119560039Y-80052220D01*
X119557502Y-80206851D01*
X119557194Y-80416585D01*
X118042184Y-80416585D01*
X118042825Y-80400478D01*
X118070822Y-80346946D01*
X118075525Y-80344582D01*
X118134906Y-80332267D01*
X118235579Y-80323479D01*
X118358632Y-80319987D01*
X118604694Y-80319501D01*
X118604694Y-80033751D01*
X118358632Y-80033264D01*
X118336512Y-80033116D01*
X118215986Y-80028578D01*
X118121118Y-80019051D01*
X118070822Y-80006305D01*
X118068800Y-80004923D01*
X118042007Y-79948492D01*
X118039072Y-79840104D01*
X118049069Y-79700376D01*
X118597027Y-79682140D01*
X118611503Y-79507582D01*
X118611828Y-79503805D01*
X118657071Y-79320996D01*
X118751717Y-79161539D01*
X118885315Y-79035355D01*
X119047418Y-78952368D01*
X119227577Y-78922501D01*
X119364222Y-78922501D01*
X119373396Y-78644688D01*
X119382569Y-78366876D01*
X119668319Y-78366876D01*
X119677493Y-78644688D01*
X119686667Y-78922501D01*
X120001694Y-78922501D01*
X120002181Y-78676438D01*
X120002329Y-78654318D01*
X120006867Y-78533792D01*
X120016394Y-78438924D01*
X120029140Y-78388628D01*
X120030522Y-78386606D01*
X120086953Y-78359813D01*
X120195341Y-78356878D01*
X120335069Y-78366876D01*
X120344243Y-78644688D01*
X120353417Y-78922501D01*
X120665972Y-78922501D01*
X120675146Y-78644688D01*
X120684319Y-78366876D01*
X120970069Y-78366876D01*
X120979243Y-78644688D01*
X120988417Y-78922501D01*
X121300972Y-78922501D01*
X121310146Y-78644688D01*
X121319319Y-78366876D01*
X121470132Y-78357198D01*
X121620944Y-78347521D01*
X121620944Y-78922501D01*
X121938444Y-78922501D01*
X121938931Y-78676438D01*
X121939079Y-78654318D01*
X121943617Y-78533792D01*
X121953144Y-78438924D01*
X121965890Y-78388628D01*
X121967272Y-78386606D01*
X122023703Y-78359813D01*
X122132091Y-78356878D01*
X122271819Y-78366876D01*
X122280937Y-78640854D01*
X122290055Y-78914833D01*
X122456492Y-78928635D01*
X122577189Y-78950317D01*
X122751088Y-79029148D01*
X122892089Y-79154594D01*
X122991503Y-79317997D01*
X123040640Y-79510697D01*
X123058336Y-79682154D01*
X123331828Y-79691265D01*
X123605319Y-79700376D01*
X123615571Y-79826109D01*
X123616449Y-79894832D01*
X123594718Y-79964187D01*
X123537821Y-80006646D01*
X123436563Y-80027928D01*
X123281751Y-80033751D01*
X123049694Y-80033751D01*
X123049694Y-80319501D01*
X123295757Y-80319987D01*
G37*
X123295757Y-80319987D02*
X123317877Y-80320135D01*
X123438403Y-80324673D01*
X123533271Y-80334200D01*
X123583567Y-80346946D01*
X123585589Y-80348328D01*
X123612382Y-80404759D01*
X123615317Y-80513147D01*
X123605319Y-80652876D01*
X123327507Y-80662049D01*
X123049694Y-80671223D01*
X123049694Y-80983778D01*
X123327507Y-80992952D01*
X123605319Y-81002126D01*
X123605319Y-81287876D01*
X123327507Y-81297049D01*
X123049694Y-81306223D01*
X123049694Y-81618778D01*
X123327507Y-81627952D01*
X123605319Y-81637126D01*
X123615317Y-81776854D01*
X123615774Y-81783665D01*
X123611564Y-81889523D01*
X123583567Y-81943055D01*
X123578864Y-81945419D01*
X123519483Y-81957734D01*
X123418810Y-81966522D01*
X123295757Y-81970014D01*
X123049694Y-81970501D01*
X123049694Y-82285528D01*
X123327507Y-82294702D01*
X123605319Y-82303876D01*
X123605319Y-82589626D01*
X123331341Y-82598743D01*
X123057362Y-82607861D01*
X123043560Y-82774298D01*
X123017871Y-82907679D01*
X122935351Y-83079492D01*
X122807698Y-83218768D01*
X122644492Y-83315946D01*
X122455312Y-83361464D01*
X122287694Y-83375364D01*
X122287694Y-83636015D01*
X122287465Y-83674536D01*
X122283716Y-83791657D01*
X122276324Y-83878250D01*
X122266528Y-83917834D01*
X122257714Y-83922837D01*
X122199179Y-83934387D01*
X122111175Y-83939001D01*
X122085706Y-83938773D01*
X122017354Y-83931427D01*
X121974204Y-83905367D01*
X121950503Y-83849405D01*
X121940501Y-83752354D01*
X121938444Y-83603029D01*
X121938444Y-83367501D01*
X121620944Y-83367501D01*
X121620944Y-83942480D01*
X121470132Y-83932803D01*
X121319319Y-83923126D01*
X121310146Y-83645313D01*
X121300972Y-83367501D01*
X120988417Y-83367501D01*
X120979243Y-83645313D01*
X120970069Y-83923126D01*
X120684319Y-83923126D01*
X120675146Y-83645313D01*
X120665972Y-83367501D01*
X120353417Y-83367501D01*
X120344243Y-83645313D01*
X120335069Y-83923126D01*
X120195341Y-83933123D01*
X120188530Y-83933580D01*
X120082672Y-83929370D01*
X120029140Y-83901373D01*
X120026776Y-83896670D01*
X120014461Y-83837289D01*
X120005673Y-83736616D01*
X120002181Y-83613563D01*
X120001694Y-83367501D01*
X119684194Y-83367501D01*
X119684194Y-83942480D01*
X119533382Y-83932803D01*
X119382569Y-83923126D01*
X119373396Y-83645313D01*
X119364222Y-83367501D01*
X119227577Y-83367501D01*
X119223911Y-83367488D01*
X119044008Y-83336476D01*
X118882367Y-83252539D01*
X118749436Y-83125603D01*
X118655665Y-82965588D01*
X118611503Y-82782419D01*
X118597027Y-82607861D01*
X118323048Y-82598743D01*
X118049069Y-82589626D01*
X118039444Y-82440074D01*
X118029818Y-82290522D01*
X118309319Y-82281324D01*
X118588819Y-82272126D01*
X118598497Y-82121313D01*
X118608174Y-81970501D01*
X118360372Y-81970014D01*
X118336696Y-81969849D01*
X118215952Y-81965275D01*
X118121055Y-81955759D01*
X118070822Y-81943055D01*
X118068800Y-81941673D01*
X118042007Y-81885242D01*
X118039072Y-81776854D01*
X118049069Y-81637126D01*
X118326882Y-81627952D01*
X118604694Y-81618778D01*
X118604694Y-81306223D01*
X118326882Y-81297049D01*
X118049069Y-81287876D01*
X118049069Y-81002126D01*
X118604695Y-80983778D01*
X118604695Y-80671223D01*
X118326882Y-80662049D01*
X118049069Y-80652876D01*
X118039072Y-80513147D01*
X118038615Y-80506336D01*
X118042184Y-80416585D01*
X119557194Y-80416585D01*
X119557600Y-80524212D01*
X119563425Y-80788757D01*
X119576906Y-81001129D01*
X119598991Y-81169458D01*
X119630631Y-81301875D01*
X119672774Y-81406509D01*
X119707047Y-81466212D01*
X119845978Y-81631792D01*
X120028029Y-81769406D01*
X120239439Y-81870069D01*
X120466452Y-81924797D01*
X120636694Y-81946067D01*
X120636694Y-82195292D01*
X120636700Y-82204124D01*
X120639089Y-82329893D01*
X120648005Y-82407642D01*
X120666619Y-82451946D01*
X120698107Y-82477383D01*
X120731043Y-82491141D01*
X120841370Y-82506954D01*
X120946257Y-82489223D01*
X120968442Y-82452962D01*
X120981660Y-82361243D01*
X120985944Y-82210422D01*
X120985944Y-81947634D01*
X121152632Y-81928745D01*
X121284565Y-81909458D01*
X121515282Y-81846135D01*
X121701119Y-81746573D01*
X121849868Y-81605910D01*
X121969322Y-81419285D01*
X122080090Y-81201444D01*
X122092299Y-80553820D01*
X122094014Y-80454298D01*
X122096047Y-80238725D01*
X122094431Y-80077750D01*
X122088918Y-79965015D01*
X122079262Y-79894167D01*
X122065214Y-79858848D01*
X122037512Y-79838395D01*
X121957130Y-79815924D01*
X121864338Y-79814202D01*
X121790565Y-79835860D01*
X121779386Y-79858129D01*
X121766729Y-79935061D01*
X121756550Y-80068169D01*
X121748677Y-80259883D01*
X121742940Y-80512637D01*
X121732069Y-81166025D01*
X121636652Y-81322200D01*
X121636155Y-81323011D01*
X121507528Y-81473617D01*
X121334722Y-81579952D01*
X121120882Y-81640078D01*
X120985944Y-81661116D01*
X120985944Y-80755580D01*
X120986009Y-80512092D01*
X120985441Y-80293560D01*
X120982920Y-80125840D01*
X120977120Y-80002229D01*
X120966714Y-79916023D01*
X120950376Y-79860522D01*
X120926782Y-79829021D01*
X120894604Y-79814819D01*
X120852518Y-79811213D01*
X120799198Y-79811501D01*
X120778977Y-79811648D01*
X120737110Y-79815440D01*
X120704384Y-79829453D01*
X120679673Y-79860345D01*
X120661851Y-79914778D01*
X120649794Y-79999411D01*
X120642375Y-80120903D01*
X120638469Y-80285916D01*
X120636950Y-80501109D01*
X120636694Y-80773141D01*
X120636694Y-81658582D01*
X120501757Y-81636724D01*
X120324297Y-81586693D01*
X120151881Y-81483025D01*
X120021365Y-81335319D01*
X119938704Y-81148735D01*
X119929358Y-81089099D01*
X119920310Y-80974069D01*
X119913125Y-80819497D01*
X119908372Y-80637942D01*
X119906622Y-80441960D01*
X119906435Y-80260399D01*
X119904606Y-80091954D01*
X119898873Y-79971990D01*
X119886954Y-79892281D01*
X119866570Y-79844602D01*
X119835439Y-79820729D01*
X119791283Y-79812437D01*
X119731820Y-79811500D01*
X119690984Y-79811733D01*
X119640949Y-79816797D01*
X119605261Y-79834980D01*
X119581495Y-79874681D01*
X119567229Y-79944295D01*
X119560039Y-80052220D01*
X119557502Y-80206851D01*
X119557194Y-80416585D01*
X118042184Y-80416585D01*
X118042825Y-80400478D01*
X118070822Y-80346946D01*
X118075525Y-80344582D01*
X118134906Y-80332267D01*
X118235579Y-80323479D01*
X118358632Y-80319987D01*
X118604694Y-80319501D01*
X118604694Y-80033751D01*
X118358632Y-80033264D01*
X118336512Y-80033116D01*
X118215986Y-80028578D01*
X118121118Y-80019051D01*
X118070822Y-80006305D01*
X118068800Y-80004923D01*
X118042007Y-79948492D01*
X118039072Y-79840104D01*
X118049069Y-79700376D01*
X118597027Y-79682140D01*
X118611503Y-79507582D01*
X118611828Y-79503805D01*
X118657071Y-79320996D01*
X118751717Y-79161539D01*
X118885315Y-79035355D01*
X119047418Y-78952368D01*
X119227577Y-78922501D01*
X119364222Y-78922501D01*
X119373396Y-78644688D01*
X119382569Y-78366876D01*
X119668319Y-78366876D01*
X119677493Y-78644688D01*
X119686667Y-78922501D01*
X120001694Y-78922501D01*
X120002181Y-78676438D01*
X120002329Y-78654318D01*
X120006867Y-78533792D01*
X120016394Y-78438924D01*
X120029140Y-78388628D01*
X120030522Y-78386606D01*
X120086953Y-78359813D01*
X120195341Y-78356878D01*
X120335069Y-78366876D01*
X120344243Y-78644688D01*
X120353417Y-78922501D01*
X120665972Y-78922501D01*
X120675146Y-78644688D01*
X120684319Y-78366876D01*
X120970069Y-78366876D01*
X120979243Y-78644688D01*
X120988417Y-78922501D01*
X121300972Y-78922501D01*
X121310146Y-78644688D01*
X121319319Y-78366876D01*
X121470132Y-78357198D01*
X121620944Y-78347521D01*
X121620944Y-78922501D01*
X121938444Y-78922501D01*
X121938931Y-78676438D01*
X121939079Y-78654318D01*
X121943617Y-78533792D01*
X121953144Y-78438924D01*
X121965890Y-78388628D01*
X121967272Y-78386606D01*
X122023703Y-78359813D01*
X122132091Y-78356878D01*
X122271819Y-78366876D01*
X122280937Y-78640854D01*
X122290055Y-78914833D01*
X122456492Y-78928635D01*
X122577189Y-78950317D01*
X122751088Y-79029148D01*
X122892089Y-79154594D01*
X122991503Y-79317997D01*
X123040640Y-79510697D01*
X123058336Y-79682154D01*
X123331828Y-79691265D01*
X123605319Y-79700376D01*
X123615571Y-79826109D01*
X123616449Y-79894832D01*
X123594718Y-79964187D01*
X123537821Y-80006646D01*
X123436563Y-80027928D01*
X123281751Y-80033751D01*
X123049694Y-80033751D01*
X123049694Y-80319501D01*
X123295757Y-80319987D01*
G36*
X95310599Y-81616580D02*
G01*
X95243639Y-81862153D01*
X95211350Y-81935413D01*
X95104918Y-82100138D01*
X94965692Y-82250936D01*
X94812867Y-82365383D01*
X94792810Y-82376530D01*
X94605014Y-82449401D01*
X94383578Y-82492157D01*
X94148913Y-82503625D01*
X93921425Y-82482635D01*
X93721525Y-82428015D01*
X93714204Y-82425096D01*
X93628394Y-82395810D01*
X93573936Y-82393991D01*
X93527101Y-82418473D01*
X93427065Y-82490713D01*
X93223208Y-82630313D01*
X93058793Y-82730402D01*
X92929162Y-82793904D01*
X92899141Y-82805972D01*
X92794648Y-82843472D01*
X92730436Y-82852983D01*
X92692629Y-82834109D01*
X92667351Y-82786456D01*
X92645141Y-82692751D01*
X92664393Y-82601284D01*
X92736811Y-82520267D01*
X92867382Y-82441092D01*
X92965086Y-82388473D01*
X93086972Y-82314841D01*
X93181050Y-82249354D01*
X93300280Y-82155399D01*
X93228675Y-82055418D01*
X93189702Y-81997733D01*
X93087426Y-81796925D01*
X93021499Y-81569266D01*
X92989726Y-81305009D01*
X92989901Y-81018233D01*
X93373343Y-81018233D01*
X93375090Y-81257797D01*
X93402893Y-81487815D01*
X93457250Y-81689476D01*
X93527405Y-81831117D01*
X93659431Y-81991127D01*
X93823819Y-82105360D01*
X93894015Y-82133241D01*
X94069514Y-82167305D01*
X94262275Y-82168616D01*
X94447896Y-82138076D01*
X94601977Y-82076587D01*
X94659241Y-82035363D01*
X94769314Y-81910912D01*
X94859036Y-81747716D01*
X94918221Y-81562337D01*
X94933689Y-81470931D01*
X94948864Y-81279423D01*
X94948000Y-81073002D01*
X94932210Y-80871003D01*
X94902609Y-80692766D01*
X94860313Y-80557626D01*
X94837739Y-80510211D01*
X94717515Y-80326677D01*
X94567727Y-80198477D01*
X94384537Y-80123078D01*
X94164112Y-80097948D01*
X93963701Y-80116912D01*
X93768429Y-80187016D01*
X93610183Y-80308606D01*
X93489282Y-80481502D01*
X93446022Y-80585700D01*
X93397154Y-80787930D01*
X93373343Y-81018233D01*
X92989901Y-81018233D01*
X92989916Y-80994409D01*
X92992381Y-80948898D01*
X93033608Y-80636995D01*
X93115302Y-80373948D01*
X93237765Y-80159438D01*
X93401297Y-79993150D01*
X93606200Y-79874765D01*
X93852774Y-79803967D01*
X94141319Y-79780438D01*
X94348870Y-79792454D01*
X94613499Y-79851746D01*
X94838315Y-79960477D01*
X95023175Y-80118512D01*
X95167933Y-80325719D01*
X95272445Y-80581963D01*
X95336566Y-80887109D01*
X95351335Y-81054610D01*
X95348141Y-81279423D01*
X95347295Y-81339038D01*
X95310599Y-81616580D01*
G37*
X95310599Y-81616580D02*
X95243639Y-81862153D01*
X95211350Y-81935413D01*
X95104918Y-82100138D01*
X94965692Y-82250936D01*
X94812867Y-82365383D01*
X94792810Y-82376530D01*
X94605014Y-82449401D01*
X94383578Y-82492157D01*
X94148913Y-82503625D01*
X93921425Y-82482635D01*
X93721525Y-82428015D01*
X93714204Y-82425096D01*
X93628394Y-82395810D01*
X93573936Y-82393991D01*
X93527101Y-82418473D01*
X93427065Y-82490713D01*
X93223208Y-82630313D01*
X93058793Y-82730402D01*
X92929162Y-82793904D01*
X92899141Y-82805972D01*
X92794648Y-82843472D01*
X92730436Y-82852983D01*
X92692629Y-82834109D01*
X92667351Y-82786456D01*
X92645141Y-82692751D01*
X92664393Y-82601284D01*
X92736811Y-82520267D01*
X92867382Y-82441092D01*
X92965086Y-82388473D01*
X93086972Y-82314841D01*
X93181050Y-82249354D01*
X93300280Y-82155399D01*
X93228675Y-82055418D01*
X93189702Y-81997733D01*
X93087426Y-81796925D01*
X93021499Y-81569266D01*
X92989726Y-81305009D01*
X92989901Y-81018233D01*
X93373343Y-81018233D01*
X93375090Y-81257797D01*
X93402893Y-81487815D01*
X93457250Y-81689476D01*
X93527405Y-81831117D01*
X93659431Y-81991127D01*
X93823819Y-82105360D01*
X93894015Y-82133241D01*
X94069514Y-82167305D01*
X94262275Y-82168616D01*
X94447896Y-82138076D01*
X94601977Y-82076587D01*
X94659241Y-82035363D01*
X94769314Y-81910912D01*
X94859036Y-81747716D01*
X94918221Y-81562337D01*
X94933689Y-81470931D01*
X94948864Y-81279423D01*
X94948000Y-81073002D01*
X94932210Y-80871003D01*
X94902609Y-80692766D01*
X94860313Y-80557626D01*
X94837739Y-80510211D01*
X94717515Y-80326677D01*
X94567727Y-80198477D01*
X94384537Y-80123078D01*
X94164112Y-80097948D01*
X93963701Y-80116912D01*
X93768429Y-80187016D01*
X93610183Y-80308606D01*
X93489282Y-80481502D01*
X93446022Y-80585700D01*
X93397154Y-80787930D01*
X93373343Y-81018233D01*
X92989901Y-81018233D01*
X92989916Y-80994409D01*
X92992381Y-80948898D01*
X93033608Y-80636995D01*
X93115302Y-80373948D01*
X93237765Y-80159438D01*
X93401297Y-79993150D01*
X93606200Y-79874765D01*
X93852774Y-79803967D01*
X94141319Y-79780438D01*
X94348870Y-79792454D01*
X94613499Y-79851746D01*
X94838315Y-79960477D01*
X95023175Y-80118512D01*
X95167933Y-80325719D01*
X95272445Y-80581963D01*
X95336566Y-80887109D01*
X95351335Y-81054610D01*
X95348141Y-81279423D01*
X95347295Y-81339038D01*
X95310599Y-81616580D01*
G36*
X109739433Y-80708438D02*
G01*
X109758554Y-80773001D01*
X109797119Y-80905078D01*
X109845635Y-81072608D01*
X109899783Y-81260670D01*
X109955246Y-81454338D01*
X110002066Y-81615659D01*
X110048541Y-81770113D01*
X110087166Y-81892447D01*
X110114876Y-81972980D01*
X110128607Y-82002026D01*
X110137721Y-81982979D01*
X110162633Y-81910948D01*
X110200193Y-81793365D01*
X110247812Y-81638837D01*
X110302903Y-81455968D01*
X110362879Y-81253364D01*
X110425151Y-81039629D01*
X110487133Y-80823369D01*
X110546236Y-80613188D01*
X110559707Y-80569671D01*
X110586145Y-80529114D01*
X110636407Y-80512927D01*
X110730313Y-80510001D01*
X110782854Y-80511955D01*
X110865261Y-80524442D01*
X110907113Y-80544652D01*
X110914630Y-80564154D01*
X110937948Y-80638958D01*
X110973358Y-80760331D01*
X111018313Y-80919346D01*
X111070267Y-81107074D01*
X111126674Y-81314590D01*
X111324819Y-82049876D01*
X111406200Y-81780001D01*
X111410838Y-81764604D01*
X111460276Y-81599029D01*
X111512234Y-81422954D01*
X111556194Y-81272001D01*
X111557987Y-81265783D01*
X111603147Y-81110696D01*
X111655311Y-80933715D01*
X111703548Y-80771938D01*
X111782287Y-80510001D01*
X111954991Y-80510001D01*
X112005459Y-80510473D01*
X112083285Y-80516962D01*
X112119071Y-80535199D01*
X112127694Y-80570388D01*
X112120358Y-80610035D01*
X112096311Y-80702834D01*
X112058333Y-80837666D01*
X112009319Y-81005172D01*
X111952165Y-81195994D01*
X111889769Y-81400771D01*
X111825026Y-81610145D01*
X111760832Y-81814757D01*
X111700084Y-82005247D01*
X111645679Y-82172257D01*
X111600512Y-82306427D01*
X111567480Y-82398399D01*
X111549479Y-82438813D01*
X111527695Y-82452322D01*
X111454879Y-82469127D01*
X111356380Y-82477414D01*
X111254287Y-82476758D01*
X111170689Y-82466735D01*
X111127674Y-82446920D01*
X111126942Y-82445629D01*
X111114389Y-82411842D01*
X111091744Y-82337811D01*
X111058025Y-82220000D01*
X111012252Y-82054874D01*
X110953443Y-81838897D01*
X110880617Y-81568534D01*
X110792793Y-81240251D01*
X110754665Y-81097376D01*
X110564984Y-81748251D01*
X110545819Y-81813652D01*
X110489010Y-82003299D01*
X110437210Y-82170230D01*
X110393507Y-82304854D01*
X110360986Y-82397579D01*
X110342736Y-82438813D01*
X110319789Y-82453424D01*
X110239694Y-82471727D01*
X110122876Y-82478501D01*
X110051366Y-82477546D01*
X109973252Y-82469290D01*
X109930398Y-82447715D01*
X109905268Y-82407063D01*
X109889558Y-82366406D01*
X109854209Y-82264045D01*
X109808089Y-82122371D01*
X109753905Y-81950468D01*
X109694360Y-81757417D01*
X109632161Y-81552301D01*
X109570012Y-81344203D01*
X109510619Y-81142204D01*
X109456685Y-80955389D01*
X109410918Y-80792838D01*
X109376021Y-80663635D01*
X109354700Y-80576863D01*
X109349661Y-80541603D01*
X109364987Y-80531117D01*
X109430362Y-80515958D01*
X109524568Y-80510001D01*
X109679944Y-80510001D01*
X109739433Y-80708438D01*
G37*
X109739433Y-80708438D02*
X109758554Y-80773001D01*
X109797119Y-80905078D01*
X109845635Y-81072608D01*
X109899783Y-81260670D01*
X109955246Y-81454338D01*
X110002066Y-81615659D01*
X110048541Y-81770113D01*
X110087166Y-81892447D01*
X110114876Y-81972980D01*
X110128607Y-82002026D01*
X110137721Y-81982979D01*
X110162633Y-81910948D01*
X110200193Y-81793365D01*
X110247812Y-81638837D01*
X110302903Y-81455968D01*
X110362879Y-81253364D01*
X110425151Y-81039629D01*
X110487133Y-80823369D01*
X110546236Y-80613188D01*
X110559707Y-80569671D01*
X110586145Y-80529114D01*
X110636407Y-80512927D01*
X110730313Y-80510001D01*
X110782854Y-80511955D01*
X110865261Y-80524442D01*
X110907113Y-80544652D01*
X110914630Y-80564154D01*
X110937948Y-80638958D01*
X110973358Y-80760331D01*
X111018313Y-80919346D01*
X111070267Y-81107074D01*
X111126674Y-81314590D01*
X111324819Y-82049876D01*
X111406200Y-81780001D01*
X111410838Y-81764604D01*
X111460276Y-81599029D01*
X111512234Y-81422954D01*
X111556194Y-81272001D01*
X111557987Y-81265783D01*
X111603147Y-81110696D01*
X111655311Y-80933715D01*
X111703548Y-80771938D01*
X111782287Y-80510001D01*
X111954991Y-80510001D01*
X112005459Y-80510473D01*
X112083285Y-80516962D01*
X112119071Y-80535199D01*
X112127694Y-80570388D01*
X112120358Y-80610035D01*
X112096311Y-80702834D01*
X112058333Y-80837666D01*
X112009319Y-81005172D01*
X111952165Y-81195994D01*
X111889769Y-81400771D01*
X111825026Y-81610145D01*
X111760832Y-81814757D01*
X111700084Y-82005247D01*
X111645679Y-82172257D01*
X111600512Y-82306427D01*
X111567480Y-82398399D01*
X111549479Y-82438813D01*
X111527695Y-82452322D01*
X111454879Y-82469127D01*
X111356380Y-82477414D01*
X111254287Y-82476758D01*
X111170689Y-82466735D01*
X111127674Y-82446920D01*
X111126942Y-82445629D01*
X111114389Y-82411842D01*
X111091744Y-82337811D01*
X111058025Y-82220000D01*
X111012252Y-82054874D01*
X110953443Y-81838897D01*
X110880617Y-81568534D01*
X110792793Y-81240251D01*
X110754665Y-81097376D01*
X110564984Y-81748251D01*
X110545819Y-81813652D01*
X110489010Y-82003299D01*
X110437210Y-82170230D01*
X110393507Y-82304854D01*
X110360986Y-82397579D01*
X110342736Y-82438813D01*
X110319789Y-82453424D01*
X110239694Y-82471727D01*
X110122876Y-82478501D01*
X110051366Y-82477546D01*
X109973252Y-82469290D01*
X109930398Y-82447715D01*
X109905268Y-82407063D01*
X109889558Y-82366406D01*
X109854209Y-82264045D01*
X109808089Y-82122371D01*
X109753905Y-81950468D01*
X109694360Y-81757417D01*
X109632161Y-81552301D01*
X109570012Y-81344203D01*
X109510619Y-81142204D01*
X109456685Y-80955389D01*
X109410918Y-80792838D01*
X109376021Y-80663635D01*
X109354700Y-80576863D01*
X109349661Y-80541603D01*
X109364987Y-80531117D01*
X109430362Y-80515958D01*
X109524568Y-80510001D01*
X109679944Y-80510001D01*
X109739433Y-80708438D01*
G36*
X114210016Y-81843501D02*
G01*
X114128861Y-82069158D01*
X114007882Y-82252549D01*
X113847806Y-82386926D01*
X113647267Y-82473820D01*
X113580134Y-82489204D01*
X113396532Y-82505682D01*
X113198974Y-82495726D01*
X113017762Y-82460001D01*
X113007312Y-82456791D01*
X112830702Y-82370889D01*
X112670323Y-82237355D01*
X112540859Y-82071180D01*
X112456989Y-81887358D01*
X112438638Y-81818537D01*
X112404608Y-81585593D01*
X112772589Y-81585593D01*
X112806916Y-81783780D01*
X112876020Y-81952857D01*
X112975573Y-82082646D01*
X113101246Y-82162969D01*
X113187275Y-82182323D01*
X113318186Y-82189755D01*
X113451762Y-82181205D01*
X113556428Y-82157081D01*
X113576129Y-82148587D01*
X113702298Y-82056072D01*
X113795824Y-81913781D01*
X113853956Y-81727383D01*
X113873944Y-81502547D01*
X113872971Y-81450541D01*
X113842723Y-81226575D01*
X113772960Y-81043375D01*
X113667516Y-80904816D01*
X113530220Y-80814777D01*
X113364905Y-80777133D01*
X113175402Y-80795761D01*
X113075721Y-80827797D01*
X112953808Y-80904081D01*
X112866158Y-81019291D01*
X112808011Y-81180543D01*
X112774608Y-81394953D01*
X112772589Y-81585593D01*
X112404608Y-81585593D01*
X112404600Y-81585538D01*
X112406886Y-81346419D01*
X112443363Y-81116984D01*
X112511900Y-80913035D01*
X112610364Y-80750376D01*
X112692776Y-80664250D01*
X112833868Y-80569973D01*
X113007814Y-80511994D01*
X113227290Y-80484857D01*
X113230527Y-80484682D01*
X113463303Y-80487373D01*
X113654910Y-80526112D01*
X113819186Y-80605466D01*
X113969970Y-80730003D01*
X114089777Y-80883364D01*
X114187228Y-81094187D01*
X114241514Y-81332659D01*
X114247188Y-81502547D01*
X114249991Y-81586517D01*
X114210016Y-81843501D01*
G37*
X114210016Y-81843501D02*
X114128861Y-82069158D01*
X114007882Y-82252549D01*
X113847806Y-82386926D01*
X113647267Y-82473820D01*
X113580134Y-82489204D01*
X113396532Y-82505682D01*
X113198974Y-82495726D01*
X113017762Y-82460001D01*
X113007312Y-82456791D01*
X112830702Y-82370889D01*
X112670323Y-82237355D01*
X112540859Y-82071180D01*
X112456989Y-81887358D01*
X112438638Y-81818537D01*
X112404608Y-81585593D01*
X112772589Y-81585593D01*
X112806916Y-81783780D01*
X112876020Y-81952857D01*
X112975573Y-82082646D01*
X113101246Y-82162969D01*
X113187275Y-82182323D01*
X113318186Y-82189755D01*
X113451762Y-82181205D01*
X113556428Y-82157081D01*
X113576129Y-82148587D01*
X113702298Y-82056072D01*
X113795824Y-81913781D01*
X113853956Y-81727383D01*
X113873944Y-81502547D01*
X113872971Y-81450541D01*
X113842723Y-81226575D01*
X113772960Y-81043375D01*
X113667516Y-80904816D01*
X113530220Y-80814777D01*
X113364905Y-80777133D01*
X113175402Y-80795761D01*
X113075721Y-80827797D01*
X112953808Y-80904081D01*
X112866158Y-81019291D01*
X112808011Y-81180543D01*
X112774608Y-81394953D01*
X112772589Y-81585593D01*
X112404608Y-81585593D01*
X112404600Y-81585538D01*
X112406886Y-81346419D01*
X112443363Y-81116984D01*
X112511900Y-80913035D01*
X112610364Y-80750376D01*
X112692776Y-80664250D01*
X112833868Y-80569973D01*
X113007814Y-80511994D01*
X113227290Y-80484857D01*
X113230527Y-80484682D01*
X113463303Y-80487373D01*
X113654910Y-80526112D01*
X113819186Y-80605466D01*
X113969970Y-80730003D01*
X114089777Y-80883364D01*
X114187228Y-81094187D01*
X114241514Y-81332659D01*
X114247188Y-81502547D01*
X114249991Y-81586517D01*
X114210016Y-81843501D01*
G36*
X100102382Y-82472303D02*
G01*
X100028001Y-82466462D01*
X99973340Y-82451276D01*
X99950469Y-82413934D01*
X99941484Y-82339681D01*
X99931398Y-82216736D01*
X99845044Y-82299469D01*
X99829861Y-82313294D01*
X99735789Y-82383999D01*
X99632880Y-82444961D01*
X99605181Y-82457833D01*
X99421541Y-82504350D01*
X99223293Y-82495945D01*
X99024774Y-82432903D01*
X98892708Y-82352969D01*
X98748861Y-82202385D01*
X98645740Y-82003782D01*
X98583662Y-81757827D01*
X98563880Y-81478376D01*
X98941186Y-81478376D01*
X98953123Y-81697717D01*
X98995739Y-81888344D01*
X99070692Y-82030510D01*
X99179472Y-82128285D01*
X99321910Y-82185776D01*
X99465676Y-82183190D01*
X99613615Y-82119512D01*
X99769007Y-81993996D01*
X99903944Y-81862029D01*
X99902941Y-81495577D01*
X99902619Y-81421911D01*
X99900204Y-81284797D01*
X99893592Y-81191866D01*
X99880451Y-81129500D01*
X99858446Y-81084083D01*
X99825247Y-81041997D01*
X99802490Y-81017093D01*
X99661765Y-80897611D01*
X99512695Y-80821155D01*
X99366027Y-80790274D01*
X99232506Y-80807516D01*
X99122879Y-80875429D01*
X99041236Y-80976904D01*
X98983291Y-81105405D01*
X98951283Y-81268107D01*
X98941186Y-81478376D01*
X98563880Y-81478376D01*
X98562946Y-81465186D01*
X98564015Y-81396490D01*
X98593265Y-81122857D01*
X98661586Y-80895240D01*
X98767735Y-80715305D01*
X98910466Y-80584718D01*
X99088534Y-80505145D01*
X99300694Y-80478251D01*
X99422350Y-80487034D01*
X99609554Y-80542796D01*
X99792807Y-80655019D01*
X99903944Y-80739787D01*
X99903944Y-79651179D01*
X99988835Y-79618903D01*
X100064342Y-79602817D01*
X100163460Y-79606337D01*
X100253194Y-79626046D01*
X100253194Y-82481980D01*
X100102382Y-82472303D01*
G37*
X100102382Y-82472303D02*
X100028001Y-82466462D01*
X99973340Y-82451276D01*
X99950469Y-82413934D01*
X99941484Y-82339681D01*
X99931398Y-82216736D01*
X99845044Y-82299469D01*
X99829861Y-82313294D01*
X99735789Y-82383999D01*
X99632880Y-82444961D01*
X99605181Y-82457833D01*
X99421541Y-82504350D01*
X99223293Y-82495945D01*
X99024774Y-82432903D01*
X98892708Y-82352969D01*
X98748861Y-82202385D01*
X98645740Y-82003782D01*
X98583662Y-81757827D01*
X98563880Y-81478376D01*
X98941186Y-81478376D01*
X98953123Y-81697717D01*
X98995739Y-81888344D01*
X99070692Y-82030510D01*
X99179472Y-82128285D01*
X99321910Y-82185776D01*
X99465676Y-82183190D01*
X99613615Y-82119512D01*
X99769007Y-81993996D01*
X99903944Y-81862029D01*
X99902941Y-81495577D01*
X99902619Y-81421911D01*
X99900204Y-81284797D01*
X99893592Y-81191866D01*
X99880451Y-81129500D01*
X99858446Y-81084083D01*
X99825247Y-81041997D01*
X99802490Y-81017093D01*
X99661765Y-80897611D01*
X99512695Y-80821155D01*
X99366027Y-80790274D01*
X99232506Y-80807516D01*
X99122879Y-80875429D01*
X99041236Y-80976904D01*
X98983291Y-81105405D01*
X98951283Y-81268107D01*
X98941186Y-81478376D01*
X98563880Y-81478376D01*
X98562946Y-81465186D01*
X98564015Y-81396490D01*
X98593265Y-81122857D01*
X98661586Y-80895240D01*
X98767735Y-80715305D01*
X98910466Y-80584718D01*
X99088534Y-80505145D01*
X99300694Y-80478251D01*
X99422350Y-80487034D01*
X99609554Y-80542796D01*
X99792807Y-80655019D01*
X99903944Y-80739787D01*
X99903944Y-79651179D01*
X99988835Y-79618903D01*
X100064342Y-79602817D01*
X100163460Y-79606337D01*
X100253194Y-79626046D01*
X100253194Y-82481980D01*
X100102382Y-82472303D01*
D12*
X35670000Y-20440000D02*
X36600000Y-20440000D01*
X38830000Y-20440000D02*
X37900000Y-20440000D01*
X38830000Y-20440000D02*
X38830000Y-22600000D01*
X35670000Y-20440000D02*
X35670000Y-21900000D01*
X22035000Y-12722936D02*
X22035000Y-13177064D01*
X20565000Y-12722936D02*
X20565000Y-13177064D01*
X17975480Y-10656500D02*
X17175480Y-10656500D01*
X17975480Y-10656500D02*
X19775480Y-10656500D01*
X17975480Y-13776500D02*
X18775480Y-13776500D01*
X17975480Y-13776500D02*
X17175480Y-13776500D01*
X21835000Y-20122936D02*
X21835000Y-20577064D01*
X20365000Y-20122936D02*
X20365000Y-20577064D01*
X25160000Y-12847936D02*
X25160000Y-14052064D01*
X23340000Y-12847936D02*
X23340000Y-14052064D01*
X48970000Y-44060000D02*
X48970000Y-41900000D01*
X52130000Y-44060000D02*
X51200000Y-44060000D01*
X48970000Y-44060000D02*
X49900000Y-44060000D01*
X52130000Y-44060000D02*
X52130000Y-42600000D01*
X36640000Y-66070000D02*
X38800000Y-66070000D01*
X36640000Y-66070000D02*
X36640000Y-67000000D01*
X36640000Y-69230000D02*
X36640000Y-68300000D01*
X36640000Y-69230000D02*
X38100000Y-69230000D01*
X36640000Y-76530000D02*
X38100000Y-76530000D01*
X36640000Y-73370000D02*
X36640000Y-74300000D01*
X36640000Y-73370000D02*
X38800000Y-73370000D01*
X36640000Y-76530000D02*
X36640000Y-75600000D01*
X46530000Y-22010000D02*
X45600000Y-22010000D01*
X43370000Y-22010000D02*
X43370000Y-19850000D01*
X46530000Y-22010000D02*
X46530000Y-20550000D01*
X43370000Y-22010000D02*
X44300000Y-22010000D01*
X36640000Y-62470000D02*
X36640000Y-63400000D01*
X36640000Y-65630000D02*
X36640000Y-64700000D01*
X36640000Y-62470000D02*
X38800000Y-62470000D01*
X36640000Y-65630000D02*
X38100000Y-65630000D01*
X36120000Y-7830000D02*
X33960000Y-7830000D01*
X36120000Y-4670000D02*
X34660000Y-4670000D01*
X36120000Y-4670000D02*
X36120000Y-5600000D01*
X36120000Y-7830000D02*
X36120000Y-6900000D01*
X36640000Y-58820000D02*
X38800000Y-58820000D01*
X36640000Y-61980000D02*
X38100000Y-61980000D01*
X36640000Y-61980000D02*
X36640000Y-61050000D01*
X36640000Y-58820000D02*
X36640000Y-59750000D01*
X39570000Y-21060000D02*
X40500000Y-21060000D01*
X39570000Y-21060000D02*
X39570000Y-18900000D01*
X42730000Y-21060000D02*
X42730000Y-19600000D01*
X42730000Y-21060000D02*
X41800000Y-21060000D01*
X23100000Y-4935000D02*
X23100000Y-2935000D01*
X13700000Y-1035000D02*
X13700000Y865000D01*
X13700000Y-4935000D02*
X13700000Y-2935000D01*
X13700000Y865000D02*
X23100000Y865000D01*
X23100000Y-1035000D02*
X23100000Y865000D01*
X45120000Y-28590000D02*
X46050000Y-28590000D01*
X48280000Y-28590000D02*
X48280000Y-30750000D01*
X48280000Y-28590000D02*
X47350000Y-28590000D01*
X45120000Y-28590000D02*
X45120000Y-30050000D01*
X32060000Y-13190000D02*
X32990000Y-13190000D01*
X35220000Y-13190000D02*
X35220000Y-11730000D01*
X32060000Y-13190000D02*
X32060000Y-11030000D01*
X35220000Y-13190000D02*
X34290000Y-13190000D01*
X16624264Y-37878427D02*
X17260660Y-37878427D01*
X15139340Y-32221573D02*
X13371573Y-33989340D01*
X13548350Y-36287437D02*
X14962563Y-37701650D01*
X19028427Y-36110660D02*
X17260660Y-37878427D01*
X13371573Y-34625736D02*
X13371573Y-33989340D01*
X19028427Y-35474264D02*
X19028427Y-36110660D01*
X17437437Y-32398350D02*
X18851650Y-33812563D01*
X15775736Y-32221573D02*
X15139340Y-32221573D01*
X57480000Y-22010000D02*
X56550000Y-22010000D01*
X54320000Y-22010000D02*
X55250000Y-22010000D01*
X54320000Y-22010000D02*
X54320000Y-19850000D01*
X57480000Y-22010000D02*
X57480000Y-20550000D01*
X36854457Y-37484990D02*
X36484990Y-37854457D01*
X35815010Y-36445543D02*
X35445543Y-36815010D01*
X41720000Y-40060000D02*
X42650000Y-40060000D01*
X44880000Y-40060000D02*
X44880000Y-38600000D01*
X41720000Y-40060000D02*
X41720000Y-37900000D01*
X44880000Y-40060000D02*
X43950000Y-40060000D01*
G36*
X110080800Y-89235229D02*
G01*
X109471200Y-89235229D01*
X109471200Y-86390429D01*
X110080800Y-86390429D01*
X110080800Y-89235229D01*
G37*
D13*
X110080800Y-89235229D02*
X109471200Y-89235229D01*
X109471200Y-86390429D01*
X110080800Y-86390429D01*
X110080800Y-89235229D01*
G36*
X114348000Y-89235229D02*
G01*
X113738400Y-89235229D01*
X113738400Y-87304829D01*
X114348000Y-87304829D01*
X114348000Y-89235229D01*
G37*
X114348000Y-89235229D02*
X113738400Y-89235229D01*
X113738400Y-87304829D01*
X114348000Y-87304829D01*
X114348000Y-89235229D01*
G36*
X115843605Y-86625379D02*
G01*
X115854033Y-86658300D01*
X115890725Y-86776631D01*
X115935254Y-86923025D01*
X115985750Y-87091090D01*
X116040345Y-87274432D01*
X116097172Y-87466656D01*
X116154363Y-87661368D01*
X116210049Y-87852175D01*
X116262362Y-88032683D01*
X116309434Y-88196498D01*
X116349397Y-88337226D01*
X116380383Y-88448474D01*
X116400524Y-88523847D01*
X116407952Y-88556951D01*
X116409371Y-88570824D01*
X116417699Y-88570394D01*
X116432122Y-88521687D01*
X116438913Y-88496273D01*
X116459386Y-88424099D01*
X116490922Y-88315008D01*
X116531511Y-88175806D01*
X116579140Y-88013302D01*
X116631796Y-87834302D01*
X116687469Y-87645615D01*
X116744145Y-87454048D01*
X116799813Y-87266408D01*
X116852460Y-87089503D01*
X116900075Y-86930140D01*
X116940646Y-86795126D01*
X116972160Y-86691270D01*
X116992606Y-86625379D01*
X117018940Y-86542829D01*
X117698518Y-86542829D01*
X117316043Y-87666779D01*
X117253991Y-87849121D01*
X117174993Y-88081231D01*
X117100034Y-88301448D01*
X117031168Y-88503740D01*
X116970449Y-88682072D01*
X116919931Y-88830411D01*
X116881669Y-88942724D01*
X116857715Y-89012979D01*
X116781862Y-89235229D01*
X116085609Y-89235229D01*
X115632493Y-87920779D01*
X115583107Y-87777531D01*
X115500351Y-87537577D01*
X115423291Y-87314246D01*
X115353478Y-87112024D01*
X115292462Y-86935397D01*
X115241793Y-86788852D01*
X115203022Y-86676876D01*
X115177698Y-86603956D01*
X115167371Y-86574579D01*
X115168357Y-86565695D01*
X115192442Y-86554807D01*
X115249514Y-86547759D01*
X115345496Y-86543963D01*
X115486313Y-86542829D01*
X115817261Y-86542829D01*
X115843605Y-86625379D01*
G37*
X115843605Y-86625379D02*
X115854033Y-86658300D01*
X115890725Y-86776631D01*
X115935254Y-86923025D01*
X115985750Y-87091090D01*
X116040345Y-87274432D01*
X116097172Y-87466656D01*
X116154363Y-87661368D01*
X116210049Y-87852175D01*
X116262362Y-88032683D01*
X116309434Y-88196498D01*
X116349397Y-88337226D01*
X116380383Y-88448474D01*
X116400524Y-88523847D01*
X116407952Y-88556951D01*
X116409371Y-88570824D01*
X116417699Y-88570394D01*
X116432122Y-88521687D01*
X116438913Y-88496273D01*
X116459386Y-88424099D01*
X116490922Y-88315008D01*
X116531511Y-88175806D01*
X116579140Y-88013302D01*
X116631796Y-87834302D01*
X116687469Y-87645615D01*
X116744145Y-87454048D01*
X116799813Y-87266408D01*
X116852460Y-87089503D01*
X116900075Y-86930140D01*
X116940646Y-86795126D01*
X116972160Y-86691270D01*
X116992606Y-86625379D01*
X117018940Y-86542829D01*
X117698518Y-86542829D01*
X117316043Y-87666779D01*
X117253991Y-87849121D01*
X117174993Y-88081231D01*
X117100034Y-88301448D01*
X117031168Y-88503740D01*
X116970449Y-88682072D01*
X116919931Y-88830411D01*
X116881669Y-88942724D01*
X116857715Y-89012979D01*
X116781862Y-89235229D01*
X116085609Y-89235229D01*
X115632493Y-87920779D01*
X115583107Y-87777531D01*
X115500351Y-87537577D01*
X115423291Y-87314246D01*
X115353478Y-87112024D01*
X115292462Y-86935397D01*
X115241793Y-86788852D01*
X115203022Y-86676876D01*
X115177698Y-86603956D01*
X115167371Y-86574579D01*
X115168357Y-86565695D01*
X115192442Y-86554807D01*
X115249514Y-86547759D01*
X115345496Y-86543963D01*
X115486313Y-86542829D01*
X115817261Y-86542829D01*
X115843605Y-86625379D01*
G36*
X112814998Y-88813757D02*
G01*
X112801797Y-88899655D01*
X112776915Y-88966823D01*
X112734688Y-89034828D01*
X112711250Y-89064693D01*
X112631524Y-89142621D01*
X112546955Y-89201528D01*
X112514681Y-89217525D01*
X112440379Y-89243860D01*
X112353452Y-89257033D01*
X112234990Y-89260629D01*
X112090465Y-89253665D01*
X111961291Y-89226231D01*
X111852917Y-89173098D01*
X111750850Y-89089133D01*
X111655600Y-88996319D01*
X111655600Y-89235229D01*
X111071400Y-89235229D01*
X111071400Y-88621359D01*
X111071753Y-88521813D01*
X111074102Y-88342605D01*
X111074774Y-88316363D01*
X111655600Y-88316363D01*
X111656158Y-88413846D01*
X111658736Y-88454289D01*
X111689267Y-88575869D01*
X111746551Y-88689358D01*
X111820935Y-88773675D01*
X111889678Y-88807781D01*
X111988016Y-88827384D01*
X112088035Y-88826536D01*
X112166620Y-88803258D01*
X112186591Y-88787598D01*
X112229818Y-88722531D01*
X112255547Y-88639899D01*
X112255070Y-88563325D01*
X112239142Y-88516900D01*
X112203296Y-88465148D01*
X112144849Y-88424155D01*
X112056765Y-88390620D01*
X111932011Y-88361242D01*
X111763550Y-88332721D01*
X111655600Y-88316363D01*
X111074774Y-88316363D01*
X111078364Y-88176078D01*
X111084195Y-88031762D01*
X111091253Y-87919185D01*
X111099196Y-87847877D01*
X111115886Y-87770764D01*
X111184604Y-87594159D01*
X111288932Y-87451380D01*
X111427000Y-87345294D01*
X111450573Y-87332106D01*
X111503006Y-87304871D01*
X111551251Y-87286531D01*
X111606305Y-87275362D01*
X111679167Y-87269638D01*
X111780833Y-87267636D01*
X111922300Y-87267632D01*
X111985325Y-87267924D01*
X112119569Y-87270324D01*
X112220853Y-87276312D01*
X112302052Y-87287421D01*
X112376043Y-87305183D01*
X112455700Y-87331132D01*
X112633500Y-87393729D01*
X112647986Y-87884521D01*
X112464005Y-87792744D01*
X112361559Y-87745011D01*
X112274343Y-87715447D01*
X112181473Y-87699171D01*
X112060393Y-87690467D01*
X111961014Y-87686402D01*
X111888318Y-87687401D01*
X111840042Y-87696881D01*
X111802446Y-87717708D01*
X111761788Y-87752748D01*
X111736401Y-87778737D01*
X111691186Y-87841597D01*
X111664501Y-87901947D01*
X111660816Y-87947457D01*
X111684597Y-87965793D01*
X111686635Y-87965875D01*
X111729137Y-87970412D01*
X111809835Y-87980826D01*
X111917981Y-87995684D01*
X112042826Y-88013551D01*
X112082817Y-88019600D01*
X112307781Y-88064528D01*
X112487015Y-88123342D01*
X112624025Y-88199321D01*
X112722314Y-88295743D01*
X112785388Y-88415885D01*
X112816751Y-88563028D01*
X112818119Y-88639899D01*
X112819907Y-88740447D01*
X112814998Y-88813757D01*
G37*
X112814998Y-88813757D02*
X112801797Y-88899655D01*
X112776915Y-88966823D01*
X112734688Y-89034828D01*
X112711250Y-89064693D01*
X112631524Y-89142621D01*
X112546955Y-89201528D01*
X112514681Y-89217525D01*
X112440379Y-89243860D01*
X112353452Y-89257033D01*
X112234990Y-89260629D01*
X112090465Y-89253665D01*
X111961291Y-89226231D01*
X111852917Y-89173098D01*
X111750850Y-89089133D01*
X111655600Y-88996319D01*
X111655600Y-89235229D01*
X111071400Y-89235229D01*
X111071400Y-88621359D01*
X111071753Y-88521813D01*
X111074102Y-88342605D01*
X111074774Y-88316363D01*
X111655600Y-88316363D01*
X111656158Y-88413846D01*
X111658736Y-88454289D01*
X111689267Y-88575869D01*
X111746551Y-88689358D01*
X111820935Y-88773675D01*
X111889678Y-88807781D01*
X111988016Y-88827384D01*
X112088035Y-88826536D01*
X112166620Y-88803258D01*
X112186591Y-88787598D01*
X112229818Y-88722531D01*
X112255547Y-88639899D01*
X112255070Y-88563325D01*
X112239142Y-88516900D01*
X112203296Y-88465148D01*
X112144849Y-88424155D01*
X112056765Y-88390620D01*
X111932011Y-88361242D01*
X111763550Y-88332721D01*
X111655600Y-88316363D01*
X111074774Y-88316363D01*
X111078364Y-88176078D01*
X111084195Y-88031762D01*
X111091253Y-87919185D01*
X111099196Y-87847877D01*
X111115886Y-87770764D01*
X111184604Y-87594159D01*
X111288932Y-87451380D01*
X111427000Y-87345294D01*
X111450573Y-87332106D01*
X111503006Y-87304871D01*
X111551251Y-87286531D01*
X111606305Y-87275362D01*
X111679167Y-87269638D01*
X111780833Y-87267636D01*
X111922300Y-87267632D01*
X111985325Y-87267924D01*
X112119569Y-87270324D01*
X112220853Y-87276312D01*
X112302052Y-87287421D01*
X112376043Y-87305183D01*
X112455700Y-87331132D01*
X112633500Y-87393729D01*
X112647986Y-87884521D01*
X112464005Y-87792744D01*
X112361559Y-87745011D01*
X112274343Y-87715447D01*
X112181473Y-87699171D01*
X112060393Y-87690467D01*
X111961014Y-87686402D01*
X111888318Y-87687401D01*
X111840042Y-87696881D01*
X111802446Y-87717708D01*
X111761788Y-87752748D01*
X111736401Y-87778737D01*
X111691186Y-87841597D01*
X111664501Y-87901947D01*
X111660816Y-87947457D01*
X111684597Y-87965793D01*
X111686635Y-87965875D01*
X111729137Y-87970412D01*
X111809835Y-87980826D01*
X111917981Y-87995684D01*
X112042826Y-88013551D01*
X112082817Y-88019600D01*
X112307781Y-88064528D01*
X112487015Y-88123342D01*
X112624025Y-88199321D01*
X112722314Y-88295743D01*
X112785388Y-88415885D01*
X112816751Y-88563028D01*
X112818119Y-88639899D01*
X112819907Y-88740447D01*
X112814998Y-88813757D01*
G36*
X122755400Y-88741698D02*
G01*
X122756583Y-88753033D01*
X122775452Y-88782262D01*
X122794735Y-88802421D01*
X122832748Y-88855383D01*
X122879344Y-88928184D01*
X122920657Y-88993483D01*
X122967090Y-89061306D01*
X122998992Y-89101449D01*
X123018077Y-89126155D01*
X123034800Y-89173543D01*
X123037315Y-89189380D01*
X123059717Y-89209829D01*
X123080174Y-89225757D01*
X123100570Y-89273329D01*
X123115595Y-89315361D01*
X123134266Y-89336829D01*
X123149330Y-89349597D01*
X123176707Y-89396235D01*
X123205685Y-89460774D01*
X123228653Y-89525816D01*
X123238000Y-89573963D01*
X123241529Y-89595388D01*
X123263400Y-89616229D01*
X123275797Y-89636423D01*
X123285241Y-89695962D01*
X123288800Y-89782828D01*
X123286558Y-89860155D01*
X123277871Y-89919815D01*
X123263400Y-89933729D01*
X123247583Y-89935683D01*
X123238000Y-89971591D01*
X123221505Y-90050762D01*
X123170519Y-90152576D01*
X123094903Y-90257315D01*
X123004736Y-90352956D01*
X122910100Y-90427476D01*
X122821075Y-90468852D01*
X122776959Y-90485432D01*
X122755400Y-90506449D01*
X122753836Y-90510432D01*
X122721383Y-90526348D01*
X122660150Y-90538088D01*
X122640745Y-90539167D01*
X122570749Y-90540799D01*
X122457026Y-90542256D01*
X122303963Y-90543519D01*
X122115945Y-90544568D01*
X121897357Y-90545386D01*
X121652585Y-90545954D01*
X121386013Y-90546253D01*
X121102027Y-90546265D01*
X120805013Y-90545971D01*
X120764477Y-90545908D01*
X120404364Y-90545090D01*
X120092300Y-90543858D01*
X119825794Y-90542164D01*
X119602358Y-90539964D01*
X119419500Y-90537212D01*
X119274732Y-90533863D01*
X119165564Y-90529872D01*
X119089505Y-90525194D01*
X119044067Y-90519782D01*
X119026759Y-90513592D01*
X118998351Y-90489999D01*
X118941866Y-90467159D01*
X118939279Y-90466475D01*
X118890281Y-90442859D01*
X118825743Y-90392869D01*
X118740421Y-90311951D01*
X118629072Y-90195553D01*
X118597770Y-90145553D01*
X118573585Y-90074903D01*
X118573057Y-90072324D01*
X118555670Y-90019199D01*
X118535825Y-89997229D01*
X118530863Y-89991445D01*
X118522007Y-89947345D01*
X118515886Y-89869295D01*
X118513600Y-89768629D01*
X118514172Y-89717583D01*
X118518526Y-89626496D01*
X118526233Y-89563534D01*
X118536174Y-89540029D01*
X118539399Y-89539203D01*
X118558795Y-89509735D01*
X118575425Y-89451129D01*
X118577892Y-89438988D01*
X118594846Y-89384406D01*
X118612352Y-89362229D01*
X118617526Y-89360335D01*
X118645535Y-89329648D01*
X118680477Y-89273329D01*
X118690775Y-89254889D01*
X118723681Y-89204612D01*
X118745223Y-89184429D01*
X118760412Y-89168415D01*
X118778031Y-89120929D01*
X118794809Y-89078980D01*
X118818884Y-89057429D01*
X118829005Y-89054467D01*
X118843800Y-89023279D01*
X118844372Y-89017988D01*
X118864934Y-88973067D01*
X118905854Y-88916914D01*
X118916087Y-88904502D01*
X118948550Y-88854723D01*
X118955155Y-88824063D01*
X118952569Y-88818505D01*
X118965302Y-88803429D01*
X118970961Y-88801568D01*
X119000487Y-88770908D01*
X119036077Y-88714529D01*
X119046375Y-88696089D01*
X119079281Y-88645812D01*
X119100823Y-88625629D01*
X119116012Y-88609615D01*
X119133631Y-88562129D01*
X119135516Y-88557417D01*
X119521334Y-88557417D01*
X119620717Y-88538245D01*
X119647207Y-88533199D01*
X119701129Y-88524516D01*
X119750174Y-88521493D01*
X119808121Y-88524586D01*
X119888753Y-88534246D01*
X120005850Y-88550930D01*
X120041224Y-88556351D01*
X120130187Y-88572811D01*
X120192147Y-88588541D01*
X120215400Y-88600760D01*
X120232485Y-88618049D01*
X120280956Y-88636575D01*
X120290337Y-88639298D01*
X120358986Y-88669482D01*
X120444836Y-88717665D01*
X120528818Y-88772449D01*
X120591865Y-88822434D01*
X120612242Y-88838442D01*
X120650829Y-88854229D01*
X120672314Y-88861155D01*
X120714329Y-88892329D01*
X120743179Y-88913157D01*
X120801415Y-88930429D01*
X120829182Y-88934432D01*
X120850400Y-88953002D01*
X120855654Y-88960425D01*
X120894389Y-88979123D01*
X120954445Y-88997386D01*
X121016179Y-89009789D01*
X121059950Y-89010904D01*
X121064817Y-89010657D01*
X121079000Y-89032029D01*
X121081329Y-89037471D01*
X121116035Y-89051716D01*
X121179101Y-89057429D01*
X121198426Y-89057893D01*
X121261597Y-89066593D01*
X121294900Y-89082829D01*
X121295066Y-89083082D01*
X121327403Y-89095759D01*
X121395697Y-89104788D01*
X121485400Y-89108229D01*
X121487149Y-89108227D01*
X121576591Y-89104667D01*
X121644357Y-89095554D01*
X121675900Y-89082829D01*
X121701293Y-89066454D01*
X121756031Y-89057429D01*
X121759757Y-89057352D01*
X121821009Y-89044507D01*
X121893007Y-89016066D01*
X121955733Y-88981300D01*
X121989167Y-88949479D01*
X121991773Y-88945183D01*
X122024651Y-88930429D01*
X122039822Y-88924918D01*
X122087577Y-88895074D01*
X122150936Y-88848869D01*
X122215832Y-88797225D01*
X122268198Y-88751066D01*
X122293967Y-88721313D01*
X122300444Y-88713464D01*
X122338417Y-88701829D01*
X122353983Y-88699313D01*
X122374400Y-88676429D01*
X122373662Y-88670357D01*
X122349000Y-88651029D01*
X122339534Y-88648710D01*
X122323600Y-88619019D01*
X122322990Y-88613967D01*
X122301583Y-88571242D01*
X122259073Y-88517419D01*
X122246903Y-88503996D01*
X122214815Y-88463946D01*
X122209262Y-88447829D01*
X122209702Y-88447801D01*
X122204050Y-88430913D01*
X122172190Y-88392239D01*
X122136054Y-88348087D01*
X122120400Y-88317853D01*
X122115868Y-88303413D01*
X122088650Y-88265487D01*
X122064991Y-88236292D01*
X122020088Y-88174564D01*
X121968000Y-88098622D01*
X121923796Y-88035737D01*
X121882966Y-87984826D01*
X121860050Y-87965278D01*
X121855154Y-87964374D01*
X121841000Y-87938800D01*
X121838702Y-87928154D01*
X121815405Y-87881309D01*
X121777263Y-87821811D01*
X121737078Y-87768662D01*
X121707650Y-87740862D01*
X121704809Y-87739327D01*
X121688600Y-87708083D01*
X121686003Y-87697050D01*
X121662208Y-87650733D01*
X121623944Y-87591954D01*
X121584021Y-87539526D01*
X121555250Y-87512262D01*
X121551958Y-87510421D01*
X121536200Y-87478698D01*
X121531611Y-87460623D01*
X121504450Y-87418196D01*
X121459401Y-87366769D01*
X121420834Y-87317203D01*
X121409200Y-87290857D01*
X121409153Y-87290100D01*
X121393544Y-87259342D01*
X121358400Y-87210159D01*
X121351888Y-87201553D01*
X121339265Y-87180576D01*
X121329296Y-87152989D01*
X121321668Y-87113267D01*
X121316069Y-87055889D01*
X121312189Y-86975329D01*
X121309713Y-86866064D01*
X121308332Y-86722571D01*
X121307731Y-86539325D01*
X121307600Y-86310803D01*
X121307600Y-85476029D01*
X120469400Y-85476029D01*
X120469400Y-86315301D01*
X120468984Y-86508646D01*
X120466969Y-86742250D01*
X120463298Y-86927256D01*
X120457988Y-87063122D01*
X120451056Y-87149301D01*
X120442519Y-87185251D01*
X120427887Y-87203535D01*
X120387044Y-87261157D01*
X120336489Y-87337464D01*
X120283865Y-87420307D01*
X120236813Y-87497541D01*
X120202977Y-87557017D01*
X120190000Y-87586589D01*
X120189721Y-87590466D01*
X120170420Y-87609629D01*
X120158943Y-87617555D01*
X120127383Y-87658963D01*
X120088400Y-87723929D01*
X120064411Y-87765845D01*
X120030332Y-87817894D01*
X120010381Y-87838229D01*
X120006084Y-87840181D01*
X119980730Y-87870916D01*
X119946924Y-87927129D01*
X119936640Y-87945506D01*
X119903353Y-87995826D01*
X119881136Y-88016029D01*
X119865795Y-88028945D01*
X119845389Y-88073179D01*
X119831069Y-88111083D01*
X119811927Y-88143029D01*
X119803512Y-88152764D01*
X119770280Y-88197418D01*
X119719683Y-88268654D01*
X119658817Y-88356573D01*
X119521334Y-88557417D01*
X119135516Y-88557417D01*
X119150409Y-88520180D01*
X119174484Y-88498629D01*
X119185359Y-88494967D01*
X119199400Y-88462343D01*
X119205553Y-88436247D01*
X119236535Y-88388923D01*
X119262419Y-88355180D01*
X119308241Y-88286877D01*
X119366881Y-88194662D01*
X119431759Y-88088659D01*
X119432478Y-88087463D01*
X119494908Y-87984693D01*
X119548424Y-87898680D01*
X119587354Y-87838399D01*
X119606028Y-87812829D01*
X119615150Y-87803002D01*
X119639242Y-87762029D01*
X119640661Y-87758902D01*
X119670693Y-87702456D01*
X119706747Y-87644968D01*
X119734352Y-87609629D01*
X119735693Y-87608232D01*
X119758286Y-87576597D01*
X119798515Y-87515071D01*
X119848652Y-87435432D01*
X119849969Y-87433307D01*
X119906073Y-87343468D01*
X119957563Y-87262191D01*
X119993446Y-87206832D01*
X120028492Y-87148361D01*
X120053559Y-87095278D01*
X120065319Y-87071446D01*
X120091363Y-87050828D01*
X120093769Y-87046468D01*
X120099193Y-87002567D01*
X120104005Y-86916194D01*
X120108040Y-86793221D01*
X120111129Y-86639520D01*
X120113105Y-86460965D01*
X120113800Y-86263429D01*
X120113800Y-85476029D01*
X119682000Y-85476029D01*
X119682000Y-85043736D01*
X120894850Y-85050332D01*
X122107700Y-85056929D01*
X122115078Y-85266479D01*
X122122455Y-85476029D01*
X121663200Y-85476029D01*
X121663200Y-86241380D01*
X121663204Y-86295904D01*
X121663404Y-86502637D01*
X121664194Y-86665965D01*
X121665967Y-86791896D01*
X121669117Y-86886440D01*
X121674037Y-86955604D01*
X121681118Y-87005397D01*
X121690756Y-87041827D01*
X121703342Y-87070902D01*
X121719269Y-87098630D01*
X121733131Y-87120651D01*
X121770752Y-87173722D01*
X121795469Y-87198995D01*
X121802294Y-87203781D01*
X121815600Y-87239634D01*
X121820357Y-87257362D01*
X121847896Y-87310472D01*
X121891800Y-87376998D01*
X121919336Y-87415960D01*
X121954321Y-87469321D01*
X121968000Y-87496181D01*
X121971074Y-87506121D01*
X121995062Y-87540851D01*
X121998155Y-87544606D01*
X122028546Y-87587673D01*
X122079719Y-87665035D01*
X122146865Y-87769137D01*
X122225179Y-87892419D01*
X122309853Y-88027325D01*
X122396081Y-88166297D01*
X122479055Y-88301779D01*
X122520438Y-88368368D01*
X122573336Y-88448712D01*
X122613315Y-88503666D01*
X122633962Y-88524029D01*
X122641990Y-88526972D01*
X122653800Y-88558242D01*
X122668103Y-88598471D01*
X122704600Y-88651029D01*
X122722614Y-88676429D01*
X122739913Y-88700822D01*
X122755400Y-88741698D01*
G37*
X122755400Y-88741698D02*
X122756583Y-88753033D01*
X122775452Y-88782262D01*
X122794735Y-88802421D01*
X122832748Y-88855383D01*
X122879344Y-88928184D01*
X122920657Y-88993483D01*
X122967090Y-89061306D01*
X122998992Y-89101449D01*
X123018077Y-89126155D01*
X123034800Y-89173543D01*
X123037315Y-89189380D01*
X123059717Y-89209829D01*
X123080174Y-89225757D01*
X123100570Y-89273329D01*
X123115595Y-89315361D01*
X123134266Y-89336829D01*
X123149330Y-89349597D01*
X123176707Y-89396235D01*
X123205685Y-89460774D01*
X123228653Y-89525816D01*
X123238000Y-89573963D01*
X123241529Y-89595388D01*
X123263400Y-89616229D01*
X123275797Y-89636423D01*
X123285241Y-89695962D01*
X123288800Y-89782828D01*
X123286558Y-89860155D01*
X123277871Y-89919815D01*
X123263400Y-89933729D01*
X123247583Y-89935683D01*
X123238000Y-89971591D01*
X123221505Y-90050762D01*
X123170519Y-90152576D01*
X123094903Y-90257315D01*
X123004736Y-90352956D01*
X122910100Y-90427476D01*
X122821075Y-90468852D01*
X122776959Y-90485432D01*
X122755400Y-90506449D01*
X122753836Y-90510432D01*
X122721383Y-90526348D01*
X122660150Y-90538088D01*
X122640745Y-90539167D01*
X122570749Y-90540799D01*
X122457026Y-90542256D01*
X122303963Y-90543519D01*
X122115945Y-90544568D01*
X121897357Y-90545386D01*
X121652585Y-90545954D01*
X121386013Y-90546253D01*
X121102027Y-90546265D01*
X120805013Y-90545971D01*
X120764477Y-90545908D01*
X120404364Y-90545090D01*
X120092300Y-90543858D01*
X119825794Y-90542164D01*
X119602358Y-90539964D01*
X119419500Y-90537212D01*
X119274732Y-90533863D01*
X119165564Y-90529872D01*
X119089505Y-90525194D01*
X119044067Y-90519782D01*
X119026759Y-90513592D01*
X118998351Y-90489999D01*
X118941866Y-90467159D01*
X118939279Y-90466475D01*
X118890281Y-90442859D01*
X118825743Y-90392869D01*
X118740421Y-90311951D01*
X118629072Y-90195553D01*
X118597770Y-90145553D01*
X118573585Y-90074903D01*
X118573057Y-90072324D01*
X118555670Y-90019199D01*
X118535825Y-89997229D01*
X118530863Y-89991445D01*
X118522007Y-89947345D01*
X118515886Y-89869295D01*
X118513600Y-89768629D01*
X118514172Y-89717583D01*
X118518526Y-89626496D01*
X118526233Y-89563534D01*
X118536174Y-89540029D01*
X118539399Y-89539203D01*
X118558795Y-89509735D01*
X118575425Y-89451129D01*
X118577892Y-89438988D01*
X118594846Y-89384406D01*
X118612352Y-89362229D01*
X118617526Y-89360335D01*
X118645535Y-89329648D01*
X118680477Y-89273329D01*
X118690775Y-89254889D01*
X118723681Y-89204612D01*
X118745223Y-89184429D01*
X118760412Y-89168415D01*
X118778031Y-89120929D01*
X118794809Y-89078980D01*
X118818884Y-89057429D01*
X118829005Y-89054467D01*
X118843800Y-89023279D01*
X118844372Y-89017988D01*
X118864934Y-88973067D01*
X118905854Y-88916914D01*
X118916087Y-88904502D01*
X118948550Y-88854723D01*
X118955155Y-88824063D01*
X118952569Y-88818505D01*
X118965302Y-88803429D01*
X118970961Y-88801568D01*
X119000487Y-88770908D01*
X119036077Y-88714529D01*
X119046375Y-88696089D01*
X119079281Y-88645812D01*
X119100823Y-88625629D01*
X119116012Y-88609615D01*
X119133631Y-88562129D01*
X119135516Y-88557417D01*
X119521334Y-88557417D01*
X119620717Y-88538245D01*
X119647207Y-88533199D01*
X119701129Y-88524516D01*
X119750174Y-88521493D01*
X119808121Y-88524586D01*
X119888753Y-88534246D01*
X120005850Y-88550930D01*
X120041224Y-88556351D01*
X120130187Y-88572811D01*
X120192147Y-88588541D01*
X120215400Y-88600760D01*
X120232485Y-88618049D01*
X120280956Y-88636575D01*
X120290337Y-88639298D01*
X120358986Y-88669482D01*
X120444836Y-88717665D01*
X120528818Y-88772449D01*
X120591865Y-88822434D01*
X120612242Y-88838442D01*
X120650829Y-88854229D01*
X120672314Y-88861155D01*
X120714329Y-88892329D01*
X120743179Y-88913157D01*
X120801415Y-88930429D01*
X120829182Y-88934432D01*
X120850400Y-88953002D01*
X120855654Y-88960425D01*
X120894389Y-88979123D01*
X120954445Y-88997386D01*
X121016179Y-89009789D01*
X121059950Y-89010904D01*
X121064817Y-89010657D01*
X121079000Y-89032029D01*
X121081329Y-89037471D01*
X121116035Y-89051716D01*
X121179101Y-89057429D01*
X121198426Y-89057893D01*
X121261597Y-89066593D01*
X121294900Y-89082829D01*
X121295066Y-89083082D01*
X121327403Y-89095759D01*
X121395697Y-89104788D01*
X121485400Y-89108229D01*
X121487149Y-89108227D01*
X121576591Y-89104667D01*
X121644357Y-89095554D01*
X121675900Y-89082829D01*
X121701293Y-89066454D01*
X121756031Y-89057429D01*
X121759757Y-89057352D01*
X121821009Y-89044507D01*
X121893007Y-89016066D01*
X121955733Y-88981300D01*
X121989167Y-88949479D01*
X121991773Y-88945183D01*
X122024651Y-88930429D01*
X122039822Y-88924918D01*
X122087577Y-88895074D01*
X122150936Y-88848869D01*
X122215832Y-88797225D01*
X122268198Y-88751066D01*
X122293967Y-88721313D01*
X122300444Y-88713464D01*
X122338417Y-88701829D01*
X122353983Y-88699313D01*
X122374400Y-88676429D01*
X122373662Y-88670357D01*
X122349000Y-88651029D01*
X122339534Y-88648710D01*
X122323600Y-88619019D01*
X122322990Y-88613967D01*
X122301583Y-88571242D01*
X122259073Y-88517419D01*
X122246903Y-88503996D01*
X122214815Y-88463946D01*
X122209262Y-88447829D01*
X122209702Y-88447801D01*
X122204050Y-88430913D01*
X122172190Y-88392239D01*
X122136054Y-88348087D01*
X122120400Y-88317853D01*
X122115868Y-88303413D01*
X122088650Y-88265487D01*
X122064991Y-88236292D01*
X122020088Y-88174564D01*
X121968000Y-88098622D01*
X121923796Y-88035737D01*
X121882966Y-87984826D01*
X121860050Y-87965278D01*
X121855154Y-87964374D01*
X121841000Y-87938800D01*
X121838702Y-87928154D01*
X121815405Y-87881309D01*
X121777263Y-87821811D01*
X121737078Y-87768662D01*
X121707650Y-87740862D01*
X121704809Y-87739327D01*
X121688600Y-87708083D01*
X121686003Y-87697050D01*
X121662208Y-87650733D01*
X121623944Y-87591954D01*
X121584021Y-87539526D01*
X121555250Y-87512262D01*
X121551958Y-87510421D01*
X121536200Y-87478698D01*
X121531611Y-87460623D01*
X121504450Y-87418196D01*
X121459401Y-87366769D01*
X121420834Y-87317203D01*
X121409200Y-87290857D01*
X121409153Y-87290100D01*
X121393544Y-87259342D01*
X121358400Y-87210159D01*
X121351888Y-87201553D01*
X121339265Y-87180576D01*
X121329296Y-87152989D01*
X121321668Y-87113267D01*
X121316069Y-87055889D01*
X121312189Y-86975329D01*
X121309713Y-86866064D01*
X121308332Y-86722571D01*
X121307731Y-86539325D01*
X121307600Y-86310803D01*
X121307600Y-85476029D01*
X120469400Y-85476029D01*
X120469400Y-86315301D01*
X120468984Y-86508646D01*
X120466969Y-86742250D01*
X120463298Y-86927256D01*
X120457988Y-87063122D01*
X120451056Y-87149301D01*
X120442519Y-87185251D01*
X120427887Y-87203535D01*
X120387044Y-87261157D01*
X120336489Y-87337464D01*
X120283865Y-87420307D01*
X120236813Y-87497541D01*
X120202977Y-87557017D01*
X120190000Y-87586589D01*
X120189721Y-87590466D01*
X120170420Y-87609629D01*
X120158943Y-87617555D01*
X120127383Y-87658963D01*
X120088400Y-87723929D01*
X120064411Y-87765845D01*
X120030332Y-87817894D01*
X120010381Y-87838229D01*
X120006084Y-87840181D01*
X119980730Y-87870916D01*
X119946924Y-87927129D01*
X119936640Y-87945506D01*
X119903353Y-87995826D01*
X119881136Y-88016029D01*
X119865795Y-88028945D01*
X119845389Y-88073179D01*
X119831069Y-88111083D01*
X119811927Y-88143029D01*
X119803512Y-88152764D01*
X119770280Y-88197418D01*
X119719683Y-88268654D01*
X119658817Y-88356573D01*
X119521334Y-88557417D01*
X119135516Y-88557417D01*
X119150409Y-88520180D01*
X119174484Y-88498629D01*
X119185359Y-88494967D01*
X119199400Y-88462343D01*
X119205553Y-88436247D01*
X119236535Y-88388923D01*
X119262419Y-88355180D01*
X119308241Y-88286877D01*
X119366881Y-88194662D01*
X119431759Y-88088659D01*
X119432478Y-88087463D01*
X119494908Y-87984693D01*
X119548424Y-87898680D01*
X119587354Y-87838399D01*
X119606028Y-87812829D01*
X119615150Y-87803002D01*
X119639242Y-87762029D01*
X119640661Y-87758902D01*
X119670693Y-87702456D01*
X119706747Y-87644968D01*
X119734352Y-87609629D01*
X119735693Y-87608232D01*
X119758286Y-87576597D01*
X119798515Y-87515071D01*
X119848652Y-87435432D01*
X119849969Y-87433307D01*
X119906073Y-87343468D01*
X119957563Y-87262191D01*
X119993446Y-87206832D01*
X120028492Y-87148361D01*
X120053559Y-87095278D01*
X120065319Y-87071446D01*
X120091363Y-87050828D01*
X120093769Y-87046468D01*
X120099193Y-87002567D01*
X120104005Y-86916194D01*
X120108040Y-86793221D01*
X120111129Y-86639520D01*
X120113105Y-86460965D01*
X120113800Y-86263429D01*
X120113800Y-85476029D01*
X119682000Y-85476029D01*
X119682000Y-85043736D01*
X120894850Y-85050332D01*
X122107700Y-85056929D01*
X122115078Y-85266479D01*
X122122455Y-85476029D01*
X121663200Y-85476029D01*
X121663200Y-86241380D01*
X121663204Y-86295904D01*
X121663404Y-86502637D01*
X121664194Y-86665965D01*
X121665967Y-86791896D01*
X121669117Y-86886440D01*
X121674037Y-86955604D01*
X121681118Y-87005397D01*
X121690756Y-87041827D01*
X121703342Y-87070902D01*
X121719269Y-87098630D01*
X121733131Y-87120651D01*
X121770752Y-87173722D01*
X121795469Y-87198995D01*
X121802294Y-87203781D01*
X121815600Y-87239634D01*
X121820357Y-87257362D01*
X121847896Y-87310472D01*
X121891800Y-87376998D01*
X121919336Y-87415960D01*
X121954321Y-87469321D01*
X121968000Y-87496181D01*
X121971074Y-87506121D01*
X121995062Y-87540851D01*
X121998155Y-87544606D01*
X122028546Y-87587673D01*
X122079719Y-87665035D01*
X122146865Y-87769137D01*
X122225179Y-87892419D01*
X122309853Y-88027325D01*
X122396081Y-88166297D01*
X122479055Y-88301779D01*
X122520438Y-88368368D01*
X122573336Y-88448712D01*
X122613315Y-88503666D01*
X122633962Y-88524029D01*
X122641990Y-88526972D01*
X122653800Y-88558242D01*
X122668103Y-88598471D01*
X122704600Y-88651029D01*
X122722614Y-88676429D01*
X122739913Y-88700822D01*
X122755400Y-88741698D01*
G36*
X114044417Y-86390445D02*
G01*
X114133186Y-86393037D01*
X114191285Y-86404277D01*
X114236605Y-86430186D01*
X114287040Y-86476789D01*
X114300504Y-86490462D01*
X114347587Y-86548410D01*
X114368593Y-86607470D01*
X114373400Y-86692288D01*
X114366624Y-86767053D01*
X114323246Y-86877548D01*
X114243232Y-86956231D01*
X114130646Y-86997983D01*
X113988983Y-87006029D01*
X113863584Y-86977562D01*
X113768685Y-86913804D01*
X113708589Y-86817722D01*
X113687600Y-86692288D01*
X113687741Y-86672015D01*
X113695007Y-86594343D01*
X113720455Y-86537483D01*
X113773960Y-86476788D01*
X113781046Y-86469735D01*
X113829887Y-86426003D01*
X113875814Y-86402224D01*
X113936721Y-86392373D01*
X114030500Y-86390428D01*
X114044417Y-86390445D01*
G37*
X114044417Y-86390445D02*
X114133186Y-86393037D01*
X114191285Y-86404277D01*
X114236605Y-86430186D01*
X114287040Y-86476789D01*
X114300504Y-86490462D01*
X114347587Y-86548410D01*
X114368593Y-86607470D01*
X114373400Y-86692288D01*
X114366624Y-86767053D01*
X114323246Y-86877548D01*
X114243232Y-86956231D01*
X114130646Y-86997983D01*
X113988983Y-87006029D01*
X113863584Y-86977562D01*
X113768685Y-86913804D01*
X113708589Y-86817722D01*
X113687600Y-86692288D01*
X113687741Y-86672015D01*
X113695007Y-86594343D01*
X113720455Y-86537483D01*
X113773960Y-86476788D01*
X113781046Y-86469735D01*
X113829887Y-86426003D01*
X113875814Y-86402224D01*
X113936721Y-86392373D01*
X114030500Y-86390428D01*
X114044417Y-86390445D01*
D12*
X55730000Y-49440000D02*
X55730000Y-51600000D01*
X55730000Y-49440000D02*
X54800000Y-49440000D01*
X52570000Y-49440000D02*
X53500000Y-49440000D01*
X52570000Y-49440000D02*
X52570000Y-50900000D01*
X64880000Y-22010000D02*
X64880000Y-20550000D01*
X61720000Y-22010000D02*
X62650000Y-22010000D01*
X64880000Y-22010000D02*
X63950000Y-22010000D01*
X61720000Y-22010000D02*
X61720000Y-19850000D01*
M02*
