M48
; DRILL file {KiCad (6.0.4)} date Wed Mar 30 23:50:34 2022
; FORMAT={-:-/ absolute / inch / decimal}
; #@! TF.CreationDate,2022-03-30T23:50:34+02:00
; #@! TF.GenerationSoftware,Kicad,Pcbnew,(6.0.4)
; #@! TF.FileFunction,Plated,1,2,PTH
FMAT,2
INCH
; #@! TA.AperFunction,Plated,PTH,ViaDrill
T1C0.0157
; #@! TA.AperFunction,Plated,PTH,ComponentDrill
T2C0.0236
; #@! TA.AperFunction,Plated,PTH,ComponentDrill
T3C0.0551
; #@! TA.AperFunction,Plated,PTH,ComponentDrill
T4C0.0984
%
G90
G05
T1
X0.5492Y-2.0
X0.587Y-0.4445
X0.6535Y-0.6949
X0.6555Y-0.7756
X0.7362Y-0.4803
X0.7953Y-0.6063
X0.8366Y-1.7854
X0.8563Y-0.5315
X0.878Y-1.7283
X0.9Y-0.4445
X0.9094Y-1.435
X0.9193Y-1.7283
X0.9252Y-1.7736
X0.9488Y-0.935
X0.9528Y-0.5827
X0.9646Y-1.8031
X0.9941Y-1.8366
X1.0236Y-0.0571
X1.0256Y-1.8031
X1.0571Y-1.8406
X1.0738Y-1.6526
X1.0748Y-2.8839
X1.0787Y-1.5295
X1.0856Y-1.7077
X1.0965Y-1.4843
X1.1043Y-2.9193
X1.1201Y-1.6575
X1.122Y-1.5177
X1.128Y-2.9567
X1.129Y-1.4419
X1.1575Y-1.5472
X1.1575Y-2.9862
X1.1909Y-1.5768
X1.2008Y-3.0492
X1.2224Y-1.6083
X1.2343Y-3.0906
X1.3022Y-2.5148
X1.3248Y-1.189
X1.3474Y-2.5108
X1.4094Y-2.4724
X1.4469Y-1.311
X1.4724Y-1.9547
X1.4945Y-0.2807
X1.5492Y-1.628
X1.5768Y-1.4429
X1.7776Y-1.0335
X2.0551Y-0.4449
X2.1811Y-0.2638
X2.3996Y-0.7972
X2.811Y-0.1457
X3.5669Y-0.1319
X4.8118Y-0.1335
X9.872Y-0.1122
X10.1476Y-0.1122
T3
X0.2254Y-0.2746
X0.2766Y-0.2175
X0.4129Y-1.0246
X0.4129Y-3.2746
X0.4641Y-0.9675
X0.4641Y-3.2175
X0.5066Y-1.7746
X0.5578Y-1.7175
X0.5645Y-3.5325
X0.6156Y-3.4754
X0.6941Y-2.5246
X0.7453Y-2.4675
X0.9754Y-0.2746
X1.0266Y-0.2175
X1.1629Y-3.2746
X1.2141Y-3.2175
X1.3504Y-1.0246
X1.4016Y-0.9675
X1.5379Y-1.7746
X1.5891Y-1.7175
X1.6629Y-3.5325
X1.7141Y-3.4754
X1.7254Y-0.2746
X1.7766Y-0.2175
X1.9129Y-2.5246
X1.9129Y-3.2746
X1.9641Y-2.4675
X1.9641Y-3.2175
X2.1004Y-1.0246
X2.1516Y-0.9675
X2.2815Y-3.2746
X2.2879Y-1.7746
X2.3327Y-3.2175
X2.3391Y-1.7175
X2.4754Y-0.2746
X2.5266Y-0.2175
X2.6629Y-2.5246
X2.7141Y-2.4675
X2.8504Y-1.0246
X2.9016Y-0.9675
X3.0379Y-1.7746
X3.0891Y-1.7175
X3.2254Y-0.2746
X3.2766Y-0.2175
X3.4129Y-2.5246
X3.4641Y-2.4675
X3.6004Y-1.0246
X3.6516Y-0.9675
X3.7879Y-1.7746
X3.8391Y-1.7175
X3.9754Y-0.2746
X4.0266Y-0.2175
X4.1629Y-2.5246
X4.2141Y-2.4675
X4.3504Y-1.0246
X4.4016Y-0.9675
X4.5379Y-1.7746
X4.5891Y-1.7175
X4.7254Y-0.2746
X4.7766Y-0.2175
X4.9129Y-2.5246
X4.9641Y-2.4675
X5.0066Y-3.2746
X5.0578Y-3.2175
X5.1004Y-1.0246
X5.1516Y-0.9675
X5.2879Y-1.7746
X5.3391Y-1.7175
X5.3816Y-3.2746
X5.4328Y-3.2175
X5.4754Y-0.2746
X5.5266Y-0.2175
X5.6629Y-2.5246
X5.7141Y-2.4675
X5.8504Y-1.0246
X5.9016Y-0.9675
X6.0379Y-1.7746
X6.0891Y-1.7175
X6.2254Y-0.2746
X6.2766Y-0.2175
X6.4129Y-2.5246
X6.4641Y-2.4675
X6.6004Y-1.0246
X6.6516Y-0.9675
X6.7879Y-1.7746
X6.8391Y-1.7175
X6.9754Y-0.2746
X7.0266Y-0.2175
X7.1629Y-2.5246
X7.2141Y-2.4675
X7.3504Y-1.0246
X7.4016Y-0.9675
X7.5379Y-1.7746
X7.5891Y-1.7175
X7.7254Y-0.2746
X7.7766Y-0.2175
X7.9129Y-2.5246
X7.9129Y-3.2746
X7.9641Y-2.4675
X7.9641Y-3.2175
X8.1004Y-1.0246
X8.1516Y-0.9675
X8.2879Y-1.7746
X8.3391Y-1.7175
X8.4754Y-0.2746
X8.5266Y-0.2175
X8.6629Y-2.5246
X8.7141Y-2.4675
X8.8504Y-1.0246
X8.8504Y-3.2746
X8.9016Y-0.9675
X8.9016Y-3.2175
X9.0379Y-1.7746
X9.0891Y-1.7175
X9.1949Y-3.5325
X9.2254Y-0.2746
X9.2461Y-3.4754
X9.2766Y-0.2175
X9.5066Y-2.5246
X9.5578Y-2.4675
X9.6004Y-1.0246
X9.6008Y-3.2732
X9.6516Y-0.9675
X9.652Y-3.2161
X9.7879Y-1.7746
X9.8391Y-1.7175
X9.9754Y-0.2746
X10.0266Y-0.2175
X10.0359Y-3.5325
X10.0691Y-2.5246
X10.0871Y-3.4754
X10.1203Y-2.4675
X10.2566Y-1.7746
X10.3078Y-1.7175
X10.3504Y-0.2746
X10.4016Y-0.2175
X10.5379Y-1.0246
X10.5379Y-3.2746
X10.5891Y-0.9675
X10.5891Y-3.2175
X10.6238Y-2.3484
X10.6809Y-2.3996
X10.7254Y-0.2746
X10.7766Y-0.2175
X10.8797Y-3.5325
X10.9309Y-3.4754
T2
G00X0.5608Y-0.0663
M15
G01X0.5608Y-0.09
M16
G05
G00X0.5608Y-0.2211
M15
G01X0.5608Y-0.2644
M16
G05
G00X0.901Y-0.0663
M15
G01X0.901Y-0.09
M16
G05
G00X0.901Y-0.2211
M15
G01X0.901Y-0.2644
M16
G05
T3
G00X0.3676Y-3.5748
M15
G01X0.3676Y-3.5531
M16
G05
G00X0.4734Y-0.1752
M15
G01X0.4734Y-0.1969
M16
G05
G00X0.6609Y-0.9252
M15
G01X0.6609Y-0.9469
M16
G05
G00X0.6609Y-3.1752
M15
G01X0.6609Y-3.1969
M16
G05
G00X0.7547Y-1.6752
M15
G01X0.7547Y-1.6969
M16
G05
G00X0.9422Y-2.4252
M15
G01X0.9422Y-2.4469
M16
G05
G00X1.2234Y-0.1752
M15
G01X1.2234Y-0.1969
M16
G05
G00X1.4109Y-3.1752
M15
G01X1.4109Y-3.1969
M16
G05
G00X1.466Y-3.5748
M15
G01X1.466Y-3.5531
M16
G05
G00X1.5984Y-0.9252
M15
G01X1.5984Y-0.9469
M16
G05
G00X1.7859Y-1.6752
M15
G01X1.7859Y-1.6969
M16
G05
G00X1.9734Y-0.1752
M15
G01X1.9734Y-0.1969
M16
G05
G00X2.1609Y-2.4252
M15
G01X2.1609Y-2.4469
M16
G05
G00X2.1609Y-3.1752
M15
G01X2.1609Y-3.1969
M16
G05
G00X2.3484Y-0.9252
M15
G01X2.3484Y-0.9469
M16
G05
G00X2.5295Y-3.1752
M15
G01X2.5295Y-3.1969
M16
G05
G00X2.5359Y-1.6752
M15
G01X2.5359Y-1.6969
M16
G05
G00X2.7234Y-0.1752
M15
G01X2.7234Y-0.1969
M16
G05
G00X2.9109Y-2.4252
M15
G01X2.9109Y-2.4469
M16
G05
G00X3.0984Y-0.9252
M15
G01X3.0984Y-0.9469
M16
G05
G00X3.2859Y-1.6752
M15
G01X3.2859Y-1.6969
M16
G05
G00X3.4734Y-0.1752
M15
G01X3.4734Y-0.1969
M16
G05
G00X3.6609Y-2.4252
M15
G01X3.6609Y-2.4469
M16
G05
G00X3.8484Y-0.9252
M15
G01X3.8484Y-0.9469
M16
G05
G00X4.0359Y-1.6752
M15
G01X4.0359Y-1.6969
M16
G05
G00X4.2234Y-0.1752
M15
G01X4.2234Y-0.1969
M16
G05
G00X4.4109Y-2.4252
M15
G01X4.4109Y-2.4469
M16
G05
G00X4.5984Y-0.9252
M15
G01X4.5984Y-0.9469
M16
G05
G00X4.7859Y-1.6752
M15
G01X4.7859Y-1.6969
M16
G05
G00X4.9734Y-0.1752
M15
G01X4.9734Y-0.1969
M16
G05
G00X5.1609Y-2.4252
M15
G01X5.1609Y-2.4469
M16
G05
G00X5.2547Y-3.1752
M15
G01X5.2547Y-3.1969
M16
G05
G00X5.3484Y-0.9252
M15
G01X5.3484Y-0.9469
M16
G05
G00X5.5359Y-1.6752
M15
G01X5.5359Y-1.6969
M16
G05
G00X5.6297Y-3.1752
M15
G01X5.6297Y-3.1969
M16
G05
G00X5.7234Y-0.1752
M15
G01X5.7234Y-0.1969
M16
G05
G00X5.9109Y-2.4252
M15
G01X5.9109Y-2.4469
M16
G05
G00X6.0984Y-0.9252
M15
G01X6.0984Y-0.9469
M16
G05
G00X6.2859Y-1.6752
M15
G01X6.2859Y-1.6969
M16
G05
G00X6.4734Y-0.1752
M15
G01X6.4734Y-0.1969
M16
G05
G00X6.6609Y-2.4252
M15
G01X6.6609Y-2.4469
M16
G05
G00X6.8484Y-0.9252
M15
G01X6.8484Y-0.9469
M16
G05
G00X7.0359Y-1.6752
M15
G01X7.0359Y-1.6969
M16
G05
G00X7.2234Y-0.1752
M15
G01X7.2234Y-0.1969
M16
G05
G00X7.4109Y-2.4252
M15
G01X7.4109Y-2.4469
M16
G05
G00X7.5984Y-0.9252
M15
G01X7.5984Y-0.9469
M16
G05
G00X7.7859Y-1.6752
M15
G01X7.7859Y-1.6969
M16
G05
G00X7.9734Y-0.1752
M15
G01X7.9734Y-0.1969
M16
G05
G00X8.1609Y-2.4252
M15
G01X8.1609Y-2.4469
M16
G05
G00X8.1609Y-3.1752
M15
G01X8.1609Y-3.1969
M16
G05
G00X8.3484Y-0.9252
M15
G01X8.3484Y-0.9469
M16
G05
G00X8.5359Y-1.6752
M15
G01X8.5359Y-1.6969
M16
G05
G00X8.7234Y-0.1752
M15
G01X8.7234Y-0.1969
M16
G05
G00X8.9109Y-2.4252
M15
G01X8.9109Y-2.4469
M16
G05
G00X8.998Y-3.5748
M15
G01X8.998Y-3.5531
M16
G05
G00X9.0984Y-0.9252
M15
G01X9.0984Y-0.9469
M16
G05
G00X9.0984Y-3.1752
M15
G01X9.0984Y-3.1969
M16
G05
G00X9.2859Y-1.6752
M15
G01X9.2859Y-1.6969
M16
G05
G00X9.4734Y-0.1752
M15
G01X9.4734Y-0.1969
M16
G05
G00X9.7547Y-2.4252
M15
G01X9.7547Y-2.4469
M16
G05
G00X9.8391Y-3.5748
M15
G01X9.8391Y-3.5531
M16
G05
G00X9.8484Y-0.9252
M15
G01X9.8484Y-0.9469
M16
G05
G00X9.8488Y-3.1738
M15
G01X9.8488Y-3.1955
M16
G05
G00X10.0359Y-1.6752
M15
G01X10.0359Y-1.6969
M16
G05
G00X10.2234Y-0.1752
M15
G01X10.2234Y-0.1969
M16
G05
G00X10.3172Y-2.4252
M15
G01X10.3172Y-2.4469
M16
G05
G00X10.5047Y-1.6752
M15
G01X10.5047Y-1.6969
M16
G05
G00X10.5814Y-2.1516
M15
G01X10.6031Y-2.1516
M16
G05
G00X10.5984Y-0.1752
M15
G01X10.5984Y-0.1969
M16
G05
G00X10.6828Y-3.5748
M15
G01X10.6828Y-3.5531
M16
G05
G00X10.7859Y-0.9252
M15
G01X10.7859Y-0.9469
M16
G05
G00X10.7859Y-3.1752
M15
G01X10.7859Y-3.1969
M16
G05
G00X10.9734Y-0.1752
M15
G01X10.9734Y-0.1969
M16
G05
T4
G00X0.0052Y-2.249
M15
G01X0.1823Y-2.249
M16
G05
G00X0.9587Y-1.125
M15
G01X1.0571Y-1.125
M16
G05
G00X0.999Y-3.375
M15
G01X1.0974Y-3.375
M16
G05
G00X5.0133Y-1.8671
M15
G01X5.1117Y-1.8671
M16
G05
G00X5.5758Y-1.4862
M15
G01X5.6742Y-1.4862
M16
G05
G00X7.4508Y-3.3671
M15
G01X7.5492Y-3.3671
M16
G05
G00X10.2037Y-1.1113
M15
G01X10.3022Y-1.1113
M16
G05
G00X10.2039Y-3.375
M15
G01X10.3024Y-3.375
M16
G05
G00X11.0677Y-2.249
M15
G01X11.2448Y-2.249
M16
G05
T0
M30
