G04 #@! TF.GenerationSoftware,KiCad,Pcbnew,(6.0.4)*
G04 #@! TF.CreationDate,2022-04-19T08:51:35+02:00*
G04 #@! TF.ProjectId,pcb,7063622e-6b69-4636-9164-5f7063625858,rev?*
G04 #@! TF.SameCoordinates,Original*
G04 #@! TF.FileFunction,Soldermask,Top*
G04 #@! TF.FilePolarity,Negative*
%FSLAX46Y46*%
G04 Gerber Fmt 4.6, Leading zero omitted, Abs format (unit mm)*
G04 Created by KiCad (PCBNEW (6.0.4)) date 2022-04-19 08:51:35*
%MOMM*%
%LPD*%
G01*
G04 APERTURE LIST*
G04 Aperture macros list*
%AMHorizOval*
0 Thick line with rounded ends*
0 $1 width*
0 $2 $3 position (X,Y) of the first rounded end (center of the circle)*
0 $4 $5 position (X,Y) of the second rounded end (center of the circle)*
0 Add line between two ends*
20,1,$1,$2,$3,$4,$5,0*
0 Add two circle primitives to create the rounded ends*
1,1,$1,$2,$3*
1,1,$1,$4,$5*%
G04 Aperture macros list end*
%ADD10O,10.000000X5.000000*%
%ADD11C,5.500000*%
%ADD12C,1.700000*%
%ADD13C,1.800000*%
%ADD14C,4.900000*%
%ADD15C,2.400000*%
%ADD16HorizOval,2.400000X-0.669131X-0.743145X0.669131X0.743145X0*%
%ADD17O,2.400000X2.950000*%
%ADD18C,3.048000*%
%ADD19C,3.987800*%
%ADD20HorizOval,2.400000X0.669131X0.743145X-0.669131X-0.743145X0*%
%ADD21HorizOval,2.400000X-0.743145X0.669131X0.743145X-0.669131X0*%
%ADD22O,2.950000X2.400000*%
%ADD23C,0.650000*%
%ADD24O,1.000000X2.100000*%
%ADD25O,1.000000X1.600000*%
G04 APERTURE END LIST*
D10*
X2381252Y-57125000D03*
X283368988Y-57125000D03*
D11*
X26030000Y-85720000D03*
X142875000Y-37750000D03*
X260430000Y-85725072D03*
X260425000Y-28227050D03*
X25600000Y-28575024D03*
X128587608Y-47425040D03*
X190500160Y-85525000D03*
D12*
X128270000Y-28575000D03*
D13*
X138850000Y-28575000D03*
D12*
X138430000Y-28575000D03*
D13*
X127850000Y-28575000D03*
D14*
X133350000Y-28575000D03*
D15*
X130850000Y-24575000D03*
D16*
X130219131Y-25281855D03*
D17*
X135850000Y-23775000D03*
D12*
X147955000Y-9525000D03*
D13*
X137375000Y-9525000D03*
D12*
X137795000Y-9525000D03*
D13*
X148375000Y-9525000D03*
D14*
X142875000Y-9525000D03*
D15*
X140375000Y-5525000D03*
D16*
X139744131Y-6231855D03*
D17*
X145375000Y-4725000D03*
D18*
X266858750Y-69056250D03*
X266858750Y-45243750D03*
D19*
X282098750Y-45243750D03*
X282098750Y-69056250D03*
D14*
X61912500Y-47625000D03*
D13*
X56412500Y-47625000D03*
D12*
X56832500Y-47625000D03*
X66992500Y-47625000D03*
D13*
X67412500Y-47625000D03*
D15*
X59412500Y-43625000D03*
D16*
X58781631Y-44331855D03*
D17*
X64412500Y-42825000D03*
D13*
X279343750Y-85725000D03*
X268343750Y-85725000D03*
D12*
X278923750Y-85725000D03*
D14*
X273843750Y-85725000D03*
D12*
X268763750Y-85725000D03*
D15*
X276343750Y-89725000D03*
D20*
X276974619Y-89018145D03*
D17*
X271343750Y-90525000D03*
D13*
X236550000Y-85725000D03*
D12*
X236130000Y-85725000D03*
X225970000Y-85725000D03*
D14*
X231050000Y-85725000D03*
D13*
X225550000Y-85725000D03*
D20*
X234180869Y-89018145D03*
D15*
X233550000Y-89725000D03*
D17*
X228550000Y-90525000D03*
D12*
X209232500Y-47625000D03*
X219392500Y-47625000D03*
D13*
X219812500Y-47625000D03*
D14*
X214312500Y-47625000D03*
D13*
X208812500Y-47625000D03*
D15*
X211812500Y-43625000D03*
D16*
X211181631Y-44331855D03*
D17*
X216812500Y-42825000D03*
D12*
X16351250Y-66675000D03*
D13*
X15931250Y-66675000D03*
D14*
X21431250Y-66675000D03*
D12*
X26511250Y-66675000D03*
D13*
X26931250Y-66675000D03*
D16*
X18300381Y-63381855D03*
D15*
X18931250Y-62675000D03*
D17*
X23931250Y-61875000D03*
D13*
X242160000Y-85690000D03*
D12*
X252740000Y-85690000D03*
X242580000Y-85690000D03*
D14*
X247660000Y-85690000D03*
D13*
X253160000Y-85690000D03*
D15*
X245160000Y-81690000D03*
D16*
X244529131Y-82396855D03*
D17*
X250160000Y-80890000D03*
D14*
X233362500Y-47625000D03*
D13*
X227862500Y-47625000D03*
D12*
X238442500Y-47625000D03*
X228282500Y-47625000D03*
D13*
X238862500Y-47625000D03*
D16*
X230231631Y-44331855D03*
D15*
X230862500Y-43625000D03*
D17*
X235862500Y-42825000D03*
D13*
X180237500Y-66675000D03*
D14*
X185737500Y-66675000D03*
D13*
X191237500Y-66675000D03*
D12*
X180657500Y-66675000D03*
X190817500Y-66675000D03*
D16*
X182606631Y-63381855D03*
D15*
X183237500Y-62675000D03*
D17*
X188237500Y-61875000D03*
D13*
X246912500Y-47625000D03*
X257912500Y-47625000D03*
D14*
X252412500Y-47625000D03*
D12*
X257492500Y-47625000D03*
X247332500Y-47625000D03*
D16*
X249281631Y-44331855D03*
D15*
X249912500Y-43625000D03*
D17*
X254912500Y-42825000D03*
D12*
X104457500Y-66675000D03*
D13*
X104037500Y-66675000D03*
D12*
X114617500Y-66675000D03*
D14*
X109537500Y-66675000D03*
D13*
X115037500Y-66675000D03*
D15*
X107037500Y-62675000D03*
D16*
X106406631Y-63381855D03*
D17*
X112037500Y-61875000D03*
D18*
X254793750Y-2540000D03*
X278606250Y-2540000D03*
D19*
X278606250Y-17780000D03*
X254793750Y-17780000D03*
D14*
X252412500Y-85725000D03*
D13*
X257912500Y-85725000D03*
D12*
X257492500Y-85725000D03*
D13*
X246912500Y-85725000D03*
D12*
X247332500Y-85725000D03*
D20*
X255543369Y-89018145D03*
D15*
X254912500Y-89725000D03*
D17*
X249912500Y-90525000D03*
D12*
X190182500Y-47625000D03*
D13*
X189762500Y-47625000D03*
D14*
X195262500Y-47625000D03*
D13*
X200762500Y-47625000D03*
D12*
X200342500Y-47625000D03*
D15*
X192762500Y-43625000D03*
D16*
X192131631Y-44331855D03*
D17*
X197762500Y-42825000D03*
D13*
X270725000Y-9525000D03*
X281725000Y-9525000D03*
D12*
X271145000Y-9525000D03*
D14*
X276225000Y-9525000D03*
D12*
X281305000Y-9525000D03*
D15*
X273725000Y-5525000D03*
D16*
X273094131Y-6231855D03*
D17*
X278725000Y-4725000D03*
D12*
X252730000Y-28575000D03*
D13*
X253150000Y-28575000D03*
D14*
X247650000Y-28575000D03*
D13*
X242150000Y-28575000D03*
D12*
X242570000Y-28575000D03*
D16*
X244519131Y-25281855D03*
D15*
X245150000Y-24575000D03*
D17*
X250150000Y-23775000D03*
D13*
X123087500Y-66675000D03*
D14*
X128587500Y-66675000D03*
D12*
X133667500Y-66675000D03*
D13*
X134087500Y-66675000D03*
D12*
X123507500Y-66675000D03*
D15*
X126087500Y-62675000D03*
D16*
X125456631Y-63381855D03*
D17*
X131087500Y-61875000D03*
D12*
X233680000Y-85725000D03*
D13*
X223100000Y-85725000D03*
X234100000Y-85725000D03*
D12*
X223520000Y-85725000D03*
D14*
X228600000Y-85725000D03*
D16*
X225469131Y-82431855D03*
D15*
X226100000Y-81725000D03*
D17*
X231100000Y-80925000D03*
D13*
X113562500Y-47625000D03*
D12*
X124142500Y-47625000D03*
D14*
X119062500Y-47625000D03*
D13*
X124562500Y-47625000D03*
D12*
X113982500Y-47625000D03*
D15*
X116562500Y-43625000D03*
D16*
X115931631Y-44331855D03*
D17*
X121562500Y-42825000D03*
D13*
X213575000Y-9525000D03*
D12*
X213995000Y-9525000D03*
X224155000Y-9525000D03*
D14*
X219075000Y-9525000D03*
D13*
X224575000Y-9525000D03*
D15*
X216575000Y-5525000D03*
D16*
X215944131Y-6231855D03*
D17*
X221575000Y-4725000D03*
D13*
X11168750Y-47625000D03*
X22168750Y-47625000D03*
D14*
X16668750Y-47625000D03*
D12*
X21748750Y-47625000D03*
X11588750Y-47625000D03*
D15*
X14168750Y-43625000D03*
D16*
X13537881Y-44331855D03*
D17*
X19168750Y-42825000D03*
D12*
X66357500Y-66675000D03*
D14*
X71437500Y-66675000D03*
D12*
X76517500Y-66675000D03*
D13*
X65937500Y-66675000D03*
X76937500Y-66675000D03*
D15*
X68937500Y-62675000D03*
D16*
X68306631Y-63381855D03*
D17*
X73937500Y-61875000D03*
D13*
X151662500Y-47625000D03*
D12*
X152082500Y-47625000D03*
D13*
X162662500Y-47625000D03*
D14*
X157162500Y-47625000D03*
D12*
X162242500Y-47625000D03*
D15*
X154662500Y-43625000D03*
D16*
X154031631Y-44331855D03*
D17*
X159662500Y-42825000D03*
D14*
X33337500Y-85725000D03*
D12*
X28257500Y-85725000D03*
X38417500Y-85725000D03*
D13*
X27837500Y-85725000D03*
X38837500Y-85725000D03*
D15*
X30837500Y-81725000D03*
D16*
X30206631Y-82431855D03*
D17*
X35837500Y-80925000D03*
D14*
X245268750Y-66675000D03*
D13*
X239768750Y-66675000D03*
D12*
X250348750Y-66675000D03*
X240188750Y-66675000D03*
D13*
X250768750Y-66675000D03*
D15*
X242768750Y-62675000D03*
D16*
X242137881Y-63381855D03*
D17*
X247768750Y-61875000D03*
D12*
X81280000Y-28575000D03*
D14*
X76200000Y-28575000D03*
D13*
X81700000Y-28575000D03*
D12*
X71120000Y-28575000D03*
D13*
X70700000Y-28575000D03*
D16*
X73069131Y-25281855D03*
D15*
X73700000Y-24575000D03*
D17*
X78700000Y-23775000D03*
D14*
X271462500Y-85725000D03*
D12*
X276542500Y-85725000D03*
X266382500Y-85725000D03*
D13*
X276962500Y-85725000D03*
X265962500Y-85725000D03*
D16*
X268331631Y-82431855D03*
D15*
X268962500Y-81725000D03*
D17*
X273962500Y-80925000D03*
D14*
X259556250Y-66675000D03*
D13*
X254056250Y-66675000D03*
D12*
X264636250Y-66675000D03*
X254476250Y-66675000D03*
D13*
X265056250Y-66675000D03*
D15*
X257056250Y-62675000D03*
D16*
X256425381Y-63381855D03*
D17*
X262056250Y-61875000D03*
D13*
X276962500Y-28575000D03*
X265962500Y-28575000D03*
D12*
X266382500Y-28575000D03*
D14*
X271462500Y-28575000D03*
D12*
X276542500Y-28575000D03*
D16*
X268331631Y-25281855D03*
D15*
X268962500Y-24575000D03*
D17*
X273962500Y-23775000D03*
D13*
X234100000Y-28575000D03*
X223100000Y-28575000D03*
D12*
X223520000Y-28575000D03*
X233680000Y-28575000D03*
D14*
X228600000Y-28575000D03*
D16*
X225469131Y-25281855D03*
D15*
X226100000Y-24575000D03*
D17*
X231100000Y-23775000D03*
D19*
X252412500Y-39370000D03*
X276225000Y-39370000D03*
D18*
X276225000Y-54610000D03*
X252412500Y-54610000D03*
D13*
X23075000Y-9525000D03*
D14*
X28575000Y-9525000D03*
D12*
X33655000Y-9525000D03*
D13*
X34075000Y-9525000D03*
D12*
X23495000Y-9525000D03*
D15*
X26075000Y-5525000D03*
D16*
X25444131Y-6231855D03*
D17*
X31075000Y-4725000D03*
D14*
X204787500Y-66675000D03*
D13*
X210287500Y-66675000D03*
D12*
X209867500Y-66675000D03*
D13*
X199287500Y-66675000D03*
D12*
X199707500Y-66675000D03*
D15*
X202287500Y-62675000D03*
D16*
X201656631Y-63381855D03*
D17*
X207287500Y-61875000D03*
D13*
X258818750Y-47625000D03*
D12*
X259238750Y-47625000D03*
X269398750Y-47625000D03*
D13*
X269818750Y-47625000D03*
D14*
X264318750Y-47625000D03*
D15*
X261818750Y-43625000D03*
D16*
X261187881Y-44331855D03*
D17*
X266818750Y-42825000D03*
D13*
X89750000Y-28575000D03*
X100750000Y-28575000D03*
D12*
X90170000Y-28575000D03*
X100330000Y-28575000D03*
D14*
X95250000Y-28575000D03*
D15*
X92750000Y-24575000D03*
D16*
X92119131Y-25281855D03*
D17*
X97750000Y-23775000D03*
D13*
X125468750Y-85725000D03*
D12*
X125888750Y-85725000D03*
D14*
X130968750Y-85725000D03*
D13*
X136468750Y-85725000D03*
D12*
X136048750Y-85725000D03*
D16*
X127837881Y-82431855D03*
D15*
X128468750Y-81725000D03*
D17*
X133468750Y-80925000D03*
D13*
X51650000Y-28575000D03*
X62650000Y-28575000D03*
D12*
X52070000Y-28575000D03*
D14*
X57150000Y-28575000D03*
D12*
X62230000Y-28575000D03*
D16*
X54019131Y-25281855D03*
D15*
X54650000Y-24575000D03*
D17*
X59650000Y-23775000D03*
D12*
X16917500Y-85725000D03*
D13*
X17337500Y-85725000D03*
X6337500Y-85725000D03*
D14*
X11837500Y-85725000D03*
D12*
X6757500Y-85725000D03*
D20*
X14968369Y-89018145D03*
D15*
X14337500Y-89725000D03*
D17*
X9337500Y-90525000D03*
D14*
X100012500Y-47625000D03*
D12*
X94932500Y-47625000D03*
X105092500Y-47625000D03*
D13*
X94512500Y-47625000D03*
X105512500Y-47625000D03*
D15*
X97512500Y-43625000D03*
D16*
X96881631Y-44331855D03*
D17*
X102512500Y-42825000D03*
D13*
X181712500Y-47625000D03*
X170712500Y-47625000D03*
D14*
X176212500Y-47625000D03*
D12*
X171132500Y-47625000D03*
X181292500Y-47625000D03*
D16*
X173081631Y-44331855D03*
D15*
X173712500Y-43625000D03*
D17*
X178712500Y-42825000D03*
D12*
X142557500Y-66675000D03*
D13*
X142137500Y-66675000D03*
D12*
X152717500Y-66675000D03*
D13*
X153137500Y-66675000D03*
D14*
X147637500Y-66675000D03*
D16*
X144506631Y-63381855D03*
D15*
X145137500Y-62675000D03*
D17*
X150137500Y-61875000D03*
D12*
X90805000Y-9525000D03*
D13*
X80225000Y-9525000D03*
D12*
X80645000Y-9525000D03*
D14*
X85725000Y-9525000D03*
D13*
X91225000Y-9525000D03*
D15*
X83225000Y-5525000D03*
D16*
X82594131Y-6231855D03*
D17*
X88225000Y-4725000D03*
D12*
X133032500Y-47625000D03*
D13*
X143612500Y-47625000D03*
D14*
X138112500Y-47625000D03*
D12*
X143192500Y-47625000D03*
D13*
X132612500Y-47625000D03*
D16*
X134981631Y-44331855D03*
D15*
X135612500Y-43625000D03*
D17*
X140612500Y-42825000D03*
D12*
X171767500Y-66675000D03*
D13*
X172187500Y-66675000D03*
X161187500Y-66675000D03*
D14*
X166687500Y-66675000D03*
D12*
X161607500Y-66675000D03*
D16*
X163556631Y-63381855D03*
D15*
X164187500Y-62675000D03*
D17*
X169187500Y-61875000D03*
D12*
X195580000Y-28575000D03*
D13*
X196000000Y-28575000D03*
D12*
X185420000Y-28575000D03*
D13*
X185000000Y-28575000D03*
D14*
X190500000Y-28575000D03*
D16*
X187369131Y-25281855D03*
D15*
X188000000Y-24575000D03*
D17*
X193000000Y-23775000D03*
D12*
X37782500Y-47625000D03*
D13*
X48362500Y-47625000D03*
D14*
X42862500Y-47625000D03*
D12*
X47942500Y-47625000D03*
D13*
X37362500Y-47625000D03*
D16*
X39731631Y-44331855D03*
D15*
X40362500Y-43625000D03*
D17*
X45362500Y-42825000D03*
D13*
X75462500Y-47625000D03*
D14*
X80962500Y-47625000D03*
D12*
X75882500Y-47625000D03*
X86042500Y-47625000D03*
D13*
X86462500Y-47625000D03*
D15*
X78462500Y-43625000D03*
D16*
X77831631Y-44331855D03*
D17*
X83462500Y-42825000D03*
D12*
X205105000Y-9525000D03*
X194945000Y-9525000D03*
D13*
X205525000Y-9525000D03*
X194525000Y-9525000D03*
D14*
X200025000Y-9525000D03*
D16*
X196894131Y-6231855D03*
D15*
X197525000Y-5525000D03*
D17*
X202525000Y-4725000D03*
D12*
X186055000Y-9525000D03*
D13*
X186475000Y-9525000D03*
X175475000Y-9525000D03*
D12*
X175895000Y-9525000D03*
D14*
X180975000Y-9525000D03*
D15*
X178475000Y-5525000D03*
D16*
X177844131Y-6231855D03*
D17*
X183475000Y-4725000D03*
D14*
X266700000Y-9525000D03*
D12*
X261620000Y-9525000D03*
D13*
X261200000Y-9525000D03*
X272200000Y-9525000D03*
D12*
X271780000Y-9525000D03*
D15*
X264200000Y-5525000D03*
D16*
X263569131Y-6231855D03*
D17*
X269200000Y-4725000D03*
D12*
X61595000Y-9525000D03*
D13*
X61175000Y-9525000D03*
D14*
X66675000Y-9525000D03*
D13*
X72175000Y-9525000D03*
D12*
X71755000Y-9525000D03*
D15*
X64175000Y-5525000D03*
D16*
X63544131Y-6231855D03*
D17*
X69175000Y-4725000D03*
D13*
X84987500Y-66675000D03*
D14*
X90487500Y-66675000D03*
D13*
X95987500Y-66675000D03*
D12*
X85407500Y-66675000D03*
X95567500Y-66675000D03*
D15*
X87987500Y-62675000D03*
D16*
X87356631Y-63381855D03*
D17*
X92987500Y-61875000D03*
D13*
X34237500Y-85725000D03*
X45237500Y-85725000D03*
D12*
X44817500Y-85725000D03*
X34657500Y-85725000D03*
D14*
X39737500Y-85725000D03*
D20*
X42868369Y-89018145D03*
D15*
X42237500Y-89725000D03*
D17*
X37237500Y-90525000D03*
D12*
X252095000Y-9525000D03*
D13*
X262675000Y-9525000D03*
D12*
X262255000Y-9525000D03*
D13*
X251675000Y-9525000D03*
D14*
X257175000Y-9525000D03*
D15*
X254675000Y-5525000D03*
D16*
X254044131Y-6231855D03*
D17*
X259675000Y-4725000D03*
D13*
X176950000Y-28575000D03*
D14*
X171450000Y-28575000D03*
D13*
X165950000Y-28575000D03*
D12*
X176530000Y-28575000D03*
X166370000Y-28575000D03*
D15*
X168950000Y-24575000D03*
D16*
X168319131Y-25281855D03*
D17*
X173950000Y-23775000D03*
D14*
X140493750Y-85725000D03*
D13*
X134993750Y-85725000D03*
D12*
X145573750Y-85725000D03*
X135413750Y-85725000D03*
D13*
X145993750Y-85725000D03*
D16*
X137362881Y-82431855D03*
D15*
X137993750Y-81725000D03*
D17*
X142993750Y-80925000D03*
D13*
X210287500Y-85725000D03*
X199287500Y-85725000D03*
D12*
X199707500Y-85725000D03*
X209867500Y-85725000D03*
D14*
X204787500Y-85725000D03*
D15*
X202287500Y-81725000D03*
D16*
X201656631Y-82431855D03*
D17*
X207287500Y-80925000D03*
D12*
X47307500Y-85725000D03*
D13*
X46887500Y-85725000D03*
X57887500Y-85725000D03*
D14*
X52387500Y-85725000D03*
D12*
X57467500Y-85725000D03*
D16*
X49256631Y-82431855D03*
D15*
X49887500Y-81725000D03*
D17*
X54887500Y-80925000D03*
D18*
X247650000Y-73660000D03*
D19*
X271462500Y-58420000D03*
X247650000Y-58420000D03*
D18*
X271462500Y-73660000D03*
D14*
X273843750Y-57150000D03*
D12*
X273843750Y-62230000D03*
X273843750Y-52070000D03*
D13*
X273843750Y-51650000D03*
X273843750Y-62650000D03*
D15*
X269843750Y-59650000D03*
D21*
X270550605Y-60280869D03*
D22*
X269043750Y-54650000D03*
D13*
X119800000Y-28575000D03*
D12*
X119380000Y-28575000D03*
X109220000Y-28575000D03*
D14*
X114300000Y-28575000D03*
D13*
X108800000Y-28575000D03*
D15*
X111800000Y-24575000D03*
D16*
X111169131Y-25281855D03*
D17*
X116800000Y-23775000D03*
D12*
X109855000Y-9525000D03*
X99695000Y-9525000D03*
D13*
X99275000Y-9525000D03*
D14*
X104775000Y-9525000D03*
D13*
X110275000Y-9525000D03*
D15*
X102275000Y-5525000D03*
D16*
X101644131Y-6231855D03*
D17*
X107275000Y-4725000D03*
D14*
X38100000Y-28575000D03*
D13*
X43600000Y-28575000D03*
D12*
X33020000Y-28575000D03*
D13*
X32600000Y-28575000D03*
D12*
X43180000Y-28575000D03*
D16*
X34969131Y-25281855D03*
D15*
X35600000Y-24575000D03*
D17*
X40600000Y-23775000D03*
D14*
X123825000Y-9525000D03*
D12*
X118745000Y-9525000D03*
D13*
X129325000Y-9525000D03*
X118325000Y-9525000D03*
D12*
X128905000Y-9525000D03*
D16*
X120694131Y-6231855D03*
D15*
X121325000Y-5525000D03*
D17*
X126325000Y-4725000D03*
D13*
X204050000Y-28575000D03*
D12*
X204470000Y-28575000D03*
D14*
X209550000Y-28575000D03*
D13*
X215050000Y-28575000D03*
D12*
X214630000Y-28575000D03*
D15*
X207050000Y-24575000D03*
D16*
X206419131Y-25281855D03*
D17*
X212050000Y-23775000D03*
D19*
X180975000Y-77470000D03*
D18*
X80962500Y-92710000D03*
X180975000Y-92710000D03*
D19*
X80962500Y-77470000D03*
D12*
X52705000Y-9525000D03*
D13*
X53125000Y-9525000D03*
D14*
X47625000Y-9525000D03*
D12*
X42545000Y-9525000D03*
D13*
X42125000Y-9525000D03*
D15*
X45125000Y-5525000D03*
D16*
X44494131Y-6231855D03*
D17*
X50125000Y-4725000D03*
D12*
X9207500Y-28575000D03*
X19367500Y-28575000D03*
D13*
X19787500Y-28575000D03*
X8787500Y-28575000D03*
D14*
X14287500Y-28575000D03*
D16*
X11156631Y-25281855D03*
D15*
X11787500Y-24575000D03*
D17*
X16787500Y-23775000D03*
D13*
X4025000Y-9525000D03*
D12*
X14605000Y-9525000D03*
D14*
X9525000Y-9525000D03*
D12*
X4445000Y-9525000D03*
D13*
X15025000Y-9525000D03*
D16*
X6394131Y-6231855D03*
D15*
X7025000Y-5525000D03*
D17*
X12025000Y-4725000D03*
D18*
X9525000Y-73660000D03*
D19*
X33337500Y-58420000D03*
X9525000Y-58420000D03*
D18*
X33337500Y-73660000D03*
D13*
X167425000Y-9525000D03*
D12*
X156845000Y-9525000D03*
D14*
X161925000Y-9525000D03*
D13*
X156425000Y-9525000D03*
D12*
X167005000Y-9525000D03*
D15*
X159425000Y-5525000D03*
D16*
X158794131Y-6231855D03*
D17*
X164425000Y-4725000D03*
D12*
X218757500Y-66675000D03*
X228917500Y-66675000D03*
D13*
X229337500Y-66675000D03*
X218337500Y-66675000D03*
D14*
X223837500Y-66675000D03*
D16*
X220706631Y-63381855D03*
D15*
X221337500Y-62675000D03*
D17*
X226337500Y-61875000D03*
D13*
X243625000Y-9525000D03*
X232625000Y-9525000D03*
D14*
X238125000Y-9525000D03*
D12*
X233045000Y-9525000D03*
X243205000Y-9525000D03*
D16*
X234994131Y-6231855D03*
D15*
X235625000Y-5525000D03*
D17*
X240625000Y-4725000D03*
D12*
X157480000Y-28575000D03*
X147320000Y-28575000D03*
D13*
X157900000Y-28575000D03*
X146900000Y-28575000D03*
D14*
X152400000Y-28575000D03*
D16*
X149269131Y-25281855D03*
D15*
X149900000Y-24575000D03*
D17*
X154900000Y-23775000D03*
D13*
X67250000Y-85725000D03*
D14*
X61750000Y-85725000D03*
D12*
X66830000Y-85725000D03*
D13*
X56250000Y-85725000D03*
D12*
X56670000Y-85725000D03*
D15*
X59250000Y-81725000D03*
D16*
X58619131Y-82431855D03*
D17*
X64250000Y-80925000D03*
D12*
X19367500Y-85725000D03*
X9207500Y-85725000D03*
D14*
X14287500Y-85725000D03*
D13*
X8787500Y-85725000D03*
X19787500Y-85725000D03*
D15*
X11787500Y-81725000D03*
D16*
X11156631Y-82431855D03*
D17*
X16787500Y-80925000D03*
D12*
X47307500Y-66675000D03*
D14*
X52387500Y-66675000D03*
D13*
X46887500Y-66675000D03*
X57887500Y-66675000D03*
D12*
X57467500Y-66675000D03*
D16*
X49256631Y-63381855D03*
D15*
X49887500Y-62675000D03*
D17*
X54887500Y-61875000D03*
D23*
X21290000Y-5635000D03*
X15510000Y-5635000D03*
D24*
X22720000Y-6165000D03*
D25*
X22720000Y-1985000D03*
X14080000Y-1985000D03*
D24*
X14080000Y-6165000D03*
M02*
