M48
; DRILL file {KiCad (6.0.4)} date Wed Mar 30 23:50:34 2022
; FORMAT={-:-/ absolute / inch / decimal}
; #@! TF.CreationDate,2022-03-30T23:50:34+02:00
; #@! TF.GenerationSoftware,Kicad,Pcbnew,(6.0.4)
; #@! TF.FileFunction,NonPlated,1,2,NPTH
FMAT,2
INCH
; #@! TA.AperFunction,NonPlated,NPTH,ComponentDrill
T1C0.0256
; #@! TA.AperFunction,NonPlated,NPTH,ComponentDrill
T2C0.0669
; #@! TA.AperFunction,NonPlated,NPTH,ComponentDrill
T3C0.0709
; #@! TA.AperFunction,NonPlated,NPTH,ComponentDrill
T4C0.1200
; #@! TA.AperFunction,NonPlated,NPTH,ComponentDrill
T5C0.1570
; #@! TA.AperFunction,NonPlated,NPTH,ComponentDrill
T6C0.1929
%
G90
G05
T1
X0.6171Y-0.2219
X0.8447Y-0.2219
T2
X0.175Y-0.375
X0.266Y-3.375
X0.3625Y-1.125
X0.3625Y-3.375
X0.4562Y-1.875
X0.575Y-0.375
X0.6437Y-2.625
X0.666Y-3.375
X0.7625Y-1.125
X0.7625Y-3.375
X0.8562Y-1.875
X0.925Y-0.375
X1.0437Y-2.625
X1.1125Y-3.375
X1.3Y-1.125
X1.325Y-0.375
X1.3645Y-3.375
X1.4875Y-1.875
X1.5125Y-3.375
X1.675Y-0.375
X1.7Y-1.125
X1.7645Y-3.375
X1.8625Y-2.625
X1.8625Y-3.375
X1.8875Y-1.875
X2.05Y-1.125
X2.075Y-0.375
X2.2311Y-3.375
X2.2375Y-1.875
X2.2625Y-2.625
X2.2625Y-3.375
X2.425Y-0.375
X2.45Y-1.125
X2.6125Y-2.625
X2.6311Y-3.375
X2.6375Y-1.875
X2.8Y-1.125
X2.825Y-0.375
X2.9875Y-1.875
X3.0125Y-2.625
X3.175Y-0.375
X3.2Y-1.125
X3.3625Y-2.625
X3.3875Y-1.875
X3.55Y-1.125
X3.575Y-0.375
X3.7375Y-1.875
X3.7625Y-2.625
X3.925Y-0.375
X3.95Y-1.125
X4.1125Y-2.625
X4.1375Y-1.875
X4.3Y-1.125
X4.325Y-0.375
X4.4875Y-1.875
X4.5125Y-2.625
X4.675Y-0.375
X4.7Y-1.125
X4.8625Y-2.625
X4.8875Y-1.875
X4.9562Y-3.375
X5.05Y-1.125
X5.075Y-0.375
X5.2375Y-1.875
X5.2625Y-2.625
X5.3312Y-3.375
X5.3563Y-3.375
X5.425Y-0.375
X5.45Y-1.125
X5.6125Y-2.625
X5.6375Y-1.875
X5.7313Y-3.375
X5.8Y-1.125
X5.825Y-0.375
X5.9875Y-1.875
X6.0125Y-2.625
X6.175Y-0.375
X6.2Y-1.125
X6.3625Y-2.625
X6.3875Y-1.875
X6.55Y-1.125
X6.575Y-0.375
X6.7375Y-1.875
X6.7625Y-2.625
X6.925Y-0.375
X6.95Y-1.125
X7.1125Y-2.625
X7.1375Y-1.875
X7.3Y-1.125
X7.325Y-0.375
X7.4875Y-1.875
X7.5125Y-2.625
X7.675Y-0.375
X7.7Y-1.125
X7.8625Y-2.625
X7.8625Y-3.375
X7.8875Y-1.875
X8.05Y-1.125
X8.075Y-0.375
X8.2375Y-1.875
X8.2625Y-2.625
X8.2625Y-3.375
X8.425Y-0.375
X8.45Y-1.125
X8.6125Y-2.625
X8.6375Y-1.875
X8.8Y-1.125
X8.8Y-3.375
X8.825Y-0.375
X8.8965Y-3.375
X8.9875Y-1.875
X9.0125Y-2.625
X9.175Y-0.375
X9.2Y-1.125
X9.2Y-3.375
X9.2965Y-3.375
X9.3875Y-1.875
X9.4562Y-2.625
X9.55Y-1.125
X9.5504Y-3.3736
X9.575Y-0.375
X9.7375Y-1.875
X9.7375Y-3.375
X9.8562Y-2.625
X9.925Y-0.375
X9.95Y-1.125
X9.9504Y-3.3736
X10.0187Y-2.625
X10.1375Y-1.875
X10.1375Y-3.375
X10.2062Y-1.875
X10.3Y-0.375
X10.325Y-0.375
X10.4187Y-2.625
X10.4875Y-1.125
X10.4875Y-3.375
X10.5812Y-3.375
X10.6062Y-1.875
X10.675Y-0.375
X10.7Y-0.375
X10.7812Y-2.05
X10.7812Y-2.45
X10.8875Y-1.125
X10.8875Y-3.375
X10.9812Y-3.375
X11.075Y-0.375
T3
X0.1585Y-0.375
X0.2495Y-3.375
X0.346Y-1.125
X0.346Y-3.375
X0.4397Y-1.875
X0.5915Y-0.375
X0.6272Y-2.625
X0.6826Y-3.375
X0.779Y-1.125
X0.779Y-3.375
X0.8728Y-1.875
X0.9085Y-0.375
X1.0603Y-2.625
X1.096Y-3.375
X1.2835Y-1.125
X1.3415Y-0.375
X1.3479Y-3.375
X1.471Y-1.875
X1.529Y-3.375
X1.6585Y-0.375
X1.7165Y-1.125
X1.781Y-3.375
X1.846Y-2.625
X1.846Y-3.375
X1.904Y-1.875
X2.0335Y-1.125
X2.0915Y-0.375
X2.2146Y-3.375
X2.221Y-1.875
X2.279Y-2.625
X2.279Y-3.375
X2.4085Y-0.375
X2.4665Y-1.125
X2.596Y-2.625
X2.6476Y-3.375
X2.654Y-1.875
X2.7835Y-1.125
X2.8415Y-0.375
X2.971Y-1.875
X3.029Y-2.625
X3.1585Y-0.375
X3.2165Y-1.125
X3.346Y-2.625
X3.404Y-1.875
X3.5335Y-1.125
X3.5915Y-0.375
X3.721Y-1.875
X3.779Y-2.625
X3.9085Y-0.375
X3.9665Y-1.125
X4.096Y-2.625
X4.154Y-1.875
X4.2835Y-1.125
X4.3415Y-0.375
X4.471Y-1.875
X4.529Y-2.625
X4.6585Y-0.375
X4.7165Y-1.125
X4.846Y-2.625
X4.904Y-1.875
X4.9397Y-3.375
X5.0335Y-1.125
X5.0915Y-0.375
X5.221Y-1.875
X5.279Y-2.625
X5.3147Y-3.375
X5.3728Y-3.375
X5.4085Y-0.375
X5.4665Y-1.125
X5.596Y-2.625
X5.654Y-1.875
X5.7478Y-3.375
X5.7835Y-1.125
X5.8415Y-0.375
X5.971Y-1.875
X6.029Y-2.625
X6.1585Y-0.375
X6.2165Y-1.125
X6.346Y-2.625
X6.404Y-1.875
X6.5335Y-1.125
X6.5915Y-0.375
X6.721Y-1.875
X6.779Y-2.625
X6.9085Y-0.375
X6.9665Y-1.125
X7.096Y-2.625
X7.154Y-1.875
X7.2835Y-1.125
X7.3415Y-0.375
X7.471Y-1.875
X7.529Y-2.625
X7.6585Y-0.375
X7.7165Y-1.125
X7.846Y-2.625
X7.846Y-3.375
X7.904Y-1.875
X8.0335Y-1.125
X8.0915Y-0.375
X8.221Y-1.875
X8.279Y-2.625
X8.279Y-3.375
X8.4085Y-0.375
X8.4665Y-1.125
X8.596Y-2.625
X8.654Y-1.875
X8.7835Y-1.125
X8.7835Y-3.375
X8.8415Y-0.375
X8.8799Y-3.375
X8.971Y-1.875
X9.029Y-2.625
X9.1585Y-0.375
X9.2165Y-1.125
X9.2165Y-3.375
X9.313Y-3.375
X9.404Y-1.875
X9.4397Y-2.625
X9.5335Y-1.125
X9.5339Y-3.3736
X9.5915Y-0.375
X9.721Y-1.875
X9.721Y-3.375
X9.8728Y-2.625
X9.9085Y-0.375
X9.9665Y-1.125
X9.9669Y-3.3736
X10.0022Y-2.625
X10.154Y-1.875
X10.154Y-3.375
X10.1897Y-1.875
X10.2835Y-0.375
X10.3415Y-0.375
X10.4353Y-2.625
X10.471Y-1.125
X10.471Y-3.375
X10.5647Y-3.375
X10.6228Y-1.875
X10.6585Y-0.375
X10.7165Y-0.375
X10.7812Y-2.0335
X10.7812Y-2.4665
X10.904Y-1.125
X10.904Y-3.375
X10.9978Y-3.375
X11.0915Y-0.375
T4
X0.375Y-2.9
X1.3125Y-2.9
X3.1875Y-3.65
X7.125Y-3.65
X9.75Y-2.9
X9.9375Y-2.15
X10.0312Y-0.1
X10.5062Y-1.7812
X10.5062Y-2.7188
X10.6875Y-2.9
X10.875Y-2.15
X10.9688Y-0.1
T5
X0.375Y-2.3
X1.3125Y-2.3
X3.1875Y-3.05
X7.125Y-3.05
X9.75Y-2.3
X9.9375Y-1.55
X10.0312Y-0.7
X10.6875Y-2.3
X10.875Y-1.55
X10.9688Y-0.7
X11.1062Y-1.7812
X11.1062Y-2.7188
T6
X0.375Y-0.375
X0.466Y-3.375
X0.5625Y-1.125
X0.5625Y-3.375
X0.6562Y-1.875
X0.8438Y-2.625
X1.125Y-0.375
X1.3125Y-3.375
X1.5Y-1.125
X1.5645Y-3.375
X1.6875Y-1.875
X1.875Y-0.375
X2.0625Y-2.625
X2.0625Y-3.375
X2.25Y-1.125
X2.4311Y-3.375
X2.4375Y-1.875
X2.625Y-0.375
X2.8125Y-2.625
X3.0Y-1.125
X3.1875Y-1.875
X3.375Y-0.375
X3.5625Y-2.625
X3.75Y-1.125
X3.9375Y-1.875
X4.125Y-0.375
X4.3125Y-2.625
X4.5Y-1.125
X4.6875Y-1.875
X4.875Y-0.375
X5.0625Y-2.625
X5.1562Y-3.375
X5.25Y-1.125
X5.4375Y-1.875
X5.5312Y-3.375
X5.625Y-0.375
X5.8125Y-2.625
X6.0Y-1.125
X6.1875Y-1.875
X6.375Y-0.375
X6.5625Y-2.625
X6.75Y-1.125
X6.9375Y-1.875
X7.125Y-0.375
X7.3125Y-2.625
X7.5Y-1.125
X7.6875Y-1.875
X7.875Y-0.375
X8.0625Y-2.625
X8.0625Y-3.375
X8.25Y-1.125
X8.4375Y-1.875
X8.625Y-0.375
X8.8125Y-2.625
X9.0Y-1.125
X9.0Y-3.375
X9.0965Y-3.375
X9.1875Y-1.875
X9.375Y-0.375
X9.6562Y-2.625
X9.75Y-1.125
X9.7504Y-3.3736
X9.9375Y-1.875
X9.9375Y-3.375
X10.125Y-0.375
X10.2188Y-2.625
X10.4062Y-1.875
X10.5Y-0.375
X10.6875Y-1.125
X10.6875Y-3.375
X10.7812Y-2.25
X10.7812Y-3.375
X10.875Y-0.375
T0
M30
