G04 #@! TF.GenerationSoftware,KiCad,Pcbnew,(6.0.4)*
G04 #@! TF.CreationDate,2022-03-30T13:56:44+02:00*
G04 #@! TF.ProjectId,pcb,7063622e-6b69-4636-9164-5f7063625858,rev?*
G04 #@! TF.SameCoordinates,Original*
G04 #@! TF.FileFunction,Soldermask,Bot*
G04 #@! TF.FilePolarity,Negative*
%FSLAX46Y46*%
G04 Gerber Fmt 4.6, Leading zero omitted, Abs format (unit mm)*
G04 Created by KiCad (PCBNEW (6.0.4)) date 2022-03-30 13:56:44*
%MOMM*%
%LPD*%
G01*
G04 APERTURE LIST*
G04 Aperture macros list*
%AMRoundRect*
0 Rectangle with rounded corners*
0 $1 Rounding radius*
0 $2 $3 $4 $5 $6 $7 $8 $9 X,Y pos of 4 corners*
0 Add a 4 corners polygon primitive as box body*
4,1,4,$2,$3,$4,$5,$6,$7,$8,$9,$2,$3,0*
0 Add four circle primitives for the rounded corners*
1,1,$1+$1,$2,$3*
1,1,$1+$1,$4,$5*
1,1,$1+$1,$6,$7*
1,1,$1+$1,$8,$9*
0 Add four rect primitives between the rounded corners*
20,1,$1+$1,$2,$3,$4,$5,0*
20,1,$1+$1,$4,$5,$6,$7,0*
20,1,$1+$1,$6,$7,$8,$9,0*
20,1,$1+$1,$8,$9,$2,$3,0*%
%AMHorizOval*
0 Thick line with rounded ends*
0 $1 width*
0 $2 $3 position (X,Y) of the first rounded end (center of the circle)*
0 $4 $5 position (X,Y) of the second rounded end (center of the circle)*
0 Add line between two ends*
20,1,$1,$2,$3,$4,$5,0*
0 Add two circle primitives to create the rounded ends*
1,1,$1,$2,$3*
1,1,$1,$4,$5*%
%AMRotRect*
0 Rectangle, with rotation*
0 The origin of the aperture is its center*
0 $1 length*
0 $2 width*
0 $3 Rotation angle, in degrees counterclockwise*
0 Add horizontal line*
21,1,$1,$2,0,0,$3*%
G04 Aperture macros list end*
%ADD10O,10.000000X5.000000*%
%ADD11C,5.500000*%
%ADD12C,1.700000*%
%ADD13C,1.800000*%
%ADD14C,4.900000*%
%ADD15C,2.400000*%
%ADD16HorizOval,2.400000X-0.669131X-0.743145X0.669131X0.743145X0*%
%ADD17O,2.400000X2.950000*%
%ADD18C,3.048000*%
%ADD19C,3.987800*%
%ADD20HorizOval,2.400000X-0.743145X0.669131X0.743145X-0.669131X0*%
%ADD21O,2.950000X2.400000*%
%ADD22R,0.800000X0.900000*%
%ADD23R,0.900000X0.800000*%
%ADD24RoundRect,0.250000X0.475000X-0.250000X0.475000X0.250000X-0.475000X0.250000X-0.475000X-0.250000X0*%
%ADD25RoundRect,0.250000X0.159099X-0.512652X0.512652X-0.159099X-0.159099X0.512652X-0.512652X0.159099X0*%
%ADD26RoundRect,0.250000X0.503814X0.132583X0.132583X0.503814X-0.503814X-0.132583X-0.132583X-0.503814X0*%
%ADD27RoundRect,0.250000X0.262500X0.450000X-0.262500X0.450000X-0.262500X-0.450000X0.262500X-0.450000X0*%
%ADD28RoundRect,0.250000X-0.450000X0.262500X-0.450000X-0.262500X0.450000X-0.262500X0.450000X0.262500X0*%
%ADD29RoundRect,0.250000X0.512652X0.159099X0.159099X0.512652X-0.512652X-0.159099X-0.159099X-0.512652X0*%
%ADD30RotRect,1.600000X0.550000X225.000000*%
%ADD31RotRect,1.600000X0.550000X135.000000*%
%ADD32RotRect,1.400000X1.200000X315.000000*%
%ADD33RoundRect,0.150000X0.775000X-0.150000X0.775000X0.150000X-0.775000X0.150000X-0.775000X-0.150000X0*%
%ADD34RoundRect,0.332800X0.567200X-0.467200X0.567200X0.467200X-0.567200X0.467200X-0.567200X-0.467200X0*%
%ADD35RoundRect,0.150000X0.512500X0.150000X-0.512500X0.150000X-0.512500X-0.150000X0.512500X-0.150000X0*%
%ADD36RoundRect,0.250000X-0.625000X0.375000X-0.625000X-0.375000X0.625000X-0.375000X0.625000X0.375000X0*%
%ADD37C,0.650000*%
%ADD38R,0.600000X1.450000*%
%ADD39R,0.300000X1.450000*%
%ADD40O,1.000000X2.100000*%
%ADD41O,1.000000X1.600000*%
%ADD42RotRect,1.700000X1.000000X225.000000*%
%ADD43RoundRect,0.250000X-0.159099X0.512652X-0.512652X0.159099X0.159099X-0.512652X0.512652X-0.159099X0*%
G04 APERTURE END LIST*
D10*
X2381252Y-57125000D03*
X283368988Y-57125000D03*
D11*
X26625000Y-85725072D03*
X142875000Y-37750000D03*
X260430000Y-85725072D03*
X260425000Y-28227050D03*
X25600000Y-28575024D03*
X128587608Y-47425040D03*
X190500160Y-85525000D03*
D12*
X128270000Y-28575000D03*
D13*
X138850000Y-28575000D03*
D12*
X138430000Y-28575000D03*
D13*
X127850000Y-28575000D03*
D14*
X133350000Y-28575000D03*
D15*
X130850000Y-24575000D03*
D16*
X130219131Y-25281855D03*
D17*
X135850000Y-23775000D03*
D12*
X147955000Y-9525000D03*
D13*
X137375000Y-9525000D03*
D12*
X137795000Y-9525000D03*
D13*
X148375000Y-9525000D03*
D14*
X142875000Y-9525000D03*
D15*
X140375000Y-5525000D03*
D16*
X139744131Y-6231855D03*
D17*
X145375000Y-4725000D03*
D18*
X266858750Y-69056250D03*
X266858750Y-45243750D03*
D19*
X282098750Y-45243750D03*
X282098750Y-69056250D03*
D14*
X61912500Y-47625000D03*
D13*
X56412500Y-47625000D03*
D12*
X56832500Y-47625000D03*
X66992500Y-47625000D03*
D13*
X67412500Y-47625000D03*
D15*
X59412500Y-43625000D03*
D16*
X58781631Y-44331855D03*
D17*
X64412500Y-42825000D03*
D13*
X220718750Y-85725000D03*
D12*
X221138750Y-85725000D03*
X231298750Y-85725000D03*
D14*
X226218750Y-85725000D03*
D13*
X231718750Y-85725000D03*
D16*
X223087881Y-82431855D03*
D15*
X223718750Y-81725000D03*
D17*
X228718750Y-80925000D03*
D12*
X209232500Y-47625000D03*
X219392500Y-47625000D03*
D13*
X219812500Y-47625000D03*
D14*
X214312500Y-47625000D03*
D13*
X208812500Y-47625000D03*
D15*
X211812500Y-43625000D03*
D16*
X211181631Y-44331855D03*
D17*
X216812500Y-42825000D03*
D12*
X16351250Y-66675000D03*
D13*
X15931250Y-66675000D03*
D14*
X21431250Y-66675000D03*
D12*
X26511250Y-66675000D03*
D13*
X26931250Y-66675000D03*
D16*
X18300381Y-63381855D03*
D15*
X18931250Y-62675000D03*
D17*
X23931250Y-61875000D03*
D13*
X242150000Y-85725000D03*
D12*
X252730000Y-85725000D03*
X242570000Y-85725000D03*
D14*
X247650000Y-85725000D03*
D13*
X253150000Y-85725000D03*
D15*
X245150000Y-81725000D03*
D16*
X244519131Y-82431855D03*
D17*
X250150000Y-80925000D03*
D14*
X233362500Y-47625000D03*
D13*
X227862500Y-47625000D03*
D12*
X238442500Y-47625000D03*
X228282500Y-47625000D03*
D13*
X238862500Y-47625000D03*
D16*
X230231631Y-44331855D03*
D15*
X230862500Y-43625000D03*
D17*
X235862500Y-42825000D03*
D13*
X180237500Y-66675000D03*
D14*
X185737500Y-66675000D03*
D13*
X191237500Y-66675000D03*
D12*
X180657500Y-66675000D03*
X190817500Y-66675000D03*
D16*
X182606631Y-63381855D03*
D15*
X183237500Y-62675000D03*
D17*
X188237500Y-61875000D03*
D13*
X246912500Y-47625000D03*
X257912500Y-47625000D03*
D14*
X252412500Y-47625000D03*
D12*
X257492500Y-47625000D03*
X247332500Y-47625000D03*
D16*
X249281631Y-44331855D03*
D15*
X249912500Y-43625000D03*
D17*
X254912500Y-42825000D03*
D12*
X104457500Y-66675000D03*
D13*
X104037500Y-66675000D03*
D12*
X114617500Y-66675000D03*
D14*
X109537500Y-66675000D03*
D13*
X115037500Y-66675000D03*
D15*
X107037500Y-62675000D03*
D16*
X106406631Y-63381855D03*
D17*
X112037500Y-61875000D03*
D18*
X254793750Y-2540000D03*
X278606250Y-2540000D03*
D19*
X278606250Y-17780000D03*
X254793750Y-17780000D03*
D12*
X190182500Y-47625000D03*
D13*
X189762500Y-47625000D03*
D14*
X195262500Y-47625000D03*
D13*
X200762500Y-47625000D03*
D12*
X200342500Y-47625000D03*
D15*
X192762500Y-43625000D03*
D16*
X192131631Y-44331855D03*
D17*
X197762500Y-42825000D03*
D13*
X270725000Y-9525000D03*
X281725000Y-9525000D03*
D12*
X271145000Y-9525000D03*
D14*
X276225000Y-9525000D03*
D12*
X281305000Y-9525000D03*
D15*
X273725000Y-5525000D03*
D16*
X273094131Y-6231855D03*
D17*
X278725000Y-4725000D03*
D12*
X252730000Y-28575000D03*
D13*
X253150000Y-28575000D03*
D14*
X247650000Y-28575000D03*
D13*
X242150000Y-28575000D03*
D12*
X242570000Y-28575000D03*
D16*
X244519131Y-25281855D03*
D15*
X245150000Y-24575000D03*
D17*
X250150000Y-23775000D03*
D13*
X123087500Y-66675000D03*
D14*
X128587500Y-66675000D03*
D12*
X133667500Y-66675000D03*
D13*
X134087500Y-66675000D03*
D12*
X123507500Y-66675000D03*
D15*
X126087500Y-62675000D03*
D16*
X125456631Y-63381855D03*
D17*
X131087500Y-61875000D03*
D12*
X233680000Y-85725000D03*
D13*
X223100000Y-85725000D03*
X234100000Y-85725000D03*
D12*
X223520000Y-85725000D03*
D14*
X228600000Y-85725000D03*
D16*
X225469131Y-82431855D03*
D15*
X226100000Y-81725000D03*
D17*
X231100000Y-80925000D03*
D13*
X113562500Y-47625000D03*
D12*
X124142500Y-47625000D03*
D14*
X119062500Y-47625000D03*
D13*
X124562500Y-47625000D03*
D12*
X113982500Y-47625000D03*
D15*
X116562500Y-43625000D03*
D16*
X115931631Y-44331855D03*
D17*
X121562500Y-42825000D03*
D13*
X213575000Y-9525000D03*
D12*
X213995000Y-9525000D03*
X224155000Y-9525000D03*
D14*
X219075000Y-9525000D03*
D13*
X224575000Y-9525000D03*
D15*
X216575000Y-5525000D03*
D16*
X215944131Y-6231855D03*
D17*
X221575000Y-4725000D03*
D13*
X11168750Y-47625000D03*
X22168750Y-47625000D03*
D14*
X16668750Y-47625000D03*
D12*
X21748750Y-47625000D03*
X11588750Y-47625000D03*
D15*
X14168750Y-43625000D03*
D16*
X13537881Y-44331855D03*
D17*
X19168750Y-42825000D03*
D12*
X66357500Y-66675000D03*
D14*
X71437500Y-66675000D03*
D12*
X76517500Y-66675000D03*
D13*
X65937500Y-66675000D03*
X76937500Y-66675000D03*
D15*
X68937500Y-62675000D03*
D16*
X68306631Y-63381855D03*
D17*
X73937500Y-61875000D03*
D13*
X151662500Y-47625000D03*
D12*
X152082500Y-47625000D03*
D13*
X162662500Y-47625000D03*
D14*
X157162500Y-47625000D03*
D12*
X162242500Y-47625000D03*
D15*
X154662500Y-43625000D03*
D16*
X154031631Y-44331855D03*
D17*
X159662500Y-42825000D03*
D14*
X245268750Y-66675000D03*
D13*
X239768750Y-66675000D03*
D12*
X250348750Y-66675000D03*
X240188750Y-66675000D03*
D13*
X250768750Y-66675000D03*
D15*
X242768750Y-62675000D03*
D16*
X242137881Y-63381855D03*
D17*
X247768750Y-61875000D03*
D12*
X81280000Y-28575000D03*
D14*
X76200000Y-28575000D03*
D13*
X81700000Y-28575000D03*
D12*
X71120000Y-28575000D03*
D13*
X70700000Y-28575000D03*
D16*
X73069131Y-25281855D03*
D15*
X73700000Y-24575000D03*
D17*
X78700000Y-23775000D03*
D14*
X271462500Y-85725000D03*
D12*
X276542500Y-85725000D03*
X266382500Y-85725000D03*
D13*
X276962500Y-85725000D03*
X265962500Y-85725000D03*
D16*
X268331631Y-82431855D03*
D15*
X268962500Y-81725000D03*
D17*
X273962500Y-80925000D03*
D14*
X259556250Y-66675000D03*
D13*
X254056250Y-66675000D03*
D12*
X264636250Y-66675000D03*
X254476250Y-66675000D03*
D13*
X265056250Y-66675000D03*
D15*
X257056250Y-62675000D03*
D16*
X256425381Y-63381855D03*
D17*
X262056250Y-61875000D03*
D13*
X276962500Y-28575000D03*
X265962500Y-28575000D03*
D12*
X266382500Y-28575000D03*
D14*
X271462500Y-28575000D03*
D12*
X276542500Y-28575000D03*
D16*
X268331631Y-25281855D03*
D15*
X268962500Y-24575000D03*
D17*
X273962500Y-23775000D03*
D13*
X234100000Y-28575000D03*
X223100000Y-28575000D03*
D12*
X223520000Y-28575000D03*
X233680000Y-28575000D03*
D14*
X228600000Y-28575000D03*
D16*
X225469131Y-25281855D03*
D15*
X226100000Y-24575000D03*
D17*
X231100000Y-23775000D03*
D19*
X252412500Y-39370000D03*
X276225000Y-39370000D03*
D18*
X276225000Y-54610000D03*
X252412500Y-54610000D03*
D13*
X23075000Y-9525000D03*
D14*
X28575000Y-9525000D03*
D12*
X33655000Y-9525000D03*
D13*
X34075000Y-9525000D03*
D12*
X23495000Y-9525000D03*
D15*
X26075000Y-5525000D03*
D16*
X25444131Y-6231855D03*
D17*
X31075000Y-4725000D03*
D14*
X204787500Y-66675000D03*
D13*
X210287500Y-66675000D03*
D12*
X209867500Y-66675000D03*
D13*
X199287500Y-66675000D03*
D12*
X199707500Y-66675000D03*
D15*
X202287500Y-62675000D03*
D16*
X201656631Y-63381855D03*
D17*
X207287500Y-61875000D03*
D13*
X258818750Y-47625000D03*
D12*
X259238750Y-47625000D03*
X269398750Y-47625000D03*
D13*
X269818750Y-47625000D03*
D14*
X264318750Y-47625000D03*
D15*
X261818750Y-43625000D03*
D16*
X261187881Y-44331855D03*
D17*
X266818750Y-42825000D03*
D13*
X89750000Y-28575000D03*
X100750000Y-28575000D03*
D12*
X90170000Y-28575000D03*
X100330000Y-28575000D03*
D14*
X95250000Y-28575000D03*
D15*
X92750000Y-24575000D03*
D16*
X92119131Y-25281855D03*
D17*
X97750000Y-23775000D03*
D13*
X125468750Y-85725000D03*
D12*
X125888750Y-85725000D03*
D14*
X130968750Y-85725000D03*
D13*
X136468750Y-85725000D03*
D12*
X136048750Y-85725000D03*
D16*
X127837881Y-82431855D03*
D15*
X128468750Y-81725000D03*
D17*
X133468750Y-80925000D03*
D13*
X51650000Y-28575000D03*
X62650000Y-28575000D03*
D12*
X52070000Y-28575000D03*
D14*
X57150000Y-28575000D03*
D12*
X62230000Y-28575000D03*
D16*
X54019131Y-25281855D03*
D15*
X54650000Y-24575000D03*
D17*
X59650000Y-23775000D03*
D14*
X100012500Y-47625000D03*
D12*
X94932500Y-47625000D03*
X105092500Y-47625000D03*
D13*
X94512500Y-47625000D03*
X105512500Y-47625000D03*
D15*
X97512500Y-43625000D03*
D16*
X96881631Y-44331855D03*
D17*
X102512500Y-42825000D03*
D13*
X181712500Y-47625000D03*
X170712500Y-47625000D03*
D14*
X176212500Y-47625000D03*
D12*
X171132500Y-47625000D03*
X181292500Y-47625000D03*
D16*
X173081631Y-44331855D03*
D15*
X173712500Y-43625000D03*
D17*
X178712500Y-42825000D03*
D12*
X142557500Y-66675000D03*
D13*
X142137500Y-66675000D03*
D12*
X152717500Y-66675000D03*
D13*
X153137500Y-66675000D03*
D14*
X147637500Y-66675000D03*
D16*
X144506631Y-63381855D03*
D15*
X145137500Y-62675000D03*
D17*
X150137500Y-61875000D03*
D12*
X90805000Y-9525000D03*
D13*
X80225000Y-9525000D03*
D12*
X80645000Y-9525000D03*
D14*
X85725000Y-9525000D03*
D13*
X91225000Y-9525000D03*
D15*
X83225000Y-5525000D03*
D16*
X82594131Y-6231855D03*
D17*
X88225000Y-4725000D03*
D12*
X133032500Y-47625000D03*
D13*
X143612500Y-47625000D03*
D14*
X138112500Y-47625000D03*
D12*
X143192500Y-47625000D03*
D13*
X132612500Y-47625000D03*
D16*
X134981631Y-44331855D03*
D15*
X135612500Y-43625000D03*
D17*
X140612500Y-42825000D03*
D12*
X171767500Y-66675000D03*
D13*
X172187500Y-66675000D03*
X161187500Y-66675000D03*
D14*
X166687500Y-66675000D03*
D12*
X161607500Y-66675000D03*
D16*
X163556631Y-63381855D03*
D15*
X164187500Y-62675000D03*
D17*
X169187500Y-61875000D03*
D12*
X195580000Y-28575000D03*
D13*
X196000000Y-28575000D03*
D12*
X185420000Y-28575000D03*
D13*
X185000000Y-28575000D03*
D14*
X190500000Y-28575000D03*
D16*
X187369131Y-25281855D03*
D15*
X188000000Y-24575000D03*
D17*
X193000000Y-23775000D03*
D12*
X37782500Y-47625000D03*
D13*
X48362500Y-47625000D03*
D14*
X42862500Y-47625000D03*
D12*
X47942500Y-47625000D03*
D13*
X37362500Y-47625000D03*
D16*
X39731631Y-44331855D03*
D15*
X40362500Y-43625000D03*
D17*
X45362500Y-42825000D03*
D13*
X75462500Y-47625000D03*
D14*
X80962500Y-47625000D03*
D12*
X75882500Y-47625000D03*
X86042500Y-47625000D03*
D13*
X86462500Y-47625000D03*
D15*
X78462500Y-43625000D03*
D16*
X77831631Y-44331855D03*
D17*
X83462500Y-42825000D03*
D12*
X205105000Y-9525000D03*
X194945000Y-9525000D03*
D13*
X205525000Y-9525000D03*
X194525000Y-9525000D03*
D14*
X200025000Y-9525000D03*
D16*
X196894131Y-6231855D03*
D15*
X197525000Y-5525000D03*
D17*
X202525000Y-4725000D03*
D12*
X186055000Y-9525000D03*
D13*
X186475000Y-9525000D03*
X175475000Y-9525000D03*
D12*
X175895000Y-9525000D03*
D14*
X180975000Y-9525000D03*
D15*
X178475000Y-5525000D03*
D16*
X177844131Y-6231855D03*
D17*
X183475000Y-4725000D03*
D14*
X266700000Y-9525000D03*
D12*
X261620000Y-9525000D03*
D13*
X261200000Y-9525000D03*
X272200000Y-9525000D03*
D12*
X271780000Y-9525000D03*
D15*
X264200000Y-5525000D03*
D16*
X263569131Y-6231855D03*
D17*
X269200000Y-4725000D03*
D12*
X61595000Y-9525000D03*
D13*
X61175000Y-9525000D03*
D14*
X66675000Y-9525000D03*
D13*
X72175000Y-9525000D03*
D12*
X71755000Y-9525000D03*
D15*
X64175000Y-5525000D03*
D16*
X63544131Y-6231855D03*
D17*
X69175000Y-4725000D03*
D13*
X84987500Y-66675000D03*
D14*
X90487500Y-66675000D03*
D13*
X95987500Y-66675000D03*
D12*
X85407500Y-66675000D03*
X95567500Y-66675000D03*
D15*
X87987500Y-62675000D03*
D16*
X87356631Y-63381855D03*
D17*
X92987500Y-61875000D03*
D13*
X43600000Y-85725000D03*
X32600000Y-85725000D03*
D12*
X33020000Y-85725000D03*
X43180000Y-85725000D03*
D14*
X38100000Y-85725000D03*
D16*
X34969131Y-82431855D03*
D15*
X35600000Y-81725000D03*
D17*
X40600000Y-80925000D03*
D12*
X252095000Y-9525000D03*
D13*
X262675000Y-9525000D03*
D12*
X262255000Y-9525000D03*
D13*
X251675000Y-9525000D03*
D14*
X257175000Y-9525000D03*
D15*
X254675000Y-5525000D03*
D16*
X254044131Y-6231855D03*
D17*
X259675000Y-4725000D03*
D13*
X176950000Y-28575000D03*
D14*
X171450000Y-28575000D03*
D13*
X165950000Y-28575000D03*
D12*
X176530000Y-28575000D03*
X166370000Y-28575000D03*
D15*
X168950000Y-24575000D03*
D16*
X168319131Y-25281855D03*
D17*
X173950000Y-23775000D03*
D14*
X142875000Y-85725000D03*
D13*
X137375000Y-85725000D03*
D12*
X147955000Y-85725000D03*
X137795000Y-85725000D03*
D13*
X148375000Y-85725000D03*
D16*
X139744131Y-82431855D03*
D15*
X140375000Y-81725000D03*
D17*
X145375000Y-80925000D03*
D13*
X207906250Y-85725000D03*
X196906250Y-85725000D03*
D12*
X197326250Y-85725000D03*
X207486250Y-85725000D03*
D14*
X202406250Y-85725000D03*
D15*
X199906250Y-81725000D03*
D16*
X199275381Y-82431855D03*
D17*
X204906250Y-80925000D03*
D12*
X52070000Y-85725000D03*
D13*
X51650000Y-85725000D03*
X62650000Y-85725000D03*
D14*
X57150000Y-85725000D03*
D12*
X62230000Y-85725000D03*
D16*
X54019131Y-82431855D03*
D15*
X54650000Y-81725000D03*
D17*
X59650000Y-80925000D03*
D18*
X247650000Y-73660000D03*
D19*
X271462500Y-58420000D03*
X247650000Y-58420000D03*
D18*
X271462500Y-73660000D03*
D14*
X273843750Y-57150000D03*
D12*
X273843750Y-62230000D03*
X273843750Y-52070000D03*
D13*
X273843750Y-51650000D03*
X273843750Y-62650000D03*
D15*
X269843750Y-59650000D03*
D20*
X270550605Y-60280869D03*
D21*
X269043750Y-54650000D03*
D13*
X119800000Y-28575000D03*
D12*
X119380000Y-28575000D03*
X109220000Y-28575000D03*
D14*
X114300000Y-28575000D03*
D13*
X108800000Y-28575000D03*
D15*
X111800000Y-24575000D03*
D16*
X111169131Y-25281855D03*
D17*
X116800000Y-23775000D03*
D12*
X109855000Y-9525000D03*
X99695000Y-9525000D03*
D13*
X99275000Y-9525000D03*
D14*
X104775000Y-9525000D03*
D13*
X110275000Y-9525000D03*
D15*
X102275000Y-5525000D03*
D16*
X101644131Y-6231855D03*
D17*
X107275000Y-4725000D03*
D14*
X38100000Y-28575000D03*
D13*
X43600000Y-28575000D03*
D12*
X33020000Y-28575000D03*
D13*
X32600000Y-28575000D03*
D12*
X43180000Y-28575000D03*
D16*
X34969131Y-25281855D03*
D15*
X35600000Y-24575000D03*
D17*
X40600000Y-23775000D03*
D14*
X123825000Y-9525000D03*
D12*
X118745000Y-9525000D03*
D13*
X129325000Y-9525000D03*
X118325000Y-9525000D03*
D12*
X128905000Y-9525000D03*
D16*
X120694131Y-6231855D03*
D15*
X121325000Y-5525000D03*
D17*
X126325000Y-4725000D03*
D13*
X204050000Y-28575000D03*
D12*
X204470000Y-28575000D03*
D14*
X209550000Y-28575000D03*
D13*
X215050000Y-28575000D03*
D12*
X214630000Y-28575000D03*
D15*
X207050000Y-24575000D03*
D16*
X206419131Y-25281855D03*
D17*
X212050000Y-23775000D03*
D19*
X180975000Y-77470000D03*
D18*
X80962500Y-92710000D03*
X180975000Y-92710000D03*
D19*
X80962500Y-77470000D03*
D12*
X52705000Y-9525000D03*
D13*
X53125000Y-9525000D03*
D14*
X47625000Y-9525000D03*
D12*
X42545000Y-9525000D03*
D13*
X42125000Y-9525000D03*
D15*
X45125000Y-5525000D03*
D16*
X44494131Y-6231855D03*
D17*
X50125000Y-4725000D03*
D12*
X9207500Y-28575000D03*
X19367500Y-28575000D03*
D13*
X19787500Y-28575000D03*
X8787500Y-28575000D03*
D14*
X14287500Y-28575000D03*
D16*
X11156631Y-25281855D03*
D15*
X11787500Y-24575000D03*
D17*
X16787500Y-23775000D03*
D13*
X4025000Y-9525000D03*
D12*
X14605000Y-9525000D03*
D14*
X9525000Y-9525000D03*
D12*
X4445000Y-9525000D03*
D13*
X15025000Y-9525000D03*
D16*
X6394131Y-6231855D03*
D15*
X7025000Y-5525000D03*
D17*
X12025000Y-4725000D03*
D18*
X9525000Y-73660000D03*
D19*
X33337500Y-58420000D03*
X9525000Y-58420000D03*
D18*
X33337500Y-73660000D03*
D13*
X167425000Y-9525000D03*
D12*
X156845000Y-9525000D03*
D14*
X161925000Y-9525000D03*
D13*
X156425000Y-9525000D03*
D12*
X167005000Y-9525000D03*
D15*
X159425000Y-5525000D03*
D16*
X158794131Y-6231855D03*
D17*
X164425000Y-4725000D03*
D12*
X218757500Y-66675000D03*
X228917500Y-66675000D03*
D13*
X229337500Y-66675000D03*
X218337500Y-66675000D03*
D14*
X223837500Y-66675000D03*
D16*
X220706631Y-63381855D03*
D15*
X221337500Y-62675000D03*
D17*
X226337500Y-61875000D03*
D13*
X243625000Y-9525000D03*
X232625000Y-9525000D03*
D14*
X238125000Y-9525000D03*
D12*
X233045000Y-9525000D03*
X243205000Y-9525000D03*
D16*
X234994131Y-6231855D03*
D15*
X235625000Y-5525000D03*
D17*
X240625000Y-4725000D03*
D12*
X157480000Y-28575000D03*
X147320000Y-28575000D03*
D13*
X157900000Y-28575000D03*
X146900000Y-28575000D03*
D14*
X152400000Y-28575000D03*
D16*
X149269131Y-25281855D03*
D15*
X149900000Y-24575000D03*
D17*
X154900000Y-23775000D03*
D13*
X65031250Y-85725000D03*
D14*
X59531250Y-85725000D03*
D12*
X64611250Y-85725000D03*
D13*
X54031250Y-85725000D03*
D12*
X54451250Y-85725000D03*
D15*
X57031250Y-81725000D03*
D16*
X56400381Y-82431855D03*
D17*
X62031250Y-80925000D03*
D12*
X19367500Y-85725000D03*
X9207500Y-85725000D03*
D14*
X14287500Y-85725000D03*
D13*
X8787500Y-85725000D03*
X19787500Y-85725000D03*
D15*
X11787500Y-81725000D03*
D16*
X11156631Y-82431855D03*
D17*
X16787500Y-80925000D03*
D12*
X47307500Y-66675000D03*
D14*
X52387500Y-66675000D03*
D13*
X46887500Y-66675000D03*
X57887500Y-66675000D03*
D12*
X57467500Y-66675000D03*
D16*
X49256631Y-63381855D03*
D15*
X49887500Y-62675000D03*
D17*
X54887500Y-61875000D03*
D22*
X47550000Y-52650000D03*
X45650000Y-52650000D03*
X46600000Y-50650000D03*
D23*
X38400000Y-55850000D03*
X38400000Y-57750000D03*
X36400000Y-56800000D03*
D22*
X43800000Y-52950000D03*
X41900000Y-52950000D03*
X42850000Y-50950000D03*
D24*
X23650000Y-21300000D03*
X23650000Y-19400000D03*
D22*
X51300000Y-20250000D03*
X53200000Y-20250000D03*
X52250000Y-22250000D03*
D25*
X30428249Y-32921751D03*
X31771751Y-31578249D03*
D22*
X36300000Y-16700000D03*
X38200000Y-16700000D03*
X37250000Y-18700000D03*
D26*
X22645235Y-36845235D03*
X21354765Y-35554765D03*
D22*
X32700000Y-16700000D03*
X34600000Y-16700000D03*
X33650000Y-18700000D03*
D23*
X40050000Y-9300000D03*
X40050000Y-11200000D03*
X38050000Y-10250000D03*
X38400000Y-52250000D03*
X38400000Y-54150000D03*
X36400000Y-53200000D03*
D22*
X46100000Y-38300000D03*
X48000000Y-38300000D03*
X47050000Y-40300000D03*
X53200000Y-42300000D03*
X55100000Y-42300000D03*
X54150000Y-44300000D03*
D27*
X14812500Y-13050000D03*
X12987500Y-13050000D03*
D28*
X19000000Y-19437500D03*
X19000000Y-21262500D03*
D23*
X40050000Y-5300000D03*
X40050000Y-7200000D03*
X38050000Y-6250000D03*
D29*
X21221751Y-38321751D03*
X19878249Y-36978249D03*
D30*
X29600305Y-35496147D03*
X30165990Y-36061833D03*
X30731676Y-36627518D03*
X31297361Y-37193203D03*
X31863047Y-37758889D03*
X32428732Y-38324574D03*
X32994417Y-38890260D03*
X33560103Y-39455945D03*
D31*
X33560103Y-41506555D03*
X32994417Y-42072240D03*
X32428732Y-42637926D03*
X31863047Y-43203611D03*
X31297361Y-43769297D03*
X30731676Y-44334982D03*
X30165990Y-44900667D03*
X29600305Y-45466353D03*
D30*
X27549695Y-45466353D03*
X26984010Y-44900667D03*
X26418324Y-44334982D03*
X25852639Y-43769297D03*
X25286953Y-43203611D03*
X24721268Y-42637926D03*
X24155583Y-42072240D03*
X23589897Y-41506555D03*
D31*
X23589897Y-39455945D03*
X24155583Y-38890260D03*
X24721268Y-38324574D03*
X25286953Y-37758889D03*
X25852639Y-37193203D03*
X26418324Y-36627518D03*
X26984010Y-36061833D03*
X27549695Y-35496147D03*
D32*
X33573223Y-33371142D03*
X35128858Y-34926777D03*
X33926777Y-36128858D03*
X32371142Y-34573223D03*
D24*
X27850000Y-21300000D03*
X27850000Y-19400000D03*
D33*
X16300000Y-19700000D03*
X16300000Y-18700000D03*
X16300000Y-17700000D03*
X16300000Y-16700000D03*
D34*
X12275000Y-21200000D03*
X12275000Y-15200000D03*
D26*
X25645235Y-49895235D03*
X24354765Y-48604765D03*
D22*
X47650000Y-20250000D03*
X49550000Y-20250000D03*
X48600000Y-22250000D03*
D23*
X43200000Y-34150000D03*
X43200000Y-36050000D03*
X41200000Y-35100000D03*
D22*
X51500000Y-51200000D03*
X49600000Y-51200000D03*
X50550000Y-49200000D03*
D23*
X38400000Y-70350000D03*
X38400000Y-72250000D03*
X36400000Y-71300000D03*
X43200000Y-30500000D03*
X43200000Y-32400000D03*
X41200000Y-31450000D03*
D24*
X25750000Y-21300000D03*
X25750000Y-19400000D03*
D22*
X54950000Y-4700000D03*
X56850000Y-4700000D03*
X55900000Y-6700000D03*
X38200000Y-22200000D03*
X36300000Y-22200000D03*
X37250000Y-20200000D03*
D28*
X21300000Y-12037500D03*
X21300000Y-13862500D03*
D35*
X19112980Y-11266500D03*
X19112980Y-12216500D03*
X19112980Y-13166500D03*
X16837980Y-13166500D03*
X16837980Y-12216500D03*
X16837980Y-11266500D03*
D28*
X21100000Y-19437500D03*
X21100000Y-21262500D03*
D36*
X24250000Y-12050000D03*
X24250000Y-14850000D03*
D22*
X49600000Y-42300000D03*
X51500000Y-42300000D03*
X50550000Y-44300000D03*
D23*
X38400000Y-66700000D03*
X38400000Y-68600000D03*
X36400000Y-67650000D03*
X38400000Y-74000000D03*
X38400000Y-75900000D03*
X36400000Y-74950000D03*
D22*
X44000000Y-20250000D03*
X45900000Y-20250000D03*
X44950000Y-22250000D03*
D23*
X38400000Y-63100000D03*
X38400000Y-65000000D03*
X36400000Y-64050000D03*
X40050000Y-1650000D03*
X40050000Y-3550000D03*
X38050000Y-2600000D03*
X38400000Y-59450000D03*
X38400000Y-61350000D03*
X36400000Y-60400000D03*
D22*
X40200000Y-19300000D03*
X42100000Y-19300000D03*
X41150000Y-21300000D03*
D37*
X21455000Y-5635000D03*
X15675000Y-5635000D03*
D38*
X15315000Y-7080000D03*
X16115000Y-7080000D03*
D39*
X17315000Y-7080000D03*
X18315000Y-7080000D03*
X18815000Y-7080000D03*
X19815000Y-7080000D03*
D38*
X21015000Y-7080000D03*
X21815000Y-7080000D03*
X21815000Y-7080000D03*
X21015000Y-7080000D03*
D39*
X20315000Y-7080000D03*
X19315000Y-7080000D03*
X17815000Y-7080000D03*
X16815000Y-7080000D03*
D38*
X16115000Y-7080000D03*
X15315000Y-7080000D03*
D40*
X22885000Y-6165000D03*
D41*
X22885000Y-1985000D03*
X14245000Y-1985000D03*
D40*
X14245000Y-6165000D03*
D22*
X47650000Y-30350000D03*
X45750000Y-30350000D03*
X46700000Y-28350000D03*
D23*
X34400000Y-7200000D03*
X34400000Y-5300000D03*
X36400000Y-6250000D03*
D42*
X17083883Y-31479111D03*
X12629111Y-35933883D03*
X19770889Y-34166117D03*
X15316117Y-38620889D03*
D22*
X54950000Y-20250000D03*
X56850000Y-20250000D03*
X55900000Y-22250000D03*
D43*
X36821751Y-36478249D03*
X35478249Y-37821751D03*
D22*
X42350000Y-38300000D03*
X44250000Y-38300000D03*
X43300000Y-40300000D03*
X55100000Y-51200000D03*
X53200000Y-51200000D03*
X54150000Y-49200000D03*
X62350000Y-20250000D03*
X64250000Y-20250000D03*
X63300000Y-22250000D03*
M02*
