G04 #@! TF.GenerationSoftware,KiCad,Pcbnew,(6.0.4)*
G04 #@! TF.CreationDate,2022-03-30T13:56:44+02:00*
G04 #@! TF.ProjectId,pcb,7063622e-6b69-4636-9164-5f7063625858,rev?*
G04 #@! TF.SameCoordinates,Original*
G04 #@! TF.FileFunction,AssemblyDrawing,Bot*
%FSLAX46Y46*%
G04 Gerber Fmt 4.6, Leading zero omitted, Abs format (unit mm)*
G04 Created by KiCad (PCBNEW (6.0.4)) date 2022-03-30 13:56:44*
%MOMM*%
%LPD*%
G01*
G04 APERTURE LIST*
%ADD10C,0.150000*%
%ADD11C,0.075000*%
%ADD12C,0.080000*%
%ADD13C,0.105000*%
%ADD14C,0.060000*%
%ADD15C,0.120000*%
%ADD16C,0.100000*%
G04 APERTURE END LIST*
D10*
X44028571Y-47411904D02*
X44076190Y-47554761D01*
X44123809Y-47602380D01*
X44219047Y-47650000D01*
X44361904Y-47650000D01*
X44457142Y-47602380D01*
X44504761Y-47554761D01*
X44552380Y-47459523D01*
X44552380Y-47078571D01*
X43552380Y-47078571D01*
X43552380Y-47411904D01*
X43600000Y-47507142D01*
X43647619Y-47554761D01*
X43742857Y-47602380D01*
X43838095Y-47602380D01*
X43933333Y-47554761D01*
X43980952Y-47507142D01*
X44028571Y-47411904D01*
X44028571Y-47078571D01*
X44266666Y-48030952D02*
X44266666Y-48507142D01*
X44552380Y-47935714D02*
X43552380Y-48269047D01*
X44552380Y-48602380D01*
X43552380Y-48792857D02*
X44552380Y-49126190D01*
X43552380Y-49459523D01*
X43552380Y-49697619D02*
X43552380Y-50364285D01*
X44552380Y-49935714D01*
X43552380Y-50935714D02*
X43552380Y-51030952D01*
X43600000Y-51126190D01*
X43647619Y-51173809D01*
X43742857Y-51221428D01*
X43933333Y-51269047D01*
X44171428Y-51269047D01*
X44361904Y-51221428D01*
X44457142Y-51173809D01*
X44504761Y-51126190D01*
X44552380Y-51030952D01*
X44552380Y-50935714D01*
X44504761Y-50840476D01*
X44457142Y-50792857D01*
X44361904Y-50745238D01*
X44171428Y-50697619D01*
X43933333Y-50697619D01*
X43742857Y-50745238D01*
X43647619Y-50792857D01*
X43600000Y-50840476D01*
X43552380Y-50935714D01*
X44647619Y-51459523D02*
X44647619Y-52221428D01*
X44504761Y-52411904D02*
X44552380Y-52554761D01*
X44552380Y-52792857D01*
X44504761Y-52888095D01*
X44457142Y-52935714D01*
X44361904Y-52983333D01*
X44266666Y-52983333D01*
X44171428Y-52935714D01*
X44123809Y-52888095D01*
X44076190Y-52792857D01*
X44028571Y-52602380D01*
X43980952Y-52507142D01*
X43933333Y-52459523D01*
X43838095Y-52411904D01*
X43742857Y-52411904D01*
X43647619Y-52459523D01*
X43600000Y-52507142D01*
X43552380Y-52602380D01*
X43552380Y-52840476D01*
X43600000Y-52983333D01*
X44552380Y-53411904D02*
X43885714Y-53411904D01*
X43980952Y-53411904D02*
X43933333Y-53459523D01*
X43885714Y-53554761D01*
X43885714Y-53697619D01*
X43933333Y-53792857D01*
X44028571Y-53840476D01*
X44552380Y-53840476D01*
X44028571Y-53840476D02*
X43933333Y-53888095D01*
X43885714Y-53983333D01*
X43885714Y-54126190D01*
X43933333Y-54221428D01*
X44028571Y-54269047D01*
X44552380Y-54269047D01*
X44552380Y-55173809D02*
X44028571Y-55173809D01*
X43933333Y-55126190D01*
X43885714Y-55030952D01*
X43885714Y-54840476D01*
X43933333Y-54745238D01*
X44504761Y-55173809D02*
X44552380Y-55078571D01*
X44552380Y-54840476D01*
X44504761Y-54745238D01*
X44409523Y-54697619D01*
X44314285Y-54697619D01*
X44219047Y-54745238D01*
X44171428Y-54840476D01*
X44171428Y-55078571D01*
X44123809Y-55173809D01*
X44552380Y-55792857D02*
X44504761Y-55697619D01*
X44409523Y-55650000D01*
X43552380Y-55650000D01*
X44552380Y-56316666D02*
X44504761Y-56221428D01*
X44409523Y-56173809D01*
X43552380Y-56173809D01*
D11*
X47921428Y-51876190D02*
X47921428Y-51376190D01*
X47802380Y-51376190D01*
X47730952Y-51400000D01*
X47683333Y-51447619D01*
X47659523Y-51495238D01*
X47635714Y-51590476D01*
X47635714Y-51661904D01*
X47659523Y-51757142D01*
X47683333Y-51804761D01*
X47730952Y-51852380D01*
X47802380Y-51876190D01*
X47921428Y-51876190D01*
X47469047Y-51376190D02*
X47159523Y-51376190D01*
X47326190Y-51566666D01*
X47254761Y-51566666D01*
X47207142Y-51590476D01*
X47183333Y-51614285D01*
X47159523Y-51661904D01*
X47159523Y-51780952D01*
X47183333Y-51828571D01*
X47207142Y-51852380D01*
X47254761Y-51876190D01*
X47397619Y-51876190D01*
X47445238Y-51852380D01*
X47469047Y-51828571D01*
X46921428Y-51876190D02*
X46826190Y-51876190D01*
X46778571Y-51852380D01*
X46754761Y-51828571D01*
X46707142Y-51757142D01*
X46683333Y-51661904D01*
X46683333Y-51471428D01*
X46707142Y-51423809D01*
X46730952Y-51400000D01*
X46778571Y-51376190D01*
X46873809Y-51376190D01*
X46921428Y-51400000D01*
X46945238Y-51423809D01*
X46969047Y-51471428D01*
X46969047Y-51590476D01*
X46945238Y-51638095D01*
X46921428Y-51661904D01*
X46873809Y-51685714D01*
X46778571Y-51685714D01*
X46730952Y-51661904D01*
X46707142Y-51638095D01*
X46683333Y-51590476D01*
X46516666Y-51376190D02*
X46207142Y-51376190D01*
X46373809Y-51566666D01*
X46302380Y-51566666D01*
X46254761Y-51590476D01*
X46230952Y-51614285D01*
X46207142Y-51661904D01*
X46207142Y-51780952D01*
X46230952Y-51828571D01*
X46254761Y-51852380D01*
X46302380Y-51876190D01*
X46445238Y-51876190D01*
X46492857Y-51852380D01*
X46516666Y-51828571D01*
X45730952Y-51876190D02*
X46016666Y-51876190D01*
X45873809Y-51876190D02*
X45873809Y-51376190D01*
X45921428Y-51447619D01*
X45969047Y-51495238D01*
X46016666Y-51519047D01*
X45421428Y-51376190D02*
X45373809Y-51376190D01*
X45326190Y-51400000D01*
X45302380Y-51423809D01*
X45278571Y-51471428D01*
X45254761Y-51566666D01*
X45254761Y-51685714D01*
X45278571Y-51780952D01*
X45302380Y-51828571D01*
X45326190Y-51852380D01*
X45373809Y-51876190D01*
X45421428Y-51876190D01*
X45469047Y-51852380D01*
X45492857Y-51828571D01*
X45516666Y-51780952D01*
X45540476Y-51685714D01*
X45540476Y-51566666D01*
X45516666Y-51471428D01*
X45492857Y-51423809D01*
X45469047Y-51400000D01*
X45421428Y-51376190D01*
D10*
X41638095Y-59228571D02*
X41495238Y-59276190D01*
X41447619Y-59323809D01*
X41400000Y-59419047D01*
X41400000Y-59561904D01*
X41447619Y-59657142D01*
X41495238Y-59704761D01*
X41590476Y-59752380D01*
X41971428Y-59752380D01*
X41971428Y-58752380D01*
X41638095Y-58752380D01*
X41542857Y-58800000D01*
X41495238Y-58847619D01*
X41447619Y-58942857D01*
X41447619Y-59038095D01*
X41495238Y-59133333D01*
X41542857Y-59180952D01*
X41638095Y-59228571D01*
X41971428Y-59228571D01*
X41019047Y-59466666D02*
X40542857Y-59466666D01*
X41114285Y-59752380D02*
X40780952Y-58752380D01*
X40447619Y-59752380D01*
X40257142Y-58752380D02*
X39923809Y-59752380D01*
X39590476Y-58752380D01*
X39352380Y-58752380D02*
X38685714Y-58752380D01*
X39114285Y-59752380D01*
X38114285Y-58752380D02*
X38019047Y-58752380D01*
X37923809Y-58800000D01*
X37876190Y-58847619D01*
X37828571Y-58942857D01*
X37780952Y-59133333D01*
X37780952Y-59371428D01*
X37828571Y-59561904D01*
X37876190Y-59657142D01*
X37923809Y-59704761D01*
X38019047Y-59752380D01*
X38114285Y-59752380D01*
X38209523Y-59704761D01*
X38257142Y-59657142D01*
X38304761Y-59561904D01*
X38352380Y-59371428D01*
X38352380Y-59133333D01*
X38304761Y-58942857D01*
X38257142Y-58847619D01*
X38209523Y-58800000D01*
X38114285Y-58752380D01*
X37590476Y-59847619D02*
X36828571Y-59847619D01*
X36638095Y-59704761D02*
X36495238Y-59752380D01*
X36257142Y-59752380D01*
X36161904Y-59704761D01*
X36114285Y-59657142D01*
X36066666Y-59561904D01*
X36066666Y-59466666D01*
X36114285Y-59371428D01*
X36161904Y-59323809D01*
X36257142Y-59276190D01*
X36447619Y-59228571D01*
X36542857Y-59180952D01*
X36590476Y-59133333D01*
X36638095Y-59038095D01*
X36638095Y-58942857D01*
X36590476Y-58847619D01*
X36542857Y-58800000D01*
X36447619Y-58752380D01*
X36209523Y-58752380D01*
X36066666Y-58800000D01*
X35638095Y-59752380D02*
X35638095Y-59085714D01*
X35638095Y-59180952D02*
X35590476Y-59133333D01*
X35495238Y-59085714D01*
X35352380Y-59085714D01*
X35257142Y-59133333D01*
X35209523Y-59228571D01*
X35209523Y-59752380D01*
X35209523Y-59228571D02*
X35161904Y-59133333D01*
X35066666Y-59085714D01*
X34923809Y-59085714D01*
X34828571Y-59133333D01*
X34780952Y-59228571D01*
X34780952Y-59752380D01*
X33876190Y-59752380D02*
X33876190Y-59228571D01*
X33923809Y-59133333D01*
X34019047Y-59085714D01*
X34209523Y-59085714D01*
X34304761Y-59133333D01*
X33876190Y-59704761D02*
X33971428Y-59752380D01*
X34209523Y-59752380D01*
X34304761Y-59704761D01*
X34352380Y-59609523D01*
X34352380Y-59514285D01*
X34304761Y-59419047D01*
X34209523Y-59371428D01*
X33971428Y-59371428D01*
X33876190Y-59323809D01*
X33257142Y-59752380D02*
X33352380Y-59704761D01*
X33400000Y-59609523D01*
X33400000Y-58752380D01*
X32733333Y-59752380D02*
X32828571Y-59704761D01*
X32876190Y-59609523D01*
X32876190Y-58752380D01*
D11*
X37626190Y-55716666D02*
X37126190Y-55716666D01*
X37126190Y-55835714D01*
X37150000Y-55907142D01*
X37197619Y-55954761D01*
X37245238Y-55978571D01*
X37340476Y-56002380D01*
X37411904Y-56002380D01*
X37507142Y-55978571D01*
X37554761Y-55954761D01*
X37602380Y-55907142D01*
X37626190Y-55835714D01*
X37626190Y-55716666D01*
X37126190Y-56169047D02*
X37126190Y-56478571D01*
X37316666Y-56311904D01*
X37316666Y-56383333D01*
X37340476Y-56430952D01*
X37364285Y-56454761D01*
X37411904Y-56478571D01*
X37530952Y-56478571D01*
X37578571Y-56454761D01*
X37602380Y-56430952D01*
X37626190Y-56383333D01*
X37626190Y-56240476D01*
X37602380Y-56192857D01*
X37578571Y-56169047D01*
X37173809Y-56669047D02*
X37150000Y-56692857D01*
X37126190Y-56740476D01*
X37126190Y-56859523D01*
X37150000Y-56907142D01*
X37173809Y-56930952D01*
X37221428Y-56954761D01*
X37269047Y-56954761D01*
X37340476Y-56930952D01*
X37626190Y-56645238D01*
X37626190Y-56954761D01*
X37126190Y-57121428D02*
X37126190Y-57430952D01*
X37316666Y-57264285D01*
X37316666Y-57335714D01*
X37340476Y-57383333D01*
X37364285Y-57407142D01*
X37411904Y-57430952D01*
X37530952Y-57430952D01*
X37578571Y-57407142D01*
X37602380Y-57383333D01*
X37626190Y-57335714D01*
X37626190Y-57192857D01*
X37602380Y-57145238D01*
X37578571Y-57121428D01*
X37126190Y-57597619D02*
X37126190Y-57907142D01*
X37316666Y-57740476D01*
X37316666Y-57811904D01*
X37340476Y-57859523D01*
X37364285Y-57883333D01*
X37411904Y-57907142D01*
X37530952Y-57907142D01*
X37578571Y-57883333D01*
X37602380Y-57859523D01*
X37626190Y-57811904D01*
X37626190Y-57669047D01*
X37602380Y-57621428D01*
X37578571Y-57597619D01*
D10*
X40278571Y-47711904D02*
X40326190Y-47854761D01*
X40373809Y-47902380D01*
X40469047Y-47950000D01*
X40611904Y-47950000D01*
X40707142Y-47902380D01*
X40754761Y-47854761D01*
X40802380Y-47759523D01*
X40802380Y-47378571D01*
X39802380Y-47378571D01*
X39802380Y-47711904D01*
X39850000Y-47807142D01*
X39897619Y-47854761D01*
X39992857Y-47902380D01*
X40088095Y-47902380D01*
X40183333Y-47854761D01*
X40230952Y-47807142D01*
X40278571Y-47711904D01*
X40278571Y-47378571D01*
X40516666Y-48330952D02*
X40516666Y-48807142D01*
X40802380Y-48235714D02*
X39802380Y-48569047D01*
X40802380Y-48902380D01*
X39802380Y-49092857D02*
X40802380Y-49426190D01*
X39802380Y-49759523D01*
X39802380Y-49997619D02*
X39802380Y-50664285D01*
X40802380Y-50235714D01*
X39802380Y-51235714D02*
X39802380Y-51330952D01*
X39850000Y-51426190D01*
X39897619Y-51473809D01*
X39992857Y-51521428D01*
X40183333Y-51569047D01*
X40421428Y-51569047D01*
X40611904Y-51521428D01*
X40707142Y-51473809D01*
X40754761Y-51426190D01*
X40802380Y-51330952D01*
X40802380Y-51235714D01*
X40754761Y-51140476D01*
X40707142Y-51092857D01*
X40611904Y-51045238D01*
X40421428Y-50997619D01*
X40183333Y-50997619D01*
X39992857Y-51045238D01*
X39897619Y-51092857D01*
X39850000Y-51140476D01*
X39802380Y-51235714D01*
X40897619Y-51759523D02*
X40897619Y-52521428D01*
X40754761Y-52711904D02*
X40802380Y-52854761D01*
X40802380Y-53092857D01*
X40754761Y-53188095D01*
X40707142Y-53235714D01*
X40611904Y-53283333D01*
X40516666Y-53283333D01*
X40421428Y-53235714D01*
X40373809Y-53188095D01*
X40326190Y-53092857D01*
X40278571Y-52902380D01*
X40230952Y-52807142D01*
X40183333Y-52759523D01*
X40088095Y-52711904D01*
X39992857Y-52711904D01*
X39897619Y-52759523D01*
X39850000Y-52807142D01*
X39802380Y-52902380D01*
X39802380Y-53140476D01*
X39850000Y-53283333D01*
X40802380Y-53711904D02*
X40135714Y-53711904D01*
X40230952Y-53711904D02*
X40183333Y-53759523D01*
X40135714Y-53854761D01*
X40135714Y-53997619D01*
X40183333Y-54092857D01*
X40278571Y-54140476D01*
X40802380Y-54140476D01*
X40278571Y-54140476D02*
X40183333Y-54188095D01*
X40135714Y-54283333D01*
X40135714Y-54426190D01*
X40183333Y-54521428D01*
X40278571Y-54569047D01*
X40802380Y-54569047D01*
X40802380Y-55473809D02*
X40278571Y-55473809D01*
X40183333Y-55426190D01*
X40135714Y-55330952D01*
X40135714Y-55140476D01*
X40183333Y-55045238D01*
X40754761Y-55473809D02*
X40802380Y-55378571D01*
X40802380Y-55140476D01*
X40754761Y-55045238D01*
X40659523Y-54997619D01*
X40564285Y-54997619D01*
X40469047Y-55045238D01*
X40421428Y-55140476D01*
X40421428Y-55378571D01*
X40373809Y-55473809D01*
X40802380Y-56092857D02*
X40754761Y-55997619D01*
X40659523Y-55950000D01*
X39802380Y-55950000D01*
X40802380Y-56616666D02*
X40754761Y-56521428D01*
X40659523Y-56473809D01*
X39802380Y-56473809D01*
D11*
X43933333Y-52176190D02*
X43933333Y-51676190D01*
X43814285Y-51676190D01*
X43742857Y-51700000D01*
X43695238Y-51747619D01*
X43671428Y-51795238D01*
X43647619Y-51890476D01*
X43647619Y-51961904D01*
X43671428Y-52057142D01*
X43695238Y-52104761D01*
X43742857Y-52152380D01*
X43814285Y-52176190D01*
X43933333Y-52176190D01*
X43480952Y-51676190D02*
X43171428Y-51676190D01*
X43338095Y-51866666D01*
X43266666Y-51866666D01*
X43219047Y-51890476D01*
X43195238Y-51914285D01*
X43171428Y-51961904D01*
X43171428Y-52080952D01*
X43195238Y-52128571D01*
X43219047Y-52152380D01*
X43266666Y-52176190D01*
X43409523Y-52176190D01*
X43457142Y-52152380D01*
X43480952Y-52128571D01*
X42742857Y-51676190D02*
X42838095Y-51676190D01*
X42885714Y-51700000D01*
X42909523Y-51723809D01*
X42957142Y-51795238D01*
X42980952Y-51890476D01*
X42980952Y-52080952D01*
X42957142Y-52128571D01*
X42933333Y-52152380D01*
X42885714Y-52176190D01*
X42790476Y-52176190D01*
X42742857Y-52152380D01*
X42719047Y-52128571D01*
X42695238Y-52080952D01*
X42695238Y-51961904D01*
X42719047Y-51914285D01*
X42742857Y-51890476D01*
X42790476Y-51866666D01*
X42885714Y-51866666D01*
X42933333Y-51890476D01*
X42957142Y-51914285D01*
X42980952Y-51961904D01*
X42528571Y-51676190D02*
X42219047Y-51676190D01*
X42385714Y-51866666D01*
X42314285Y-51866666D01*
X42266666Y-51890476D01*
X42242857Y-51914285D01*
X42219047Y-51961904D01*
X42219047Y-52080952D01*
X42242857Y-52128571D01*
X42266666Y-52152380D01*
X42314285Y-52176190D01*
X42457142Y-52176190D01*
X42504761Y-52152380D01*
X42528571Y-52128571D01*
X42052380Y-51676190D02*
X41719047Y-51676190D01*
X41933333Y-52176190D01*
D10*
X22327142Y-15683333D02*
X22374761Y-15730952D01*
X22422380Y-15683333D01*
X22374761Y-15635714D01*
X22327142Y-15683333D01*
X22422380Y-15683333D01*
X22422380Y-16683333D02*
X22422380Y-16111904D01*
X22422380Y-16397619D02*
X21422380Y-16397619D01*
X21565238Y-16302380D01*
X21660476Y-16207142D01*
X21708095Y-16111904D01*
X21755714Y-17540476D02*
X22422380Y-17540476D01*
X21755714Y-17111904D02*
X22279523Y-17111904D01*
X22374761Y-17159523D01*
X22422380Y-17254761D01*
X22422380Y-17397619D01*
X22374761Y-17492857D01*
X22327142Y-17540476D01*
X21755714Y-17873809D02*
X21755714Y-18254761D01*
X22422380Y-18016666D02*
X21565238Y-18016666D01*
X21470000Y-18064285D01*
X21422380Y-18159523D01*
X21422380Y-18254761D01*
X21374761Y-20064285D02*
X22660476Y-19207142D01*
X22422380Y-21683333D02*
X22422380Y-21111904D01*
X22422380Y-21397619D02*
X21422380Y-21397619D01*
X21565238Y-21302380D01*
X21660476Y-21207142D01*
X21708095Y-21111904D01*
X21422380Y-22302380D02*
X21422380Y-22397619D01*
X21470000Y-22492857D01*
X21517619Y-22540476D01*
X21612857Y-22588095D01*
X21803333Y-22635714D01*
X22041428Y-22635714D01*
X22231904Y-22588095D01*
X22327142Y-22540476D01*
X22374761Y-22492857D01*
X22422380Y-22397619D01*
X22422380Y-22302380D01*
X22374761Y-22207142D01*
X22327142Y-22159523D01*
X22231904Y-22111904D01*
X22041428Y-22064285D01*
X21803333Y-22064285D01*
X21612857Y-22111904D01*
X21517619Y-22159523D01*
X21470000Y-22207142D01*
X21422380Y-22302380D01*
X21422380Y-23254761D02*
X21422380Y-23350000D01*
X21470000Y-23445238D01*
X21517619Y-23492857D01*
X21612857Y-23540476D01*
X21803333Y-23588095D01*
X22041428Y-23588095D01*
X22231904Y-23540476D01*
X22327142Y-23492857D01*
X22374761Y-23445238D01*
X22422380Y-23350000D01*
X22422380Y-23254761D01*
X22374761Y-23159523D01*
X22327142Y-23111904D01*
X22231904Y-23064285D01*
X22041428Y-23016666D01*
X21803333Y-23016666D01*
X21612857Y-23064285D01*
X21517619Y-23111904D01*
X21470000Y-23159523D01*
X21422380Y-23254761D01*
X21755714Y-24016666D02*
X22422380Y-24016666D01*
X21850952Y-24016666D02*
X21803333Y-24064285D01*
X21755714Y-24159523D01*
X21755714Y-24302380D01*
X21803333Y-24397619D01*
X21898571Y-24445238D01*
X22422380Y-24445238D01*
X21755714Y-24778571D02*
X21755714Y-25159523D01*
X22422380Y-24921428D02*
X21565238Y-24921428D01*
X21470000Y-24969047D01*
X21422380Y-25064285D01*
X21422380Y-25159523D01*
D12*
X23828571Y-20266666D02*
X23852380Y-20242857D01*
X23876190Y-20171428D01*
X23876190Y-20123809D01*
X23852380Y-20052380D01*
X23804761Y-20004761D01*
X23757142Y-19980952D01*
X23661904Y-19957142D01*
X23590476Y-19957142D01*
X23495238Y-19980952D01*
X23447619Y-20004761D01*
X23400000Y-20052380D01*
X23376190Y-20123809D01*
X23376190Y-20171428D01*
X23400000Y-20242857D01*
X23423809Y-20266666D01*
X23542857Y-20695238D02*
X23876190Y-20695238D01*
X23352380Y-20576190D02*
X23709523Y-20457142D01*
X23709523Y-20766666D01*
D10*
X54678571Y-17011904D02*
X54726190Y-17154761D01*
X54773809Y-17202380D01*
X54869047Y-17250000D01*
X55011904Y-17250000D01*
X55107142Y-17202380D01*
X55154761Y-17154761D01*
X55202380Y-17059523D01*
X55202380Y-16678571D01*
X54202380Y-16678571D01*
X54202380Y-17011904D01*
X54250000Y-17107142D01*
X54297619Y-17154761D01*
X54392857Y-17202380D01*
X54488095Y-17202380D01*
X54583333Y-17154761D01*
X54630952Y-17107142D01*
X54678571Y-17011904D01*
X54678571Y-16678571D01*
X54916666Y-17630952D02*
X54916666Y-18107142D01*
X55202380Y-17535714D02*
X54202380Y-17869047D01*
X55202380Y-18202380D01*
X54202380Y-18392857D02*
X55202380Y-18726190D01*
X54202380Y-19059523D01*
X54202380Y-19297619D02*
X54202380Y-19964285D01*
X55202380Y-19535714D01*
X54202380Y-20535714D02*
X54202380Y-20630952D01*
X54250000Y-20726190D01*
X54297619Y-20773809D01*
X54392857Y-20821428D01*
X54583333Y-20869047D01*
X54821428Y-20869047D01*
X55011904Y-20821428D01*
X55107142Y-20773809D01*
X55154761Y-20726190D01*
X55202380Y-20630952D01*
X55202380Y-20535714D01*
X55154761Y-20440476D01*
X55107142Y-20392857D01*
X55011904Y-20345238D01*
X54821428Y-20297619D01*
X54583333Y-20297619D01*
X54392857Y-20345238D01*
X54297619Y-20392857D01*
X54250000Y-20440476D01*
X54202380Y-20535714D01*
X55297619Y-21059523D02*
X55297619Y-21821428D01*
X55154761Y-22011904D02*
X55202380Y-22154761D01*
X55202380Y-22392857D01*
X55154761Y-22488095D01*
X55107142Y-22535714D01*
X55011904Y-22583333D01*
X54916666Y-22583333D01*
X54821428Y-22535714D01*
X54773809Y-22488095D01*
X54726190Y-22392857D01*
X54678571Y-22202380D01*
X54630952Y-22107142D01*
X54583333Y-22059523D01*
X54488095Y-22011904D01*
X54392857Y-22011904D01*
X54297619Y-22059523D01*
X54250000Y-22107142D01*
X54202380Y-22202380D01*
X54202380Y-22440476D01*
X54250000Y-22583333D01*
X55202380Y-23011904D02*
X54535714Y-23011904D01*
X54630952Y-23011904D02*
X54583333Y-23059523D01*
X54535714Y-23154761D01*
X54535714Y-23297619D01*
X54583333Y-23392857D01*
X54678571Y-23440476D01*
X55202380Y-23440476D01*
X54678571Y-23440476D02*
X54583333Y-23488095D01*
X54535714Y-23583333D01*
X54535714Y-23726190D01*
X54583333Y-23821428D01*
X54678571Y-23869047D01*
X55202380Y-23869047D01*
X55202380Y-24773809D02*
X54678571Y-24773809D01*
X54583333Y-24726190D01*
X54535714Y-24630952D01*
X54535714Y-24440476D01*
X54583333Y-24345238D01*
X55154761Y-24773809D02*
X55202380Y-24678571D01*
X55202380Y-24440476D01*
X55154761Y-24345238D01*
X55059523Y-24297619D01*
X54964285Y-24297619D01*
X54869047Y-24345238D01*
X54821428Y-24440476D01*
X54821428Y-24678571D01*
X54773809Y-24773809D01*
X55202380Y-25392857D02*
X55154761Y-25297619D01*
X55059523Y-25250000D01*
X54202380Y-25250000D01*
X55202380Y-25916666D02*
X55154761Y-25821428D01*
X55059523Y-25773809D01*
X54202380Y-25773809D01*
D11*
X53333333Y-21476190D02*
X53333333Y-20976190D01*
X53214285Y-20976190D01*
X53142857Y-21000000D01*
X53095238Y-21047619D01*
X53071428Y-21095238D01*
X53047619Y-21190476D01*
X53047619Y-21261904D01*
X53071428Y-21357142D01*
X53095238Y-21404761D01*
X53142857Y-21452380D01*
X53214285Y-21476190D01*
X53333333Y-21476190D01*
X52571428Y-21476190D02*
X52857142Y-21476190D01*
X52714285Y-21476190D02*
X52714285Y-20976190D01*
X52761904Y-21047619D01*
X52809523Y-21095238D01*
X52857142Y-21119047D01*
X52142857Y-20976190D02*
X52238095Y-20976190D01*
X52285714Y-21000000D01*
X52309523Y-21023809D01*
X52357142Y-21095238D01*
X52380952Y-21190476D01*
X52380952Y-21380952D01*
X52357142Y-21428571D01*
X52333333Y-21452380D01*
X52285714Y-21476190D01*
X52190476Y-21476190D01*
X52142857Y-21452380D01*
X52119047Y-21428571D01*
X52095238Y-21380952D01*
X52095238Y-21261904D01*
X52119047Y-21214285D01*
X52142857Y-21190476D01*
X52190476Y-21166666D01*
X52285714Y-21166666D01*
X52333333Y-21190476D01*
X52357142Y-21214285D01*
X52380952Y-21261904D01*
X51619047Y-21476190D02*
X51904761Y-21476190D01*
X51761904Y-21476190D02*
X51761904Y-20976190D01*
X51809523Y-21047619D01*
X51857142Y-21095238D01*
X51904761Y-21119047D01*
X51452380Y-20976190D02*
X51119047Y-20976190D01*
X51333333Y-21476190D01*
D10*
X30652839Y-29681519D02*
X30585496Y-29681519D01*
X30484480Y-29715190D01*
X30316122Y-29883549D01*
X30282450Y-29984564D01*
X30282450Y-30051908D01*
X30316122Y-30152923D01*
X30383465Y-30220267D01*
X30518152Y-30287610D01*
X31326274Y-30287610D01*
X30888541Y-30725343D01*
X29979404Y-30354954D02*
X29912061Y-30354954D01*
X29811045Y-30388625D01*
X29642686Y-30556984D01*
X29609015Y-30657999D01*
X29609015Y-30725343D01*
X29642686Y-30826358D01*
X29710030Y-30893702D01*
X29844717Y-30961045D01*
X30652839Y-30961045D01*
X30215106Y-31398778D01*
X29440656Y-31230419D02*
X30147763Y-31937526D01*
X29474328Y-31264091D02*
X29373312Y-31297763D01*
X29238625Y-31432450D01*
X29204954Y-31533465D01*
X29204954Y-31600809D01*
X29238625Y-31701824D01*
X29440656Y-31903854D01*
X29541671Y-31937526D01*
X29609015Y-31937526D01*
X29710030Y-31903854D01*
X29844717Y-31769167D01*
X29878389Y-31668152D01*
X28901908Y-31769167D02*
X28632534Y-32038541D01*
X29272297Y-32341587D02*
X28666206Y-31735496D01*
X28565190Y-31701824D01*
X28464175Y-31735496D01*
X28396832Y-31802839D01*
D12*
X31285194Y-32317343D02*
X31318866Y-32317343D01*
X31386209Y-32283671D01*
X31419881Y-32250000D01*
X31453553Y-32182656D01*
X31453553Y-32115312D01*
X31436717Y-32064805D01*
X31386209Y-31980625D01*
X31335702Y-31930118D01*
X31251522Y-31879610D01*
X31201015Y-31862774D01*
X31133671Y-31862774D01*
X31066328Y-31896446D01*
X31032656Y-31930118D01*
X30998984Y-31997461D01*
X30998984Y-32031133D01*
X30746446Y-32216328D02*
X30712774Y-32250000D01*
X30695938Y-32300507D01*
X30695938Y-32334179D01*
X30712774Y-32384687D01*
X30763282Y-32468866D01*
X30847461Y-32553045D01*
X30931641Y-32603553D01*
X30982148Y-32620389D01*
X31015820Y-32620389D01*
X31066328Y-32603553D01*
X31100000Y-32569881D01*
X31116835Y-32519374D01*
X31116835Y-32485702D01*
X31100000Y-32435194D01*
X31049492Y-32351015D01*
X30965312Y-32266835D01*
X30881133Y-32216328D01*
X30830625Y-32199492D01*
X30796954Y-32199492D01*
X30746446Y-32216328D01*
D10*
X39678571Y-13461904D02*
X39726190Y-13604761D01*
X39773809Y-13652380D01*
X39869047Y-13700000D01*
X40011904Y-13700000D01*
X40107142Y-13652380D01*
X40154761Y-13604761D01*
X40202380Y-13509523D01*
X40202380Y-13128571D01*
X39202380Y-13128571D01*
X39202380Y-13461904D01*
X39250000Y-13557142D01*
X39297619Y-13604761D01*
X39392857Y-13652380D01*
X39488095Y-13652380D01*
X39583333Y-13604761D01*
X39630952Y-13557142D01*
X39678571Y-13461904D01*
X39678571Y-13128571D01*
X39916666Y-14080952D02*
X39916666Y-14557142D01*
X40202380Y-13985714D02*
X39202380Y-14319047D01*
X40202380Y-14652380D01*
X39202380Y-14842857D02*
X40202380Y-15176190D01*
X39202380Y-15509523D01*
X39202380Y-15747619D02*
X39202380Y-16414285D01*
X40202380Y-15985714D01*
X39202380Y-16985714D02*
X39202380Y-17080952D01*
X39250000Y-17176190D01*
X39297619Y-17223809D01*
X39392857Y-17271428D01*
X39583333Y-17319047D01*
X39821428Y-17319047D01*
X40011904Y-17271428D01*
X40107142Y-17223809D01*
X40154761Y-17176190D01*
X40202380Y-17080952D01*
X40202380Y-16985714D01*
X40154761Y-16890476D01*
X40107142Y-16842857D01*
X40011904Y-16795238D01*
X39821428Y-16747619D01*
X39583333Y-16747619D01*
X39392857Y-16795238D01*
X39297619Y-16842857D01*
X39250000Y-16890476D01*
X39202380Y-16985714D01*
X40297619Y-17509523D02*
X40297619Y-18271428D01*
X40154761Y-18461904D02*
X40202380Y-18604761D01*
X40202380Y-18842857D01*
X40154761Y-18938095D01*
X40107142Y-18985714D01*
X40011904Y-19033333D01*
X39916666Y-19033333D01*
X39821428Y-18985714D01*
X39773809Y-18938095D01*
X39726190Y-18842857D01*
X39678571Y-18652380D01*
X39630952Y-18557142D01*
X39583333Y-18509523D01*
X39488095Y-18461904D01*
X39392857Y-18461904D01*
X39297619Y-18509523D01*
X39250000Y-18557142D01*
X39202380Y-18652380D01*
X39202380Y-18890476D01*
X39250000Y-19033333D01*
X40202380Y-19461904D02*
X39535714Y-19461904D01*
X39630952Y-19461904D02*
X39583333Y-19509523D01*
X39535714Y-19604761D01*
X39535714Y-19747619D01*
X39583333Y-19842857D01*
X39678571Y-19890476D01*
X40202380Y-19890476D01*
X39678571Y-19890476D02*
X39583333Y-19938095D01*
X39535714Y-20033333D01*
X39535714Y-20176190D01*
X39583333Y-20271428D01*
X39678571Y-20319047D01*
X40202380Y-20319047D01*
X40202380Y-21223809D02*
X39678571Y-21223809D01*
X39583333Y-21176190D01*
X39535714Y-21080952D01*
X39535714Y-20890476D01*
X39583333Y-20795238D01*
X40154761Y-21223809D02*
X40202380Y-21128571D01*
X40202380Y-20890476D01*
X40154761Y-20795238D01*
X40059523Y-20747619D01*
X39964285Y-20747619D01*
X39869047Y-20795238D01*
X39821428Y-20890476D01*
X39821428Y-21128571D01*
X39773809Y-21223809D01*
X40202380Y-21842857D02*
X40154761Y-21747619D01*
X40059523Y-21700000D01*
X39202380Y-21700000D01*
X40202380Y-22366666D02*
X40154761Y-22271428D01*
X40059523Y-22223809D01*
X39202380Y-22223809D01*
D11*
X38571428Y-17926190D02*
X38571428Y-17426190D01*
X38452380Y-17426190D01*
X38380952Y-17450000D01*
X38333333Y-17497619D01*
X38309523Y-17545238D01*
X38285714Y-17640476D01*
X38285714Y-17711904D01*
X38309523Y-17807142D01*
X38333333Y-17854761D01*
X38380952Y-17902380D01*
X38452380Y-17926190D01*
X38571428Y-17926190D01*
X37809523Y-17926190D02*
X38095238Y-17926190D01*
X37952380Y-17926190D02*
X37952380Y-17426190D01*
X38000000Y-17497619D01*
X38047619Y-17545238D01*
X38095238Y-17569047D01*
X37619047Y-17473809D02*
X37595238Y-17450000D01*
X37547619Y-17426190D01*
X37428571Y-17426190D01*
X37380952Y-17450000D01*
X37357142Y-17473809D01*
X37333333Y-17521428D01*
X37333333Y-17569047D01*
X37357142Y-17640476D01*
X37642857Y-17926190D01*
X37333333Y-17926190D01*
X37023809Y-17426190D02*
X36976190Y-17426190D01*
X36928571Y-17450000D01*
X36904761Y-17473809D01*
X36880952Y-17521428D01*
X36857142Y-17616666D01*
X36857142Y-17735714D01*
X36880952Y-17830952D01*
X36904761Y-17878571D01*
X36928571Y-17902380D01*
X36976190Y-17926190D01*
X37023809Y-17926190D01*
X37071428Y-17902380D01*
X37095238Y-17878571D01*
X37119047Y-17830952D01*
X37142857Y-17735714D01*
X37142857Y-17616666D01*
X37119047Y-17521428D01*
X37095238Y-17473809D01*
X37071428Y-17450000D01*
X37023809Y-17426190D01*
X36380952Y-17926190D02*
X36666666Y-17926190D01*
X36523809Y-17926190D02*
X36523809Y-17426190D01*
X36571428Y-17497619D01*
X36619047Y-17545238D01*
X36666666Y-17569047D01*
X36214285Y-17426190D02*
X35904761Y-17426190D01*
X36071428Y-17616666D01*
X36000000Y-17616666D01*
X35952380Y-17640476D01*
X35928571Y-17664285D01*
X35904761Y-17711904D01*
X35904761Y-17830952D01*
X35928571Y-17878571D01*
X35952380Y-17902380D01*
X36000000Y-17926190D01*
X36142857Y-17926190D01*
X36190476Y-17902380D01*
X36214285Y-17878571D01*
D10*
X20732258Y-36625947D02*
X20328197Y-36221886D01*
X20530228Y-36423916D02*
X19823121Y-37131023D01*
X19856793Y-36962664D01*
X19856793Y-36827977D01*
X19823121Y-36726962D01*
X20462884Y-37770787D02*
X20530228Y-37838130D01*
X20631243Y-37871802D01*
X20698586Y-37871802D01*
X20799602Y-37838130D01*
X20967961Y-37737115D01*
X21136319Y-37568756D01*
X21237335Y-37400397D01*
X21271006Y-37299382D01*
X21271006Y-37232038D01*
X21237335Y-37131023D01*
X21169991Y-37063680D01*
X21068976Y-37030008D01*
X21001632Y-37030008D01*
X20900617Y-37063680D01*
X20732258Y-37164695D01*
X20563899Y-37333054D01*
X20462884Y-37501413D01*
X20429212Y-37602428D01*
X20429212Y-37669771D01*
X20462884Y-37770787D01*
X21708739Y-37602428D02*
X21001632Y-38309535D01*
X21506709Y-37939145D02*
X21978113Y-37871802D01*
X21506709Y-38343206D02*
X21506709Y-37804458D01*
D12*
X22101015Y-35981133D02*
X21814805Y-36031641D01*
X21898984Y-35779103D02*
X21545431Y-36132656D01*
X21680118Y-36267343D01*
X21730625Y-36284179D01*
X21764297Y-36284179D01*
X21814805Y-36267343D01*
X21865312Y-36216835D01*
X21882148Y-36166328D01*
X21882148Y-36132656D01*
X21865312Y-36082148D01*
X21730625Y-35947461D01*
X22067343Y-36654568D02*
X21898984Y-36486209D01*
X22050507Y-36301015D01*
X22050507Y-36334687D01*
X22067343Y-36385194D01*
X22151522Y-36469374D01*
X22202030Y-36486209D01*
X22235702Y-36486209D01*
X22286209Y-36469374D01*
X22370389Y-36385194D01*
X22387225Y-36334687D01*
X22387225Y-36301015D01*
X22370389Y-36250507D01*
X22286209Y-36166328D01*
X22235702Y-36149492D01*
X22202030Y-36149492D01*
D10*
X36078571Y-13461904D02*
X36126190Y-13604761D01*
X36173809Y-13652380D01*
X36269047Y-13700000D01*
X36411904Y-13700000D01*
X36507142Y-13652380D01*
X36554761Y-13604761D01*
X36602380Y-13509523D01*
X36602380Y-13128571D01*
X35602380Y-13128571D01*
X35602380Y-13461904D01*
X35650000Y-13557142D01*
X35697619Y-13604761D01*
X35792857Y-13652380D01*
X35888095Y-13652380D01*
X35983333Y-13604761D01*
X36030952Y-13557142D01*
X36078571Y-13461904D01*
X36078571Y-13128571D01*
X36316666Y-14080952D02*
X36316666Y-14557142D01*
X36602380Y-13985714D02*
X35602380Y-14319047D01*
X36602380Y-14652380D01*
X35602380Y-14842857D02*
X36602380Y-15176190D01*
X35602380Y-15509523D01*
X35602380Y-15747619D02*
X35602380Y-16414285D01*
X36602380Y-15985714D01*
X35602380Y-16985714D02*
X35602380Y-17080952D01*
X35650000Y-17176190D01*
X35697619Y-17223809D01*
X35792857Y-17271428D01*
X35983333Y-17319047D01*
X36221428Y-17319047D01*
X36411904Y-17271428D01*
X36507142Y-17223809D01*
X36554761Y-17176190D01*
X36602380Y-17080952D01*
X36602380Y-16985714D01*
X36554761Y-16890476D01*
X36507142Y-16842857D01*
X36411904Y-16795238D01*
X36221428Y-16747619D01*
X35983333Y-16747619D01*
X35792857Y-16795238D01*
X35697619Y-16842857D01*
X35650000Y-16890476D01*
X35602380Y-16985714D01*
X36697619Y-17509523D02*
X36697619Y-18271428D01*
X36554761Y-18461904D02*
X36602380Y-18604761D01*
X36602380Y-18842857D01*
X36554761Y-18938095D01*
X36507142Y-18985714D01*
X36411904Y-19033333D01*
X36316666Y-19033333D01*
X36221428Y-18985714D01*
X36173809Y-18938095D01*
X36126190Y-18842857D01*
X36078571Y-18652380D01*
X36030952Y-18557142D01*
X35983333Y-18509523D01*
X35888095Y-18461904D01*
X35792857Y-18461904D01*
X35697619Y-18509523D01*
X35650000Y-18557142D01*
X35602380Y-18652380D01*
X35602380Y-18890476D01*
X35650000Y-19033333D01*
X36602380Y-19461904D02*
X35935714Y-19461904D01*
X36030952Y-19461904D02*
X35983333Y-19509523D01*
X35935714Y-19604761D01*
X35935714Y-19747619D01*
X35983333Y-19842857D01*
X36078571Y-19890476D01*
X36602380Y-19890476D01*
X36078571Y-19890476D02*
X35983333Y-19938095D01*
X35935714Y-20033333D01*
X35935714Y-20176190D01*
X35983333Y-20271428D01*
X36078571Y-20319047D01*
X36602380Y-20319047D01*
X36602380Y-21223809D02*
X36078571Y-21223809D01*
X35983333Y-21176190D01*
X35935714Y-21080952D01*
X35935714Y-20890476D01*
X35983333Y-20795238D01*
X36554761Y-21223809D02*
X36602380Y-21128571D01*
X36602380Y-20890476D01*
X36554761Y-20795238D01*
X36459523Y-20747619D01*
X36364285Y-20747619D01*
X36269047Y-20795238D01*
X36221428Y-20890476D01*
X36221428Y-21128571D01*
X36173809Y-21223809D01*
X36602380Y-21842857D02*
X36554761Y-21747619D01*
X36459523Y-21700000D01*
X35602380Y-21700000D01*
X36602380Y-22366666D02*
X36554761Y-22271428D01*
X36459523Y-22223809D01*
X35602380Y-22223809D01*
D11*
X34971428Y-17926190D02*
X34971428Y-17426190D01*
X34852380Y-17426190D01*
X34780952Y-17450000D01*
X34733333Y-17497619D01*
X34709523Y-17545238D01*
X34685714Y-17640476D01*
X34685714Y-17711904D01*
X34709523Y-17807142D01*
X34733333Y-17854761D01*
X34780952Y-17902380D01*
X34852380Y-17926190D01*
X34971428Y-17926190D01*
X34209523Y-17926190D02*
X34495238Y-17926190D01*
X34352380Y-17926190D02*
X34352380Y-17426190D01*
X34400000Y-17497619D01*
X34447619Y-17545238D01*
X34495238Y-17569047D01*
X33900000Y-17426190D02*
X33852380Y-17426190D01*
X33804761Y-17450000D01*
X33780952Y-17473809D01*
X33757142Y-17521428D01*
X33733333Y-17616666D01*
X33733333Y-17735714D01*
X33757142Y-17830952D01*
X33780952Y-17878571D01*
X33804761Y-17902380D01*
X33852380Y-17926190D01*
X33900000Y-17926190D01*
X33947619Y-17902380D01*
X33971428Y-17878571D01*
X33995238Y-17830952D01*
X34019047Y-17735714D01*
X34019047Y-17616666D01*
X33995238Y-17521428D01*
X33971428Y-17473809D01*
X33947619Y-17450000D01*
X33900000Y-17426190D01*
X33423809Y-17426190D02*
X33376190Y-17426190D01*
X33328571Y-17450000D01*
X33304761Y-17473809D01*
X33280952Y-17521428D01*
X33257142Y-17616666D01*
X33257142Y-17735714D01*
X33280952Y-17830952D01*
X33304761Y-17878571D01*
X33328571Y-17902380D01*
X33376190Y-17926190D01*
X33423809Y-17926190D01*
X33471428Y-17902380D01*
X33495238Y-17878571D01*
X33519047Y-17830952D01*
X33542857Y-17735714D01*
X33542857Y-17616666D01*
X33519047Y-17521428D01*
X33495238Y-17473809D01*
X33471428Y-17450000D01*
X33423809Y-17426190D01*
X32780952Y-17926190D02*
X33066666Y-17926190D01*
X32923809Y-17926190D02*
X32923809Y-17426190D01*
X32971428Y-17497619D01*
X33019047Y-17545238D01*
X33066666Y-17569047D01*
X32304761Y-17926190D02*
X32590476Y-17926190D01*
X32447619Y-17926190D02*
X32447619Y-17426190D01*
X32495238Y-17497619D01*
X32542857Y-17545238D01*
X32590476Y-17569047D01*
D10*
X43288095Y-12678571D02*
X43145238Y-12726190D01*
X43097619Y-12773809D01*
X43050000Y-12869047D01*
X43050000Y-13011904D01*
X43097619Y-13107142D01*
X43145238Y-13154761D01*
X43240476Y-13202380D01*
X43621428Y-13202380D01*
X43621428Y-12202380D01*
X43288095Y-12202380D01*
X43192857Y-12250000D01*
X43145238Y-12297619D01*
X43097619Y-12392857D01*
X43097619Y-12488095D01*
X43145238Y-12583333D01*
X43192857Y-12630952D01*
X43288095Y-12678571D01*
X43621428Y-12678571D01*
X42669047Y-12916666D02*
X42192857Y-12916666D01*
X42764285Y-13202380D02*
X42430952Y-12202380D01*
X42097619Y-13202380D01*
X41907142Y-12202380D02*
X41573809Y-13202380D01*
X41240476Y-12202380D01*
X41002380Y-12202380D02*
X40335714Y-12202380D01*
X40764285Y-13202380D01*
X39764285Y-12202380D02*
X39669047Y-12202380D01*
X39573809Y-12250000D01*
X39526190Y-12297619D01*
X39478571Y-12392857D01*
X39430952Y-12583333D01*
X39430952Y-12821428D01*
X39478571Y-13011904D01*
X39526190Y-13107142D01*
X39573809Y-13154761D01*
X39669047Y-13202380D01*
X39764285Y-13202380D01*
X39859523Y-13154761D01*
X39907142Y-13107142D01*
X39954761Y-13011904D01*
X40002380Y-12821428D01*
X40002380Y-12583333D01*
X39954761Y-12392857D01*
X39907142Y-12297619D01*
X39859523Y-12250000D01*
X39764285Y-12202380D01*
X39240476Y-13297619D02*
X38478571Y-13297619D01*
X38288095Y-13154761D02*
X38145238Y-13202380D01*
X37907142Y-13202380D01*
X37811904Y-13154761D01*
X37764285Y-13107142D01*
X37716666Y-13011904D01*
X37716666Y-12916666D01*
X37764285Y-12821428D01*
X37811904Y-12773809D01*
X37907142Y-12726190D01*
X38097619Y-12678571D01*
X38192857Y-12630952D01*
X38240476Y-12583333D01*
X38288095Y-12488095D01*
X38288095Y-12392857D01*
X38240476Y-12297619D01*
X38192857Y-12250000D01*
X38097619Y-12202380D01*
X37859523Y-12202380D01*
X37716666Y-12250000D01*
X37288095Y-13202380D02*
X37288095Y-12535714D01*
X37288095Y-12630952D02*
X37240476Y-12583333D01*
X37145238Y-12535714D01*
X37002380Y-12535714D01*
X36907142Y-12583333D01*
X36859523Y-12678571D01*
X36859523Y-13202380D01*
X36859523Y-12678571D02*
X36811904Y-12583333D01*
X36716666Y-12535714D01*
X36573809Y-12535714D01*
X36478571Y-12583333D01*
X36430952Y-12678571D01*
X36430952Y-13202380D01*
X35526190Y-13202380D02*
X35526190Y-12678571D01*
X35573809Y-12583333D01*
X35669047Y-12535714D01*
X35859523Y-12535714D01*
X35954761Y-12583333D01*
X35526190Y-13154761D02*
X35621428Y-13202380D01*
X35859523Y-13202380D01*
X35954761Y-13154761D01*
X36002380Y-13059523D01*
X36002380Y-12964285D01*
X35954761Y-12869047D01*
X35859523Y-12821428D01*
X35621428Y-12821428D01*
X35526190Y-12773809D01*
X34907142Y-13202380D02*
X35002380Y-13154761D01*
X35050000Y-13059523D01*
X35050000Y-12202380D01*
X34383333Y-13202380D02*
X34478571Y-13154761D01*
X34526190Y-13059523D01*
X34526190Y-12202380D01*
D11*
X39276190Y-9404761D02*
X38776190Y-9404761D01*
X38776190Y-9523809D01*
X38800000Y-9595238D01*
X38847619Y-9642857D01*
X38895238Y-9666666D01*
X38990476Y-9690476D01*
X39061904Y-9690476D01*
X39157142Y-9666666D01*
X39204761Y-9642857D01*
X39252380Y-9595238D01*
X39276190Y-9523809D01*
X39276190Y-9404761D01*
X38942857Y-10119047D02*
X39276190Y-10119047D01*
X38752380Y-10000000D02*
X39109523Y-9880952D01*
X39109523Y-10190476D01*
X38776190Y-10476190D02*
X38776190Y-10523809D01*
X38800000Y-10571428D01*
X38823809Y-10595238D01*
X38871428Y-10619047D01*
X38966666Y-10642857D01*
X39085714Y-10642857D01*
X39180952Y-10619047D01*
X39228571Y-10595238D01*
X39252380Y-10571428D01*
X39276190Y-10523809D01*
X39276190Y-10476190D01*
X39252380Y-10428571D01*
X39228571Y-10404761D01*
X39180952Y-10380952D01*
X39085714Y-10357142D01*
X38966666Y-10357142D01*
X38871428Y-10380952D01*
X38823809Y-10404761D01*
X38800000Y-10428571D01*
X38776190Y-10476190D01*
X38776190Y-11095238D02*
X38776190Y-10857142D01*
X39014285Y-10833333D01*
X38990476Y-10857142D01*
X38966666Y-10904761D01*
X38966666Y-11023809D01*
X38990476Y-11071428D01*
X39014285Y-11095238D01*
X39061904Y-11119047D01*
X39180952Y-11119047D01*
X39228571Y-11095238D01*
X39252380Y-11071428D01*
X39276190Y-11023809D01*
X39276190Y-10904761D01*
X39252380Y-10857142D01*
X39228571Y-10833333D01*
D10*
X41638095Y-55628571D02*
X41495238Y-55676190D01*
X41447619Y-55723809D01*
X41400000Y-55819047D01*
X41400000Y-55961904D01*
X41447619Y-56057142D01*
X41495238Y-56104761D01*
X41590476Y-56152380D01*
X41971428Y-56152380D01*
X41971428Y-55152380D01*
X41638095Y-55152380D01*
X41542857Y-55200000D01*
X41495238Y-55247619D01*
X41447619Y-55342857D01*
X41447619Y-55438095D01*
X41495238Y-55533333D01*
X41542857Y-55580952D01*
X41638095Y-55628571D01*
X41971428Y-55628571D01*
X41019047Y-55866666D02*
X40542857Y-55866666D01*
X41114285Y-56152380D02*
X40780952Y-55152380D01*
X40447619Y-56152380D01*
X40257142Y-55152380D02*
X39923809Y-56152380D01*
X39590476Y-55152380D01*
X39352380Y-55152380D02*
X38685714Y-55152380D01*
X39114285Y-56152380D01*
X38114285Y-55152380D02*
X38019047Y-55152380D01*
X37923809Y-55200000D01*
X37876190Y-55247619D01*
X37828571Y-55342857D01*
X37780952Y-55533333D01*
X37780952Y-55771428D01*
X37828571Y-55961904D01*
X37876190Y-56057142D01*
X37923809Y-56104761D01*
X38019047Y-56152380D01*
X38114285Y-56152380D01*
X38209523Y-56104761D01*
X38257142Y-56057142D01*
X38304761Y-55961904D01*
X38352380Y-55771428D01*
X38352380Y-55533333D01*
X38304761Y-55342857D01*
X38257142Y-55247619D01*
X38209523Y-55200000D01*
X38114285Y-55152380D01*
X37590476Y-56247619D02*
X36828571Y-56247619D01*
X36638095Y-56104761D02*
X36495238Y-56152380D01*
X36257142Y-56152380D01*
X36161904Y-56104761D01*
X36114285Y-56057142D01*
X36066666Y-55961904D01*
X36066666Y-55866666D01*
X36114285Y-55771428D01*
X36161904Y-55723809D01*
X36257142Y-55676190D01*
X36447619Y-55628571D01*
X36542857Y-55580952D01*
X36590476Y-55533333D01*
X36638095Y-55438095D01*
X36638095Y-55342857D01*
X36590476Y-55247619D01*
X36542857Y-55200000D01*
X36447619Y-55152380D01*
X36209523Y-55152380D01*
X36066666Y-55200000D01*
X35638095Y-56152380D02*
X35638095Y-55485714D01*
X35638095Y-55580952D02*
X35590476Y-55533333D01*
X35495238Y-55485714D01*
X35352380Y-55485714D01*
X35257142Y-55533333D01*
X35209523Y-55628571D01*
X35209523Y-56152380D01*
X35209523Y-55628571D02*
X35161904Y-55533333D01*
X35066666Y-55485714D01*
X34923809Y-55485714D01*
X34828571Y-55533333D01*
X34780952Y-55628571D01*
X34780952Y-56152380D01*
X33876190Y-56152380D02*
X33876190Y-55628571D01*
X33923809Y-55533333D01*
X34019047Y-55485714D01*
X34209523Y-55485714D01*
X34304761Y-55533333D01*
X33876190Y-56104761D02*
X33971428Y-56152380D01*
X34209523Y-56152380D01*
X34304761Y-56104761D01*
X34352380Y-56009523D01*
X34352380Y-55914285D01*
X34304761Y-55819047D01*
X34209523Y-55771428D01*
X33971428Y-55771428D01*
X33876190Y-55723809D01*
X33257142Y-56152380D02*
X33352380Y-56104761D01*
X33400000Y-56009523D01*
X33400000Y-55152380D01*
X32733333Y-56152380D02*
X32828571Y-56104761D01*
X32876190Y-56009523D01*
X32876190Y-55152380D01*
D11*
X37626190Y-52116666D02*
X37126190Y-52116666D01*
X37126190Y-52235714D01*
X37150000Y-52307142D01*
X37197619Y-52354761D01*
X37245238Y-52378571D01*
X37340476Y-52402380D01*
X37411904Y-52402380D01*
X37507142Y-52378571D01*
X37554761Y-52354761D01*
X37602380Y-52307142D01*
X37626190Y-52235714D01*
X37626190Y-52116666D01*
X37126190Y-52569047D02*
X37126190Y-52878571D01*
X37316666Y-52711904D01*
X37316666Y-52783333D01*
X37340476Y-52830952D01*
X37364285Y-52854761D01*
X37411904Y-52878571D01*
X37530952Y-52878571D01*
X37578571Y-52854761D01*
X37602380Y-52830952D01*
X37626190Y-52783333D01*
X37626190Y-52640476D01*
X37602380Y-52592857D01*
X37578571Y-52569047D01*
X37292857Y-53307142D02*
X37626190Y-53307142D01*
X37102380Y-53188095D02*
X37459523Y-53069047D01*
X37459523Y-53378571D01*
X37126190Y-53521428D02*
X37126190Y-53830952D01*
X37316666Y-53664285D01*
X37316666Y-53735714D01*
X37340476Y-53783333D01*
X37364285Y-53807142D01*
X37411904Y-53830952D01*
X37530952Y-53830952D01*
X37578571Y-53807142D01*
X37602380Y-53783333D01*
X37626190Y-53735714D01*
X37626190Y-53592857D01*
X37602380Y-53545238D01*
X37578571Y-53521428D01*
X37126190Y-54283333D02*
X37126190Y-54045238D01*
X37364285Y-54021428D01*
X37340476Y-54045238D01*
X37316666Y-54092857D01*
X37316666Y-54211904D01*
X37340476Y-54259523D01*
X37364285Y-54283333D01*
X37411904Y-54307142D01*
X37530952Y-54307142D01*
X37578571Y-54283333D01*
X37602380Y-54259523D01*
X37626190Y-54211904D01*
X37626190Y-54092857D01*
X37602380Y-54045238D01*
X37578571Y-54021428D01*
D10*
X49478571Y-35061904D02*
X49526190Y-35204761D01*
X49573809Y-35252380D01*
X49669047Y-35300000D01*
X49811904Y-35300000D01*
X49907142Y-35252380D01*
X49954761Y-35204761D01*
X50002380Y-35109523D01*
X50002380Y-34728571D01*
X49002380Y-34728571D01*
X49002380Y-35061904D01*
X49050000Y-35157142D01*
X49097619Y-35204761D01*
X49192857Y-35252380D01*
X49288095Y-35252380D01*
X49383333Y-35204761D01*
X49430952Y-35157142D01*
X49478571Y-35061904D01*
X49478571Y-34728571D01*
X49716666Y-35680952D02*
X49716666Y-36157142D01*
X50002380Y-35585714D02*
X49002380Y-35919047D01*
X50002380Y-36252380D01*
X49002380Y-36442857D02*
X50002380Y-36776190D01*
X49002380Y-37109523D01*
X49002380Y-37347619D02*
X49002380Y-38014285D01*
X50002380Y-37585714D01*
X49002380Y-38585714D02*
X49002380Y-38680952D01*
X49050000Y-38776190D01*
X49097619Y-38823809D01*
X49192857Y-38871428D01*
X49383333Y-38919047D01*
X49621428Y-38919047D01*
X49811904Y-38871428D01*
X49907142Y-38823809D01*
X49954761Y-38776190D01*
X50002380Y-38680952D01*
X50002380Y-38585714D01*
X49954761Y-38490476D01*
X49907142Y-38442857D01*
X49811904Y-38395238D01*
X49621428Y-38347619D01*
X49383333Y-38347619D01*
X49192857Y-38395238D01*
X49097619Y-38442857D01*
X49050000Y-38490476D01*
X49002380Y-38585714D01*
X50097619Y-39109523D02*
X50097619Y-39871428D01*
X49954761Y-40061904D02*
X50002380Y-40204761D01*
X50002380Y-40442857D01*
X49954761Y-40538095D01*
X49907142Y-40585714D01*
X49811904Y-40633333D01*
X49716666Y-40633333D01*
X49621428Y-40585714D01*
X49573809Y-40538095D01*
X49526190Y-40442857D01*
X49478571Y-40252380D01*
X49430952Y-40157142D01*
X49383333Y-40109523D01*
X49288095Y-40061904D01*
X49192857Y-40061904D01*
X49097619Y-40109523D01*
X49050000Y-40157142D01*
X49002380Y-40252380D01*
X49002380Y-40490476D01*
X49050000Y-40633333D01*
X50002380Y-41061904D02*
X49335714Y-41061904D01*
X49430952Y-41061904D02*
X49383333Y-41109523D01*
X49335714Y-41204761D01*
X49335714Y-41347619D01*
X49383333Y-41442857D01*
X49478571Y-41490476D01*
X50002380Y-41490476D01*
X49478571Y-41490476D02*
X49383333Y-41538095D01*
X49335714Y-41633333D01*
X49335714Y-41776190D01*
X49383333Y-41871428D01*
X49478571Y-41919047D01*
X50002380Y-41919047D01*
X50002380Y-42823809D02*
X49478571Y-42823809D01*
X49383333Y-42776190D01*
X49335714Y-42680952D01*
X49335714Y-42490476D01*
X49383333Y-42395238D01*
X49954761Y-42823809D02*
X50002380Y-42728571D01*
X50002380Y-42490476D01*
X49954761Y-42395238D01*
X49859523Y-42347619D01*
X49764285Y-42347619D01*
X49669047Y-42395238D01*
X49621428Y-42490476D01*
X49621428Y-42728571D01*
X49573809Y-42823809D01*
X50002380Y-43442857D02*
X49954761Y-43347619D01*
X49859523Y-43300000D01*
X49002380Y-43300000D01*
X50002380Y-43966666D02*
X49954761Y-43871428D01*
X49859523Y-43823809D01*
X49002380Y-43823809D01*
D11*
X48133333Y-39526190D02*
X48133333Y-39026190D01*
X48014285Y-39026190D01*
X47942857Y-39050000D01*
X47895238Y-39097619D01*
X47871428Y-39145238D01*
X47847619Y-39240476D01*
X47847619Y-39311904D01*
X47871428Y-39407142D01*
X47895238Y-39454761D01*
X47942857Y-39502380D01*
X48014285Y-39526190D01*
X48133333Y-39526190D01*
X47657142Y-39073809D02*
X47633333Y-39050000D01*
X47585714Y-39026190D01*
X47466666Y-39026190D01*
X47419047Y-39050000D01*
X47395238Y-39073809D01*
X47371428Y-39121428D01*
X47371428Y-39169047D01*
X47395238Y-39240476D01*
X47680952Y-39526190D01*
X47371428Y-39526190D01*
X46942857Y-39192857D02*
X46942857Y-39526190D01*
X47061904Y-39002380D02*
X47180952Y-39359523D01*
X46871428Y-39359523D01*
X46704761Y-39073809D02*
X46680952Y-39050000D01*
X46633333Y-39026190D01*
X46514285Y-39026190D01*
X46466666Y-39050000D01*
X46442857Y-39073809D01*
X46419047Y-39121428D01*
X46419047Y-39169047D01*
X46442857Y-39240476D01*
X46728571Y-39526190D01*
X46419047Y-39526190D01*
X45966666Y-39026190D02*
X46204761Y-39026190D01*
X46228571Y-39264285D01*
X46204761Y-39240476D01*
X46157142Y-39216666D01*
X46038095Y-39216666D01*
X45990476Y-39240476D01*
X45966666Y-39264285D01*
X45942857Y-39311904D01*
X45942857Y-39430952D01*
X45966666Y-39478571D01*
X45990476Y-39502380D01*
X46038095Y-39526190D01*
X46157142Y-39526190D01*
X46204761Y-39502380D01*
X46228571Y-39478571D01*
D10*
X56578571Y-39061904D02*
X56626190Y-39204761D01*
X56673809Y-39252380D01*
X56769047Y-39300000D01*
X56911904Y-39300000D01*
X57007142Y-39252380D01*
X57054761Y-39204761D01*
X57102380Y-39109523D01*
X57102380Y-38728571D01*
X56102380Y-38728571D01*
X56102380Y-39061904D01*
X56150000Y-39157142D01*
X56197619Y-39204761D01*
X56292857Y-39252380D01*
X56388095Y-39252380D01*
X56483333Y-39204761D01*
X56530952Y-39157142D01*
X56578571Y-39061904D01*
X56578571Y-38728571D01*
X56816666Y-39680952D02*
X56816666Y-40157142D01*
X57102380Y-39585714D02*
X56102380Y-39919047D01*
X57102380Y-40252380D01*
X56102380Y-40442857D02*
X57102380Y-40776190D01*
X56102380Y-41109523D01*
X56102380Y-41347619D02*
X56102380Y-42014285D01*
X57102380Y-41585714D01*
X56102380Y-42585714D02*
X56102380Y-42680952D01*
X56150000Y-42776190D01*
X56197619Y-42823809D01*
X56292857Y-42871428D01*
X56483333Y-42919047D01*
X56721428Y-42919047D01*
X56911904Y-42871428D01*
X57007142Y-42823809D01*
X57054761Y-42776190D01*
X57102380Y-42680952D01*
X57102380Y-42585714D01*
X57054761Y-42490476D01*
X57007142Y-42442857D01*
X56911904Y-42395238D01*
X56721428Y-42347619D01*
X56483333Y-42347619D01*
X56292857Y-42395238D01*
X56197619Y-42442857D01*
X56150000Y-42490476D01*
X56102380Y-42585714D01*
X57197619Y-43109523D02*
X57197619Y-43871428D01*
X57054761Y-44061904D02*
X57102380Y-44204761D01*
X57102380Y-44442857D01*
X57054761Y-44538095D01*
X57007142Y-44585714D01*
X56911904Y-44633333D01*
X56816666Y-44633333D01*
X56721428Y-44585714D01*
X56673809Y-44538095D01*
X56626190Y-44442857D01*
X56578571Y-44252380D01*
X56530952Y-44157142D01*
X56483333Y-44109523D01*
X56388095Y-44061904D01*
X56292857Y-44061904D01*
X56197619Y-44109523D01*
X56150000Y-44157142D01*
X56102380Y-44252380D01*
X56102380Y-44490476D01*
X56150000Y-44633333D01*
X57102380Y-45061904D02*
X56435714Y-45061904D01*
X56530952Y-45061904D02*
X56483333Y-45109523D01*
X56435714Y-45204761D01*
X56435714Y-45347619D01*
X56483333Y-45442857D01*
X56578571Y-45490476D01*
X57102380Y-45490476D01*
X56578571Y-45490476D02*
X56483333Y-45538095D01*
X56435714Y-45633333D01*
X56435714Y-45776190D01*
X56483333Y-45871428D01*
X56578571Y-45919047D01*
X57102380Y-45919047D01*
X57102380Y-46823809D02*
X56578571Y-46823809D01*
X56483333Y-46776190D01*
X56435714Y-46680952D01*
X56435714Y-46490476D01*
X56483333Y-46395238D01*
X57054761Y-46823809D02*
X57102380Y-46728571D01*
X57102380Y-46490476D01*
X57054761Y-46395238D01*
X56959523Y-46347619D01*
X56864285Y-46347619D01*
X56769047Y-46395238D01*
X56721428Y-46490476D01*
X56721428Y-46728571D01*
X56673809Y-46823809D01*
X57102380Y-47442857D02*
X57054761Y-47347619D01*
X56959523Y-47300000D01*
X56102380Y-47300000D01*
X57102380Y-47966666D02*
X57054761Y-47871428D01*
X56959523Y-47823809D01*
X56102380Y-47823809D01*
D11*
X55233333Y-43526190D02*
X55233333Y-43026190D01*
X55114285Y-43026190D01*
X55042857Y-43050000D01*
X54995238Y-43097619D01*
X54971428Y-43145238D01*
X54947619Y-43240476D01*
X54947619Y-43311904D01*
X54971428Y-43407142D01*
X54995238Y-43454761D01*
X55042857Y-43502380D01*
X55114285Y-43526190D01*
X55233333Y-43526190D01*
X54757142Y-43073809D02*
X54733333Y-43050000D01*
X54685714Y-43026190D01*
X54566666Y-43026190D01*
X54519047Y-43050000D01*
X54495238Y-43073809D01*
X54471428Y-43121428D01*
X54471428Y-43169047D01*
X54495238Y-43240476D01*
X54780952Y-43526190D01*
X54471428Y-43526190D01*
X54161904Y-43026190D02*
X54114285Y-43026190D01*
X54066666Y-43050000D01*
X54042857Y-43073809D01*
X54019047Y-43121428D01*
X53995238Y-43216666D01*
X53995238Y-43335714D01*
X54019047Y-43430952D01*
X54042857Y-43478571D01*
X54066666Y-43502380D01*
X54114285Y-43526190D01*
X54161904Y-43526190D01*
X54209523Y-43502380D01*
X54233333Y-43478571D01*
X54257142Y-43430952D01*
X54280952Y-43335714D01*
X54280952Y-43216666D01*
X54257142Y-43121428D01*
X54233333Y-43073809D01*
X54209523Y-43050000D01*
X54161904Y-43026190D01*
X53804761Y-43073809D02*
X53780952Y-43050000D01*
X53733333Y-43026190D01*
X53614285Y-43026190D01*
X53566666Y-43050000D01*
X53542857Y-43073809D01*
X53519047Y-43121428D01*
X53519047Y-43169047D01*
X53542857Y-43240476D01*
X53828571Y-43526190D01*
X53519047Y-43526190D01*
X53042857Y-43526190D02*
X53328571Y-43526190D01*
X53185714Y-43526190D02*
X53185714Y-43026190D01*
X53233333Y-43097619D01*
X53280952Y-43145238D01*
X53328571Y-43169047D01*
D10*
X14780952Y-14152380D02*
X15257142Y-14152380D01*
X15304761Y-14628571D01*
X15257142Y-14580952D01*
X15161904Y-14533333D01*
X14923809Y-14533333D01*
X14828571Y-14580952D01*
X14780952Y-14628571D01*
X14733333Y-14723809D01*
X14733333Y-14961904D01*
X14780952Y-15057142D01*
X14828571Y-15104761D01*
X14923809Y-15152380D01*
X15161904Y-15152380D01*
X15257142Y-15104761D01*
X15304761Y-15057142D01*
X14304761Y-15057142D02*
X14257142Y-15104761D01*
X14304761Y-15152380D01*
X14352380Y-15104761D01*
X14304761Y-15057142D01*
X14304761Y-15152380D01*
X13304761Y-15152380D02*
X13876190Y-15152380D01*
X13590476Y-15152380D02*
X13590476Y-14152380D01*
X13685714Y-14295238D01*
X13780952Y-14390476D01*
X13876190Y-14438095D01*
X12876190Y-15152380D02*
X12876190Y-14152380D01*
X12780952Y-14771428D02*
X12495238Y-15152380D01*
X12495238Y-14485714D02*
X12876190Y-14866666D01*
D12*
X13983333Y-13276190D02*
X14150000Y-13038095D01*
X14269047Y-13276190D02*
X14269047Y-12776190D01*
X14078571Y-12776190D01*
X14030952Y-12800000D01*
X14007142Y-12823809D01*
X13983333Y-12871428D01*
X13983333Y-12942857D01*
X14007142Y-12990476D01*
X14030952Y-13014285D01*
X14078571Y-13038095D01*
X14269047Y-13038095D01*
X13816666Y-12776190D02*
X13507142Y-12776190D01*
X13673809Y-12966666D01*
X13602380Y-12966666D01*
X13554761Y-12990476D01*
X13530952Y-13014285D01*
X13507142Y-13061904D01*
X13507142Y-13180952D01*
X13530952Y-13228571D01*
X13554761Y-13252380D01*
X13602380Y-13276190D01*
X13745238Y-13276190D01*
X13792857Y-13252380D01*
X13816666Y-13228571D01*
D10*
X20197619Y-19588095D02*
X20150000Y-19635714D01*
X20102380Y-19730952D01*
X20102380Y-19969047D01*
X20150000Y-20064285D01*
X20197619Y-20111904D01*
X20292857Y-20159523D01*
X20388095Y-20159523D01*
X20530952Y-20111904D01*
X21102380Y-19540476D01*
X21102380Y-20159523D01*
X20197619Y-20540476D02*
X20150000Y-20588095D01*
X20102380Y-20683333D01*
X20102380Y-20921428D01*
X20150000Y-21016666D01*
X20197619Y-21064285D01*
X20292857Y-21111904D01*
X20388095Y-21111904D01*
X20530952Y-21064285D01*
X21102380Y-20492857D01*
X21102380Y-21111904D01*
D12*
X19226190Y-20266666D02*
X18988095Y-20100000D01*
X19226190Y-19980952D02*
X18726190Y-19980952D01*
X18726190Y-20171428D01*
X18750000Y-20219047D01*
X18773809Y-20242857D01*
X18821428Y-20266666D01*
X18892857Y-20266666D01*
X18940476Y-20242857D01*
X18964285Y-20219047D01*
X18988095Y-20171428D01*
X18988095Y-19980952D01*
X19226190Y-20742857D02*
X19226190Y-20457142D01*
X19226190Y-20600000D02*
X18726190Y-20600000D01*
X18797619Y-20552380D01*
X18845238Y-20504761D01*
X18869047Y-20457142D01*
D10*
X43288095Y-8678571D02*
X43145238Y-8726190D01*
X43097619Y-8773809D01*
X43050000Y-8869047D01*
X43050000Y-9011904D01*
X43097619Y-9107142D01*
X43145238Y-9154761D01*
X43240476Y-9202380D01*
X43621428Y-9202380D01*
X43621428Y-8202380D01*
X43288095Y-8202380D01*
X43192857Y-8250000D01*
X43145238Y-8297619D01*
X43097619Y-8392857D01*
X43097619Y-8488095D01*
X43145238Y-8583333D01*
X43192857Y-8630952D01*
X43288095Y-8678571D01*
X43621428Y-8678571D01*
X42669047Y-8916666D02*
X42192857Y-8916666D01*
X42764285Y-9202380D02*
X42430952Y-8202380D01*
X42097619Y-9202380D01*
X41907142Y-8202380D02*
X41573809Y-9202380D01*
X41240476Y-8202380D01*
X41002380Y-8202380D02*
X40335714Y-8202380D01*
X40764285Y-9202380D01*
X39764285Y-8202380D02*
X39669047Y-8202380D01*
X39573809Y-8250000D01*
X39526190Y-8297619D01*
X39478571Y-8392857D01*
X39430952Y-8583333D01*
X39430952Y-8821428D01*
X39478571Y-9011904D01*
X39526190Y-9107142D01*
X39573809Y-9154761D01*
X39669047Y-9202380D01*
X39764285Y-9202380D01*
X39859523Y-9154761D01*
X39907142Y-9107142D01*
X39954761Y-9011904D01*
X40002380Y-8821428D01*
X40002380Y-8583333D01*
X39954761Y-8392857D01*
X39907142Y-8297619D01*
X39859523Y-8250000D01*
X39764285Y-8202380D01*
X39240476Y-9297619D02*
X38478571Y-9297619D01*
X38288095Y-9154761D02*
X38145238Y-9202380D01*
X37907142Y-9202380D01*
X37811904Y-9154761D01*
X37764285Y-9107142D01*
X37716666Y-9011904D01*
X37716666Y-8916666D01*
X37764285Y-8821428D01*
X37811904Y-8773809D01*
X37907142Y-8726190D01*
X38097619Y-8678571D01*
X38192857Y-8630952D01*
X38240476Y-8583333D01*
X38288095Y-8488095D01*
X38288095Y-8392857D01*
X38240476Y-8297619D01*
X38192857Y-8250000D01*
X38097619Y-8202380D01*
X37859523Y-8202380D01*
X37716666Y-8250000D01*
X37288095Y-9202380D02*
X37288095Y-8535714D01*
X37288095Y-8630952D02*
X37240476Y-8583333D01*
X37145238Y-8535714D01*
X37002380Y-8535714D01*
X36907142Y-8583333D01*
X36859523Y-8678571D01*
X36859523Y-9202380D01*
X36859523Y-8678571D02*
X36811904Y-8583333D01*
X36716666Y-8535714D01*
X36573809Y-8535714D01*
X36478571Y-8583333D01*
X36430952Y-8678571D01*
X36430952Y-9202380D01*
X35526190Y-9202380D02*
X35526190Y-8678571D01*
X35573809Y-8583333D01*
X35669047Y-8535714D01*
X35859523Y-8535714D01*
X35954761Y-8583333D01*
X35526190Y-9154761D02*
X35621428Y-9202380D01*
X35859523Y-9202380D01*
X35954761Y-9154761D01*
X36002380Y-9059523D01*
X36002380Y-8964285D01*
X35954761Y-8869047D01*
X35859523Y-8821428D01*
X35621428Y-8821428D01*
X35526190Y-8773809D01*
X34907142Y-9202380D02*
X35002380Y-9154761D01*
X35050000Y-9059523D01*
X35050000Y-8202380D01*
X34383333Y-9202380D02*
X34478571Y-9154761D01*
X34526190Y-9059523D01*
X34526190Y-8202380D01*
D11*
X39276190Y-5404761D02*
X38776190Y-5404761D01*
X38776190Y-5523809D01*
X38800000Y-5595238D01*
X38847619Y-5642857D01*
X38895238Y-5666666D01*
X38990476Y-5690476D01*
X39061904Y-5690476D01*
X39157142Y-5666666D01*
X39204761Y-5642857D01*
X39252380Y-5595238D01*
X39276190Y-5523809D01*
X39276190Y-5404761D01*
X38776190Y-6119047D02*
X38776190Y-6023809D01*
X38800000Y-5976190D01*
X38823809Y-5952380D01*
X38895238Y-5904761D01*
X38990476Y-5880952D01*
X39180952Y-5880952D01*
X39228571Y-5904761D01*
X39252380Y-5928571D01*
X39276190Y-5976190D01*
X39276190Y-6071428D01*
X39252380Y-6119047D01*
X39228571Y-6142857D01*
X39180952Y-6166666D01*
X39061904Y-6166666D01*
X39014285Y-6142857D01*
X38990476Y-6119047D01*
X38966666Y-6071428D01*
X38966666Y-5976190D01*
X38990476Y-5928571D01*
X39014285Y-5904761D01*
X39061904Y-5880952D01*
X38776190Y-6476190D02*
X38776190Y-6523809D01*
X38800000Y-6571428D01*
X38823809Y-6595238D01*
X38871428Y-6619047D01*
X38966666Y-6642857D01*
X39085714Y-6642857D01*
X39180952Y-6619047D01*
X39228571Y-6595238D01*
X39252380Y-6571428D01*
X39276190Y-6523809D01*
X39276190Y-6476190D01*
X39252380Y-6428571D01*
X39228571Y-6404761D01*
X39180952Y-6380952D01*
X39085714Y-6357142D01*
X38966666Y-6357142D01*
X38871428Y-6380952D01*
X38823809Y-6404761D01*
X38800000Y-6428571D01*
X38776190Y-6476190D01*
X38776190Y-6809523D02*
X38776190Y-7142857D01*
X39276190Y-6928571D01*
D10*
X19362061Y-38198175D02*
X18957999Y-37794114D01*
X19160030Y-37996145D02*
X18452923Y-38703251D01*
X18486595Y-38534893D01*
X18486595Y-38400206D01*
X18452923Y-38299190D01*
X19496748Y-39275671D02*
X19968152Y-38804267D01*
X19193702Y-38972626D02*
X19564091Y-38602236D01*
X19665106Y-38568564D01*
X19766122Y-38602236D01*
X19867137Y-38703251D01*
X19900809Y-38804267D01*
X19900809Y-38871610D01*
X19732450Y-39511374D02*
X20001824Y-39780748D01*
X20304870Y-39140984D02*
X19698778Y-39747076D01*
X19665106Y-39848091D01*
X19698778Y-39949106D01*
X19766122Y-40016450D01*
D12*
X20617343Y-37464805D02*
X20617343Y-37431133D01*
X20583671Y-37363790D01*
X20550000Y-37330118D01*
X20482656Y-37296446D01*
X20415312Y-37296446D01*
X20364805Y-37313282D01*
X20280625Y-37363790D01*
X20230118Y-37414297D01*
X20179610Y-37498477D01*
X20162774Y-37548984D01*
X20162774Y-37616328D01*
X20196446Y-37683671D01*
X20230118Y-37717343D01*
X20297461Y-37751015D01*
X20331133Y-37751015D01*
X20465820Y-37885702D02*
X20465820Y-37919374D01*
X20482656Y-37969881D01*
X20566835Y-38054061D01*
X20617343Y-38070896D01*
X20651015Y-38070896D01*
X20701522Y-38054061D01*
X20735194Y-38020389D01*
X20768866Y-37953045D01*
X20768866Y-37548984D01*
X20987732Y-37767851D01*
D10*
X36944113Y-40903830D02*
X36607396Y-41240547D01*
X37213487Y-41038517D02*
X36270678Y-40567112D01*
X36742083Y-41509921D01*
X35900289Y-40937502D02*
X35496228Y-41341563D01*
X36405365Y-41846639D02*
X35698259Y-41139532D01*
X35967633Y-42284372D02*
X35496228Y-41812967D01*
X35563571Y-41880311D02*
X35496228Y-41880311D01*
X35395213Y-41913982D01*
X35294197Y-42014998D01*
X35260526Y-42116013D01*
X35294197Y-42217028D01*
X35664587Y-42587418D01*
X35294197Y-42217028D02*
X35193182Y-42183357D01*
X35092167Y-42217028D01*
X34991152Y-42318044D01*
X34957480Y-42419059D01*
X34991152Y-42520074D01*
X35361541Y-42890463D01*
X34721778Y-43462883D02*
X34822793Y-43429211D01*
X34957480Y-43294524D01*
X34991152Y-43193509D01*
X34957480Y-43092494D01*
X34688106Y-42823120D01*
X34587091Y-42789448D01*
X34486075Y-42823120D01*
X34351388Y-42957807D01*
X34317717Y-43058822D01*
X34351388Y-43159837D01*
X34418732Y-43227181D01*
X34822793Y-42957807D01*
X33644282Y-43664914D02*
X34216701Y-44237333D01*
X34317717Y-44271005D01*
X34385060Y-44271005D01*
X34486075Y-44237333D01*
X34587091Y-44136318D01*
X34620762Y-44035303D01*
X34082014Y-44102646D02*
X34183030Y-44068975D01*
X34317717Y-43934288D01*
X34351388Y-43833272D01*
X34351388Y-43765929D01*
X34317717Y-43664914D01*
X34115686Y-43462883D01*
X34014671Y-43429211D01*
X33947327Y-43429211D01*
X33846312Y-43462883D01*
X33711625Y-43597570D01*
X33677953Y-43698585D01*
X33475923Y-44776081D02*
X33105534Y-44405692D01*
X33071862Y-44304677D01*
X33105534Y-44203662D01*
X33240221Y-44068975D01*
X33341236Y-44035303D01*
X33442251Y-44742410D02*
X33543266Y-44708738D01*
X33711625Y-44540379D01*
X33745297Y-44439364D01*
X33711625Y-44338349D01*
X33644282Y-44271005D01*
X33543266Y-44237333D01*
X33442251Y-44271005D01*
X33273892Y-44439364D01*
X33172877Y-44473036D01*
X32499442Y-44338349D02*
X32061709Y-44776081D01*
X32566786Y-44809753D01*
X32465770Y-44910768D01*
X32432099Y-45011784D01*
X32432099Y-45079127D01*
X32465770Y-45180142D01*
X32634129Y-45348501D01*
X32735144Y-45382173D01*
X32802488Y-45382173D01*
X32903503Y-45348501D01*
X33105534Y-45146471D01*
X33139205Y-45045455D01*
X33139205Y-44978112D01*
X31859679Y-45112799D02*
X31792335Y-45112799D01*
X31691320Y-45146471D01*
X31522961Y-45314829D01*
X31489290Y-45415845D01*
X31489290Y-45483188D01*
X31522961Y-45584203D01*
X31590305Y-45651547D01*
X31724992Y-45718890D01*
X32533114Y-45718890D01*
X32095381Y-46156623D01*
X31085229Y-45752562D02*
X31657648Y-46324982D01*
X31691320Y-46425997D01*
X31691320Y-46493341D01*
X31657648Y-46594356D01*
X31522961Y-46729043D01*
X31421946Y-46762715D01*
X31354603Y-46762715D01*
X31253587Y-46729043D01*
X30681168Y-46156623D01*
X30445465Y-46527012D02*
X30378122Y-46527012D01*
X30277107Y-46560684D01*
X30108748Y-46729043D01*
X30075076Y-46830058D01*
X30075076Y-46897402D01*
X30108748Y-46998417D01*
X30176091Y-47065760D01*
X30310778Y-47133104D01*
X31118900Y-47133104D01*
X30681168Y-47570837D01*
X30108748Y-47604509D02*
X29570000Y-48143257D01*
X29334297Y-48513646D02*
X28997580Y-48850363D01*
X29603671Y-48648333D02*
X28660862Y-48176928D01*
X29132267Y-49119737D01*
X28726522Y-39555276D02*
X29298942Y-40127696D01*
X29332614Y-40228711D01*
X29332614Y-40296055D01*
X29298942Y-40397070D01*
X29164255Y-40531757D01*
X29063240Y-40565429D01*
X28995896Y-40565429D01*
X28894881Y-40531757D01*
X28322461Y-39959337D01*
X27851057Y-40430742D02*
X27783713Y-40498085D01*
X27750042Y-40599101D01*
X27750042Y-40666444D01*
X27783713Y-40767459D01*
X27884729Y-40935818D01*
X28053087Y-41104177D01*
X28221446Y-41205192D01*
X28322461Y-41238864D01*
X28389805Y-41238864D01*
X28490820Y-41205192D01*
X28558164Y-41137849D01*
X28591835Y-41036833D01*
X28591835Y-40969490D01*
X28558164Y-40868475D01*
X28457148Y-40700116D01*
X28288790Y-40531757D01*
X28120431Y-40430742D01*
X28019416Y-40397070D01*
X27952072Y-40397070D01*
X27851057Y-40430742D01*
X30684187Y-27714287D02*
X30684187Y-27646943D01*
X30616843Y-27512256D01*
X30549500Y-27444913D01*
X30414813Y-27377569D01*
X30280126Y-27377569D01*
X30179111Y-27411241D01*
X30010752Y-27512256D01*
X29909737Y-27613271D01*
X29808721Y-27781630D01*
X29775050Y-27882645D01*
X29775050Y-28017332D01*
X29842393Y-28152019D01*
X29909737Y-28219363D01*
X30044424Y-28286706D01*
X30111767Y-28286706D01*
X31054576Y-27949989D02*
X30583172Y-28421393D01*
X30717859Y-28286706D02*
X30684187Y-28387722D01*
X30684187Y-28455065D01*
X30717859Y-28556080D01*
X30785202Y-28623424D01*
X30953561Y-28791783D02*
X31593324Y-28488737D01*
X31290278Y-29128500D02*
X31593324Y-28488737D01*
X31694339Y-28253035D01*
X31694339Y-28185691D01*
X31660668Y-28084676D01*
X31963713Y-28926470D02*
X32064729Y-28960141D01*
X32199416Y-29094828D01*
X32233087Y-29195844D01*
X32199416Y-29296859D01*
X32165744Y-29330531D01*
X32064729Y-29364202D01*
X31963713Y-29330531D01*
X31862698Y-29229515D01*
X31761683Y-29195844D01*
X31660668Y-29229515D01*
X31626996Y-29263187D01*
X31593324Y-29364202D01*
X31626996Y-29465218D01*
X31728011Y-29566233D01*
X31829026Y-29599905D01*
X32031057Y-29869279D02*
X32300431Y-30138653D01*
X31896370Y-30205996D02*
X32502461Y-29599905D01*
X32603477Y-29566233D01*
X32704492Y-29599905D01*
X32771836Y-29667248D01*
X33310584Y-30205996D02*
X32940194Y-30576386D01*
X32839179Y-30610057D01*
X32738164Y-30576386D01*
X32603477Y-30441699D01*
X32569805Y-30340683D01*
X33276912Y-30239668D02*
X33243240Y-30138653D01*
X33074881Y-29970294D01*
X32973866Y-29936622D01*
X32872851Y-29970294D01*
X32805507Y-30037637D01*
X32771836Y-30138653D01*
X32805507Y-30239668D01*
X32973866Y-30408027D01*
X33007538Y-30509042D01*
X33748316Y-30643729D02*
X33647301Y-30610057D01*
X33546286Y-30643729D01*
X32940194Y-31249821D01*
X33916675Y-30677401D02*
X34455423Y-31216149D01*
X34253393Y-32495675D02*
X34152377Y-32462004D01*
X34051362Y-32360988D01*
X33984019Y-32226301D01*
X33984019Y-32091614D01*
X34017690Y-31990599D01*
X34118706Y-31822240D01*
X34219721Y-31721225D01*
X34388080Y-31620210D01*
X34489095Y-31586538D01*
X34623782Y-31586538D01*
X34758469Y-31653882D01*
X34825812Y-31721225D01*
X34893156Y-31855912D01*
X34893156Y-31923256D01*
X34657454Y-32158958D01*
X34522767Y-32024271D01*
X35263545Y-32158958D02*
X34556438Y-32866065D01*
X35667606Y-32563019D01*
X34960499Y-33270126D01*
X36004324Y-32899736D02*
X35297217Y-33606843D01*
X35465576Y-33775202D01*
X35600263Y-33842545D01*
X35734950Y-33842545D01*
X35835965Y-33808874D01*
X36004324Y-33707858D01*
X36105339Y-33606843D01*
X36206354Y-33438484D01*
X36240026Y-33337469D01*
X36240026Y-33202782D01*
X36172682Y-33068095D01*
X36004324Y-32899736D01*
X36037995Y-34212935D02*
X36037995Y-34280278D01*
X36071667Y-34381293D01*
X36240026Y-34549652D01*
X36341041Y-34583324D01*
X36408385Y-34583324D01*
X36509400Y-34549652D01*
X36576743Y-34482309D01*
X36644087Y-34347622D01*
X36644087Y-33539500D01*
X37081820Y-33977232D01*
X37216507Y-35054728D02*
X37687911Y-34583324D01*
X36778774Y-35155744D02*
X37115491Y-34482309D01*
X37553224Y-34920041D01*
X37957285Y-34718011D02*
X38496033Y-35256759D01*
X38529705Y-35492461D02*
X38664392Y-35559805D01*
X38832751Y-35728163D01*
X38866423Y-35829179D01*
X38866423Y-35896522D01*
X38832751Y-35997538D01*
X38765407Y-36064881D01*
X38664392Y-36098553D01*
X38597049Y-36098553D01*
X38496033Y-36064881D01*
X38327675Y-35963866D01*
X38226659Y-35930194D01*
X38159316Y-35930194D01*
X38058300Y-35963866D01*
X37990957Y-36031209D01*
X37957285Y-36132225D01*
X37957285Y-36199568D01*
X37990957Y-36300583D01*
X38159316Y-36468942D01*
X38294003Y-36536286D01*
X39270484Y-36165896D02*
X38799079Y-36637301D01*
X38866423Y-36569957D02*
X38866423Y-36637301D01*
X38900094Y-36738316D01*
X39001110Y-36839331D01*
X39102125Y-36873003D01*
X39203140Y-36839331D01*
X39573529Y-36468942D01*
X39203140Y-36839331D02*
X39169468Y-36940347D01*
X39203140Y-37041362D01*
X39304155Y-37142377D01*
X39405171Y-37176049D01*
X39506186Y-37142377D01*
X39876575Y-36771988D01*
X40516338Y-37411751D02*
X40145949Y-37782140D01*
X40044934Y-37815812D01*
X39943919Y-37782140D01*
X39809232Y-37647453D01*
X39775560Y-37546438D01*
X40482667Y-37445423D02*
X40448995Y-37344408D01*
X40280636Y-37176049D01*
X40179621Y-37142377D01*
X40078606Y-37176049D01*
X40011262Y-37243392D01*
X39977590Y-37344408D01*
X40011262Y-37445423D01*
X40179621Y-37613782D01*
X40213293Y-37714797D01*
X40954071Y-37849484D02*
X40853056Y-37815812D01*
X40752041Y-37849484D01*
X40145949Y-38455575D01*
X41324460Y-38219873D02*
X41223445Y-38186201D01*
X41122430Y-38219873D01*
X40516338Y-38825965D01*
D13*
X33502512Y-34526082D02*
X33738214Y-34290380D01*
X33078248Y-34620363D02*
X33502512Y-34526082D01*
X33408231Y-34950346D01*
X33667504Y-35209619D02*
X33714644Y-35256759D01*
X33785355Y-35280330D01*
X33832495Y-35280330D01*
X33903206Y-35256759D01*
X34021057Y-35186049D01*
X34138908Y-35068198D01*
X34209619Y-34950346D01*
X34233189Y-34879636D01*
X34233189Y-34832495D01*
X34209619Y-34761785D01*
X34162478Y-34714644D01*
X34091768Y-34691074D01*
X34044627Y-34691074D01*
X33973917Y-34714644D01*
X33856066Y-34785355D01*
X33738214Y-34903206D01*
X33667504Y-35021057D01*
X33643933Y-35091768D01*
X33643933Y-35138908D01*
X33667504Y-35209619D01*
D10*
X26527142Y-15683333D02*
X26574761Y-15730952D01*
X26622380Y-15683333D01*
X26574761Y-15635714D01*
X26527142Y-15683333D01*
X26622380Y-15683333D01*
X26622380Y-16683333D02*
X26622380Y-16111904D01*
X26622380Y-16397619D02*
X25622380Y-16397619D01*
X25765238Y-16302380D01*
X25860476Y-16207142D01*
X25908095Y-16111904D01*
X25955714Y-17540476D02*
X26622380Y-17540476D01*
X25955714Y-17111904D02*
X26479523Y-17111904D01*
X26574761Y-17159523D01*
X26622380Y-17254761D01*
X26622380Y-17397619D01*
X26574761Y-17492857D01*
X26527142Y-17540476D01*
X25955714Y-17873809D02*
X25955714Y-18254761D01*
X26622380Y-18016666D02*
X25765238Y-18016666D01*
X25670000Y-18064285D01*
X25622380Y-18159523D01*
X25622380Y-18254761D01*
X25574761Y-20064285D02*
X26860476Y-19207142D01*
X26622380Y-21683333D02*
X26622380Y-21111904D01*
X26622380Y-21397619D02*
X25622380Y-21397619D01*
X25765238Y-21302380D01*
X25860476Y-21207142D01*
X25908095Y-21111904D01*
X25622380Y-22302380D02*
X25622380Y-22397619D01*
X25670000Y-22492857D01*
X25717619Y-22540476D01*
X25812857Y-22588095D01*
X26003333Y-22635714D01*
X26241428Y-22635714D01*
X26431904Y-22588095D01*
X26527142Y-22540476D01*
X26574761Y-22492857D01*
X26622380Y-22397619D01*
X26622380Y-22302380D01*
X26574761Y-22207142D01*
X26527142Y-22159523D01*
X26431904Y-22111904D01*
X26241428Y-22064285D01*
X26003333Y-22064285D01*
X25812857Y-22111904D01*
X25717619Y-22159523D01*
X25670000Y-22207142D01*
X25622380Y-22302380D01*
X25622380Y-23254761D02*
X25622380Y-23350000D01*
X25670000Y-23445238D01*
X25717619Y-23492857D01*
X25812857Y-23540476D01*
X26003333Y-23588095D01*
X26241428Y-23588095D01*
X26431904Y-23540476D01*
X26527142Y-23492857D01*
X26574761Y-23445238D01*
X26622380Y-23350000D01*
X26622380Y-23254761D01*
X26574761Y-23159523D01*
X26527142Y-23111904D01*
X26431904Y-23064285D01*
X26241428Y-23016666D01*
X26003333Y-23016666D01*
X25812857Y-23064285D01*
X25717619Y-23111904D01*
X25670000Y-23159523D01*
X25622380Y-23254761D01*
X25955714Y-24016666D02*
X26622380Y-24016666D01*
X26050952Y-24016666D02*
X26003333Y-24064285D01*
X25955714Y-24159523D01*
X25955714Y-24302380D01*
X26003333Y-24397619D01*
X26098571Y-24445238D01*
X26622380Y-24445238D01*
X25955714Y-24778571D02*
X25955714Y-25159523D01*
X26622380Y-24921428D02*
X25765238Y-24921428D01*
X25670000Y-24969047D01*
X25622380Y-25064285D01*
X25622380Y-25159523D01*
D12*
X28028571Y-20266666D02*
X28052380Y-20242857D01*
X28076190Y-20171428D01*
X28076190Y-20123809D01*
X28052380Y-20052380D01*
X28004761Y-20004761D01*
X27957142Y-19980952D01*
X27861904Y-19957142D01*
X27790476Y-19957142D01*
X27695238Y-19980952D01*
X27647619Y-20004761D01*
X27600000Y-20052380D01*
X27576190Y-20123809D01*
X27576190Y-20171428D01*
X27600000Y-20242857D01*
X27623809Y-20266666D01*
X27576190Y-20433333D02*
X27576190Y-20742857D01*
X27766666Y-20576190D01*
X27766666Y-20647619D01*
X27790476Y-20695238D01*
X27814285Y-20719047D01*
X27861904Y-20742857D01*
X27980952Y-20742857D01*
X28028571Y-20719047D01*
X28052380Y-20695238D01*
X28076190Y-20647619D01*
X28076190Y-20504761D01*
X28052380Y-20457142D01*
X28028571Y-20433333D01*
D10*
X13602380Y-17866666D02*
X14316666Y-17866666D01*
X14459523Y-17819047D01*
X14554761Y-17723809D01*
X14602380Y-17580952D01*
X14602380Y-17485714D01*
X13697619Y-18295238D02*
X13650000Y-18342857D01*
X13602380Y-18438095D01*
X13602380Y-18676190D01*
X13650000Y-18771428D01*
X13697619Y-18819047D01*
X13792857Y-18866666D01*
X13888095Y-18866666D01*
X14030952Y-18819047D01*
X14602380Y-18247619D01*
X14602380Y-18866666D01*
X23732258Y-49675947D02*
X23328197Y-49271886D01*
X23530228Y-49473916D02*
X22823121Y-50181023D01*
X22856793Y-50012664D01*
X22856793Y-49877977D01*
X22823121Y-49776962D01*
X23462884Y-50820787D02*
X23530228Y-50888130D01*
X23631243Y-50921802D01*
X23698586Y-50921802D01*
X23799602Y-50888130D01*
X23967961Y-50787115D01*
X24136319Y-50618756D01*
X24237335Y-50450397D01*
X24271006Y-50349382D01*
X24271006Y-50282038D01*
X24237335Y-50181023D01*
X24169991Y-50113680D01*
X24068976Y-50080008D01*
X24001632Y-50080008D01*
X23900617Y-50113680D01*
X23732258Y-50214695D01*
X23563899Y-50383054D01*
X23462884Y-50551413D01*
X23429212Y-50652428D01*
X23429212Y-50719771D01*
X23462884Y-50820787D01*
X24708739Y-50652428D02*
X24001632Y-51359535D01*
X24506709Y-50989145D02*
X24978113Y-50921802D01*
X24506709Y-51393206D02*
X24506709Y-50854458D01*
D12*
X25101015Y-49031133D02*
X24814805Y-49081641D01*
X24898984Y-48829103D02*
X24545431Y-49182656D01*
X24680118Y-49317343D01*
X24730625Y-49334179D01*
X24764297Y-49334179D01*
X24814805Y-49317343D01*
X24865312Y-49266835D01*
X24882148Y-49216328D01*
X24882148Y-49182656D01*
X24865312Y-49132148D01*
X24730625Y-48997461D01*
X24966328Y-49603553D02*
X25000000Y-49637225D01*
X25050507Y-49654061D01*
X25084179Y-49654061D01*
X25134687Y-49637225D01*
X25218866Y-49586717D01*
X25303045Y-49502538D01*
X25353553Y-49418358D01*
X25370389Y-49367851D01*
X25370389Y-49334179D01*
X25353553Y-49283671D01*
X25319881Y-49250000D01*
X25269374Y-49233164D01*
X25235702Y-49233164D01*
X25185194Y-49250000D01*
X25101015Y-49300507D01*
X25016835Y-49384687D01*
X24966328Y-49468866D01*
X24949492Y-49519374D01*
X24949492Y-49553045D01*
X24966328Y-49603553D01*
D10*
X51028571Y-17011904D02*
X51076190Y-17154761D01*
X51123809Y-17202380D01*
X51219047Y-17250000D01*
X51361904Y-17250000D01*
X51457142Y-17202380D01*
X51504761Y-17154761D01*
X51552380Y-17059523D01*
X51552380Y-16678571D01*
X50552380Y-16678571D01*
X50552380Y-17011904D01*
X50600000Y-17107142D01*
X50647619Y-17154761D01*
X50742857Y-17202380D01*
X50838095Y-17202380D01*
X50933333Y-17154761D01*
X50980952Y-17107142D01*
X51028571Y-17011904D01*
X51028571Y-16678571D01*
X51266666Y-17630952D02*
X51266666Y-18107142D01*
X51552380Y-17535714D02*
X50552380Y-17869047D01*
X51552380Y-18202380D01*
X50552380Y-18392857D02*
X51552380Y-18726190D01*
X50552380Y-19059523D01*
X50552380Y-19297619D02*
X50552380Y-19964285D01*
X51552380Y-19535714D01*
X50552380Y-20535714D02*
X50552380Y-20630952D01*
X50600000Y-20726190D01*
X50647619Y-20773809D01*
X50742857Y-20821428D01*
X50933333Y-20869047D01*
X51171428Y-20869047D01*
X51361904Y-20821428D01*
X51457142Y-20773809D01*
X51504761Y-20726190D01*
X51552380Y-20630952D01*
X51552380Y-20535714D01*
X51504761Y-20440476D01*
X51457142Y-20392857D01*
X51361904Y-20345238D01*
X51171428Y-20297619D01*
X50933333Y-20297619D01*
X50742857Y-20345238D01*
X50647619Y-20392857D01*
X50600000Y-20440476D01*
X50552380Y-20535714D01*
X51647619Y-21059523D02*
X51647619Y-21821428D01*
X51504761Y-22011904D02*
X51552380Y-22154761D01*
X51552380Y-22392857D01*
X51504761Y-22488095D01*
X51457142Y-22535714D01*
X51361904Y-22583333D01*
X51266666Y-22583333D01*
X51171428Y-22535714D01*
X51123809Y-22488095D01*
X51076190Y-22392857D01*
X51028571Y-22202380D01*
X50980952Y-22107142D01*
X50933333Y-22059523D01*
X50838095Y-22011904D01*
X50742857Y-22011904D01*
X50647619Y-22059523D01*
X50600000Y-22107142D01*
X50552380Y-22202380D01*
X50552380Y-22440476D01*
X50600000Y-22583333D01*
X51552380Y-23011904D02*
X50885714Y-23011904D01*
X50980952Y-23011904D02*
X50933333Y-23059523D01*
X50885714Y-23154761D01*
X50885714Y-23297619D01*
X50933333Y-23392857D01*
X51028571Y-23440476D01*
X51552380Y-23440476D01*
X51028571Y-23440476D02*
X50933333Y-23488095D01*
X50885714Y-23583333D01*
X50885714Y-23726190D01*
X50933333Y-23821428D01*
X51028571Y-23869047D01*
X51552380Y-23869047D01*
X51552380Y-24773809D02*
X51028571Y-24773809D01*
X50933333Y-24726190D01*
X50885714Y-24630952D01*
X50885714Y-24440476D01*
X50933333Y-24345238D01*
X51504761Y-24773809D02*
X51552380Y-24678571D01*
X51552380Y-24440476D01*
X51504761Y-24345238D01*
X51409523Y-24297619D01*
X51314285Y-24297619D01*
X51219047Y-24345238D01*
X51171428Y-24440476D01*
X51171428Y-24678571D01*
X51123809Y-24773809D01*
X51552380Y-25392857D02*
X51504761Y-25297619D01*
X51409523Y-25250000D01*
X50552380Y-25250000D01*
X51552380Y-25916666D02*
X51504761Y-25821428D01*
X51409523Y-25773809D01*
X50552380Y-25773809D01*
D11*
X49708333Y-21476190D02*
X49708333Y-20976190D01*
X49589285Y-20976190D01*
X49517857Y-21000000D01*
X49470238Y-21047619D01*
X49446428Y-21095238D01*
X49422619Y-21190476D01*
X49422619Y-21261904D01*
X49446428Y-21357142D01*
X49470238Y-21404761D01*
X49517857Y-21452380D01*
X49589285Y-21476190D01*
X49708333Y-21476190D01*
X48946428Y-21476190D02*
X49232142Y-21476190D01*
X49089285Y-21476190D02*
X49089285Y-20976190D01*
X49136904Y-21047619D01*
X49184523Y-21095238D01*
X49232142Y-21119047D01*
X48660714Y-21190476D02*
X48708333Y-21166666D01*
X48732142Y-21142857D01*
X48755952Y-21095238D01*
X48755952Y-21071428D01*
X48732142Y-21023809D01*
X48708333Y-21000000D01*
X48660714Y-20976190D01*
X48565476Y-20976190D01*
X48517857Y-21000000D01*
X48494047Y-21023809D01*
X48470238Y-21071428D01*
X48470238Y-21095238D01*
X48494047Y-21142857D01*
X48517857Y-21166666D01*
X48565476Y-21190476D01*
X48660714Y-21190476D01*
X48708333Y-21214285D01*
X48732142Y-21238095D01*
X48755952Y-21285714D01*
X48755952Y-21380952D01*
X48732142Y-21428571D01*
X48708333Y-21452380D01*
X48660714Y-21476190D01*
X48565476Y-21476190D01*
X48517857Y-21452380D01*
X48494047Y-21428571D01*
X48470238Y-21380952D01*
X48470238Y-21285714D01*
X48494047Y-21238095D01*
X48517857Y-21214285D01*
X48565476Y-21190476D01*
X47994047Y-21476190D02*
X48279761Y-21476190D01*
X48136904Y-21476190D02*
X48136904Y-20976190D01*
X48184523Y-21047619D01*
X48232142Y-21095238D01*
X48279761Y-21119047D01*
X47755952Y-21476190D02*
X47660714Y-21476190D01*
X47613095Y-21452380D01*
X47589285Y-21428571D01*
X47541666Y-21357142D01*
X47517857Y-21261904D01*
X47517857Y-21071428D01*
X47541666Y-21023809D01*
X47565476Y-21000000D01*
X47613095Y-20976190D01*
X47708333Y-20976190D01*
X47755952Y-21000000D01*
X47779761Y-21023809D01*
X47803571Y-21071428D01*
X47803571Y-21190476D01*
X47779761Y-21238095D01*
X47755952Y-21261904D01*
X47708333Y-21285714D01*
X47613095Y-21285714D01*
X47565476Y-21261904D01*
X47541666Y-21238095D01*
X47517857Y-21190476D01*
D10*
X46438095Y-37528571D02*
X46295238Y-37576190D01*
X46247619Y-37623809D01*
X46200000Y-37719047D01*
X46200000Y-37861904D01*
X46247619Y-37957142D01*
X46295238Y-38004761D01*
X46390476Y-38052380D01*
X46771428Y-38052380D01*
X46771428Y-37052380D01*
X46438095Y-37052380D01*
X46342857Y-37100000D01*
X46295238Y-37147619D01*
X46247619Y-37242857D01*
X46247619Y-37338095D01*
X46295238Y-37433333D01*
X46342857Y-37480952D01*
X46438095Y-37528571D01*
X46771428Y-37528571D01*
X45819047Y-37766666D02*
X45342857Y-37766666D01*
X45914285Y-38052380D02*
X45580952Y-37052380D01*
X45247619Y-38052380D01*
X45057142Y-37052380D02*
X44723809Y-38052380D01*
X44390476Y-37052380D01*
X44152380Y-37052380D02*
X43485714Y-37052380D01*
X43914285Y-38052380D01*
X42914285Y-37052380D02*
X42819047Y-37052380D01*
X42723809Y-37100000D01*
X42676190Y-37147619D01*
X42628571Y-37242857D01*
X42580952Y-37433333D01*
X42580952Y-37671428D01*
X42628571Y-37861904D01*
X42676190Y-37957142D01*
X42723809Y-38004761D01*
X42819047Y-38052380D01*
X42914285Y-38052380D01*
X43009523Y-38004761D01*
X43057142Y-37957142D01*
X43104761Y-37861904D01*
X43152380Y-37671428D01*
X43152380Y-37433333D01*
X43104761Y-37242857D01*
X43057142Y-37147619D01*
X43009523Y-37100000D01*
X42914285Y-37052380D01*
X42390476Y-38147619D02*
X41628571Y-38147619D01*
X41438095Y-38004761D02*
X41295238Y-38052380D01*
X41057142Y-38052380D01*
X40961904Y-38004761D01*
X40914285Y-37957142D01*
X40866666Y-37861904D01*
X40866666Y-37766666D01*
X40914285Y-37671428D01*
X40961904Y-37623809D01*
X41057142Y-37576190D01*
X41247619Y-37528571D01*
X41342857Y-37480952D01*
X41390476Y-37433333D01*
X41438095Y-37338095D01*
X41438095Y-37242857D01*
X41390476Y-37147619D01*
X41342857Y-37100000D01*
X41247619Y-37052380D01*
X41009523Y-37052380D01*
X40866666Y-37100000D01*
X40438095Y-38052380D02*
X40438095Y-37385714D01*
X40438095Y-37480952D02*
X40390476Y-37433333D01*
X40295238Y-37385714D01*
X40152380Y-37385714D01*
X40057142Y-37433333D01*
X40009523Y-37528571D01*
X40009523Y-38052380D01*
X40009523Y-37528571D02*
X39961904Y-37433333D01*
X39866666Y-37385714D01*
X39723809Y-37385714D01*
X39628571Y-37433333D01*
X39580952Y-37528571D01*
X39580952Y-38052380D01*
X38676190Y-38052380D02*
X38676190Y-37528571D01*
X38723809Y-37433333D01*
X38819047Y-37385714D01*
X39009523Y-37385714D01*
X39104761Y-37433333D01*
X38676190Y-38004761D02*
X38771428Y-38052380D01*
X39009523Y-38052380D01*
X39104761Y-38004761D01*
X39152380Y-37909523D01*
X39152380Y-37814285D01*
X39104761Y-37719047D01*
X39009523Y-37671428D01*
X38771428Y-37671428D01*
X38676190Y-37623809D01*
X38057142Y-38052380D02*
X38152380Y-38004761D01*
X38200000Y-37909523D01*
X38200000Y-37052380D01*
X37533333Y-38052380D02*
X37628571Y-38004761D01*
X37676190Y-37909523D01*
X37676190Y-37052380D01*
D11*
X42426190Y-34016666D02*
X41926190Y-34016666D01*
X41926190Y-34135714D01*
X41950000Y-34207142D01*
X41997619Y-34254761D01*
X42045238Y-34278571D01*
X42140476Y-34302380D01*
X42211904Y-34302380D01*
X42307142Y-34278571D01*
X42354761Y-34254761D01*
X42402380Y-34207142D01*
X42426190Y-34135714D01*
X42426190Y-34016666D01*
X41973809Y-34492857D02*
X41950000Y-34516666D01*
X41926190Y-34564285D01*
X41926190Y-34683333D01*
X41950000Y-34730952D01*
X41973809Y-34754761D01*
X42021428Y-34778571D01*
X42069047Y-34778571D01*
X42140476Y-34754761D01*
X42426190Y-34469047D01*
X42426190Y-34778571D01*
X42140476Y-35064285D02*
X42116666Y-35016666D01*
X42092857Y-34992857D01*
X42045238Y-34969047D01*
X42021428Y-34969047D01*
X41973809Y-34992857D01*
X41950000Y-35016666D01*
X41926190Y-35064285D01*
X41926190Y-35159523D01*
X41950000Y-35207142D01*
X41973809Y-35230952D01*
X42021428Y-35254761D01*
X42045238Y-35254761D01*
X42092857Y-35230952D01*
X42116666Y-35207142D01*
X42140476Y-35159523D01*
X42140476Y-35064285D01*
X42164285Y-35016666D01*
X42188095Y-34992857D01*
X42235714Y-34969047D01*
X42330952Y-34969047D01*
X42378571Y-34992857D01*
X42402380Y-35016666D01*
X42426190Y-35064285D01*
X42426190Y-35159523D01*
X42402380Y-35207142D01*
X42378571Y-35230952D01*
X42330952Y-35254761D01*
X42235714Y-35254761D01*
X42188095Y-35230952D01*
X42164285Y-35207142D01*
X42140476Y-35159523D01*
X41973809Y-35445238D02*
X41950000Y-35469047D01*
X41926190Y-35516666D01*
X41926190Y-35635714D01*
X41950000Y-35683333D01*
X41973809Y-35707142D01*
X42021428Y-35730952D01*
X42069047Y-35730952D01*
X42140476Y-35707142D01*
X42426190Y-35421428D01*
X42426190Y-35730952D01*
X42426190Y-35969047D02*
X42426190Y-36064285D01*
X42402380Y-36111904D01*
X42378571Y-36135714D01*
X42307142Y-36183333D01*
X42211904Y-36207142D01*
X42021428Y-36207142D01*
X41973809Y-36183333D01*
X41950000Y-36159523D01*
X41926190Y-36111904D01*
X41926190Y-36016666D01*
X41950000Y-35969047D01*
X41973809Y-35945238D01*
X42021428Y-35921428D01*
X42140476Y-35921428D01*
X42188095Y-35945238D01*
X42211904Y-35969047D01*
X42235714Y-36016666D01*
X42235714Y-36111904D01*
X42211904Y-36159523D01*
X42188095Y-36183333D01*
X42140476Y-36207142D01*
D10*
X47978571Y-45961904D02*
X48026190Y-46104761D01*
X48073809Y-46152380D01*
X48169047Y-46200000D01*
X48311904Y-46200000D01*
X48407142Y-46152380D01*
X48454761Y-46104761D01*
X48502380Y-46009523D01*
X48502380Y-45628571D01*
X47502380Y-45628571D01*
X47502380Y-45961904D01*
X47550000Y-46057142D01*
X47597619Y-46104761D01*
X47692857Y-46152380D01*
X47788095Y-46152380D01*
X47883333Y-46104761D01*
X47930952Y-46057142D01*
X47978571Y-45961904D01*
X47978571Y-45628571D01*
X48216666Y-46580952D02*
X48216666Y-47057142D01*
X48502380Y-46485714D02*
X47502380Y-46819047D01*
X48502380Y-47152380D01*
X47502380Y-47342857D02*
X48502380Y-47676190D01*
X47502380Y-48009523D01*
X47502380Y-48247619D02*
X47502380Y-48914285D01*
X48502380Y-48485714D01*
X47502380Y-49485714D02*
X47502380Y-49580952D01*
X47550000Y-49676190D01*
X47597619Y-49723809D01*
X47692857Y-49771428D01*
X47883333Y-49819047D01*
X48121428Y-49819047D01*
X48311904Y-49771428D01*
X48407142Y-49723809D01*
X48454761Y-49676190D01*
X48502380Y-49580952D01*
X48502380Y-49485714D01*
X48454761Y-49390476D01*
X48407142Y-49342857D01*
X48311904Y-49295238D01*
X48121428Y-49247619D01*
X47883333Y-49247619D01*
X47692857Y-49295238D01*
X47597619Y-49342857D01*
X47550000Y-49390476D01*
X47502380Y-49485714D01*
X48597619Y-50009523D02*
X48597619Y-50771428D01*
X48454761Y-50961904D02*
X48502380Y-51104761D01*
X48502380Y-51342857D01*
X48454761Y-51438095D01*
X48407142Y-51485714D01*
X48311904Y-51533333D01*
X48216666Y-51533333D01*
X48121428Y-51485714D01*
X48073809Y-51438095D01*
X48026190Y-51342857D01*
X47978571Y-51152380D01*
X47930952Y-51057142D01*
X47883333Y-51009523D01*
X47788095Y-50961904D01*
X47692857Y-50961904D01*
X47597619Y-51009523D01*
X47550000Y-51057142D01*
X47502380Y-51152380D01*
X47502380Y-51390476D01*
X47550000Y-51533333D01*
X48502380Y-51961904D02*
X47835714Y-51961904D01*
X47930952Y-51961904D02*
X47883333Y-52009523D01*
X47835714Y-52104761D01*
X47835714Y-52247619D01*
X47883333Y-52342857D01*
X47978571Y-52390476D01*
X48502380Y-52390476D01*
X47978571Y-52390476D02*
X47883333Y-52438095D01*
X47835714Y-52533333D01*
X47835714Y-52676190D01*
X47883333Y-52771428D01*
X47978571Y-52819047D01*
X48502380Y-52819047D01*
X48502380Y-53723809D02*
X47978571Y-53723809D01*
X47883333Y-53676190D01*
X47835714Y-53580952D01*
X47835714Y-53390476D01*
X47883333Y-53295238D01*
X48454761Y-53723809D02*
X48502380Y-53628571D01*
X48502380Y-53390476D01*
X48454761Y-53295238D01*
X48359523Y-53247619D01*
X48264285Y-53247619D01*
X48169047Y-53295238D01*
X48121428Y-53390476D01*
X48121428Y-53628571D01*
X48073809Y-53723809D01*
X48502380Y-54342857D02*
X48454761Y-54247619D01*
X48359523Y-54200000D01*
X47502380Y-54200000D01*
X48502380Y-54866666D02*
X48454761Y-54771428D01*
X48359523Y-54723809D01*
X47502380Y-54723809D01*
D11*
X52109523Y-50426190D02*
X52109523Y-49926190D01*
X51990476Y-49926190D01*
X51919047Y-49950000D01*
X51871428Y-49997619D01*
X51847619Y-50045238D01*
X51823809Y-50140476D01*
X51823809Y-50211904D01*
X51847619Y-50307142D01*
X51871428Y-50354761D01*
X51919047Y-50402380D01*
X51990476Y-50426190D01*
X52109523Y-50426190D01*
X51657142Y-49926190D02*
X51347619Y-49926190D01*
X51514285Y-50116666D01*
X51442857Y-50116666D01*
X51395238Y-50140476D01*
X51371428Y-50164285D01*
X51347619Y-50211904D01*
X51347619Y-50330952D01*
X51371428Y-50378571D01*
X51395238Y-50402380D01*
X51442857Y-50426190D01*
X51585714Y-50426190D01*
X51633333Y-50402380D01*
X51657142Y-50378571D01*
X50871428Y-50426190D02*
X51157142Y-50426190D01*
X51014285Y-50426190D02*
X51014285Y-49926190D01*
X51061904Y-49997619D01*
X51109523Y-50045238D01*
X51157142Y-50069047D01*
X50561904Y-49926190D02*
X50514285Y-49926190D01*
X50466666Y-49950000D01*
X50442857Y-49973809D01*
X50419047Y-50021428D01*
X50395238Y-50116666D01*
X50395238Y-50235714D01*
X50419047Y-50330952D01*
X50442857Y-50378571D01*
X50466666Y-50402380D01*
X50514285Y-50426190D01*
X50561904Y-50426190D01*
X50609523Y-50402380D01*
X50633333Y-50378571D01*
X50657142Y-50330952D01*
X50680952Y-50235714D01*
X50680952Y-50116666D01*
X50657142Y-50021428D01*
X50633333Y-49973809D01*
X50609523Y-49950000D01*
X50561904Y-49926190D01*
X50228571Y-49926190D02*
X49919047Y-49926190D01*
X50085714Y-50116666D01*
X50014285Y-50116666D01*
X49966666Y-50140476D01*
X49942857Y-50164285D01*
X49919047Y-50211904D01*
X49919047Y-50330952D01*
X49942857Y-50378571D01*
X49966666Y-50402380D01*
X50014285Y-50426190D01*
X50157142Y-50426190D01*
X50204761Y-50402380D01*
X50228571Y-50378571D01*
X49442857Y-50426190D02*
X49728571Y-50426190D01*
X49585714Y-50426190D02*
X49585714Y-49926190D01*
X49633333Y-49997619D01*
X49680952Y-50045238D01*
X49728571Y-50069047D01*
X48966666Y-50426190D02*
X49252380Y-50426190D01*
X49109523Y-50426190D02*
X49109523Y-49926190D01*
X49157142Y-49997619D01*
X49204761Y-50045238D01*
X49252380Y-50069047D01*
D10*
X41638095Y-73728571D02*
X41495238Y-73776190D01*
X41447619Y-73823809D01*
X41400000Y-73919047D01*
X41400000Y-74061904D01*
X41447619Y-74157142D01*
X41495238Y-74204761D01*
X41590476Y-74252380D01*
X41971428Y-74252380D01*
X41971428Y-73252380D01*
X41638095Y-73252380D01*
X41542857Y-73300000D01*
X41495238Y-73347619D01*
X41447619Y-73442857D01*
X41447619Y-73538095D01*
X41495238Y-73633333D01*
X41542857Y-73680952D01*
X41638095Y-73728571D01*
X41971428Y-73728571D01*
X41019047Y-73966666D02*
X40542857Y-73966666D01*
X41114285Y-74252380D02*
X40780952Y-73252380D01*
X40447619Y-74252380D01*
X40257142Y-73252380D02*
X39923809Y-74252380D01*
X39590476Y-73252380D01*
X39352380Y-73252380D02*
X38685714Y-73252380D01*
X39114285Y-74252380D01*
X38114285Y-73252380D02*
X38019047Y-73252380D01*
X37923809Y-73300000D01*
X37876190Y-73347619D01*
X37828571Y-73442857D01*
X37780952Y-73633333D01*
X37780952Y-73871428D01*
X37828571Y-74061904D01*
X37876190Y-74157142D01*
X37923809Y-74204761D01*
X38019047Y-74252380D01*
X38114285Y-74252380D01*
X38209523Y-74204761D01*
X38257142Y-74157142D01*
X38304761Y-74061904D01*
X38352380Y-73871428D01*
X38352380Y-73633333D01*
X38304761Y-73442857D01*
X38257142Y-73347619D01*
X38209523Y-73300000D01*
X38114285Y-73252380D01*
X37590476Y-74347619D02*
X36828571Y-74347619D01*
X36638095Y-74204761D02*
X36495238Y-74252380D01*
X36257142Y-74252380D01*
X36161904Y-74204761D01*
X36114285Y-74157142D01*
X36066666Y-74061904D01*
X36066666Y-73966666D01*
X36114285Y-73871428D01*
X36161904Y-73823809D01*
X36257142Y-73776190D01*
X36447619Y-73728571D01*
X36542857Y-73680952D01*
X36590476Y-73633333D01*
X36638095Y-73538095D01*
X36638095Y-73442857D01*
X36590476Y-73347619D01*
X36542857Y-73300000D01*
X36447619Y-73252380D01*
X36209523Y-73252380D01*
X36066666Y-73300000D01*
X35638095Y-74252380D02*
X35638095Y-73585714D01*
X35638095Y-73680952D02*
X35590476Y-73633333D01*
X35495238Y-73585714D01*
X35352380Y-73585714D01*
X35257142Y-73633333D01*
X35209523Y-73728571D01*
X35209523Y-74252380D01*
X35209523Y-73728571D02*
X35161904Y-73633333D01*
X35066666Y-73585714D01*
X34923809Y-73585714D01*
X34828571Y-73633333D01*
X34780952Y-73728571D01*
X34780952Y-74252380D01*
X33876190Y-74252380D02*
X33876190Y-73728571D01*
X33923809Y-73633333D01*
X34019047Y-73585714D01*
X34209523Y-73585714D01*
X34304761Y-73633333D01*
X33876190Y-74204761D02*
X33971428Y-74252380D01*
X34209523Y-74252380D01*
X34304761Y-74204761D01*
X34352380Y-74109523D01*
X34352380Y-74014285D01*
X34304761Y-73919047D01*
X34209523Y-73871428D01*
X33971428Y-73871428D01*
X33876190Y-73823809D01*
X33257142Y-74252380D02*
X33352380Y-74204761D01*
X33400000Y-74109523D01*
X33400000Y-73252380D01*
X32733333Y-74252380D02*
X32828571Y-74204761D01*
X32876190Y-74109523D01*
X32876190Y-73252380D01*
D11*
X37626190Y-70216666D02*
X37126190Y-70216666D01*
X37126190Y-70335714D01*
X37150000Y-70407142D01*
X37197619Y-70454761D01*
X37245238Y-70478571D01*
X37340476Y-70502380D01*
X37411904Y-70502380D01*
X37507142Y-70478571D01*
X37554761Y-70454761D01*
X37602380Y-70407142D01*
X37626190Y-70335714D01*
X37626190Y-70216666D01*
X37292857Y-70930952D02*
X37626190Y-70930952D01*
X37102380Y-70811904D02*
X37459523Y-70692857D01*
X37459523Y-71002380D01*
X37173809Y-71169047D02*
X37150000Y-71192857D01*
X37126190Y-71240476D01*
X37126190Y-71359523D01*
X37150000Y-71407142D01*
X37173809Y-71430952D01*
X37221428Y-71454761D01*
X37269047Y-71454761D01*
X37340476Y-71430952D01*
X37626190Y-71145238D01*
X37626190Y-71454761D01*
X37292857Y-71883333D02*
X37626190Y-71883333D01*
X37102380Y-71764285D02*
X37459523Y-71645238D01*
X37459523Y-71954761D01*
X37126190Y-72097619D02*
X37126190Y-72407142D01*
X37316666Y-72240476D01*
X37316666Y-72311904D01*
X37340476Y-72359523D01*
X37364285Y-72383333D01*
X37411904Y-72407142D01*
X37530952Y-72407142D01*
X37578571Y-72383333D01*
X37602380Y-72359523D01*
X37626190Y-72311904D01*
X37626190Y-72169047D01*
X37602380Y-72121428D01*
X37578571Y-72097619D01*
D10*
X46438095Y-33878571D02*
X46295238Y-33926190D01*
X46247619Y-33973809D01*
X46200000Y-34069047D01*
X46200000Y-34211904D01*
X46247619Y-34307142D01*
X46295238Y-34354761D01*
X46390476Y-34402380D01*
X46771428Y-34402380D01*
X46771428Y-33402380D01*
X46438095Y-33402380D01*
X46342857Y-33450000D01*
X46295238Y-33497619D01*
X46247619Y-33592857D01*
X46247619Y-33688095D01*
X46295238Y-33783333D01*
X46342857Y-33830952D01*
X46438095Y-33878571D01*
X46771428Y-33878571D01*
X45819047Y-34116666D02*
X45342857Y-34116666D01*
X45914285Y-34402380D02*
X45580952Y-33402380D01*
X45247619Y-34402380D01*
X45057142Y-33402380D02*
X44723809Y-34402380D01*
X44390476Y-33402380D01*
X44152380Y-33402380D02*
X43485714Y-33402380D01*
X43914285Y-34402380D01*
X42914285Y-33402380D02*
X42819047Y-33402380D01*
X42723809Y-33450000D01*
X42676190Y-33497619D01*
X42628571Y-33592857D01*
X42580952Y-33783333D01*
X42580952Y-34021428D01*
X42628571Y-34211904D01*
X42676190Y-34307142D01*
X42723809Y-34354761D01*
X42819047Y-34402380D01*
X42914285Y-34402380D01*
X43009523Y-34354761D01*
X43057142Y-34307142D01*
X43104761Y-34211904D01*
X43152380Y-34021428D01*
X43152380Y-33783333D01*
X43104761Y-33592857D01*
X43057142Y-33497619D01*
X43009523Y-33450000D01*
X42914285Y-33402380D01*
X42390476Y-34497619D02*
X41628571Y-34497619D01*
X41438095Y-34354761D02*
X41295238Y-34402380D01*
X41057142Y-34402380D01*
X40961904Y-34354761D01*
X40914285Y-34307142D01*
X40866666Y-34211904D01*
X40866666Y-34116666D01*
X40914285Y-34021428D01*
X40961904Y-33973809D01*
X41057142Y-33926190D01*
X41247619Y-33878571D01*
X41342857Y-33830952D01*
X41390476Y-33783333D01*
X41438095Y-33688095D01*
X41438095Y-33592857D01*
X41390476Y-33497619D01*
X41342857Y-33450000D01*
X41247619Y-33402380D01*
X41009523Y-33402380D01*
X40866666Y-33450000D01*
X40438095Y-34402380D02*
X40438095Y-33735714D01*
X40438095Y-33830952D02*
X40390476Y-33783333D01*
X40295238Y-33735714D01*
X40152380Y-33735714D01*
X40057142Y-33783333D01*
X40009523Y-33878571D01*
X40009523Y-34402380D01*
X40009523Y-33878571D02*
X39961904Y-33783333D01*
X39866666Y-33735714D01*
X39723809Y-33735714D01*
X39628571Y-33783333D01*
X39580952Y-33878571D01*
X39580952Y-34402380D01*
X38676190Y-34402380D02*
X38676190Y-33878571D01*
X38723809Y-33783333D01*
X38819047Y-33735714D01*
X39009523Y-33735714D01*
X39104761Y-33783333D01*
X38676190Y-34354761D02*
X38771428Y-34402380D01*
X39009523Y-34402380D01*
X39104761Y-34354761D01*
X39152380Y-34259523D01*
X39152380Y-34164285D01*
X39104761Y-34069047D01*
X39009523Y-34021428D01*
X38771428Y-34021428D01*
X38676190Y-33973809D01*
X38057142Y-34402380D02*
X38152380Y-34354761D01*
X38200000Y-34259523D01*
X38200000Y-33402380D01*
X37533333Y-34402380D02*
X37628571Y-34354761D01*
X37676190Y-34259523D01*
X37676190Y-33402380D01*
D11*
X42426190Y-29890476D02*
X41926190Y-29890476D01*
X41926190Y-30009523D01*
X41950000Y-30080952D01*
X41997619Y-30128571D01*
X42045238Y-30152380D01*
X42140476Y-30176190D01*
X42211904Y-30176190D01*
X42307142Y-30152380D01*
X42354761Y-30128571D01*
X42402380Y-30080952D01*
X42426190Y-30009523D01*
X42426190Y-29890476D01*
X41973809Y-30366666D02*
X41950000Y-30390476D01*
X41926190Y-30438095D01*
X41926190Y-30557142D01*
X41950000Y-30604761D01*
X41973809Y-30628571D01*
X42021428Y-30652380D01*
X42069047Y-30652380D01*
X42140476Y-30628571D01*
X42426190Y-30342857D01*
X42426190Y-30652380D01*
X42426190Y-31128571D02*
X42426190Y-30842857D01*
X42426190Y-30985714D02*
X41926190Y-30985714D01*
X41997619Y-30938095D01*
X42045238Y-30890476D01*
X42069047Y-30842857D01*
X41926190Y-31438095D02*
X41926190Y-31485714D01*
X41950000Y-31533333D01*
X41973809Y-31557142D01*
X42021428Y-31580952D01*
X42116666Y-31604761D01*
X42235714Y-31604761D01*
X42330952Y-31580952D01*
X42378571Y-31557142D01*
X42402380Y-31533333D01*
X42426190Y-31485714D01*
X42426190Y-31438095D01*
X42402380Y-31390476D01*
X42378571Y-31366666D01*
X42330952Y-31342857D01*
X42235714Y-31319047D01*
X42116666Y-31319047D01*
X42021428Y-31342857D01*
X41973809Y-31366666D01*
X41950000Y-31390476D01*
X41926190Y-31438095D01*
X41973809Y-31795238D02*
X41950000Y-31819047D01*
X41926190Y-31866666D01*
X41926190Y-31985714D01*
X41950000Y-32033333D01*
X41973809Y-32057142D01*
X42021428Y-32080952D01*
X42069047Y-32080952D01*
X42140476Y-32057142D01*
X42426190Y-31771428D01*
X42426190Y-32080952D01*
X42426190Y-32557142D02*
X42426190Y-32271428D01*
X42426190Y-32414285D02*
X41926190Y-32414285D01*
X41997619Y-32366666D01*
X42045238Y-32319047D01*
X42069047Y-32271428D01*
X42426190Y-33033333D02*
X42426190Y-32747619D01*
X42426190Y-32890476D02*
X41926190Y-32890476D01*
X41997619Y-32842857D01*
X42045238Y-32795238D01*
X42069047Y-32747619D01*
D10*
X24522380Y-19421428D02*
X24522380Y-18850000D01*
X24522380Y-19135714D02*
X23522380Y-19135714D01*
X23665238Y-19040476D01*
X23760476Y-18945238D01*
X23808095Y-18850000D01*
X23522380Y-20040476D02*
X23522380Y-20135714D01*
X23570000Y-20230952D01*
X23617619Y-20278571D01*
X23712857Y-20326190D01*
X23903333Y-20373809D01*
X24141428Y-20373809D01*
X24331904Y-20326190D01*
X24427142Y-20278571D01*
X24474761Y-20230952D01*
X24522380Y-20135714D01*
X24522380Y-20040476D01*
X24474761Y-19945238D01*
X24427142Y-19897619D01*
X24331904Y-19850000D01*
X24141428Y-19802380D01*
X23903333Y-19802380D01*
X23712857Y-19850000D01*
X23617619Y-19897619D01*
X23570000Y-19945238D01*
X23522380Y-20040476D01*
X23855714Y-21230952D02*
X24522380Y-21230952D01*
X23855714Y-20802380D02*
X24379523Y-20802380D01*
X24474761Y-20850000D01*
X24522380Y-20945238D01*
X24522380Y-21088095D01*
X24474761Y-21183333D01*
X24427142Y-21230952D01*
X23855714Y-21564285D02*
X23855714Y-21945238D01*
X24522380Y-21707142D02*
X23665238Y-21707142D01*
X23570000Y-21754761D01*
X23522380Y-21850000D01*
X23522380Y-21945238D01*
D12*
X25928571Y-20266666D02*
X25952380Y-20242857D01*
X25976190Y-20171428D01*
X25976190Y-20123809D01*
X25952380Y-20052380D01*
X25904761Y-20004761D01*
X25857142Y-19980952D01*
X25761904Y-19957142D01*
X25690476Y-19957142D01*
X25595238Y-19980952D01*
X25547619Y-20004761D01*
X25500000Y-20052380D01*
X25476190Y-20123809D01*
X25476190Y-20171428D01*
X25500000Y-20242857D01*
X25523809Y-20266666D01*
X25476190Y-20719047D02*
X25476190Y-20480952D01*
X25714285Y-20457142D01*
X25690476Y-20480952D01*
X25666666Y-20528571D01*
X25666666Y-20647619D01*
X25690476Y-20695238D01*
X25714285Y-20719047D01*
X25761904Y-20742857D01*
X25880952Y-20742857D01*
X25928571Y-20719047D01*
X25952380Y-20695238D01*
X25976190Y-20647619D01*
X25976190Y-20528571D01*
X25952380Y-20480952D01*
X25928571Y-20457142D01*
D10*
X58328571Y-1461904D02*
X58376190Y-1604761D01*
X58423809Y-1652380D01*
X58519047Y-1700000D01*
X58661904Y-1700000D01*
X58757142Y-1652380D01*
X58804761Y-1604761D01*
X58852380Y-1509523D01*
X58852380Y-1128571D01*
X57852380Y-1128571D01*
X57852380Y-1461904D01*
X57900000Y-1557142D01*
X57947619Y-1604761D01*
X58042857Y-1652380D01*
X58138095Y-1652380D01*
X58233333Y-1604761D01*
X58280952Y-1557142D01*
X58328571Y-1461904D01*
X58328571Y-1128571D01*
X58566666Y-2080952D02*
X58566666Y-2557142D01*
X58852380Y-1985714D02*
X57852380Y-2319047D01*
X58852380Y-2652380D01*
X57852380Y-2842857D02*
X58852380Y-3176190D01*
X57852380Y-3509523D01*
X57852380Y-3747619D02*
X57852380Y-4414285D01*
X58852380Y-3985714D01*
X57852380Y-4985714D02*
X57852380Y-5080952D01*
X57900000Y-5176190D01*
X57947619Y-5223809D01*
X58042857Y-5271428D01*
X58233333Y-5319047D01*
X58471428Y-5319047D01*
X58661904Y-5271428D01*
X58757142Y-5223809D01*
X58804761Y-5176190D01*
X58852380Y-5080952D01*
X58852380Y-4985714D01*
X58804761Y-4890476D01*
X58757142Y-4842857D01*
X58661904Y-4795238D01*
X58471428Y-4747619D01*
X58233333Y-4747619D01*
X58042857Y-4795238D01*
X57947619Y-4842857D01*
X57900000Y-4890476D01*
X57852380Y-4985714D01*
X58947619Y-5509523D02*
X58947619Y-6271428D01*
X58804761Y-6461904D02*
X58852380Y-6604761D01*
X58852380Y-6842857D01*
X58804761Y-6938095D01*
X58757142Y-6985714D01*
X58661904Y-7033333D01*
X58566666Y-7033333D01*
X58471428Y-6985714D01*
X58423809Y-6938095D01*
X58376190Y-6842857D01*
X58328571Y-6652380D01*
X58280952Y-6557142D01*
X58233333Y-6509523D01*
X58138095Y-6461904D01*
X58042857Y-6461904D01*
X57947619Y-6509523D01*
X57900000Y-6557142D01*
X57852380Y-6652380D01*
X57852380Y-6890476D01*
X57900000Y-7033333D01*
X58852380Y-7461904D02*
X58185714Y-7461904D01*
X58280952Y-7461904D02*
X58233333Y-7509523D01*
X58185714Y-7604761D01*
X58185714Y-7747619D01*
X58233333Y-7842857D01*
X58328571Y-7890476D01*
X58852380Y-7890476D01*
X58328571Y-7890476D02*
X58233333Y-7938095D01*
X58185714Y-8033333D01*
X58185714Y-8176190D01*
X58233333Y-8271428D01*
X58328571Y-8319047D01*
X58852380Y-8319047D01*
X58852380Y-9223809D02*
X58328571Y-9223809D01*
X58233333Y-9176190D01*
X58185714Y-9080952D01*
X58185714Y-8890476D01*
X58233333Y-8795238D01*
X58804761Y-9223809D02*
X58852380Y-9128571D01*
X58852380Y-8890476D01*
X58804761Y-8795238D01*
X58709523Y-8747619D01*
X58614285Y-8747619D01*
X58519047Y-8795238D01*
X58471428Y-8890476D01*
X58471428Y-9128571D01*
X58423809Y-9223809D01*
X58852380Y-9842857D02*
X58804761Y-9747619D01*
X58709523Y-9700000D01*
X57852380Y-9700000D01*
X58852380Y-10366666D02*
X58804761Y-10271428D01*
X58709523Y-10223809D01*
X57852380Y-10223809D01*
D11*
X56745238Y-5926190D02*
X56745238Y-5426190D01*
X56626190Y-5426190D01*
X56554761Y-5450000D01*
X56507142Y-5497619D01*
X56483333Y-5545238D01*
X56459523Y-5640476D01*
X56459523Y-5711904D01*
X56483333Y-5807142D01*
X56507142Y-5854761D01*
X56554761Y-5902380D01*
X56626190Y-5926190D01*
X56745238Y-5926190D01*
X56269047Y-5473809D02*
X56245238Y-5450000D01*
X56197619Y-5426190D01*
X56078571Y-5426190D01*
X56030952Y-5450000D01*
X56007142Y-5473809D01*
X55983333Y-5521428D01*
X55983333Y-5569047D01*
X56007142Y-5640476D01*
X56292857Y-5926190D01*
X55983333Y-5926190D01*
X55673809Y-5426190D02*
X55626190Y-5426190D01*
X55578571Y-5450000D01*
X55554761Y-5473809D01*
X55530952Y-5521428D01*
X55507142Y-5616666D01*
X55507142Y-5735714D01*
X55530952Y-5830952D01*
X55554761Y-5878571D01*
X55578571Y-5902380D01*
X55626190Y-5926190D01*
X55673809Y-5926190D01*
X55721428Y-5902380D01*
X55745238Y-5878571D01*
X55769047Y-5830952D01*
X55792857Y-5735714D01*
X55792857Y-5616666D01*
X55769047Y-5521428D01*
X55745238Y-5473809D01*
X55721428Y-5450000D01*
X55673809Y-5426190D01*
X55340476Y-5426190D02*
X55030952Y-5426190D01*
X55197619Y-5616666D01*
X55126190Y-5616666D01*
X55078571Y-5640476D01*
X55054761Y-5664285D01*
X55030952Y-5711904D01*
X55030952Y-5830952D01*
X55054761Y-5878571D01*
X55078571Y-5902380D01*
X55126190Y-5926190D01*
X55269047Y-5926190D01*
X55316666Y-5902380D01*
X55340476Y-5878571D01*
D10*
X34678571Y-16961904D02*
X34726190Y-17104761D01*
X34773809Y-17152380D01*
X34869047Y-17200000D01*
X35011904Y-17200000D01*
X35107142Y-17152380D01*
X35154761Y-17104761D01*
X35202380Y-17009523D01*
X35202380Y-16628571D01*
X34202380Y-16628571D01*
X34202380Y-16961904D01*
X34250000Y-17057142D01*
X34297619Y-17104761D01*
X34392857Y-17152380D01*
X34488095Y-17152380D01*
X34583333Y-17104761D01*
X34630952Y-17057142D01*
X34678571Y-16961904D01*
X34678571Y-16628571D01*
X34916666Y-17580952D02*
X34916666Y-18057142D01*
X35202380Y-17485714D02*
X34202380Y-17819047D01*
X35202380Y-18152380D01*
X34202380Y-18342857D02*
X35202380Y-18676190D01*
X34202380Y-19009523D01*
X34202380Y-19247619D02*
X34202380Y-19914285D01*
X35202380Y-19485714D01*
X34202380Y-20485714D02*
X34202380Y-20580952D01*
X34250000Y-20676190D01*
X34297619Y-20723809D01*
X34392857Y-20771428D01*
X34583333Y-20819047D01*
X34821428Y-20819047D01*
X35011904Y-20771428D01*
X35107142Y-20723809D01*
X35154761Y-20676190D01*
X35202380Y-20580952D01*
X35202380Y-20485714D01*
X35154761Y-20390476D01*
X35107142Y-20342857D01*
X35011904Y-20295238D01*
X34821428Y-20247619D01*
X34583333Y-20247619D01*
X34392857Y-20295238D01*
X34297619Y-20342857D01*
X34250000Y-20390476D01*
X34202380Y-20485714D01*
X35297619Y-21009523D02*
X35297619Y-21771428D01*
X35154761Y-21961904D02*
X35202380Y-22104761D01*
X35202380Y-22342857D01*
X35154761Y-22438095D01*
X35107142Y-22485714D01*
X35011904Y-22533333D01*
X34916666Y-22533333D01*
X34821428Y-22485714D01*
X34773809Y-22438095D01*
X34726190Y-22342857D01*
X34678571Y-22152380D01*
X34630952Y-22057142D01*
X34583333Y-22009523D01*
X34488095Y-21961904D01*
X34392857Y-21961904D01*
X34297619Y-22009523D01*
X34250000Y-22057142D01*
X34202380Y-22152380D01*
X34202380Y-22390476D01*
X34250000Y-22533333D01*
X35202380Y-22961904D02*
X34535714Y-22961904D01*
X34630952Y-22961904D02*
X34583333Y-23009523D01*
X34535714Y-23104761D01*
X34535714Y-23247619D01*
X34583333Y-23342857D01*
X34678571Y-23390476D01*
X35202380Y-23390476D01*
X34678571Y-23390476D02*
X34583333Y-23438095D01*
X34535714Y-23533333D01*
X34535714Y-23676190D01*
X34583333Y-23771428D01*
X34678571Y-23819047D01*
X35202380Y-23819047D01*
X35202380Y-24723809D02*
X34678571Y-24723809D01*
X34583333Y-24676190D01*
X34535714Y-24580952D01*
X34535714Y-24390476D01*
X34583333Y-24295238D01*
X35154761Y-24723809D02*
X35202380Y-24628571D01*
X35202380Y-24390476D01*
X35154761Y-24295238D01*
X35059523Y-24247619D01*
X34964285Y-24247619D01*
X34869047Y-24295238D01*
X34821428Y-24390476D01*
X34821428Y-24628571D01*
X34773809Y-24723809D01*
X35202380Y-25342857D02*
X35154761Y-25247619D01*
X35059523Y-25200000D01*
X34202380Y-25200000D01*
X35202380Y-25866666D02*
X35154761Y-25771428D01*
X35059523Y-25723809D01*
X34202380Y-25723809D01*
D11*
X38333333Y-21426190D02*
X38333333Y-20926190D01*
X38214285Y-20926190D01*
X38142857Y-20950000D01*
X38095238Y-20997619D01*
X38071428Y-21045238D01*
X38047619Y-21140476D01*
X38047619Y-21211904D01*
X38071428Y-21307142D01*
X38095238Y-21354761D01*
X38142857Y-21402380D01*
X38214285Y-21426190D01*
X38333333Y-21426190D01*
X37571428Y-21426190D02*
X37857142Y-21426190D01*
X37714285Y-21426190D02*
X37714285Y-20926190D01*
X37761904Y-20997619D01*
X37809523Y-21045238D01*
X37857142Y-21069047D01*
X37261904Y-20926190D02*
X37214285Y-20926190D01*
X37166666Y-20950000D01*
X37142857Y-20973809D01*
X37119047Y-21021428D01*
X37095238Y-21116666D01*
X37095238Y-21235714D01*
X37119047Y-21330952D01*
X37142857Y-21378571D01*
X37166666Y-21402380D01*
X37214285Y-21426190D01*
X37261904Y-21426190D01*
X37309523Y-21402380D01*
X37333333Y-21378571D01*
X37357142Y-21330952D01*
X37380952Y-21235714D01*
X37380952Y-21116666D01*
X37357142Y-21021428D01*
X37333333Y-20973809D01*
X37309523Y-20950000D01*
X37261904Y-20926190D01*
X36619047Y-21426190D02*
X36904761Y-21426190D01*
X36761904Y-21426190D02*
X36761904Y-20926190D01*
X36809523Y-20997619D01*
X36857142Y-21045238D01*
X36904761Y-21069047D01*
X36142857Y-21426190D02*
X36428571Y-21426190D01*
X36285714Y-21426190D02*
X36285714Y-20926190D01*
X36333333Y-20997619D01*
X36380952Y-21045238D01*
X36428571Y-21069047D01*
D10*
X22402380Y-12069047D02*
X22402380Y-11592857D01*
X22878571Y-11545238D01*
X22830952Y-11592857D01*
X22783333Y-11688095D01*
X22783333Y-11926190D01*
X22830952Y-12021428D01*
X22878571Y-12069047D01*
X22973809Y-12116666D01*
X23211904Y-12116666D01*
X23307142Y-12069047D01*
X23354761Y-12021428D01*
X23402380Y-11926190D01*
X23402380Y-11688095D01*
X23354761Y-11592857D01*
X23307142Y-11545238D01*
X23307142Y-12545238D02*
X23354761Y-12592857D01*
X23402380Y-12545238D01*
X23354761Y-12497619D01*
X23307142Y-12545238D01*
X23402380Y-12545238D01*
X23402380Y-13545238D02*
X23402380Y-12973809D01*
X23402380Y-13259523D02*
X22402380Y-13259523D01*
X22545238Y-13164285D01*
X22640476Y-13069047D01*
X22688095Y-12973809D01*
X23402380Y-13973809D02*
X22402380Y-13973809D01*
X23021428Y-14069047D02*
X23402380Y-14354761D01*
X22735714Y-14354761D02*
X23116666Y-13973809D01*
D12*
X21526190Y-12866666D02*
X21288095Y-12700000D01*
X21526190Y-12580952D02*
X21026190Y-12580952D01*
X21026190Y-12771428D01*
X21050000Y-12819047D01*
X21073809Y-12842857D01*
X21121428Y-12866666D01*
X21192857Y-12866666D01*
X21240476Y-12842857D01*
X21264285Y-12819047D01*
X21288095Y-12771428D01*
X21288095Y-12580952D01*
X21192857Y-13295238D02*
X21526190Y-13295238D01*
X21002380Y-13176190D02*
X21359523Y-13057142D01*
X21359523Y-13366666D01*
D10*
X21237384Y-15021261D02*
X21094527Y-15068880D01*
X20856432Y-15068880D01*
X20761194Y-15021261D01*
X20713575Y-14973642D01*
X20665956Y-14878404D01*
X20665956Y-14783166D01*
X20713575Y-14687928D01*
X20761194Y-14640309D01*
X20856432Y-14592690D01*
X21046908Y-14545071D01*
X21142146Y-14497452D01*
X21189765Y-14449833D01*
X21237384Y-14354595D01*
X21237384Y-14259357D01*
X21189765Y-14164119D01*
X21142146Y-14116500D01*
X21046908Y-14068880D01*
X20808813Y-14068880D01*
X20665956Y-14116500D01*
X19665956Y-15068880D02*
X19999289Y-14592690D01*
X20237384Y-15068880D02*
X20237384Y-14068880D01*
X19856432Y-14068880D01*
X19761194Y-14116500D01*
X19713575Y-14164119D01*
X19665956Y-14259357D01*
X19665956Y-14402214D01*
X19713575Y-14497452D01*
X19761194Y-14545071D01*
X19856432Y-14592690D01*
X20237384Y-14592690D01*
X19380241Y-14068880D02*
X19046908Y-15068880D01*
X18713575Y-14068880D01*
X18189765Y-14068880D02*
X18094527Y-14068880D01*
X17999289Y-14116500D01*
X17951670Y-14164119D01*
X17904051Y-14259357D01*
X17856432Y-14449833D01*
X17856432Y-14687928D01*
X17904051Y-14878404D01*
X17951670Y-14973642D01*
X17999289Y-15021261D01*
X18094527Y-15068880D01*
X18189765Y-15068880D01*
X18285003Y-15021261D01*
X18332622Y-14973642D01*
X18380241Y-14878404D01*
X18427860Y-14687928D01*
X18427860Y-14449833D01*
X18380241Y-14259357D01*
X18332622Y-14164119D01*
X18285003Y-14116500D01*
X18189765Y-14068880D01*
X16951670Y-14068880D02*
X17427860Y-14068880D01*
X17475480Y-14545071D01*
X17427860Y-14497452D01*
X17332622Y-14449833D01*
X17094527Y-14449833D01*
X16999289Y-14497452D01*
X16951670Y-14545071D01*
X16904051Y-14640309D01*
X16904051Y-14878404D01*
X16951670Y-14973642D01*
X16999289Y-15021261D01*
X17094527Y-15068880D01*
X17332622Y-15068880D01*
X17427860Y-15021261D01*
X17475480Y-14973642D01*
X16475480Y-14687928D02*
X15713575Y-14687928D01*
X14808813Y-14402214D02*
X14808813Y-15068880D01*
X15046908Y-14021261D02*
X15285003Y-14735547D01*
X14665956Y-14735547D01*
D14*
X18280241Y-11997452D02*
X18280241Y-12321261D01*
X18261194Y-12359357D01*
X18242146Y-12378404D01*
X18204051Y-12397452D01*
X18127860Y-12397452D01*
X18089765Y-12378404D01*
X18070718Y-12359357D01*
X18051670Y-12321261D01*
X18051670Y-11997452D01*
X17651670Y-12397452D02*
X17880241Y-12397452D01*
X17765956Y-12397452D02*
X17765956Y-11997452D01*
X17804051Y-12054595D01*
X17842146Y-12092690D01*
X17880241Y-12111738D01*
D10*
X22297619Y-19588095D02*
X22250000Y-19635714D01*
X22202380Y-19730952D01*
X22202380Y-19969047D01*
X22250000Y-20064285D01*
X22297619Y-20111904D01*
X22392857Y-20159523D01*
X22488095Y-20159523D01*
X22630952Y-20111904D01*
X23202380Y-19540476D01*
X23202380Y-20159523D01*
X22297619Y-20540476D02*
X22250000Y-20588095D01*
X22202380Y-20683333D01*
X22202380Y-20921428D01*
X22250000Y-21016666D01*
X22297619Y-21064285D01*
X22392857Y-21111904D01*
X22488095Y-21111904D01*
X22630952Y-21064285D01*
X23202380Y-20492857D01*
X23202380Y-21111904D01*
D12*
X21326190Y-20266666D02*
X21088095Y-20100000D01*
X21326190Y-19980952D02*
X20826190Y-19980952D01*
X20826190Y-20171428D01*
X20850000Y-20219047D01*
X20873809Y-20242857D01*
X20921428Y-20266666D01*
X20992857Y-20266666D01*
X21040476Y-20242857D01*
X21064285Y-20219047D01*
X21088095Y-20171428D01*
X21088095Y-19980952D01*
X20873809Y-20457142D02*
X20850000Y-20480952D01*
X20826190Y-20528571D01*
X20826190Y-20647619D01*
X20850000Y-20695238D01*
X20873809Y-20719047D01*
X20921428Y-20742857D01*
X20969047Y-20742857D01*
X21040476Y-20719047D01*
X21326190Y-20433333D01*
X21326190Y-20742857D01*
D10*
X26522380Y-10521428D02*
X25522380Y-10521428D01*
X25522380Y-10902380D01*
X25570000Y-10997619D01*
X25617619Y-11045238D01*
X25712857Y-11092857D01*
X25855714Y-11092857D01*
X25950952Y-11045238D01*
X25998571Y-10997619D01*
X26046190Y-10902380D01*
X26046190Y-10521428D01*
X26522380Y-11664285D02*
X26474761Y-11569047D01*
X26427142Y-11521428D01*
X26331904Y-11473809D01*
X26046190Y-11473809D01*
X25950952Y-11521428D01*
X25903333Y-11569047D01*
X25855714Y-11664285D01*
X25855714Y-11807142D01*
X25903333Y-11902380D01*
X25950952Y-11950000D01*
X26046190Y-11997619D01*
X26331904Y-11997619D01*
X26427142Y-11950000D01*
X26474761Y-11902380D01*
X26522380Y-11807142D01*
X26522380Y-11664285D01*
X26522380Y-12569047D02*
X26474761Y-12473809D01*
X26379523Y-12426190D01*
X25522380Y-12426190D01*
X25855714Y-12854761D02*
X26522380Y-13092857D01*
X25855714Y-13330952D02*
X26522380Y-13092857D01*
X26760476Y-12997619D01*
X26808095Y-12950000D01*
X26855714Y-12854761D01*
X25855714Y-13569047D02*
X25855714Y-13950000D01*
X26522380Y-13711904D02*
X25665238Y-13711904D01*
X25570000Y-13759523D01*
X25522380Y-13854761D01*
X25522380Y-13950000D01*
X25855714Y-14711904D02*
X26522380Y-14711904D01*
X25855714Y-14283333D02*
X26379523Y-14283333D01*
X26474761Y-14330952D01*
X26522380Y-14426190D01*
X26522380Y-14569047D01*
X26474761Y-14664285D01*
X26427142Y-14711904D01*
X26474761Y-15140476D02*
X26522380Y-15235714D01*
X26522380Y-15426190D01*
X26474761Y-15521428D01*
X26379523Y-15569047D01*
X26331904Y-15569047D01*
X26236666Y-15521428D01*
X26189047Y-15426190D01*
X26189047Y-15283333D01*
X26141428Y-15188095D01*
X26046190Y-15140476D01*
X25998571Y-15140476D01*
X25903333Y-15188095D01*
X25855714Y-15283333D01*
X25855714Y-15426190D01*
X25903333Y-15521428D01*
X26474761Y-16378571D02*
X26522380Y-16283333D01*
X26522380Y-16092857D01*
X26474761Y-15997619D01*
X26379523Y-15950000D01*
X25998571Y-15950000D01*
X25903333Y-15997619D01*
X25855714Y-16092857D01*
X25855714Y-16283333D01*
X25903333Y-16378571D01*
X25998571Y-16426190D01*
X26093809Y-16426190D01*
X26189047Y-15950000D01*
D15*
X24192857Y-13183333D02*
X24192857Y-12916666D01*
X24611904Y-12916666D02*
X23811904Y-12916666D01*
X23811904Y-13297619D01*
X23811904Y-13754761D02*
X23811904Y-13830952D01*
X23850000Y-13907142D01*
X23888095Y-13945238D01*
X23964285Y-13983333D01*
X24116666Y-14021428D01*
X24307142Y-14021428D01*
X24459523Y-13983333D01*
X24535714Y-13945238D01*
X24573809Y-13907142D01*
X24611904Y-13830952D01*
X24611904Y-13754761D01*
X24573809Y-13678571D01*
X24535714Y-13640476D01*
X24459523Y-13602380D01*
X24307142Y-13564285D01*
X24116666Y-13564285D01*
X23964285Y-13602380D01*
X23888095Y-13640476D01*
X23850000Y-13678571D01*
X23811904Y-13754761D01*
D10*
X52978571Y-39061904D02*
X53026190Y-39204761D01*
X53073809Y-39252380D01*
X53169047Y-39300000D01*
X53311904Y-39300000D01*
X53407142Y-39252380D01*
X53454761Y-39204761D01*
X53502380Y-39109523D01*
X53502380Y-38728571D01*
X52502380Y-38728571D01*
X52502380Y-39061904D01*
X52550000Y-39157142D01*
X52597619Y-39204761D01*
X52692857Y-39252380D01*
X52788095Y-39252380D01*
X52883333Y-39204761D01*
X52930952Y-39157142D01*
X52978571Y-39061904D01*
X52978571Y-38728571D01*
X53216666Y-39680952D02*
X53216666Y-40157142D01*
X53502380Y-39585714D02*
X52502380Y-39919047D01*
X53502380Y-40252380D01*
X52502380Y-40442857D02*
X53502380Y-40776190D01*
X52502380Y-41109523D01*
X52502380Y-41347619D02*
X52502380Y-42014285D01*
X53502380Y-41585714D01*
X52502380Y-42585714D02*
X52502380Y-42680952D01*
X52550000Y-42776190D01*
X52597619Y-42823809D01*
X52692857Y-42871428D01*
X52883333Y-42919047D01*
X53121428Y-42919047D01*
X53311904Y-42871428D01*
X53407142Y-42823809D01*
X53454761Y-42776190D01*
X53502380Y-42680952D01*
X53502380Y-42585714D01*
X53454761Y-42490476D01*
X53407142Y-42442857D01*
X53311904Y-42395238D01*
X53121428Y-42347619D01*
X52883333Y-42347619D01*
X52692857Y-42395238D01*
X52597619Y-42442857D01*
X52550000Y-42490476D01*
X52502380Y-42585714D01*
X53597619Y-43109523D02*
X53597619Y-43871428D01*
X53454761Y-44061904D02*
X53502380Y-44204761D01*
X53502380Y-44442857D01*
X53454761Y-44538095D01*
X53407142Y-44585714D01*
X53311904Y-44633333D01*
X53216666Y-44633333D01*
X53121428Y-44585714D01*
X53073809Y-44538095D01*
X53026190Y-44442857D01*
X52978571Y-44252380D01*
X52930952Y-44157142D01*
X52883333Y-44109523D01*
X52788095Y-44061904D01*
X52692857Y-44061904D01*
X52597619Y-44109523D01*
X52550000Y-44157142D01*
X52502380Y-44252380D01*
X52502380Y-44490476D01*
X52550000Y-44633333D01*
X53502380Y-45061904D02*
X52835714Y-45061904D01*
X52930952Y-45061904D02*
X52883333Y-45109523D01*
X52835714Y-45204761D01*
X52835714Y-45347619D01*
X52883333Y-45442857D01*
X52978571Y-45490476D01*
X53502380Y-45490476D01*
X52978571Y-45490476D02*
X52883333Y-45538095D01*
X52835714Y-45633333D01*
X52835714Y-45776190D01*
X52883333Y-45871428D01*
X52978571Y-45919047D01*
X53502380Y-45919047D01*
X53502380Y-46823809D02*
X52978571Y-46823809D01*
X52883333Y-46776190D01*
X52835714Y-46680952D01*
X52835714Y-46490476D01*
X52883333Y-46395238D01*
X53454761Y-46823809D02*
X53502380Y-46728571D01*
X53502380Y-46490476D01*
X53454761Y-46395238D01*
X53359523Y-46347619D01*
X53264285Y-46347619D01*
X53169047Y-46395238D01*
X53121428Y-46490476D01*
X53121428Y-46728571D01*
X53073809Y-46823809D01*
X53502380Y-47442857D02*
X53454761Y-47347619D01*
X53359523Y-47300000D01*
X52502380Y-47300000D01*
X53502380Y-47966666D02*
X53454761Y-47871428D01*
X53359523Y-47823809D01*
X52502380Y-47823809D01*
D11*
X51633333Y-43526190D02*
X51633333Y-43026190D01*
X51514285Y-43026190D01*
X51442857Y-43050000D01*
X51395238Y-43097619D01*
X51371428Y-43145238D01*
X51347619Y-43240476D01*
X51347619Y-43311904D01*
X51371428Y-43407142D01*
X51395238Y-43454761D01*
X51442857Y-43502380D01*
X51514285Y-43526190D01*
X51633333Y-43526190D01*
X51157142Y-43073809D02*
X51133333Y-43050000D01*
X51085714Y-43026190D01*
X50966666Y-43026190D01*
X50919047Y-43050000D01*
X50895238Y-43073809D01*
X50871428Y-43121428D01*
X50871428Y-43169047D01*
X50895238Y-43240476D01*
X51180952Y-43526190D01*
X50871428Y-43526190D01*
X50680952Y-43073809D02*
X50657142Y-43050000D01*
X50609523Y-43026190D01*
X50490476Y-43026190D01*
X50442857Y-43050000D01*
X50419047Y-43073809D01*
X50395238Y-43121428D01*
X50395238Y-43169047D01*
X50419047Y-43240476D01*
X50704761Y-43526190D01*
X50395238Y-43526190D01*
X50204761Y-43073809D02*
X50180952Y-43050000D01*
X50133333Y-43026190D01*
X50014285Y-43026190D01*
X49966666Y-43050000D01*
X49942857Y-43073809D01*
X49919047Y-43121428D01*
X49919047Y-43169047D01*
X49942857Y-43240476D01*
X50228571Y-43526190D01*
X49919047Y-43526190D01*
X49752380Y-43026190D02*
X49442857Y-43026190D01*
X49609523Y-43216666D01*
X49538095Y-43216666D01*
X49490476Y-43240476D01*
X49466666Y-43264285D01*
X49442857Y-43311904D01*
X49442857Y-43430952D01*
X49466666Y-43478571D01*
X49490476Y-43502380D01*
X49538095Y-43526190D01*
X49680952Y-43526190D01*
X49728571Y-43502380D01*
X49752380Y-43478571D01*
D10*
X41638095Y-70078571D02*
X41495238Y-70126190D01*
X41447619Y-70173809D01*
X41400000Y-70269047D01*
X41400000Y-70411904D01*
X41447619Y-70507142D01*
X41495238Y-70554761D01*
X41590476Y-70602380D01*
X41971428Y-70602380D01*
X41971428Y-69602380D01*
X41638095Y-69602380D01*
X41542857Y-69650000D01*
X41495238Y-69697619D01*
X41447619Y-69792857D01*
X41447619Y-69888095D01*
X41495238Y-69983333D01*
X41542857Y-70030952D01*
X41638095Y-70078571D01*
X41971428Y-70078571D01*
X41019047Y-70316666D02*
X40542857Y-70316666D01*
X41114285Y-70602380D02*
X40780952Y-69602380D01*
X40447619Y-70602380D01*
X40257142Y-69602380D02*
X39923809Y-70602380D01*
X39590476Y-69602380D01*
X39352380Y-69602380D02*
X38685714Y-69602380D01*
X39114285Y-70602380D01*
X38114285Y-69602380D02*
X38019047Y-69602380D01*
X37923809Y-69650000D01*
X37876190Y-69697619D01*
X37828571Y-69792857D01*
X37780952Y-69983333D01*
X37780952Y-70221428D01*
X37828571Y-70411904D01*
X37876190Y-70507142D01*
X37923809Y-70554761D01*
X38019047Y-70602380D01*
X38114285Y-70602380D01*
X38209523Y-70554761D01*
X38257142Y-70507142D01*
X38304761Y-70411904D01*
X38352380Y-70221428D01*
X38352380Y-69983333D01*
X38304761Y-69792857D01*
X38257142Y-69697619D01*
X38209523Y-69650000D01*
X38114285Y-69602380D01*
X37590476Y-70697619D02*
X36828571Y-70697619D01*
X36638095Y-70554761D02*
X36495238Y-70602380D01*
X36257142Y-70602380D01*
X36161904Y-70554761D01*
X36114285Y-70507142D01*
X36066666Y-70411904D01*
X36066666Y-70316666D01*
X36114285Y-70221428D01*
X36161904Y-70173809D01*
X36257142Y-70126190D01*
X36447619Y-70078571D01*
X36542857Y-70030952D01*
X36590476Y-69983333D01*
X36638095Y-69888095D01*
X36638095Y-69792857D01*
X36590476Y-69697619D01*
X36542857Y-69650000D01*
X36447619Y-69602380D01*
X36209523Y-69602380D01*
X36066666Y-69650000D01*
X35638095Y-70602380D02*
X35638095Y-69935714D01*
X35638095Y-70030952D02*
X35590476Y-69983333D01*
X35495238Y-69935714D01*
X35352380Y-69935714D01*
X35257142Y-69983333D01*
X35209523Y-70078571D01*
X35209523Y-70602380D01*
X35209523Y-70078571D02*
X35161904Y-69983333D01*
X35066666Y-69935714D01*
X34923809Y-69935714D01*
X34828571Y-69983333D01*
X34780952Y-70078571D01*
X34780952Y-70602380D01*
X33876190Y-70602380D02*
X33876190Y-70078571D01*
X33923809Y-69983333D01*
X34019047Y-69935714D01*
X34209523Y-69935714D01*
X34304761Y-69983333D01*
X33876190Y-70554761D02*
X33971428Y-70602380D01*
X34209523Y-70602380D01*
X34304761Y-70554761D01*
X34352380Y-70459523D01*
X34352380Y-70364285D01*
X34304761Y-70269047D01*
X34209523Y-70221428D01*
X33971428Y-70221428D01*
X33876190Y-70173809D01*
X33257142Y-70602380D02*
X33352380Y-70554761D01*
X33400000Y-70459523D01*
X33400000Y-69602380D01*
X32733333Y-70602380D02*
X32828571Y-70554761D01*
X32876190Y-70459523D01*
X32876190Y-69602380D01*
D11*
X37626190Y-66328571D02*
X37126190Y-66328571D01*
X37126190Y-66447619D01*
X37150000Y-66519047D01*
X37197619Y-66566666D01*
X37245238Y-66590476D01*
X37340476Y-66614285D01*
X37411904Y-66614285D01*
X37507142Y-66590476D01*
X37554761Y-66566666D01*
X37602380Y-66519047D01*
X37626190Y-66447619D01*
X37626190Y-66328571D01*
X37292857Y-67042857D02*
X37626190Y-67042857D01*
X37102380Y-66923809D02*
X37459523Y-66804761D01*
X37459523Y-67114285D01*
X37626190Y-67328571D02*
X37626190Y-67423809D01*
X37602380Y-67471428D01*
X37578571Y-67495238D01*
X37507142Y-67542857D01*
X37411904Y-67566666D01*
X37221428Y-67566666D01*
X37173809Y-67542857D01*
X37150000Y-67519047D01*
X37126190Y-67471428D01*
X37126190Y-67376190D01*
X37150000Y-67328571D01*
X37173809Y-67304761D01*
X37221428Y-67280952D01*
X37340476Y-67280952D01*
X37388095Y-67304761D01*
X37411904Y-67328571D01*
X37435714Y-67376190D01*
X37435714Y-67471428D01*
X37411904Y-67519047D01*
X37388095Y-67542857D01*
X37340476Y-67566666D01*
X37292857Y-67995238D02*
X37626190Y-67995238D01*
X37102380Y-67876190D02*
X37459523Y-67757142D01*
X37459523Y-68066666D01*
X37626190Y-68519047D02*
X37626190Y-68233333D01*
X37626190Y-68376190D02*
X37126190Y-68376190D01*
X37197619Y-68328571D01*
X37245238Y-68280952D01*
X37269047Y-68233333D01*
X37126190Y-68828571D02*
X37126190Y-68876190D01*
X37150000Y-68923809D01*
X37173809Y-68947619D01*
X37221428Y-68971428D01*
X37316666Y-68995238D01*
X37435714Y-68995238D01*
X37530952Y-68971428D01*
X37578571Y-68947619D01*
X37602380Y-68923809D01*
X37626190Y-68876190D01*
X37626190Y-68828571D01*
X37602380Y-68780952D01*
X37578571Y-68757142D01*
X37530952Y-68733333D01*
X37435714Y-68709523D01*
X37316666Y-68709523D01*
X37221428Y-68733333D01*
X37173809Y-68757142D01*
X37150000Y-68780952D01*
X37126190Y-68828571D01*
D10*
X41638095Y-77378571D02*
X41495238Y-77426190D01*
X41447619Y-77473809D01*
X41400000Y-77569047D01*
X41400000Y-77711904D01*
X41447619Y-77807142D01*
X41495238Y-77854761D01*
X41590476Y-77902380D01*
X41971428Y-77902380D01*
X41971428Y-76902380D01*
X41638095Y-76902380D01*
X41542857Y-76950000D01*
X41495238Y-76997619D01*
X41447619Y-77092857D01*
X41447619Y-77188095D01*
X41495238Y-77283333D01*
X41542857Y-77330952D01*
X41638095Y-77378571D01*
X41971428Y-77378571D01*
X41019047Y-77616666D02*
X40542857Y-77616666D01*
X41114285Y-77902380D02*
X40780952Y-76902380D01*
X40447619Y-77902380D01*
X40257142Y-76902380D02*
X39923809Y-77902380D01*
X39590476Y-76902380D01*
X39352380Y-76902380D02*
X38685714Y-76902380D01*
X39114285Y-77902380D01*
X38114285Y-76902380D02*
X38019047Y-76902380D01*
X37923809Y-76950000D01*
X37876190Y-76997619D01*
X37828571Y-77092857D01*
X37780952Y-77283333D01*
X37780952Y-77521428D01*
X37828571Y-77711904D01*
X37876190Y-77807142D01*
X37923809Y-77854761D01*
X38019047Y-77902380D01*
X38114285Y-77902380D01*
X38209523Y-77854761D01*
X38257142Y-77807142D01*
X38304761Y-77711904D01*
X38352380Y-77521428D01*
X38352380Y-77283333D01*
X38304761Y-77092857D01*
X38257142Y-76997619D01*
X38209523Y-76950000D01*
X38114285Y-76902380D01*
X37590476Y-77997619D02*
X36828571Y-77997619D01*
X36638095Y-77854761D02*
X36495238Y-77902380D01*
X36257142Y-77902380D01*
X36161904Y-77854761D01*
X36114285Y-77807142D01*
X36066666Y-77711904D01*
X36066666Y-77616666D01*
X36114285Y-77521428D01*
X36161904Y-77473809D01*
X36257142Y-77426190D01*
X36447619Y-77378571D01*
X36542857Y-77330952D01*
X36590476Y-77283333D01*
X36638095Y-77188095D01*
X36638095Y-77092857D01*
X36590476Y-76997619D01*
X36542857Y-76950000D01*
X36447619Y-76902380D01*
X36209523Y-76902380D01*
X36066666Y-76950000D01*
X35638095Y-77902380D02*
X35638095Y-77235714D01*
X35638095Y-77330952D02*
X35590476Y-77283333D01*
X35495238Y-77235714D01*
X35352380Y-77235714D01*
X35257142Y-77283333D01*
X35209523Y-77378571D01*
X35209523Y-77902380D01*
X35209523Y-77378571D02*
X35161904Y-77283333D01*
X35066666Y-77235714D01*
X34923809Y-77235714D01*
X34828571Y-77283333D01*
X34780952Y-77378571D01*
X34780952Y-77902380D01*
X33876190Y-77902380D02*
X33876190Y-77378571D01*
X33923809Y-77283333D01*
X34019047Y-77235714D01*
X34209523Y-77235714D01*
X34304761Y-77283333D01*
X33876190Y-77854761D02*
X33971428Y-77902380D01*
X34209523Y-77902380D01*
X34304761Y-77854761D01*
X34352380Y-77759523D01*
X34352380Y-77664285D01*
X34304761Y-77569047D01*
X34209523Y-77521428D01*
X33971428Y-77521428D01*
X33876190Y-77473809D01*
X33257142Y-77902380D02*
X33352380Y-77854761D01*
X33400000Y-77759523D01*
X33400000Y-76902380D01*
X32733333Y-77902380D02*
X32828571Y-77854761D01*
X32876190Y-77759523D01*
X32876190Y-76902380D01*
D11*
X37626190Y-73866666D02*
X37126190Y-73866666D01*
X37126190Y-73985714D01*
X37150000Y-74057142D01*
X37197619Y-74104761D01*
X37245238Y-74128571D01*
X37340476Y-74152380D01*
X37411904Y-74152380D01*
X37507142Y-74128571D01*
X37554761Y-74104761D01*
X37602380Y-74057142D01*
X37626190Y-73985714D01*
X37626190Y-73866666D01*
X37292857Y-74580952D02*
X37626190Y-74580952D01*
X37102380Y-74461904D02*
X37459523Y-74342857D01*
X37459523Y-74652380D01*
X37126190Y-74938095D02*
X37126190Y-74985714D01*
X37150000Y-75033333D01*
X37173809Y-75057142D01*
X37221428Y-75080952D01*
X37316666Y-75104761D01*
X37435714Y-75104761D01*
X37530952Y-75080952D01*
X37578571Y-75057142D01*
X37602380Y-75033333D01*
X37626190Y-74985714D01*
X37626190Y-74938095D01*
X37602380Y-74890476D01*
X37578571Y-74866666D01*
X37530952Y-74842857D01*
X37435714Y-74819047D01*
X37316666Y-74819047D01*
X37221428Y-74842857D01*
X37173809Y-74866666D01*
X37150000Y-74890476D01*
X37126190Y-74938095D01*
X37292857Y-75533333D02*
X37626190Y-75533333D01*
X37102380Y-75414285D02*
X37459523Y-75295238D01*
X37459523Y-75604761D01*
X37626190Y-76057142D02*
X37626190Y-75771428D01*
X37626190Y-75914285D02*
X37126190Y-75914285D01*
X37197619Y-75866666D01*
X37245238Y-75819047D01*
X37269047Y-75771428D01*
D10*
X47378571Y-17011904D02*
X47426190Y-17154761D01*
X47473809Y-17202380D01*
X47569047Y-17250000D01*
X47711904Y-17250000D01*
X47807142Y-17202380D01*
X47854761Y-17154761D01*
X47902380Y-17059523D01*
X47902380Y-16678571D01*
X46902380Y-16678571D01*
X46902380Y-17011904D01*
X46950000Y-17107142D01*
X46997619Y-17154761D01*
X47092857Y-17202380D01*
X47188095Y-17202380D01*
X47283333Y-17154761D01*
X47330952Y-17107142D01*
X47378571Y-17011904D01*
X47378571Y-16678571D01*
X47616666Y-17630952D02*
X47616666Y-18107142D01*
X47902380Y-17535714D02*
X46902380Y-17869047D01*
X47902380Y-18202380D01*
X46902380Y-18392857D02*
X47902380Y-18726190D01*
X46902380Y-19059523D01*
X46902380Y-19297619D02*
X46902380Y-19964285D01*
X47902380Y-19535714D01*
X46902380Y-20535714D02*
X46902380Y-20630952D01*
X46950000Y-20726190D01*
X46997619Y-20773809D01*
X47092857Y-20821428D01*
X47283333Y-20869047D01*
X47521428Y-20869047D01*
X47711904Y-20821428D01*
X47807142Y-20773809D01*
X47854761Y-20726190D01*
X47902380Y-20630952D01*
X47902380Y-20535714D01*
X47854761Y-20440476D01*
X47807142Y-20392857D01*
X47711904Y-20345238D01*
X47521428Y-20297619D01*
X47283333Y-20297619D01*
X47092857Y-20345238D01*
X46997619Y-20392857D01*
X46950000Y-20440476D01*
X46902380Y-20535714D01*
X47997619Y-21059523D02*
X47997619Y-21821428D01*
X47854761Y-22011904D02*
X47902380Y-22154761D01*
X47902380Y-22392857D01*
X47854761Y-22488095D01*
X47807142Y-22535714D01*
X47711904Y-22583333D01*
X47616666Y-22583333D01*
X47521428Y-22535714D01*
X47473809Y-22488095D01*
X47426190Y-22392857D01*
X47378571Y-22202380D01*
X47330952Y-22107142D01*
X47283333Y-22059523D01*
X47188095Y-22011904D01*
X47092857Y-22011904D01*
X46997619Y-22059523D01*
X46950000Y-22107142D01*
X46902380Y-22202380D01*
X46902380Y-22440476D01*
X46950000Y-22583333D01*
X47902380Y-23011904D02*
X47235714Y-23011904D01*
X47330952Y-23011904D02*
X47283333Y-23059523D01*
X47235714Y-23154761D01*
X47235714Y-23297619D01*
X47283333Y-23392857D01*
X47378571Y-23440476D01*
X47902380Y-23440476D01*
X47378571Y-23440476D02*
X47283333Y-23488095D01*
X47235714Y-23583333D01*
X47235714Y-23726190D01*
X47283333Y-23821428D01*
X47378571Y-23869047D01*
X47902380Y-23869047D01*
X47902380Y-24773809D02*
X47378571Y-24773809D01*
X47283333Y-24726190D01*
X47235714Y-24630952D01*
X47235714Y-24440476D01*
X47283333Y-24345238D01*
X47854761Y-24773809D02*
X47902380Y-24678571D01*
X47902380Y-24440476D01*
X47854761Y-24345238D01*
X47759523Y-24297619D01*
X47664285Y-24297619D01*
X47569047Y-24345238D01*
X47521428Y-24440476D01*
X47521428Y-24678571D01*
X47473809Y-24773809D01*
X47902380Y-25392857D02*
X47854761Y-25297619D01*
X47759523Y-25250000D01*
X46902380Y-25250000D01*
X47902380Y-25916666D02*
X47854761Y-25821428D01*
X47759523Y-25773809D01*
X46902380Y-25773809D01*
D11*
X46509523Y-21476190D02*
X46509523Y-20976190D01*
X46390476Y-20976190D01*
X46319047Y-21000000D01*
X46271428Y-21047619D01*
X46247619Y-21095238D01*
X46223809Y-21190476D01*
X46223809Y-21261904D01*
X46247619Y-21357142D01*
X46271428Y-21404761D01*
X46319047Y-21452380D01*
X46390476Y-21476190D01*
X46509523Y-21476190D01*
X45747619Y-21476190D02*
X46033333Y-21476190D01*
X45890476Y-21476190D02*
X45890476Y-20976190D01*
X45938095Y-21047619D01*
X45985714Y-21095238D01*
X46033333Y-21119047D01*
X45271428Y-21476190D02*
X45557142Y-21476190D01*
X45414285Y-21476190D02*
X45414285Y-20976190D01*
X45461904Y-21047619D01*
X45509523Y-21095238D01*
X45557142Y-21119047D01*
X44961904Y-20976190D02*
X44914285Y-20976190D01*
X44866666Y-21000000D01*
X44842857Y-21023809D01*
X44819047Y-21071428D01*
X44795238Y-21166666D01*
X44795238Y-21285714D01*
X44819047Y-21380952D01*
X44842857Y-21428571D01*
X44866666Y-21452380D01*
X44914285Y-21476190D01*
X44961904Y-21476190D01*
X45009523Y-21452380D01*
X45033333Y-21428571D01*
X45057142Y-21380952D01*
X45080952Y-21285714D01*
X45080952Y-21166666D01*
X45057142Y-21071428D01*
X45033333Y-21023809D01*
X45009523Y-21000000D01*
X44961904Y-20976190D01*
X44319047Y-21476190D02*
X44604761Y-21476190D01*
X44461904Y-21476190D02*
X44461904Y-20976190D01*
X44509523Y-21047619D01*
X44557142Y-21095238D01*
X44604761Y-21119047D01*
X43842857Y-21476190D02*
X44128571Y-21476190D01*
X43985714Y-21476190D02*
X43985714Y-20976190D01*
X44033333Y-21047619D01*
X44080952Y-21095238D01*
X44128571Y-21119047D01*
X43366666Y-21476190D02*
X43652380Y-21476190D01*
X43509523Y-21476190D02*
X43509523Y-20976190D01*
X43557142Y-21047619D01*
X43604761Y-21095238D01*
X43652380Y-21119047D01*
D10*
X41638095Y-66478571D02*
X41495238Y-66526190D01*
X41447619Y-66573809D01*
X41400000Y-66669047D01*
X41400000Y-66811904D01*
X41447619Y-66907142D01*
X41495238Y-66954761D01*
X41590476Y-67002380D01*
X41971428Y-67002380D01*
X41971428Y-66002380D01*
X41638095Y-66002380D01*
X41542857Y-66050000D01*
X41495238Y-66097619D01*
X41447619Y-66192857D01*
X41447619Y-66288095D01*
X41495238Y-66383333D01*
X41542857Y-66430952D01*
X41638095Y-66478571D01*
X41971428Y-66478571D01*
X41019047Y-66716666D02*
X40542857Y-66716666D01*
X41114285Y-67002380D02*
X40780952Y-66002380D01*
X40447619Y-67002380D01*
X40257142Y-66002380D02*
X39923809Y-67002380D01*
X39590476Y-66002380D01*
X39352380Y-66002380D02*
X38685714Y-66002380D01*
X39114285Y-67002380D01*
X38114285Y-66002380D02*
X38019047Y-66002380D01*
X37923809Y-66050000D01*
X37876190Y-66097619D01*
X37828571Y-66192857D01*
X37780952Y-66383333D01*
X37780952Y-66621428D01*
X37828571Y-66811904D01*
X37876190Y-66907142D01*
X37923809Y-66954761D01*
X38019047Y-67002380D01*
X38114285Y-67002380D01*
X38209523Y-66954761D01*
X38257142Y-66907142D01*
X38304761Y-66811904D01*
X38352380Y-66621428D01*
X38352380Y-66383333D01*
X38304761Y-66192857D01*
X38257142Y-66097619D01*
X38209523Y-66050000D01*
X38114285Y-66002380D01*
X37590476Y-67097619D02*
X36828571Y-67097619D01*
X36638095Y-66954761D02*
X36495238Y-67002380D01*
X36257142Y-67002380D01*
X36161904Y-66954761D01*
X36114285Y-66907142D01*
X36066666Y-66811904D01*
X36066666Y-66716666D01*
X36114285Y-66621428D01*
X36161904Y-66573809D01*
X36257142Y-66526190D01*
X36447619Y-66478571D01*
X36542857Y-66430952D01*
X36590476Y-66383333D01*
X36638095Y-66288095D01*
X36638095Y-66192857D01*
X36590476Y-66097619D01*
X36542857Y-66050000D01*
X36447619Y-66002380D01*
X36209523Y-66002380D01*
X36066666Y-66050000D01*
X35638095Y-67002380D02*
X35638095Y-66335714D01*
X35638095Y-66430952D02*
X35590476Y-66383333D01*
X35495238Y-66335714D01*
X35352380Y-66335714D01*
X35257142Y-66383333D01*
X35209523Y-66478571D01*
X35209523Y-67002380D01*
X35209523Y-66478571D02*
X35161904Y-66383333D01*
X35066666Y-66335714D01*
X34923809Y-66335714D01*
X34828571Y-66383333D01*
X34780952Y-66478571D01*
X34780952Y-67002380D01*
X33876190Y-67002380D02*
X33876190Y-66478571D01*
X33923809Y-66383333D01*
X34019047Y-66335714D01*
X34209523Y-66335714D01*
X34304761Y-66383333D01*
X33876190Y-66954761D02*
X33971428Y-67002380D01*
X34209523Y-67002380D01*
X34304761Y-66954761D01*
X34352380Y-66859523D01*
X34352380Y-66764285D01*
X34304761Y-66669047D01*
X34209523Y-66621428D01*
X33971428Y-66621428D01*
X33876190Y-66573809D01*
X33257142Y-67002380D02*
X33352380Y-66954761D01*
X33400000Y-66859523D01*
X33400000Y-66002380D01*
X32733333Y-67002380D02*
X32828571Y-66954761D01*
X32876190Y-66859523D01*
X32876190Y-66002380D01*
D11*
X37626190Y-62490476D02*
X37126190Y-62490476D01*
X37126190Y-62609523D01*
X37150000Y-62680952D01*
X37197619Y-62728571D01*
X37245238Y-62752380D01*
X37340476Y-62776190D01*
X37411904Y-62776190D01*
X37507142Y-62752380D01*
X37554761Y-62728571D01*
X37602380Y-62680952D01*
X37626190Y-62609523D01*
X37626190Y-62490476D01*
X37292857Y-63204761D02*
X37626190Y-63204761D01*
X37102380Y-63085714D02*
X37459523Y-62966666D01*
X37459523Y-63276190D01*
X37626190Y-63728571D02*
X37626190Y-63442857D01*
X37626190Y-63585714D02*
X37126190Y-63585714D01*
X37197619Y-63538095D01*
X37245238Y-63490476D01*
X37269047Y-63442857D01*
X37626190Y-64204761D02*
X37626190Y-63919047D01*
X37626190Y-64061904D02*
X37126190Y-64061904D01*
X37197619Y-64014285D01*
X37245238Y-63966666D01*
X37269047Y-63919047D01*
X37292857Y-64633333D02*
X37626190Y-64633333D01*
X37102380Y-64514285D02*
X37459523Y-64395238D01*
X37459523Y-64704761D01*
X37626190Y-65157142D02*
X37626190Y-64871428D01*
X37626190Y-65014285D02*
X37126190Y-65014285D01*
X37197619Y-64966666D01*
X37245238Y-64919047D01*
X37269047Y-64871428D01*
X37126190Y-65323809D02*
X37126190Y-65633333D01*
X37316666Y-65466666D01*
X37316666Y-65538095D01*
X37340476Y-65585714D01*
X37364285Y-65609523D01*
X37411904Y-65633333D01*
X37530952Y-65633333D01*
X37578571Y-65609523D01*
X37602380Y-65585714D01*
X37626190Y-65538095D01*
X37626190Y-65395238D01*
X37602380Y-65347619D01*
X37578571Y-65323809D01*
D10*
X43288095Y-5028571D02*
X43145238Y-5076190D01*
X43097619Y-5123809D01*
X43050000Y-5219047D01*
X43050000Y-5361904D01*
X43097619Y-5457142D01*
X43145238Y-5504761D01*
X43240476Y-5552380D01*
X43621428Y-5552380D01*
X43621428Y-4552380D01*
X43288095Y-4552380D01*
X43192857Y-4600000D01*
X43145238Y-4647619D01*
X43097619Y-4742857D01*
X43097619Y-4838095D01*
X43145238Y-4933333D01*
X43192857Y-4980952D01*
X43288095Y-5028571D01*
X43621428Y-5028571D01*
X42669047Y-5266666D02*
X42192857Y-5266666D01*
X42764285Y-5552380D02*
X42430952Y-4552380D01*
X42097619Y-5552380D01*
X41907142Y-4552380D02*
X41573809Y-5552380D01*
X41240476Y-4552380D01*
X41002380Y-4552380D02*
X40335714Y-4552380D01*
X40764285Y-5552380D01*
X39764285Y-4552380D02*
X39669047Y-4552380D01*
X39573809Y-4600000D01*
X39526190Y-4647619D01*
X39478571Y-4742857D01*
X39430952Y-4933333D01*
X39430952Y-5171428D01*
X39478571Y-5361904D01*
X39526190Y-5457142D01*
X39573809Y-5504761D01*
X39669047Y-5552380D01*
X39764285Y-5552380D01*
X39859523Y-5504761D01*
X39907142Y-5457142D01*
X39954761Y-5361904D01*
X40002380Y-5171428D01*
X40002380Y-4933333D01*
X39954761Y-4742857D01*
X39907142Y-4647619D01*
X39859523Y-4600000D01*
X39764285Y-4552380D01*
X39240476Y-5647619D02*
X38478571Y-5647619D01*
X38288095Y-5504761D02*
X38145238Y-5552380D01*
X37907142Y-5552380D01*
X37811904Y-5504761D01*
X37764285Y-5457142D01*
X37716666Y-5361904D01*
X37716666Y-5266666D01*
X37764285Y-5171428D01*
X37811904Y-5123809D01*
X37907142Y-5076190D01*
X38097619Y-5028571D01*
X38192857Y-4980952D01*
X38240476Y-4933333D01*
X38288095Y-4838095D01*
X38288095Y-4742857D01*
X38240476Y-4647619D01*
X38192857Y-4600000D01*
X38097619Y-4552380D01*
X37859523Y-4552380D01*
X37716666Y-4600000D01*
X37288095Y-5552380D02*
X37288095Y-4885714D01*
X37288095Y-4980952D02*
X37240476Y-4933333D01*
X37145238Y-4885714D01*
X37002380Y-4885714D01*
X36907142Y-4933333D01*
X36859523Y-5028571D01*
X36859523Y-5552380D01*
X36859523Y-5028571D02*
X36811904Y-4933333D01*
X36716666Y-4885714D01*
X36573809Y-4885714D01*
X36478571Y-4933333D01*
X36430952Y-5028571D01*
X36430952Y-5552380D01*
X35526190Y-5552380D02*
X35526190Y-5028571D01*
X35573809Y-4933333D01*
X35669047Y-4885714D01*
X35859523Y-4885714D01*
X35954761Y-4933333D01*
X35526190Y-5504761D02*
X35621428Y-5552380D01*
X35859523Y-5552380D01*
X35954761Y-5504761D01*
X36002380Y-5409523D01*
X36002380Y-5314285D01*
X35954761Y-5219047D01*
X35859523Y-5171428D01*
X35621428Y-5171428D01*
X35526190Y-5123809D01*
X34907142Y-5552380D02*
X35002380Y-5504761D01*
X35050000Y-5409523D01*
X35050000Y-4552380D01*
X34383333Y-5552380D02*
X34478571Y-5504761D01*
X34526190Y-5409523D01*
X34526190Y-4552380D01*
D11*
X39276190Y-1754761D02*
X38776190Y-1754761D01*
X38776190Y-1873809D01*
X38800000Y-1945238D01*
X38847619Y-1992857D01*
X38895238Y-2016666D01*
X38990476Y-2040476D01*
X39061904Y-2040476D01*
X39157142Y-2016666D01*
X39204761Y-1992857D01*
X39252380Y-1945238D01*
X39276190Y-1873809D01*
X39276190Y-1754761D01*
X38990476Y-2326190D02*
X38966666Y-2278571D01*
X38942857Y-2254761D01*
X38895238Y-2230952D01*
X38871428Y-2230952D01*
X38823809Y-2254761D01*
X38800000Y-2278571D01*
X38776190Y-2326190D01*
X38776190Y-2421428D01*
X38800000Y-2469047D01*
X38823809Y-2492857D01*
X38871428Y-2516666D01*
X38895238Y-2516666D01*
X38942857Y-2492857D01*
X38966666Y-2469047D01*
X38990476Y-2421428D01*
X38990476Y-2326190D01*
X39014285Y-2278571D01*
X39038095Y-2254761D01*
X39085714Y-2230952D01*
X39180952Y-2230952D01*
X39228571Y-2254761D01*
X39252380Y-2278571D01*
X39276190Y-2326190D01*
X39276190Y-2421428D01*
X39252380Y-2469047D01*
X39228571Y-2492857D01*
X39180952Y-2516666D01*
X39085714Y-2516666D01*
X39038095Y-2492857D01*
X39014285Y-2469047D01*
X38990476Y-2421428D01*
X38776190Y-2826190D02*
X38776190Y-2873809D01*
X38800000Y-2921428D01*
X38823809Y-2945238D01*
X38871428Y-2969047D01*
X38966666Y-2992857D01*
X39085714Y-2992857D01*
X39180952Y-2969047D01*
X39228571Y-2945238D01*
X39252380Y-2921428D01*
X39276190Y-2873809D01*
X39276190Y-2826190D01*
X39252380Y-2778571D01*
X39228571Y-2754761D01*
X39180952Y-2730952D01*
X39085714Y-2707142D01*
X38966666Y-2707142D01*
X38871428Y-2730952D01*
X38823809Y-2754761D01*
X38800000Y-2778571D01*
X38776190Y-2826190D01*
X39276190Y-3230952D02*
X39276190Y-3326190D01*
X39252380Y-3373809D01*
X39228571Y-3397619D01*
X39157142Y-3445238D01*
X39061904Y-3469047D01*
X38871428Y-3469047D01*
X38823809Y-3445238D01*
X38800000Y-3421428D01*
X38776190Y-3373809D01*
X38776190Y-3278571D01*
X38800000Y-3230952D01*
X38823809Y-3207142D01*
X38871428Y-3183333D01*
X38990476Y-3183333D01*
X39038095Y-3207142D01*
X39061904Y-3230952D01*
X39085714Y-3278571D01*
X39085714Y-3373809D01*
X39061904Y-3421428D01*
X39038095Y-3445238D01*
X38990476Y-3469047D01*
D10*
X41638095Y-62828571D02*
X41495238Y-62876190D01*
X41447619Y-62923809D01*
X41400000Y-63019047D01*
X41400000Y-63161904D01*
X41447619Y-63257142D01*
X41495238Y-63304761D01*
X41590476Y-63352380D01*
X41971428Y-63352380D01*
X41971428Y-62352380D01*
X41638095Y-62352380D01*
X41542857Y-62400000D01*
X41495238Y-62447619D01*
X41447619Y-62542857D01*
X41447619Y-62638095D01*
X41495238Y-62733333D01*
X41542857Y-62780952D01*
X41638095Y-62828571D01*
X41971428Y-62828571D01*
X41019047Y-63066666D02*
X40542857Y-63066666D01*
X41114285Y-63352380D02*
X40780952Y-62352380D01*
X40447619Y-63352380D01*
X40257142Y-62352380D02*
X39923809Y-63352380D01*
X39590476Y-62352380D01*
X39352380Y-62352380D02*
X38685714Y-62352380D01*
X39114285Y-63352380D01*
X38114285Y-62352380D02*
X38019047Y-62352380D01*
X37923809Y-62400000D01*
X37876190Y-62447619D01*
X37828571Y-62542857D01*
X37780952Y-62733333D01*
X37780952Y-62971428D01*
X37828571Y-63161904D01*
X37876190Y-63257142D01*
X37923809Y-63304761D01*
X38019047Y-63352380D01*
X38114285Y-63352380D01*
X38209523Y-63304761D01*
X38257142Y-63257142D01*
X38304761Y-63161904D01*
X38352380Y-62971428D01*
X38352380Y-62733333D01*
X38304761Y-62542857D01*
X38257142Y-62447619D01*
X38209523Y-62400000D01*
X38114285Y-62352380D01*
X37590476Y-63447619D02*
X36828571Y-63447619D01*
X36638095Y-63304761D02*
X36495238Y-63352380D01*
X36257142Y-63352380D01*
X36161904Y-63304761D01*
X36114285Y-63257142D01*
X36066666Y-63161904D01*
X36066666Y-63066666D01*
X36114285Y-62971428D01*
X36161904Y-62923809D01*
X36257142Y-62876190D01*
X36447619Y-62828571D01*
X36542857Y-62780952D01*
X36590476Y-62733333D01*
X36638095Y-62638095D01*
X36638095Y-62542857D01*
X36590476Y-62447619D01*
X36542857Y-62400000D01*
X36447619Y-62352380D01*
X36209523Y-62352380D01*
X36066666Y-62400000D01*
X35638095Y-63352380D02*
X35638095Y-62685714D01*
X35638095Y-62780952D02*
X35590476Y-62733333D01*
X35495238Y-62685714D01*
X35352380Y-62685714D01*
X35257142Y-62733333D01*
X35209523Y-62828571D01*
X35209523Y-63352380D01*
X35209523Y-62828571D02*
X35161904Y-62733333D01*
X35066666Y-62685714D01*
X34923809Y-62685714D01*
X34828571Y-62733333D01*
X34780952Y-62828571D01*
X34780952Y-63352380D01*
X33876190Y-63352380D02*
X33876190Y-62828571D01*
X33923809Y-62733333D01*
X34019047Y-62685714D01*
X34209523Y-62685714D01*
X34304761Y-62733333D01*
X33876190Y-63304761D02*
X33971428Y-63352380D01*
X34209523Y-63352380D01*
X34304761Y-63304761D01*
X34352380Y-63209523D01*
X34352380Y-63114285D01*
X34304761Y-63019047D01*
X34209523Y-62971428D01*
X33971428Y-62971428D01*
X33876190Y-62923809D01*
X33257142Y-63352380D02*
X33352380Y-63304761D01*
X33400000Y-63209523D01*
X33400000Y-62352380D01*
X32733333Y-63352380D02*
X32828571Y-63304761D01*
X32876190Y-63209523D01*
X32876190Y-62352380D01*
D11*
X37626190Y-59316666D02*
X37126190Y-59316666D01*
X37126190Y-59435714D01*
X37150000Y-59507142D01*
X37197619Y-59554761D01*
X37245238Y-59578571D01*
X37340476Y-59602380D01*
X37411904Y-59602380D01*
X37507142Y-59578571D01*
X37554761Y-59554761D01*
X37602380Y-59507142D01*
X37626190Y-59435714D01*
X37626190Y-59316666D01*
X37126190Y-59769047D02*
X37126190Y-60078571D01*
X37316666Y-59911904D01*
X37316666Y-59983333D01*
X37340476Y-60030952D01*
X37364285Y-60054761D01*
X37411904Y-60078571D01*
X37530952Y-60078571D01*
X37578571Y-60054761D01*
X37602380Y-60030952D01*
X37626190Y-59983333D01*
X37626190Y-59840476D01*
X37602380Y-59792857D01*
X37578571Y-59769047D01*
X37126190Y-60388095D02*
X37126190Y-60435714D01*
X37150000Y-60483333D01*
X37173809Y-60507142D01*
X37221428Y-60530952D01*
X37316666Y-60554761D01*
X37435714Y-60554761D01*
X37530952Y-60530952D01*
X37578571Y-60507142D01*
X37602380Y-60483333D01*
X37626190Y-60435714D01*
X37626190Y-60388095D01*
X37602380Y-60340476D01*
X37578571Y-60316666D01*
X37530952Y-60292857D01*
X37435714Y-60269047D01*
X37316666Y-60269047D01*
X37221428Y-60292857D01*
X37173809Y-60316666D01*
X37150000Y-60340476D01*
X37126190Y-60388095D01*
X37126190Y-60721428D02*
X37126190Y-61030952D01*
X37316666Y-60864285D01*
X37316666Y-60935714D01*
X37340476Y-60983333D01*
X37364285Y-61007142D01*
X37411904Y-61030952D01*
X37530952Y-61030952D01*
X37578571Y-61007142D01*
X37602380Y-60983333D01*
X37626190Y-60935714D01*
X37626190Y-60792857D01*
X37602380Y-60745238D01*
X37578571Y-60721428D01*
X37626190Y-61507142D02*
X37626190Y-61221428D01*
X37626190Y-61364285D02*
X37126190Y-61364285D01*
X37197619Y-61316666D01*
X37245238Y-61269047D01*
X37269047Y-61221428D01*
D10*
X43578571Y-16061904D02*
X43626190Y-16204761D01*
X43673809Y-16252380D01*
X43769047Y-16300000D01*
X43911904Y-16300000D01*
X44007142Y-16252380D01*
X44054761Y-16204761D01*
X44102380Y-16109523D01*
X44102380Y-15728571D01*
X43102380Y-15728571D01*
X43102380Y-16061904D01*
X43150000Y-16157142D01*
X43197619Y-16204761D01*
X43292857Y-16252380D01*
X43388095Y-16252380D01*
X43483333Y-16204761D01*
X43530952Y-16157142D01*
X43578571Y-16061904D01*
X43578571Y-15728571D01*
X43816666Y-16680952D02*
X43816666Y-17157142D01*
X44102380Y-16585714D02*
X43102380Y-16919047D01*
X44102380Y-17252380D01*
X43102380Y-17442857D02*
X44102380Y-17776190D01*
X43102380Y-18109523D01*
X43102380Y-18347619D02*
X43102380Y-19014285D01*
X44102380Y-18585714D01*
X43102380Y-19585714D02*
X43102380Y-19680952D01*
X43150000Y-19776190D01*
X43197619Y-19823809D01*
X43292857Y-19871428D01*
X43483333Y-19919047D01*
X43721428Y-19919047D01*
X43911904Y-19871428D01*
X44007142Y-19823809D01*
X44054761Y-19776190D01*
X44102380Y-19680952D01*
X44102380Y-19585714D01*
X44054761Y-19490476D01*
X44007142Y-19442857D01*
X43911904Y-19395238D01*
X43721428Y-19347619D01*
X43483333Y-19347619D01*
X43292857Y-19395238D01*
X43197619Y-19442857D01*
X43150000Y-19490476D01*
X43102380Y-19585714D01*
X44197619Y-20109523D02*
X44197619Y-20871428D01*
X44054761Y-21061904D02*
X44102380Y-21204761D01*
X44102380Y-21442857D01*
X44054761Y-21538095D01*
X44007142Y-21585714D01*
X43911904Y-21633333D01*
X43816666Y-21633333D01*
X43721428Y-21585714D01*
X43673809Y-21538095D01*
X43626190Y-21442857D01*
X43578571Y-21252380D01*
X43530952Y-21157142D01*
X43483333Y-21109523D01*
X43388095Y-21061904D01*
X43292857Y-21061904D01*
X43197619Y-21109523D01*
X43150000Y-21157142D01*
X43102380Y-21252380D01*
X43102380Y-21490476D01*
X43150000Y-21633333D01*
X44102380Y-22061904D02*
X43435714Y-22061904D01*
X43530952Y-22061904D02*
X43483333Y-22109523D01*
X43435714Y-22204761D01*
X43435714Y-22347619D01*
X43483333Y-22442857D01*
X43578571Y-22490476D01*
X44102380Y-22490476D01*
X43578571Y-22490476D02*
X43483333Y-22538095D01*
X43435714Y-22633333D01*
X43435714Y-22776190D01*
X43483333Y-22871428D01*
X43578571Y-22919047D01*
X44102380Y-22919047D01*
X44102380Y-23823809D02*
X43578571Y-23823809D01*
X43483333Y-23776190D01*
X43435714Y-23680952D01*
X43435714Y-23490476D01*
X43483333Y-23395238D01*
X44054761Y-23823809D02*
X44102380Y-23728571D01*
X44102380Y-23490476D01*
X44054761Y-23395238D01*
X43959523Y-23347619D01*
X43864285Y-23347619D01*
X43769047Y-23395238D01*
X43721428Y-23490476D01*
X43721428Y-23728571D01*
X43673809Y-23823809D01*
X44102380Y-24442857D02*
X44054761Y-24347619D01*
X43959523Y-24300000D01*
X43102380Y-24300000D01*
X44102380Y-24966666D02*
X44054761Y-24871428D01*
X43959523Y-24823809D01*
X43102380Y-24823809D01*
D11*
X42709523Y-20526190D02*
X42709523Y-20026190D01*
X42590476Y-20026190D01*
X42519047Y-20050000D01*
X42471428Y-20097619D01*
X42447619Y-20145238D01*
X42423809Y-20240476D01*
X42423809Y-20311904D01*
X42447619Y-20407142D01*
X42471428Y-20454761D01*
X42519047Y-20502380D01*
X42590476Y-20526190D01*
X42709523Y-20526190D01*
X41947619Y-20526190D02*
X42233333Y-20526190D01*
X42090476Y-20526190D02*
X42090476Y-20026190D01*
X42138095Y-20097619D01*
X42185714Y-20145238D01*
X42233333Y-20169047D01*
X41471428Y-20526190D02*
X41757142Y-20526190D01*
X41614285Y-20526190D02*
X41614285Y-20026190D01*
X41661904Y-20097619D01*
X41709523Y-20145238D01*
X41757142Y-20169047D01*
X41280952Y-20073809D02*
X41257142Y-20050000D01*
X41209523Y-20026190D01*
X41090476Y-20026190D01*
X41042857Y-20050000D01*
X41019047Y-20073809D01*
X40995238Y-20121428D01*
X40995238Y-20169047D01*
X41019047Y-20240476D01*
X41304761Y-20526190D01*
X40995238Y-20526190D01*
X40519047Y-20526190D02*
X40804761Y-20526190D01*
X40661904Y-20526190D02*
X40661904Y-20026190D01*
X40709523Y-20097619D01*
X40757142Y-20145238D01*
X40804761Y-20169047D01*
X40042857Y-20526190D02*
X40328571Y-20526190D01*
X40185714Y-20526190D02*
X40185714Y-20026190D01*
X40233333Y-20097619D01*
X40280952Y-20145238D01*
X40328571Y-20169047D01*
X39876190Y-20026190D02*
X39566666Y-20026190D01*
X39733333Y-20216666D01*
X39661904Y-20216666D01*
X39614285Y-20240476D01*
X39590476Y-20264285D01*
X39566666Y-20311904D01*
X39566666Y-20430952D01*
X39590476Y-20478571D01*
X39614285Y-20502380D01*
X39661904Y-20526190D01*
X39804761Y-20526190D01*
X39852380Y-20502380D01*
X39876190Y-20478571D01*
D10*
X28255476Y2612619D02*
X28255476Y1803095D01*
X28207857Y1707857D01*
X28160238Y1660238D01*
X28065000Y1612619D01*
X27874523Y1612619D01*
X27779285Y1660238D01*
X27731666Y1707857D01*
X27684047Y1803095D01*
X27684047Y2612619D01*
X27255476Y1660238D02*
X27112619Y1612619D01*
X26874523Y1612619D01*
X26779285Y1660238D01*
X26731666Y1707857D01*
X26684047Y1803095D01*
X26684047Y1898333D01*
X26731666Y1993571D01*
X26779285Y2041190D01*
X26874523Y2088809D01*
X27065000Y2136428D01*
X27160238Y2184047D01*
X27207857Y2231666D01*
X27255476Y2326904D01*
X27255476Y2422142D01*
X27207857Y2517380D01*
X27160238Y2565000D01*
X27065000Y2612619D01*
X26826904Y2612619D01*
X26684047Y2565000D01*
X25922142Y2136428D02*
X25779285Y2088809D01*
X25731666Y2041190D01*
X25684047Y1945952D01*
X25684047Y1803095D01*
X25731666Y1707857D01*
X25779285Y1660238D01*
X25874523Y1612619D01*
X26255476Y1612619D01*
X26255476Y2612619D01*
X25922142Y2612619D01*
X25826904Y2565000D01*
X25779285Y2517380D01*
X25731666Y2422142D01*
X25731666Y2326904D01*
X25779285Y2231666D01*
X25826904Y2184047D01*
X25922142Y2136428D01*
X26255476Y2136428D01*
X25493571Y1517380D02*
X24731666Y1517380D01*
X23922142Y1707857D02*
X23969761Y1660238D01*
X24112619Y1612619D01*
X24207857Y1612619D01*
X24350714Y1660238D01*
X24445952Y1755476D01*
X24493571Y1850714D01*
X24541190Y2041190D01*
X24541190Y2184047D01*
X24493571Y2374523D01*
X24445952Y2469761D01*
X24350714Y2565000D01*
X24207857Y2612619D01*
X24112619Y2612619D01*
X23969761Y2565000D01*
X23922142Y2517380D01*
X23731666Y1517380D02*
X22969761Y1517380D01*
X22160238Y1612619D02*
X22493571Y2088809D01*
X22731666Y1612619D02*
X22731666Y2612619D01*
X22350714Y2612619D01*
X22255476Y2565000D01*
X22207857Y2517380D01*
X22160238Y2422142D01*
X22160238Y2279285D01*
X22207857Y2184047D01*
X22255476Y2136428D01*
X22350714Y2088809D01*
X22731666Y2088809D01*
X21350714Y1660238D02*
X21445952Y1612619D01*
X21636428Y1612619D01*
X21731666Y1660238D01*
X21779285Y1755476D01*
X21779285Y2136428D01*
X21731666Y2231666D01*
X21636428Y2279285D01*
X21445952Y2279285D01*
X21350714Y2231666D01*
X21303095Y2136428D01*
X21303095Y2041190D01*
X21779285Y1945952D01*
X20445952Y1660238D02*
X20541190Y1612619D01*
X20731666Y1612619D01*
X20826904Y1660238D01*
X20874523Y1707857D01*
X20922142Y1803095D01*
X20922142Y2088809D01*
X20874523Y2184047D01*
X20826904Y2231666D01*
X20731666Y2279285D01*
X20541190Y2279285D01*
X20445952Y2231666D01*
X19636428Y1660238D02*
X19731666Y1612619D01*
X19922142Y1612619D01*
X20017380Y1660238D01*
X20065000Y1755476D01*
X20065000Y2136428D01*
X20017380Y2231666D01*
X19922142Y2279285D01*
X19731666Y2279285D01*
X19636428Y2231666D01*
X19588809Y2136428D01*
X19588809Y2041190D01*
X20065000Y1945952D01*
X19160238Y2279285D02*
X19160238Y1279285D01*
X19160238Y2231666D02*
X19065000Y2279285D01*
X18874523Y2279285D01*
X18779285Y2231666D01*
X18731666Y2184047D01*
X18684047Y2088809D01*
X18684047Y1803095D01*
X18731666Y1707857D01*
X18779285Y1660238D01*
X18874523Y1612619D01*
X19065000Y1612619D01*
X19160238Y1660238D01*
X18398333Y2279285D02*
X18017380Y2279285D01*
X18255476Y2612619D02*
X18255476Y1755476D01*
X18207857Y1660238D01*
X18112619Y1612619D01*
X18017380Y1612619D01*
X17255476Y1612619D02*
X17255476Y2136428D01*
X17303095Y2231666D01*
X17398333Y2279285D01*
X17588809Y2279285D01*
X17684047Y2231666D01*
X17255476Y1660238D02*
X17350714Y1612619D01*
X17588809Y1612619D01*
X17684047Y1660238D01*
X17731666Y1755476D01*
X17731666Y1850714D01*
X17684047Y1945952D01*
X17588809Y1993571D01*
X17350714Y1993571D01*
X17255476Y2041190D01*
X16350714Y1660238D02*
X16445952Y1612619D01*
X16636428Y1612619D01*
X16731666Y1660238D01*
X16779285Y1707857D01*
X16826904Y1803095D01*
X16826904Y2088809D01*
X16779285Y2184047D01*
X16731666Y2231666D01*
X16636428Y2279285D01*
X16445952Y2279285D01*
X16350714Y2231666D01*
X15779285Y1612619D02*
X15874523Y1660238D01*
X15922142Y1755476D01*
X15922142Y2612619D01*
X15017380Y1660238D02*
X15112619Y1612619D01*
X15303095Y1612619D01*
X15398333Y1660238D01*
X15445952Y1755476D01*
X15445952Y2136428D01*
X15398333Y2231666D01*
X15303095Y2279285D01*
X15112619Y2279285D01*
X15017380Y2231666D01*
X14969761Y2136428D01*
X14969761Y2041190D01*
X15445952Y1945952D01*
X14779285Y1517380D02*
X14017380Y1517380D01*
X13779285Y2612619D02*
X13779285Y1803095D01*
X13731666Y1707857D01*
X13684047Y1660238D01*
X13588809Y1612619D01*
X13398333Y1612619D01*
X13303095Y1660238D01*
X13255476Y1707857D01*
X13207857Y1803095D01*
X13207857Y2612619D01*
X12779285Y1660238D02*
X12636428Y1612619D01*
X12398333Y1612619D01*
X12303095Y1660238D01*
X12255476Y1707857D01*
X12207857Y1803095D01*
X12207857Y1898333D01*
X12255476Y1993571D01*
X12303095Y2041190D01*
X12398333Y2088809D01*
X12588809Y2136428D01*
X12684047Y2184047D01*
X12731666Y2231666D01*
X12779285Y2326904D01*
X12779285Y2422142D01*
X12731666Y2517380D01*
X12684047Y2565000D01*
X12588809Y2612619D01*
X12350714Y2612619D01*
X12207857Y2565000D01*
X11445952Y2136428D02*
X11303095Y2088809D01*
X11255476Y2041190D01*
X11207857Y1945952D01*
X11207857Y1803095D01*
X11255476Y1707857D01*
X11303095Y1660238D01*
X11398333Y1612619D01*
X11779285Y1612619D01*
X11779285Y2612619D01*
X11445952Y2612619D01*
X11350714Y2565000D01*
X11303095Y2517380D01*
X11255476Y2422142D01*
X11255476Y2326904D01*
X11303095Y2231666D01*
X11350714Y2184047D01*
X11445952Y2136428D01*
X11779285Y2136428D01*
X10826904Y2517380D02*
X10779285Y2565000D01*
X10684047Y2612619D01*
X10445952Y2612619D01*
X10350714Y2565000D01*
X10303095Y2517380D01*
X10255476Y2422142D01*
X10255476Y2326904D01*
X10303095Y2184047D01*
X10874523Y1612619D01*
X10255476Y1612619D01*
X9826904Y1707857D02*
X9779285Y1660238D01*
X9826904Y1612619D01*
X9874523Y1660238D01*
X9826904Y1707857D01*
X9826904Y1612619D01*
X9160238Y2612619D02*
X9065000Y2612619D01*
X8969761Y2565000D01*
X8922142Y2517380D01*
X8874523Y2422142D01*
X8826904Y2231666D01*
X8826904Y1993571D01*
X8874523Y1803095D01*
X8922142Y1707857D01*
X8969761Y1660238D01*
X9065000Y1612619D01*
X9160238Y1612619D01*
X9255476Y1660238D01*
X9303095Y1707857D01*
X9350714Y1803095D01*
X9398333Y1993571D01*
X9398333Y2231666D01*
X9350714Y2422142D01*
X9303095Y2517380D01*
X9255476Y2565000D01*
X9160238Y2612619D01*
X18898333Y-2487380D02*
X18898333Y-3201666D01*
X18945952Y-3344523D01*
X19041190Y-3439761D01*
X19184047Y-3487380D01*
X19279285Y-3487380D01*
X17898333Y-3487380D02*
X18469761Y-3487380D01*
X18184047Y-3487380D02*
X18184047Y-2487380D01*
X18279285Y-2630238D01*
X18374523Y-2725476D01*
X18469761Y-2773095D01*
X44128571Y-25111904D02*
X44176190Y-25254761D01*
X44223809Y-25302380D01*
X44319047Y-25350000D01*
X44461904Y-25350000D01*
X44557142Y-25302380D01*
X44604761Y-25254761D01*
X44652380Y-25159523D01*
X44652380Y-24778571D01*
X43652380Y-24778571D01*
X43652380Y-25111904D01*
X43700000Y-25207142D01*
X43747619Y-25254761D01*
X43842857Y-25302380D01*
X43938095Y-25302380D01*
X44033333Y-25254761D01*
X44080952Y-25207142D01*
X44128571Y-25111904D01*
X44128571Y-24778571D01*
X44366666Y-25730952D02*
X44366666Y-26207142D01*
X44652380Y-25635714D02*
X43652380Y-25969047D01*
X44652380Y-26302380D01*
X43652380Y-26492857D02*
X44652380Y-26826190D01*
X43652380Y-27159523D01*
X43652380Y-27397619D02*
X43652380Y-28064285D01*
X44652380Y-27635714D01*
X43652380Y-28635714D02*
X43652380Y-28730952D01*
X43700000Y-28826190D01*
X43747619Y-28873809D01*
X43842857Y-28921428D01*
X44033333Y-28969047D01*
X44271428Y-28969047D01*
X44461904Y-28921428D01*
X44557142Y-28873809D01*
X44604761Y-28826190D01*
X44652380Y-28730952D01*
X44652380Y-28635714D01*
X44604761Y-28540476D01*
X44557142Y-28492857D01*
X44461904Y-28445238D01*
X44271428Y-28397619D01*
X44033333Y-28397619D01*
X43842857Y-28445238D01*
X43747619Y-28492857D01*
X43700000Y-28540476D01*
X43652380Y-28635714D01*
X44747619Y-29159523D02*
X44747619Y-29921428D01*
X44604761Y-30111904D02*
X44652380Y-30254761D01*
X44652380Y-30492857D01*
X44604761Y-30588095D01*
X44557142Y-30635714D01*
X44461904Y-30683333D01*
X44366666Y-30683333D01*
X44271428Y-30635714D01*
X44223809Y-30588095D01*
X44176190Y-30492857D01*
X44128571Y-30302380D01*
X44080952Y-30207142D01*
X44033333Y-30159523D01*
X43938095Y-30111904D01*
X43842857Y-30111904D01*
X43747619Y-30159523D01*
X43700000Y-30207142D01*
X43652380Y-30302380D01*
X43652380Y-30540476D01*
X43700000Y-30683333D01*
X44652380Y-31111904D02*
X43985714Y-31111904D01*
X44080952Y-31111904D02*
X44033333Y-31159523D01*
X43985714Y-31254761D01*
X43985714Y-31397619D01*
X44033333Y-31492857D01*
X44128571Y-31540476D01*
X44652380Y-31540476D01*
X44128571Y-31540476D02*
X44033333Y-31588095D01*
X43985714Y-31683333D01*
X43985714Y-31826190D01*
X44033333Y-31921428D01*
X44128571Y-31969047D01*
X44652380Y-31969047D01*
X44652380Y-32873809D02*
X44128571Y-32873809D01*
X44033333Y-32826190D01*
X43985714Y-32730952D01*
X43985714Y-32540476D01*
X44033333Y-32445238D01*
X44604761Y-32873809D02*
X44652380Y-32778571D01*
X44652380Y-32540476D01*
X44604761Y-32445238D01*
X44509523Y-32397619D01*
X44414285Y-32397619D01*
X44319047Y-32445238D01*
X44271428Y-32540476D01*
X44271428Y-32778571D01*
X44223809Y-32873809D01*
X44652380Y-33492857D02*
X44604761Y-33397619D01*
X44509523Y-33350000D01*
X43652380Y-33350000D01*
X44652380Y-34016666D02*
X44604761Y-33921428D01*
X44509523Y-33873809D01*
X43652380Y-33873809D01*
D11*
X47545238Y-29576190D02*
X47545238Y-29076190D01*
X47426190Y-29076190D01*
X47354761Y-29100000D01*
X47307142Y-29147619D01*
X47283333Y-29195238D01*
X47259523Y-29290476D01*
X47259523Y-29361904D01*
X47283333Y-29457142D01*
X47307142Y-29504761D01*
X47354761Y-29552380D01*
X47426190Y-29576190D01*
X47545238Y-29576190D01*
X47069047Y-29123809D02*
X47045238Y-29100000D01*
X46997619Y-29076190D01*
X46878571Y-29076190D01*
X46830952Y-29100000D01*
X46807142Y-29123809D01*
X46783333Y-29171428D01*
X46783333Y-29219047D01*
X46807142Y-29290476D01*
X47092857Y-29576190D01*
X46783333Y-29576190D01*
X46592857Y-29123809D02*
X46569047Y-29100000D01*
X46521428Y-29076190D01*
X46402380Y-29076190D01*
X46354761Y-29100000D01*
X46330952Y-29123809D01*
X46307142Y-29171428D01*
X46307142Y-29219047D01*
X46330952Y-29290476D01*
X46616666Y-29576190D01*
X46307142Y-29576190D01*
X45830952Y-29576190D02*
X46116666Y-29576190D01*
X45973809Y-29576190D02*
X45973809Y-29076190D01*
X46021428Y-29147619D01*
X46069047Y-29195238D01*
X46116666Y-29219047D01*
D10*
X39638095Y-3678571D02*
X39495238Y-3726190D01*
X39447619Y-3773809D01*
X39400000Y-3869047D01*
X39400000Y-4011904D01*
X39447619Y-4107142D01*
X39495238Y-4154761D01*
X39590476Y-4202380D01*
X39971428Y-4202380D01*
X39971428Y-3202380D01*
X39638095Y-3202380D01*
X39542857Y-3250000D01*
X39495238Y-3297619D01*
X39447619Y-3392857D01*
X39447619Y-3488095D01*
X39495238Y-3583333D01*
X39542857Y-3630952D01*
X39638095Y-3678571D01*
X39971428Y-3678571D01*
X39019047Y-3916666D02*
X38542857Y-3916666D01*
X39114285Y-4202380D02*
X38780952Y-3202380D01*
X38447619Y-4202380D01*
X38257142Y-3202380D02*
X37923809Y-4202380D01*
X37590476Y-3202380D01*
X37352380Y-3202380D02*
X36685714Y-3202380D01*
X37114285Y-4202380D01*
X36114285Y-3202380D02*
X36019047Y-3202380D01*
X35923809Y-3250000D01*
X35876190Y-3297619D01*
X35828571Y-3392857D01*
X35780952Y-3583333D01*
X35780952Y-3821428D01*
X35828571Y-4011904D01*
X35876190Y-4107142D01*
X35923809Y-4154761D01*
X36019047Y-4202380D01*
X36114285Y-4202380D01*
X36209523Y-4154761D01*
X36257142Y-4107142D01*
X36304761Y-4011904D01*
X36352380Y-3821428D01*
X36352380Y-3583333D01*
X36304761Y-3392857D01*
X36257142Y-3297619D01*
X36209523Y-3250000D01*
X36114285Y-3202380D01*
X35590476Y-4297619D02*
X34828571Y-4297619D01*
X34638095Y-4154761D02*
X34495238Y-4202380D01*
X34257142Y-4202380D01*
X34161904Y-4154761D01*
X34114285Y-4107142D01*
X34066666Y-4011904D01*
X34066666Y-3916666D01*
X34114285Y-3821428D01*
X34161904Y-3773809D01*
X34257142Y-3726190D01*
X34447619Y-3678571D01*
X34542857Y-3630952D01*
X34590476Y-3583333D01*
X34638095Y-3488095D01*
X34638095Y-3392857D01*
X34590476Y-3297619D01*
X34542857Y-3250000D01*
X34447619Y-3202380D01*
X34209523Y-3202380D01*
X34066666Y-3250000D01*
X33638095Y-4202380D02*
X33638095Y-3535714D01*
X33638095Y-3630952D02*
X33590476Y-3583333D01*
X33495238Y-3535714D01*
X33352380Y-3535714D01*
X33257142Y-3583333D01*
X33209523Y-3678571D01*
X33209523Y-4202380D01*
X33209523Y-3678571D02*
X33161904Y-3583333D01*
X33066666Y-3535714D01*
X32923809Y-3535714D01*
X32828571Y-3583333D01*
X32780952Y-3678571D01*
X32780952Y-4202380D01*
X31876190Y-4202380D02*
X31876190Y-3678571D01*
X31923809Y-3583333D01*
X32019047Y-3535714D01*
X32209523Y-3535714D01*
X32304761Y-3583333D01*
X31876190Y-4154761D02*
X31971428Y-4202380D01*
X32209523Y-4202380D01*
X32304761Y-4154761D01*
X32352380Y-4059523D01*
X32352380Y-3964285D01*
X32304761Y-3869047D01*
X32209523Y-3821428D01*
X31971428Y-3821428D01*
X31876190Y-3773809D01*
X31257142Y-4202380D02*
X31352380Y-4154761D01*
X31400000Y-4059523D01*
X31400000Y-3202380D01*
X30733333Y-4202380D02*
X30828571Y-4154761D01*
X30876190Y-4059523D01*
X30876190Y-3202380D01*
D11*
X35626190Y-5880952D02*
X35126190Y-5880952D01*
X35126190Y-6000000D01*
X35150000Y-6071428D01*
X35197619Y-6119047D01*
X35245238Y-6142857D01*
X35340476Y-6166666D01*
X35411904Y-6166666D01*
X35507142Y-6142857D01*
X35554761Y-6119047D01*
X35602380Y-6071428D01*
X35626190Y-6000000D01*
X35626190Y-5880952D01*
X35626190Y-6642857D02*
X35626190Y-6357142D01*
X35626190Y-6500000D02*
X35126190Y-6500000D01*
X35197619Y-6452380D01*
X35245238Y-6404761D01*
X35269047Y-6357142D01*
D10*
X21444374Y-35681344D02*
X21377031Y-35816031D01*
X21208672Y-35984390D01*
X21107657Y-36018062D01*
X21040313Y-36018062D01*
X20939298Y-35984390D01*
X20871955Y-35917047D01*
X20838283Y-35816031D01*
X20838283Y-35748688D01*
X20871955Y-35647673D01*
X20972970Y-35479314D01*
X21006642Y-35378299D01*
X21006642Y-35310955D01*
X20972970Y-35209940D01*
X20905626Y-35142596D01*
X20804611Y-35108925D01*
X20737268Y-35108925D01*
X20636252Y-35142596D01*
X20467894Y-35310955D01*
X20400550Y-35445642D01*
X20131176Y-35647673D02*
X20669924Y-36523138D01*
X20030161Y-36152749D01*
X20400550Y-36792512D01*
X19525085Y-36253764D01*
X20198520Y-37129230D02*
X19659772Y-37667978D01*
X19424069Y-37768993D02*
X18716962Y-37061886D01*
X18447588Y-37331260D01*
X18413917Y-37432275D01*
X18413917Y-37499619D01*
X18447588Y-37600634D01*
X18548604Y-37701650D01*
X18649619Y-37735321D01*
X18716962Y-37735321D01*
X18817978Y-37701650D01*
X19087352Y-37432275D01*
X18009856Y-37768993D02*
X18582275Y-38341413D01*
X18615947Y-38442428D01*
X18615947Y-38509772D01*
X18582275Y-38610787D01*
X18447588Y-38745474D01*
X18346573Y-38779146D01*
X18279230Y-38779146D01*
X18178214Y-38745474D01*
X17605795Y-38173054D01*
X17976184Y-39149535D02*
X17908840Y-39284222D01*
X17740482Y-39452581D01*
X17639466Y-39486252D01*
X17572123Y-39486252D01*
X17471108Y-39452581D01*
X17403764Y-39385237D01*
X17370092Y-39284222D01*
X17370092Y-39216878D01*
X17403764Y-39115863D01*
X17504779Y-38947504D01*
X17538451Y-38846489D01*
X17538451Y-38779146D01*
X17504779Y-38678130D01*
X17437436Y-38610787D01*
X17336421Y-38577115D01*
X17269077Y-38577115D01*
X17168062Y-38610787D01*
X16999703Y-38779146D01*
X16932360Y-38913833D01*
X17302749Y-39890313D02*
X16595642Y-39183207D01*
X16932360Y-39519924D02*
X16528299Y-39923985D01*
X16898688Y-40294374D02*
X16191581Y-39587268D01*
X14777368Y-31741750D02*
X14710025Y-31876437D01*
X14541666Y-32044796D01*
X14440651Y-32078468D01*
X14373307Y-32078468D01*
X14272292Y-32044796D01*
X14204949Y-31977453D01*
X14171277Y-31876437D01*
X14171277Y-31809094D01*
X14204949Y-31708079D01*
X14305964Y-31539720D01*
X14339636Y-31438705D01*
X14339636Y-31371361D01*
X14305964Y-31270346D01*
X14238620Y-31203002D01*
X14137605Y-31169331D01*
X14070262Y-31169331D01*
X13969246Y-31203002D01*
X13800888Y-31371361D01*
X13733544Y-31506048D01*
X13464170Y-31708079D02*
X14002918Y-32583544D01*
X13363155Y-32213155D01*
X13733544Y-32852918D01*
X12858079Y-32314170D01*
X12454018Y-32718231D02*
X12386674Y-32785575D01*
X12353002Y-32886590D01*
X12353002Y-32953933D01*
X12386674Y-33054949D01*
X12487689Y-33223307D01*
X12656048Y-33391666D01*
X12824407Y-33492681D01*
X12925422Y-33526353D01*
X12992766Y-33526353D01*
X13093781Y-33492681D01*
X13161124Y-33425338D01*
X13194796Y-33324323D01*
X13194796Y-33256979D01*
X13161124Y-33155964D01*
X13060109Y-32987605D01*
X12891750Y-32819246D01*
X12723392Y-32718231D01*
X12622376Y-32684559D01*
X12555033Y-32684559D01*
X12454018Y-32718231D01*
X58328571Y-17011904D02*
X58376190Y-17154761D01*
X58423809Y-17202380D01*
X58519047Y-17250000D01*
X58661904Y-17250000D01*
X58757142Y-17202380D01*
X58804761Y-17154761D01*
X58852380Y-17059523D01*
X58852380Y-16678571D01*
X57852380Y-16678571D01*
X57852380Y-17011904D01*
X57900000Y-17107142D01*
X57947619Y-17154761D01*
X58042857Y-17202380D01*
X58138095Y-17202380D01*
X58233333Y-17154761D01*
X58280952Y-17107142D01*
X58328571Y-17011904D01*
X58328571Y-16678571D01*
X58566666Y-17630952D02*
X58566666Y-18107142D01*
X58852380Y-17535714D02*
X57852380Y-17869047D01*
X58852380Y-18202380D01*
X57852380Y-18392857D02*
X58852380Y-18726190D01*
X57852380Y-19059523D01*
X57852380Y-19297619D02*
X57852380Y-19964285D01*
X58852380Y-19535714D01*
X57852380Y-20535714D02*
X57852380Y-20630952D01*
X57900000Y-20726190D01*
X57947619Y-20773809D01*
X58042857Y-20821428D01*
X58233333Y-20869047D01*
X58471428Y-20869047D01*
X58661904Y-20821428D01*
X58757142Y-20773809D01*
X58804761Y-20726190D01*
X58852380Y-20630952D01*
X58852380Y-20535714D01*
X58804761Y-20440476D01*
X58757142Y-20392857D01*
X58661904Y-20345238D01*
X58471428Y-20297619D01*
X58233333Y-20297619D01*
X58042857Y-20345238D01*
X57947619Y-20392857D01*
X57900000Y-20440476D01*
X57852380Y-20535714D01*
X58947619Y-21059523D02*
X58947619Y-21821428D01*
X58804761Y-22011904D02*
X58852380Y-22154761D01*
X58852380Y-22392857D01*
X58804761Y-22488095D01*
X58757142Y-22535714D01*
X58661904Y-22583333D01*
X58566666Y-22583333D01*
X58471428Y-22535714D01*
X58423809Y-22488095D01*
X58376190Y-22392857D01*
X58328571Y-22202380D01*
X58280952Y-22107142D01*
X58233333Y-22059523D01*
X58138095Y-22011904D01*
X58042857Y-22011904D01*
X57947619Y-22059523D01*
X57900000Y-22107142D01*
X57852380Y-22202380D01*
X57852380Y-22440476D01*
X57900000Y-22583333D01*
X58852380Y-23011904D02*
X58185714Y-23011904D01*
X58280952Y-23011904D02*
X58233333Y-23059523D01*
X58185714Y-23154761D01*
X58185714Y-23297619D01*
X58233333Y-23392857D01*
X58328571Y-23440476D01*
X58852380Y-23440476D01*
X58328571Y-23440476D02*
X58233333Y-23488095D01*
X58185714Y-23583333D01*
X58185714Y-23726190D01*
X58233333Y-23821428D01*
X58328571Y-23869047D01*
X58852380Y-23869047D01*
X58852380Y-24773809D02*
X58328571Y-24773809D01*
X58233333Y-24726190D01*
X58185714Y-24630952D01*
X58185714Y-24440476D01*
X58233333Y-24345238D01*
X58804761Y-24773809D02*
X58852380Y-24678571D01*
X58852380Y-24440476D01*
X58804761Y-24345238D01*
X58709523Y-24297619D01*
X58614285Y-24297619D01*
X58519047Y-24345238D01*
X58471428Y-24440476D01*
X58471428Y-24678571D01*
X58423809Y-24773809D01*
X58852380Y-25392857D02*
X58804761Y-25297619D01*
X58709523Y-25250000D01*
X57852380Y-25250000D01*
X58852380Y-25916666D02*
X58804761Y-25821428D01*
X58709523Y-25773809D01*
X57852380Y-25773809D01*
D11*
X56983333Y-21476190D02*
X56983333Y-20976190D01*
X56864285Y-20976190D01*
X56792857Y-21000000D01*
X56745238Y-21047619D01*
X56721428Y-21095238D01*
X56697619Y-21190476D01*
X56697619Y-21261904D01*
X56721428Y-21357142D01*
X56745238Y-21404761D01*
X56792857Y-21452380D01*
X56864285Y-21476190D01*
X56983333Y-21476190D01*
X56221428Y-21476190D02*
X56507142Y-21476190D01*
X56364285Y-21476190D02*
X56364285Y-20976190D01*
X56411904Y-21047619D01*
X56459523Y-21095238D01*
X56507142Y-21119047D01*
X55792857Y-21142857D02*
X55792857Y-21476190D01*
X55911904Y-20952380D02*
X56030952Y-21309523D01*
X55721428Y-21309523D01*
X55269047Y-21476190D02*
X55554761Y-21476190D01*
X55411904Y-21476190D02*
X55411904Y-20976190D01*
X55459523Y-21047619D01*
X55507142Y-21095238D01*
X55554761Y-21119047D01*
X54816666Y-20976190D02*
X55054761Y-20976190D01*
X55078571Y-21214285D01*
X55054761Y-21190476D01*
X55007142Y-21166666D01*
X54888095Y-21166666D01*
X54840476Y-21190476D01*
X54816666Y-21214285D01*
X54792857Y-21261904D01*
X54792857Y-21380952D01*
X54816666Y-21428571D01*
X54840476Y-21452380D01*
X54888095Y-21476190D01*
X55007142Y-21476190D01*
X55054761Y-21452380D01*
X55078571Y-21428571D01*
D10*
X38078717Y-36957397D02*
X38011374Y-36957397D01*
X37910358Y-36991068D01*
X37742000Y-37159427D01*
X37708328Y-37260442D01*
X37708328Y-37327786D01*
X37742000Y-37428801D01*
X37809343Y-37496145D01*
X37944030Y-37563488D01*
X38752152Y-37563488D01*
X38314419Y-38001221D01*
X37405282Y-37630832D02*
X37337939Y-37630832D01*
X37236923Y-37664503D01*
X37068564Y-37832862D01*
X37034893Y-37933877D01*
X37034893Y-38001221D01*
X37068564Y-38102236D01*
X37135908Y-38169580D01*
X37270595Y-38236923D01*
X38078717Y-38236923D01*
X37640984Y-38674656D01*
X36866534Y-38506297D02*
X37573641Y-39213404D01*
X36900206Y-38539969D02*
X36799190Y-38573641D01*
X36664503Y-38708328D01*
X36630832Y-38809343D01*
X36630832Y-38876687D01*
X36664503Y-38977702D01*
X36866534Y-39179732D01*
X36967549Y-39213404D01*
X37034893Y-39213404D01*
X37135908Y-39179732D01*
X37270595Y-39045045D01*
X37304267Y-38944030D01*
X36327786Y-39045045D02*
X36058412Y-39314419D01*
X36698175Y-39617465D02*
X36092084Y-39011374D01*
X35991068Y-38977702D01*
X35890053Y-39011374D01*
X35822710Y-39078717D01*
D12*
X36335194Y-37217343D02*
X36368866Y-37217343D01*
X36436209Y-37183671D01*
X36469881Y-37150000D01*
X36503553Y-37082656D01*
X36503553Y-37015312D01*
X36486717Y-36964805D01*
X36436209Y-36880625D01*
X36385702Y-36830118D01*
X36301522Y-36779610D01*
X36251015Y-36762774D01*
X36183671Y-36762774D01*
X36116328Y-36796446D01*
X36082656Y-36830118D01*
X36048984Y-36897461D01*
X36048984Y-36931133D01*
X36032148Y-37587732D02*
X36234179Y-37385702D01*
X36133164Y-37486717D02*
X35779610Y-37133164D01*
X35863790Y-37150000D01*
X35931133Y-37150000D01*
X35981641Y-37133164D01*
D10*
X45728571Y-35061904D02*
X45776190Y-35204761D01*
X45823809Y-35252380D01*
X45919047Y-35300000D01*
X46061904Y-35300000D01*
X46157142Y-35252380D01*
X46204761Y-35204761D01*
X46252380Y-35109523D01*
X46252380Y-34728571D01*
X45252380Y-34728571D01*
X45252380Y-35061904D01*
X45300000Y-35157142D01*
X45347619Y-35204761D01*
X45442857Y-35252380D01*
X45538095Y-35252380D01*
X45633333Y-35204761D01*
X45680952Y-35157142D01*
X45728571Y-35061904D01*
X45728571Y-34728571D01*
X45966666Y-35680952D02*
X45966666Y-36157142D01*
X46252380Y-35585714D02*
X45252380Y-35919047D01*
X46252380Y-36252380D01*
X45252380Y-36442857D02*
X46252380Y-36776190D01*
X45252380Y-37109523D01*
X45252380Y-37347619D02*
X45252380Y-38014285D01*
X46252380Y-37585714D01*
X45252380Y-38585714D02*
X45252380Y-38680952D01*
X45300000Y-38776190D01*
X45347619Y-38823809D01*
X45442857Y-38871428D01*
X45633333Y-38919047D01*
X45871428Y-38919047D01*
X46061904Y-38871428D01*
X46157142Y-38823809D01*
X46204761Y-38776190D01*
X46252380Y-38680952D01*
X46252380Y-38585714D01*
X46204761Y-38490476D01*
X46157142Y-38442857D01*
X46061904Y-38395238D01*
X45871428Y-38347619D01*
X45633333Y-38347619D01*
X45442857Y-38395238D01*
X45347619Y-38442857D01*
X45300000Y-38490476D01*
X45252380Y-38585714D01*
X46347619Y-39109523D02*
X46347619Y-39871428D01*
X46204761Y-40061904D02*
X46252380Y-40204761D01*
X46252380Y-40442857D01*
X46204761Y-40538095D01*
X46157142Y-40585714D01*
X46061904Y-40633333D01*
X45966666Y-40633333D01*
X45871428Y-40585714D01*
X45823809Y-40538095D01*
X45776190Y-40442857D01*
X45728571Y-40252380D01*
X45680952Y-40157142D01*
X45633333Y-40109523D01*
X45538095Y-40061904D01*
X45442857Y-40061904D01*
X45347619Y-40109523D01*
X45300000Y-40157142D01*
X45252380Y-40252380D01*
X45252380Y-40490476D01*
X45300000Y-40633333D01*
X46252380Y-41061904D02*
X45585714Y-41061904D01*
X45680952Y-41061904D02*
X45633333Y-41109523D01*
X45585714Y-41204761D01*
X45585714Y-41347619D01*
X45633333Y-41442857D01*
X45728571Y-41490476D01*
X46252380Y-41490476D01*
X45728571Y-41490476D02*
X45633333Y-41538095D01*
X45585714Y-41633333D01*
X45585714Y-41776190D01*
X45633333Y-41871428D01*
X45728571Y-41919047D01*
X46252380Y-41919047D01*
X46252380Y-42823809D02*
X45728571Y-42823809D01*
X45633333Y-42776190D01*
X45585714Y-42680952D01*
X45585714Y-42490476D01*
X45633333Y-42395238D01*
X46204761Y-42823809D02*
X46252380Y-42728571D01*
X46252380Y-42490476D01*
X46204761Y-42395238D01*
X46109523Y-42347619D01*
X46014285Y-42347619D01*
X45919047Y-42395238D01*
X45871428Y-42490476D01*
X45871428Y-42728571D01*
X45823809Y-42823809D01*
X46252380Y-43442857D02*
X46204761Y-43347619D01*
X46109523Y-43300000D01*
X45252380Y-43300000D01*
X46252380Y-43966666D02*
X46204761Y-43871428D01*
X46109523Y-43823809D01*
X45252380Y-43823809D01*
D11*
X44383333Y-39526190D02*
X44383333Y-39026190D01*
X44264285Y-39026190D01*
X44192857Y-39050000D01*
X44145238Y-39097619D01*
X44121428Y-39145238D01*
X44097619Y-39240476D01*
X44097619Y-39311904D01*
X44121428Y-39407142D01*
X44145238Y-39454761D01*
X44192857Y-39502380D01*
X44264285Y-39526190D01*
X44383333Y-39526190D01*
X43907142Y-39073809D02*
X43883333Y-39050000D01*
X43835714Y-39026190D01*
X43716666Y-39026190D01*
X43669047Y-39050000D01*
X43645238Y-39073809D01*
X43621428Y-39121428D01*
X43621428Y-39169047D01*
X43645238Y-39240476D01*
X43930952Y-39526190D01*
X43621428Y-39526190D01*
X43192857Y-39026190D02*
X43288095Y-39026190D01*
X43335714Y-39050000D01*
X43359523Y-39073809D01*
X43407142Y-39145238D01*
X43430952Y-39240476D01*
X43430952Y-39430952D01*
X43407142Y-39478571D01*
X43383333Y-39502380D01*
X43335714Y-39526190D01*
X43240476Y-39526190D01*
X43192857Y-39502380D01*
X43169047Y-39478571D01*
X43145238Y-39430952D01*
X43145238Y-39311904D01*
X43169047Y-39264285D01*
X43192857Y-39240476D01*
X43240476Y-39216666D01*
X43335714Y-39216666D01*
X43383333Y-39240476D01*
X43407142Y-39264285D01*
X43430952Y-39311904D01*
X42954761Y-39073809D02*
X42930952Y-39050000D01*
X42883333Y-39026190D01*
X42764285Y-39026190D01*
X42716666Y-39050000D01*
X42692857Y-39073809D01*
X42669047Y-39121428D01*
X42669047Y-39169047D01*
X42692857Y-39240476D01*
X42978571Y-39526190D01*
X42669047Y-39526190D01*
X42502380Y-39026190D02*
X42169047Y-39026190D01*
X42383333Y-39526190D01*
D10*
X51578571Y-45961904D02*
X51626190Y-46104761D01*
X51673809Y-46152380D01*
X51769047Y-46200000D01*
X51911904Y-46200000D01*
X52007142Y-46152380D01*
X52054761Y-46104761D01*
X52102380Y-46009523D01*
X52102380Y-45628571D01*
X51102380Y-45628571D01*
X51102380Y-45961904D01*
X51150000Y-46057142D01*
X51197619Y-46104761D01*
X51292857Y-46152380D01*
X51388095Y-46152380D01*
X51483333Y-46104761D01*
X51530952Y-46057142D01*
X51578571Y-45961904D01*
X51578571Y-45628571D01*
X51816666Y-46580952D02*
X51816666Y-47057142D01*
X52102380Y-46485714D02*
X51102380Y-46819047D01*
X52102380Y-47152380D01*
X51102380Y-47342857D02*
X52102380Y-47676190D01*
X51102380Y-48009523D01*
X51102380Y-48247619D02*
X51102380Y-48914285D01*
X52102380Y-48485714D01*
X51102380Y-49485714D02*
X51102380Y-49580952D01*
X51150000Y-49676190D01*
X51197619Y-49723809D01*
X51292857Y-49771428D01*
X51483333Y-49819047D01*
X51721428Y-49819047D01*
X51911904Y-49771428D01*
X52007142Y-49723809D01*
X52054761Y-49676190D01*
X52102380Y-49580952D01*
X52102380Y-49485714D01*
X52054761Y-49390476D01*
X52007142Y-49342857D01*
X51911904Y-49295238D01*
X51721428Y-49247619D01*
X51483333Y-49247619D01*
X51292857Y-49295238D01*
X51197619Y-49342857D01*
X51150000Y-49390476D01*
X51102380Y-49485714D01*
X52197619Y-50009523D02*
X52197619Y-50771428D01*
X52054761Y-50961904D02*
X52102380Y-51104761D01*
X52102380Y-51342857D01*
X52054761Y-51438095D01*
X52007142Y-51485714D01*
X51911904Y-51533333D01*
X51816666Y-51533333D01*
X51721428Y-51485714D01*
X51673809Y-51438095D01*
X51626190Y-51342857D01*
X51578571Y-51152380D01*
X51530952Y-51057142D01*
X51483333Y-51009523D01*
X51388095Y-50961904D01*
X51292857Y-50961904D01*
X51197619Y-51009523D01*
X51150000Y-51057142D01*
X51102380Y-51152380D01*
X51102380Y-51390476D01*
X51150000Y-51533333D01*
X52102380Y-51961904D02*
X51435714Y-51961904D01*
X51530952Y-51961904D02*
X51483333Y-52009523D01*
X51435714Y-52104761D01*
X51435714Y-52247619D01*
X51483333Y-52342857D01*
X51578571Y-52390476D01*
X52102380Y-52390476D01*
X51578571Y-52390476D02*
X51483333Y-52438095D01*
X51435714Y-52533333D01*
X51435714Y-52676190D01*
X51483333Y-52771428D01*
X51578571Y-52819047D01*
X52102380Y-52819047D01*
X52102380Y-53723809D02*
X51578571Y-53723809D01*
X51483333Y-53676190D01*
X51435714Y-53580952D01*
X51435714Y-53390476D01*
X51483333Y-53295238D01*
X52054761Y-53723809D02*
X52102380Y-53628571D01*
X52102380Y-53390476D01*
X52054761Y-53295238D01*
X51959523Y-53247619D01*
X51864285Y-53247619D01*
X51769047Y-53295238D01*
X51721428Y-53390476D01*
X51721428Y-53628571D01*
X51673809Y-53723809D01*
X52102380Y-54342857D02*
X52054761Y-54247619D01*
X51959523Y-54200000D01*
X51102380Y-54200000D01*
X52102380Y-54866666D02*
X52054761Y-54771428D01*
X51959523Y-54723809D01*
X51102380Y-54723809D01*
D11*
X55709523Y-50426190D02*
X55709523Y-49926190D01*
X55590476Y-49926190D01*
X55519047Y-49950000D01*
X55471428Y-49997619D01*
X55447619Y-50045238D01*
X55423809Y-50140476D01*
X55423809Y-50211904D01*
X55447619Y-50307142D01*
X55471428Y-50354761D01*
X55519047Y-50402380D01*
X55590476Y-50426190D01*
X55709523Y-50426190D01*
X55257142Y-49926190D02*
X54947619Y-49926190D01*
X55114285Y-50116666D01*
X55042857Y-50116666D01*
X54995238Y-50140476D01*
X54971428Y-50164285D01*
X54947619Y-50211904D01*
X54947619Y-50330952D01*
X54971428Y-50378571D01*
X54995238Y-50402380D01*
X55042857Y-50426190D01*
X55185714Y-50426190D01*
X55233333Y-50402380D01*
X55257142Y-50378571D01*
X54471428Y-50426190D02*
X54757142Y-50426190D01*
X54614285Y-50426190D02*
X54614285Y-49926190D01*
X54661904Y-49997619D01*
X54709523Y-50045238D01*
X54757142Y-50069047D01*
X54304761Y-49926190D02*
X53995238Y-49926190D01*
X54161904Y-50116666D01*
X54090476Y-50116666D01*
X54042857Y-50140476D01*
X54019047Y-50164285D01*
X53995238Y-50211904D01*
X53995238Y-50330952D01*
X54019047Y-50378571D01*
X54042857Y-50402380D01*
X54090476Y-50426190D01*
X54233333Y-50426190D01*
X54280952Y-50402380D01*
X54304761Y-50378571D01*
X53828571Y-49926190D02*
X53519047Y-49926190D01*
X53685714Y-50116666D01*
X53614285Y-50116666D01*
X53566666Y-50140476D01*
X53542857Y-50164285D01*
X53519047Y-50211904D01*
X53519047Y-50330952D01*
X53542857Y-50378571D01*
X53566666Y-50402380D01*
X53614285Y-50426190D01*
X53757142Y-50426190D01*
X53804761Y-50402380D01*
X53828571Y-50378571D01*
X53042857Y-50426190D02*
X53328571Y-50426190D01*
X53185714Y-50426190D02*
X53185714Y-49926190D01*
X53233333Y-49997619D01*
X53280952Y-50045238D01*
X53328571Y-50069047D01*
X52614285Y-50092857D02*
X52614285Y-50426190D01*
X52733333Y-49902380D02*
X52852380Y-50259523D01*
X52542857Y-50259523D01*
D10*
X65728571Y-17011904D02*
X65776190Y-17154761D01*
X65823809Y-17202380D01*
X65919047Y-17250000D01*
X66061904Y-17250000D01*
X66157142Y-17202380D01*
X66204761Y-17154761D01*
X66252380Y-17059523D01*
X66252380Y-16678571D01*
X65252380Y-16678571D01*
X65252380Y-17011904D01*
X65300000Y-17107142D01*
X65347619Y-17154761D01*
X65442857Y-17202380D01*
X65538095Y-17202380D01*
X65633333Y-17154761D01*
X65680952Y-17107142D01*
X65728571Y-17011904D01*
X65728571Y-16678571D01*
X65966666Y-17630952D02*
X65966666Y-18107142D01*
X66252380Y-17535714D02*
X65252380Y-17869047D01*
X66252380Y-18202380D01*
X65252380Y-18392857D02*
X66252380Y-18726190D01*
X65252380Y-19059523D01*
X65252380Y-19297619D02*
X65252380Y-19964285D01*
X66252380Y-19535714D01*
X65252380Y-20535714D02*
X65252380Y-20630952D01*
X65300000Y-20726190D01*
X65347619Y-20773809D01*
X65442857Y-20821428D01*
X65633333Y-20869047D01*
X65871428Y-20869047D01*
X66061904Y-20821428D01*
X66157142Y-20773809D01*
X66204761Y-20726190D01*
X66252380Y-20630952D01*
X66252380Y-20535714D01*
X66204761Y-20440476D01*
X66157142Y-20392857D01*
X66061904Y-20345238D01*
X65871428Y-20297619D01*
X65633333Y-20297619D01*
X65442857Y-20345238D01*
X65347619Y-20392857D01*
X65300000Y-20440476D01*
X65252380Y-20535714D01*
X66347619Y-21059523D02*
X66347619Y-21821428D01*
X66204761Y-22011904D02*
X66252380Y-22154761D01*
X66252380Y-22392857D01*
X66204761Y-22488095D01*
X66157142Y-22535714D01*
X66061904Y-22583333D01*
X65966666Y-22583333D01*
X65871428Y-22535714D01*
X65823809Y-22488095D01*
X65776190Y-22392857D01*
X65728571Y-22202380D01*
X65680952Y-22107142D01*
X65633333Y-22059523D01*
X65538095Y-22011904D01*
X65442857Y-22011904D01*
X65347619Y-22059523D01*
X65300000Y-22107142D01*
X65252380Y-22202380D01*
X65252380Y-22440476D01*
X65300000Y-22583333D01*
X66252380Y-23011904D02*
X65585714Y-23011904D01*
X65680952Y-23011904D02*
X65633333Y-23059523D01*
X65585714Y-23154761D01*
X65585714Y-23297619D01*
X65633333Y-23392857D01*
X65728571Y-23440476D01*
X66252380Y-23440476D01*
X65728571Y-23440476D02*
X65633333Y-23488095D01*
X65585714Y-23583333D01*
X65585714Y-23726190D01*
X65633333Y-23821428D01*
X65728571Y-23869047D01*
X66252380Y-23869047D01*
X66252380Y-24773809D02*
X65728571Y-24773809D01*
X65633333Y-24726190D01*
X65585714Y-24630952D01*
X65585714Y-24440476D01*
X65633333Y-24345238D01*
X66204761Y-24773809D02*
X66252380Y-24678571D01*
X66252380Y-24440476D01*
X66204761Y-24345238D01*
X66109523Y-24297619D01*
X66014285Y-24297619D01*
X65919047Y-24345238D01*
X65871428Y-24440476D01*
X65871428Y-24678571D01*
X65823809Y-24773809D01*
X66252380Y-25392857D02*
X66204761Y-25297619D01*
X66109523Y-25250000D01*
X65252380Y-25250000D01*
X66252380Y-25916666D02*
X66204761Y-25821428D01*
X66109523Y-25773809D01*
X65252380Y-25773809D01*
D11*
X64383333Y-21476190D02*
X64383333Y-20976190D01*
X64264285Y-20976190D01*
X64192857Y-21000000D01*
X64145238Y-21047619D01*
X64121428Y-21095238D01*
X64097619Y-21190476D01*
X64097619Y-21261904D01*
X64121428Y-21357142D01*
X64145238Y-21404761D01*
X64192857Y-21452380D01*
X64264285Y-21476190D01*
X64383333Y-21476190D01*
X63621428Y-21476190D02*
X63907142Y-21476190D01*
X63764285Y-21476190D02*
X63764285Y-20976190D01*
X63811904Y-21047619D01*
X63859523Y-21095238D01*
X63907142Y-21119047D01*
X63430952Y-21023809D02*
X63407142Y-21000000D01*
X63359523Y-20976190D01*
X63240476Y-20976190D01*
X63192857Y-21000000D01*
X63169047Y-21023809D01*
X63145238Y-21071428D01*
X63145238Y-21119047D01*
X63169047Y-21190476D01*
X63454761Y-21476190D01*
X63145238Y-21476190D01*
X62669047Y-21476190D02*
X62954761Y-21476190D01*
X62811904Y-21476190D02*
X62811904Y-20976190D01*
X62859523Y-21047619D01*
X62907142Y-21095238D01*
X62954761Y-21119047D01*
X62502380Y-20976190D02*
X62192857Y-20976190D01*
X62359523Y-21166666D01*
X62288095Y-21166666D01*
X62240476Y-21190476D01*
X62216666Y-21214285D01*
X62192857Y-21261904D01*
X62192857Y-21380952D01*
X62216666Y-21428571D01*
X62240476Y-21452380D01*
X62288095Y-21476190D01*
X62430952Y-21476190D01*
X62478571Y-21452380D01*
X62502380Y-21428571D01*
D16*
X48120000Y-50950000D02*
X45080000Y-50950000D01*
X48120000Y-51800000D02*
X48120000Y-50950000D01*
X45080000Y-52350000D02*
X45080000Y-50950000D01*
X47550000Y-52350000D02*
X45100000Y-52350000D01*
X47550000Y-52350000D02*
X48120000Y-51800000D01*
X38100000Y-55850000D02*
X38100000Y-58300000D01*
X37550000Y-55280000D02*
X36700000Y-55280000D01*
X36700000Y-55280000D02*
X36700000Y-58320000D01*
X38100000Y-58320000D02*
X36700000Y-58320000D01*
X38100000Y-55850000D02*
X37550000Y-55280000D01*
X43800000Y-52650000D02*
X41350000Y-52650000D01*
X41330000Y-52650000D02*
X41330000Y-51250000D01*
X44370000Y-51250000D02*
X41330000Y-51250000D01*
X43800000Y-52650000D02*
X44370000Y-52100000D01*
X44370000Y-52100000D02*
X44370000Y-51250000D01*
X24275000Y-19350000D02*
X23025000Y-19350000D01*
X24275000Y-21350000D02*
X24275000Y-19350000D01*
X23025000Y-21350000D02*
X24275000Y-21350000D01*
X23025000Y-19350000D02*
X23025000Y-21350000D01*
X53770000Y-20550000D02*
X53770000Y-21950000D01*
X51300000Y-20550000D02*
X50730000Y-21100000D01*
X50730000Y-21950000D02*
X53770000Y-21950000D01*
X50730000Y-21100000D02*
X50730000Y-21950000D01*
X51300000Y-20550000D02*
X53750000Y-20550000D01*
X31365165Y-31100951D02*
X29950951Y-32515165D01*
X32249049Y-31984835D02*
X31365165Y-31100951D01*
X30834835Y-33399049D02*
X32249049Y-31984835D01*
X29950951Y-32515165D02*
X30834835Y-33399049D01*
X36300000Y-17000000D02*
X38750000Y-17000000D01*
X35730000Y-18400000D02*
X38770000Y-18400000D01*
X35730000Y-17550000D02*
X35730000Y-18400000D01*
X38770000Y-17000000D02*
X38770000Y-18400000D01*
X36300000Y-17000000D02*
X35730000Y-17550000D01*
X23149049Y-36465165D02*
X21734835Y-35050951D01*
X22265165Y-37349049D02*
X23149049Y-36465165D01*
X20850951Y-35934835D02*
X22265165Y-37349049D01*
X21734835Y-35050951D02*
X20850951Y-35934835D01*
X32700000Y-17000000D02*
X32130000Y-17550000D01*
X32130000Y-18400000D02*
X35170000Y-18400000D01*
X32700000Y-17000000D02*
X35150000Y-17000000D01*
X35170000Y-17000000D02*
X35170000Y-18400000D01*
X32130000Y-17550000D02*
X32130000Y-18400000D01*
X38350000Y-8730000D02*
X38350000Y-11770000D01*
X39750000Y-9300000D02*
X39750000Y-11750000D01*
X39200000Y-8730000D02*
X38350000Y-8730000D01*
X39750000Y-11770000D02*
X38350000Y-11770000D01*
X39750000Y-9300000D02*
X39200000Y-8730000D01*
X38100000Y-52250000D02*
X37550000Y-51680000D01*
X36700000Y-51680000D02*
X36700000Y-54720000D01*
X38100000Y-54720000D02*
X36700000Y-54720000D01*
X37550000Y-51680000D02*
X36700000Y-51680000D01*
X38100000Y-52250000D02*
X38100000Y-54700000D01*
X45530000Y-39150000D02*
X45530000Y-40000000D01*
X46100000Y-38600000D02*
X48550000Y-38600000D01*
X45530000Y-40000000D02*
X48570000Y-40000000D01*
X46100000Y-38600000D02*
X45530000Y-39150000D01*
X48570000Y-38600000D02*
X48570000Y-40000000D01*
X52630000Y-43150000D02*
X52630000Y-44000000D01*
X53200000Y-42600000D02*
X55650000Y-42600000D01*
X55670000Y-42600000D02*
X55670000Y-44000000D01*
X52630000Y-44000000D02*
X55670000Y-44000000D01*
X53200000Y-42600000D02*
X52630000Y-43150000D01*
X14900000Y-13675000D02*
X14900000Y-12425000D01*
X14900000Y-12425000D02*
X12900000Y-12425000D01*
X12900000Y-13675000D02*
X14900000Y-13675000D01*
X12900000Y-12425000D02*
X12900000Y-13675000D01*
X18375000Y-21350000D02*
X19625000Y-21350000D01*
X18375000Y-19350000D02*
X18375000Y-21350000D01*
X19625000Y-19350000D02*
X18375000Y-19350000D01*
X19625000Y-21350000D02*
X19625000Y-19350000D01*
X39750000Y-7770000D02*
X38350000Y-7770000D01*
X39200000Y-4730000D02*
X38350000Y-4730000D01*
X39750000Y-5300000D02*
X39200000Y-4730000D01*
X38350000Y-4730000D02*
X38350000Y-7770000D01*
X39750000Y-5300000D02*
X39750000Y-7750000D01*
X20284835Y-36500951D02*
X19400951Y-37384835D01*
X19400951Y-37384835D02*
X20815165Y-38799049D01*
X20815165Y-38799049D02*
X21699049Y-37915165D01*
X21699049Y-37915165D02*
X20284835Y-36500951D01*
D10*
X28575000Y-45430997D02*
X33524747Y-40481250D01*
X23625253Y-40481250D02*
X28575000Y-45430997D01*
X27867893Y-36238609D02*
X23625253Y-40481250D01*
X33524747Y-40481250D02*
X29282107Y-36238609D01*
X29282107Y-36238609D02*
X27867893Y-36238609D01*
D16*
X32795406Y-33441852D02*
X34209619Y-33441852D01*
X33997487Y-36765254D02*
X31734746Y-34502513D01*
X35765254Y-34997487D02*
X33997487Y-36765254D01*
X33502513Y-32734746D02*
X35765254Y-34997487D01*
X31734746Y-34502513D02*
X33502513Y-32734746D01*
X27225000Y-19350000D02*
X27225000Y-21350000D01*
X28475000Y-21350000D02*
X28475000Y-19350000D01*
X28475000Y-19350000D02*
X27225000Y-19350000D01*
X27225000Y-21350000D02*
X28475000Y-21350000D01*
X15825000Y-15200000D02*
X11575000Y-15200000D01*
X15117893Y-19700000D02*
X15825000Y-19200000D01*
X15825000Y-21200000D02*
X11575000Y-21200000D01*
X15825000Y-21200000D02*
X15825000Y-15200000D01*
X11575000Y-21200000D02*
X11575000Y-15200000D01*
X15825000Y-20200000D02*
X15117893Y-19700000D01*
X25265165Y-50399049D02*
X26149049Y-49515165D01*
X24734835Y-48100951D02*
X23850951Y-48984835D01*
X23850951Y-48984835D02*
X25265165Y-50399049D01*
X26149049Y-49515165D02*
X24734835Y-48100951D01*
X47650000Y-20550000D02*
X50100000Y-20550000D01*
X47080000Y-21100000D02*
X47080000Y-21950000D01*
X47080000Y-21950000D02*
X50120000Y-21950000D01*
X47650000Y-20550000D02*
X47080000Y-21100000D01*
X50120000Y-20550000D02*
X50120000Y-21950000D01*
X42350000Y-33580000D02*
X41500000Y-33580000D01*
X42900000Y-34150000D02*
X42900000Y-36600000D01*
X42900000Y-36620000D02*
X41500000Y-36620000D01*
X41500000Y-33580000D02*
X41500000Y-36620000D01*
X42900000Y-34150000D02*
X42350000Y-33580000D01*
X52070000Y-50350000D02*
X52070000Y-49500000D01*
X51500000Y-50900000D02*
X49050000Y-50900000D01*
X49030000Y-50900000D02*
X49030000Y-49500000D01*
X52070000Y-49500000D02*
X49030000Y-49500000D01*
X51500000Y-50900000D02*
X52070000Y-50350000D01*
X37550000Y-69780000D02*
X36700000Y-69780000D01*
X38100000Y-72820000D02*
X36700000Y-72820000D01*
X38100000Y-70350000D02*
X38100000Y-72800000D01*
X36700000Y-69780000D02*
X36700000Y-72820000D01*
X38100000Y-70350000D02*
X37550000Y-69780000D01*
X42900000Y-32970000D02*
X41500000Y-32970000D01*
X41500000Y-29930000D02*
X41500000Y-32970000D01*
X42900000Y-30500000D02*
X42350000Y-29930000D01*
X42900000Y-30500000D02*
X42900000Y-32950000D01*
X42350000Y-29930000D02*
X41500000Y-29930000D01*
X25125000Y-19350000D02*
X25125000Y-21350000D01*
X26375000Y-21350000D02*
X26375000Y-19350000D01*
X25125000Y-21350000D02*
X26375000Y-21350000D01*
X26375000Y-19350000D02*
X25125000Y-19350000D01*
X57420000Y-5000000D02*
X57420000Y-6400000D01*
X54380000Y-6400000D02*
X57420000Y-6400000D01*
X54380000Y-5550000D02*
X54380000Y-6400000D01*
X54950000Y-5000000D02*
X54380000Y-5550000D01*
X54950000Y-5000000D02*
X57400000Y-5000000D01*
X38200000Y-21900000D02*
X35750000Y-21900000D01*
X38770000Y-20500000D02*
X35730000Y-20500000D01*
X35730000Y-21900000D02*
X35730000Y-20500000D01*
X38200000Y-21900000D02*
X38770000Y-21350000D01*
X38770000Y-21350000D02*
X38770000Y-20500000D01*
X20675000Y-11950000D02*
X20675000Y-13950000D01*
X21925000Y-11950000D02*
X20675000Y-11950000D01*
X21925000Y-13950000D02*
X21925000Y-11950000D01*
X20675000Y-13950000D02*
X21925000Y-13950000D01*
X17175480Y-10766500D02*
X17175480Y-13666500D01*
X18775480Y-11166500D02*
X18375480Y-10766500D01*
X17175480Y-13666500D02*
X18775480Y-13666500D01*
X18775480Y-13666500D02*
X18775480Y-11166500D01*
X18375480Y-10766500D02*
X17175480Y-10766500D01*
X20475000Y-21350000D02*
X21725000Y-21350000D01*
X21725000Y-21350000D02*
X21725000Y-19350000D01*
X21725000Y-19350000D02*
X20475000Y-19350000D01*
X20475000Y-19350000D02*
X20475000Y-21350000D01*
X23450000Y-15050000D02*
X25050000Y-15050000D01*
X25050000Y-15050000D02*
X25050000Y-11850000D01*
X23450000Y-11850000D02*
X23450000Y-15050000D01*
X25050000Y-11850000D02*
X23450000Y-11850000D01*
X49030000Y-44000000D02*
X52070000Y-44000000D01*
X52070000Y-42600000D02*
X52070000Y-44000000D01*
X49600000Y-42600000D02*
X52050000Y-42600000D01*
X49030000Y-43150000D02*
X49030000Y-44000000D01*
X49600000Y-42600000D02*
X49030000Y-43150000D01*
X38100000Y-66700000D02*
X37550000Y-66130000D01*
X38100000Y-69170000D02*
X36700000Y-69170000D01*
X38100000Y-66700000D02*
X38100000Y-69150000D01*
X37550000Y-66130000D02*
X36700000Y-66130000D01*
X36700000Y-66130000D02*
X36700000Y-69170000D01*
X38100000Y-74000000D02*
X37550000Y-73430000D01*
X36700000Y-73430000D02*
X36700000Y-76470000D01*
X38100000Y-74000000D02*
X38100000Y-76450000D01*
X38100000Y-76470000D02*
X36700000Y-76470000D01*
X37550000Y-73430000D02*
X36700000Y-73430000D01*
X43430000Y-21100000D02*
X43430000Y-21950000D01*
X44000000Y-20550000D02*
X43430000Y-21100000D01*
X46470000Y-20550000D02*
X46470000Y-21950000D01*
X43430000Y-21950000D02*
X46470000Y-21950000D01*
X44000000Y-20550000D02*
X46450000Y-20550000D01*
X37550000Y-62530000D02*
X36700000Y-62530000D01*
X38100000Y-63100000D02*
X37550000Y-62530000D01*
X38100000Y-65570000D02*
X36700000Y-65570000D01*
X36700000Y-62530000D02*
X36700000Y-65570000D01*
X38100000Y-63100000D02*
X38100000Y-65550000D01*
X38350000Y-1080000D02*
X38350000Y-4120000D01*
X39750000Y-4120000D02*
X38350000Y-4120000D01*
X39750000Y-1650000D02*
X39200000Y-1080000D01*
X39200000Y-1080000D02*
X38350000Y-1080000D01*
X39750000Y-1650000D02*
X39750000Y-4100000D01*
X38100000Y-59450000D02*
X38100000Y-61900000D01*
X37550000Y-58880000D02*
X36700000Y-58880000D01*
X38100000Y-61920000D02*
X36700000Y-61920000D01*
X36700000Y-58880000D02*
X36700000Y-61920000D01*
X38100000Y-59450000D02*
X37550000Y-58880000D01*
X39630000Y-20150000D02*
X39630000Y-21000000D01*
X42670000Y-19600000D02*
X42670000Y-21000000D01*
X40200000Y-19600000D02*
X39630000Y-20150000D01*
X40200000Y-19600000D02*
X42650000Y-19600000D01*
X39630000Y-21000000D02*
X42670000Y-21000000D01*
X14095000Y-6685000D02*
X14095000Y615000D01*
X14095000Y615000D02*
X23035000Y615000D01*
X23035000Y-6685000D02*
X23035000Y615000D01*
X14095000Y-6685000D02*
X23035000Y-6685000D01*
X45180000Y-30050000D02*
X45180000Y-28650000D01*
X48220000Y-29500000D02*
X48220000Y-28650000D01*
X48220000Y-28650000D02*
X45180000Y-28650000D01*
X47650000Y-30050000D02*
X45200000Y-30050000D01*
X47650000Y-30050000D02*
X48220000Y-29500000D01*
X34700000Y-4730000D02*
X36100000Y-4730000D01*
X34700000Y-7200000D02*
X34700000Y-4750000D01*
X35250000Y-7770000D02*
X36100000Y-7770000D01*
X36100000Y-7770000D02*
X36100000Y-4730000D01*
X34700000Y-7200000D02*
X35250000Y-7770000D01*
X16907107Y-32928680D02*
X15492893Y-32928680D01*
X16482843Y-37737006D02*
X15422183Y-38797666D01*
X19594113Y-33918629D02*
X18887006Y-34625736D01*
X12805887Y-36181371D02*
X13512994Y-35474264D01*
X16624264Y-31655887D02*
X16977817Y-32009441D01*
X16977817Y-31302334D02*
X17331371Y-31655887D01*
X15492893Y-37171320D02*
X16907107Y-37171320D01*
X15210051Y-32362994D02*
X17189949Y-32362994D01*
X18887006Y-35332843D02*
X19947666Y-34272183D01*
X19594113Y-34625736D02*
X19240559Y-34272183D01*
X14078680Y-35757107D02*
X15492893Y-37171320D01*
X19947666Y-34272183D02*
X19594113Y-33918629D01*
X15422183Y-38797666D02*
X15068629Y-38444113D01*
X17331371Y-31655887D02*
X16624264Y-32362994D01*
X12452334Y-35827817D02*
X12805887Y-36181371D01*
X17189949Y-32362994D02*
X18887006Y-34060051D01*
X16907107Y-37171320D02*
X18321320Y-35757107D01*
X12805887Y-35474264D02*
X13159441Y-35827817D01*
X13512994Y-36039949D02*
X13512994Y-34060051D01*
X18321320Y-34342893D02*
X16907107Y-32928680D01*
X18887006Y-36039949D02*
X17189949Y-37737006D01*
X15492893Y-32928680D02*
X14078680Y-34342893D01*
X18887006Y-34060051D02*
X18887006Y-36039949D01*
X15210051Y-37737006D02*
X13512994Y-36039949D01*
X15068629Y-38444113D02*
X15775736Y-37737006D01*
X13512994Y-34767157D02*
X12452334Y-35827817D01*
X13512994Y-34060051D02*
X15210051Y-32362994D01*
X17189949Y-37737006D02*
X15210051Y-37737006D01*
X14078680Y-34342893D02*
X14078680Y-35757107D01*
X15775736Y-38444113D02*
X15422183Y-38090559D01*
X15917157Y-32362994D02*
X16977817Y-31302334D01*
X18321320Y-35757107D02*
X18321320Y-34342893D01*
X17200000Y-35050000D02*
G75*
G03*
X17200000Y-35050000I-1000000J0D01*
G01*
X54950000Y-20550000D02*
X57400000Y-20550000D01*
X54950000Y-20550000D02*
X54380000Y-21100000D01*
X54380000Y-21100000D02*
X54380000Y-21950000D01*
X57420000Y-20550000D02*
X57420000Y-21950000D01*
X54380000Y-21950000D02*
X57420000Y-21950000D01*
X35884835Y-38299049D02*
X37299049Y-36884835D01*
X36415165Y-36000951D02*
X35000951Y-37415165D01*
X35000951Y-37415165D02*
X35884835Y-38299049D01*
X37299049Y-36884835D02*
X36415165Y-36000951D01*
X41780000Y-39150000D02*
X41780000Y-40000000D01*
X41780000Y-40000000D02*
X44820000Y-40000000D01*
X42350000Y-38600000D02*
X41780000Y-39150000D01*
X42350000Y-38600000D02*
X44800000Y-38600000D01*
X44820000Y-38600000D02*
X44820000Y-40000000D01*
X52630000Y-50900000D02*
X52630000Y-49500000D01*
X55100000Y-50900000D02*
X52650000Y-50900000D01*
X55670000Y-49500000D02*
X52630000Y-49500000D01*
X55100000Y-50900000D02*
X55670000Y-50350000D01*
X55670000Y-50350000D02*
X55670000Y-49500000D01*
X62350000Y-20550000D02*
X64800000Y-20550000D01*
X61780000Y-21100000D02*
X61780000Y-21950000D01*
X61780000Y-21950000D02*
X64820000Y-21950000D01*
X64820000Y-20550000D02*
X64820000Y-21950000D01*
X62350000Y-20550000D02*
X61780000Y-21100000D01*
M02*
